<svg width="64" height="60" viewBox="0 0 64 60" fill="none" xmlns="http://www.w3.org/2000/svg">
    <path fill-rule="evenodd" clip-rule="evenodd"
        d="M0 24H20V12H16V20H4V0H32V28H28V4H8V16H12V8H24V28H0V24ZM12 32H32V36H16V60H0V56H12V32ZM28 44H24V56H32V60H20V40H32V52H28V44ZM0 32H8V52H0V48H4V36H0V32Z"
        fill="white" />
    <path fill-rule="evenodd" clip-rule="evenodd"
        d="M32 24H52V12H48V20H36V0H64V28H60V4H40V16H44V8H56V28H32V24ZM44 32H64V36H48V60H32V56H44V32ZM60 44H56V56H64V60H52V40H64V52H60V44ZM32 32H40V52H32V48H36V36H32V32Z"
        fill="white" />
</svg>