<svg width="72" height="62" viewBox="0 0 72 62" fill="none" xmlns="http://www.w3.org/2000/svg">
    <path fill-rule="evenodd" clip-rule="evenodd" d="M0 0H24V25H0V0ZM0.571429 0.568182H23.4286V11.9318H0.571429V0.568182ZM0 13.0682H11.4286V24.4318H0V13.0682ZM12.5714 13.0682H24V24.4318H12.5714V13.0682Z" fill="white"/>
    <path fill-rule="evenodd" clip-rule="evenodd" d="M0 25H24V49H0V25ZM0.571429 25.5455H23.4286V36.4545H0.571429V25.5455ZM0 37.5455H11.4286V48.4545H0V37.5455ZM12.5714 37.5455H24V48.4545H12.5714V37.5455Z" fill="white"/>
    <path d="M24 62H0V49H24V62ZM0.571289 49.5684V60.9316H23.4287V49.5684H0.571289Z" fill="white"/>
    <path d="M48 62H24V49H48V62ZM24.5713 49.5684V60.9316H47.4287V49.5684H24.5713Z" fill="white"/>
    <path d="M72 62H48V49H72V62ZM48.5713 49.5684V60.9316H71.4287V49.5684H48.5713Z" fill="white"/>
    <path fill-rule="evenodd" clip-rule="evenodd" d="M24 0H48V25H24V0ZM24.5714 0.568182H47.4286V11.9318H24.5714V0.568182ZM24 13.0682H35.4286V24.4318H24V13.0682ZM36.5714 13.0682H48V24.4318H36.5714V13.0682Z" fill="white"/>
    <path fill-rule="evenodd" clip-rule="evenodd" d="M24 25H48V49H24V25ZM24.5714 25.5455H47.4286V36.4545H24.5714V25.5455ZM24 37.5455H35.4286V48.4545H24V37.5455ZM36.5714 37.5455H48V48.4545H36.5714V37.5455Z" fill="white"/>
    <path fill-rule="evenodd" clip-rule="evenodd" d="M48 0H72V25H48V0ZM48.5714 0.568182H71.4286V11.9318H48.5714V0.568182ZM48 13.0682H59.4286V24.4318H48V13.0682ZM60.5714 13.0682H72V24.4318H60.5714V13.0682Z" fill="white"/>
    <path fill-rule="evenodd" clip-rule="evenodd" d="M48 25H72V49H48V25ZM48.5714 25.5455H71.4286V36.4545H48.5714V25.5455ZM48 37.5455H59.4286V48.4545H48V37.5455ZM60.5714 37.5455H72V48.4545H60.5714V37.5455Z" fill="white"/>
    </svg>
    