<svg xmlns="http://www.w3.org/2000/svg" width="50" height="50"><path style="stroke:none;fill-rule:evenodd;fill:#fff;fill-opacity:1" d="M5.5 9a3.5 3.5 0 1 0 0-7 3.5 3.5 0 1 0 0 7Zm24 12.5a3.5 3.5 0 1 0 0-7 3.5 3.5 0 1 0 0 7ZM8 18a1.5 1.5 0 1 0 0-3 1.5 1.5 0 0 0 0 3Zm31.5 15.5a1.5 1.5 0 1 0 0-3 1.5 1.5 0 0 0 0 3ZM17 45a1.5 1.5 0 1 0 0-3 1.5 1.5 0 0 0 0 3ZM45 7a1.5 1.5 0 1 0 0-3 1.5 1.5 0 0 0 0 3ZM6 43a1.999 1.999 0 1 0 0-4 1.999 1.999 0 1 0 0 4Zm14-32.5a1.999 1.999 0 1 0 0-4 1.999 1.999 0 1 0 0 4ZM31.5 5C32.879 5 34 3.879 34 2.5S32.879 0 31.5 0A2.502 2.502 0 0 0 29 2.5C29 3.879 30.121 5 31.5 5Zm-3 30a1.999 1.999 0 1 0 0-4 1.999 1.999 0 1 0 0 4ZM43 46c1.379 0 2.5-1.121 2.5-2.5S44.379 41 43 41a2.502 2.502 0 0 0-2.5 2.5c0 1.379 1.121 2.5 2.5 2.5ZM16 31.5c1.379 0 2.5-1.121 2.5-2.5s-1.121-2.5-2.5-2.5a2.502 2.502 0 0 0-2.5 2.5c0 1.379 1.121 2.5 2.5 2.5ZM44.5 25c1.379 0 2.5-1.121 2.5-2.5S45.879 20 44.5 20a2.502 2.502 0 0 0-2.5 2.5c0 1.379 1.121 2.5 2.5 2.5ZM40 14.5c.55 0 1-.45 1-1s-.45-1-1-1-1 .45-1 1 .45 1 1 1Zm-10 31c.55 0 1-.45 1-1s-.45-1-1-1-1 .45-1 1 .45 1 1 1Zm-12.5-25c.55 0 1-.45 1-1s-.45-1-1-1-1 .45-1 1 .45 1 1 1ZM6 30c.55 0 1-.45 1-1s-.45-1-1-1-1 .45-1 1 .45 1 1 1Zm0 0"/></svg>