<svg width="100" height="96" viewBox="0 0 100 96" fill="none" xmlns="http://www.w3.org/2000/svg">
    <path fill-rule="evenodd" clip-rule="evenodd" d="M9.8 12L0 2.2V0.8L10 10.8L20 0.8V2.2L10.2 12H9.8ZM5.8 12L0 6.2V4.8L7.2 12H5.8ZM14.2 12L20 6.2V4.8L12.8 12H14.2ZM9.8 0L10 0.2L10.2 0H9.8ZM5.8 0L10 4.2L14.2 0H12.8L10 2.8L7.2 0H5.8Z" fill="white"/>
    <path fill-rule="evenodd" clip-rule="evenodd" d="M9.8 60L0 50.2V48.8L10 58.8L20 48.8V50.2L10.2 60H9.8ZM5.8 60L0 54.2V52.8L7.2 60H5.8ZM14.2 60L20 54.2V52.8L12.8 60H14.2ZM9.8 48L10 48.2L10.2 48H9.8ZM5.8 48L10 52.2L14.2 48H12.8L10 50.8L7.2 48H5.8Z" fill="white"/>
    <path fill-rule="evenodd" clip-rule="evenodd" d="M9.8 36L0 26.2V24.8L10 34.8L20 24.8V26.2L10.2 36H9.8ZM5.8 36L0 30.2V28.8L7.2 36H5.8ZM14.2 36L20 30.2V28.8L12.8 36H14.2ZM9.8 24L10 24.2L10.2 24H9.8ZM5.8 24L10 28.2L14.2 24H12.8L10 26.8L7.2 24H5.8Z" fill="white"/>
    <path fill-rule="evenodd" clip-rule="evenodd" d="M9.8 84L0 74.2V72.8L10 82.8L20 72.8V74.2L10.2 84H9.8ZM5.8 84L0 78.2V76.8L7.2 84H5.8ZM14.2 84L20 78.2V76.8L12.8 84H14.2ZM9.8 72L10 72.2L10.2 72H9.8ZM5.8 72L10 76.2L14.2 72H12.8L10 74.8L7.2 72H5.8Z" fill="white"/>
    <path fill-rule="evenodd" clip-rule="evenodd" d="M9.8 24L0 14.2V12.8L10 22.8L20 12.8V14.2L10.2 24H9.8ZM5.8 24L0 18.2V16.8L7.2 24H5.8ZM14.2 24L20 18.2V16.8L12.8 24H14.2ZM9.8 12L10 12.2L10.2 12H9.8ZM5.8 12L10 16.2L14.2 12H12.8L10 14.8L7.2 12H5.8Z" fill="white"/>
    <path fill-rule="evenodd" clip-rule="evenodd" d="M9.8 72L0 62.2V60.8L10 70.8L20 60.8V62.2L10.2 72H9.8ZM5.8 72L0 66.2V64.8L7.2 72H5.8ZM14.2 72L20 66.2V64.8L12.8 72H14.2ZM9.8 60L10 60.2L10.2 60H9.8ZM5.8 60L10 64.2L14.2 60H12.8L10 62.8L7.2 60H5.8Z" fill="white"/>
    <path fill-rule="evenodd" clip-rule="evenodd" d="M9.8 48L0 38.2V36.8L10 46.8L20 36.8V38.2L10.2 48H9.8ZM5.8 48L0 42.2V40.8L7.2 48H5.8ZM14.2 48L20 42.2V40.8L12.8 48H14.2ZM9.8 36L10 36.2L10.2 36H9.8ZM5.8 36L10 40.2L14.2 36H12.8L10 38.8L7.2 36H5.8Z" fill="white"/>
    <path fill-rule="evenodd" clip-rule="evenodd" d="M9.8 96L0 86.2V84.8L10 94.8L20 84.8V86.2L10.2 96H9.8ZM5.8 96L0 90.2V88.8L7.2 96H5.8ZM14.2 96L20 90.2V88.8L12.8 96H14.2ZM9.8 84L10 84.2L10.2 84H9.8ZM5.8 84L10 88.2L14.2 84H12.8L10 86.8L7.2 84H5.8Z" fill="white"/>
    <path fill-rule="evenodd" clip-rule="evenodd" d="M29.8 12L20 2.2V0.8L30 10.8L40 0.8V2.2L30.2 12H29.8ZM25.8 12L20 6.2V4.8L27.2 12H25.8ZM34.2 12L40 6.2V4.8L32.8 12H34.2ZM29.8 0L30 0.2L30.2 0H29.8ZM25.8 0L30 4.2L34.2 0H32.8L30 2.8L27.2 0H25.8Z" fill="white"/>
    <path fill-rule="evenodd" clip-rule="evenodd" d="M29.8 60L20 50.2V48.8L30 58.8L40 48.8V50.2L30.2 60H29.8ZM25.8 60L20 54.2V52.8L27.2 60H25.8ZM34.2 60L40 54.2V52.8L32.8 60H34.2ZM29.8 48L30 48.2L30.2 48H29.8ZM25.8 48L30 52.2L34.2 48H32.8L30 50.8L27.2 48H25.8Z" fill="white"/>
    <path fill-rule="evenodd" clip-rule="evenodd" d="M29.8 36L20 26.2V24.8L30 34.8L40 24.8V26.2L30.2 36H29.8ZM25.8 36L20 30.2V28.8L27.2 36H25.8ZM34.2 36L40 30.2V28.8L32.8 36H34.2ZM29.8 24L30 24.2L30.2 24H29.8ZM25.8 24L30 28.2L34.2 24H32.8L30 26.8L27.2 24H25.8Z" fill="white"/>
    <path fill-rule="evenodd" clip-rule="evenodd" d="M29.8 84L20 74.2V72.8L30 82.8L40 72.8V74.2L30.2 84H29.8ZM25.8 84L20 78.2V76.8L27.2 84H25.8ZM34.2 84L40 78.2V76.8L32.8 84H34.2ZM29.8 72L30 72.2L30.2 72H29.8ZM25.8 72L30 76.2L34.2 72H32.8L30 74.8L27.2 72H25.8Z" fill="white"/>
    <path fill-rule="evenodd" clip-rule="evenodd" d="M29.8 24L20 14.2V12.8L30 22.8L40 12.8V14.2L30.2 24H29.8ZM25.8 24L20 18.2V16.8L27.2 24H25.8ZM34.2 24L40 18.2V16.8L32.8 24H34.2ZM29.8 12L30 12.2L30.2 12H29.8ZM25.8 12L30 16.2L34.2 12H32.8L30 14.8L27.2 12H25.8Z" fill="white"/>
    <path fill-rule="evenodd" clip-rule="evenodd" d="M29.8 72L20 62.2V60.8L30 70.8L40 60.8V62.2L30.2 72H29.8ZM25.8 72L20 66.2V64.8L27.2 72H25.8ZM34.2 72L40 66.2V64.8L32.8 72H34.2ZM29.8 60L30 60.2L30.2 60H29.8ZM25.8 60L30 64.2L34.2 60H32.8L30 62.8L27.2 60H25.8Z" fill="white"/>
    <path fill-rule="evenodd" clip-rule="evenodd" d="M29.8 48L20 38.2V36.8L30 46.8L40 36.8V38.2L30.2 48H29.8ZM25.8 48L20 42.2V40.8L27.2 48H25.8ZM34.2 48L40 42.2V40.8L32.8 48H34.2ZM29.8 36L30 36.2L30.2 36H29.8ZM25.8 36L30 40.2L34.2 36H32.8L30 38.8L27.2 36H25.8Z" fill="white"/>
    <path fill-rule="evenodd" clip-rule="evenodd" d="M29.8 96L20 86.2V84.8L30 94.8L40 84.8V86.2L30.2 96H29.8ZM25.8 96L20 90.2V88.8L27.2 96H25.8ZM34.2 96L40 90.2V88.8L32.8 96H34.2ZM29.8 84L30 84.2L30.2 84H29.8ZM25.8 84L30 88.2L34.2 84H32.8L30 86.8L27.2 84H25.8Z" fill="white"/>
    <path fill-rule="evenodd" clip-rule="evenodd" d="M49.8 12L40 2.2V0.8L50 10.8L60 0.8V2.2L50.2 12H49.8ZM45.8 12L40 6.2V4.8L47.2 12H45.8ZM54.2 12L60 6.2V4.8L52.8 12H54.2ZM49.8 0L50 0.2L50.2 0H49.8ZM45.8 0L50 4.2L54.2 0H52.8L50 2.8L47.2 0H45.8Z" fill="white"/>
    <path fill-rule="evenodd" clip-rule="evenodd" d="M49.8 60L40 50.2V48.8L50 58.8L60 48.8V50.2L50.2 60H49.8ZM45.8 60L40 54.2V52.8L47.2 60H45.8ZM54.2 60L60 54.2V52.8L52.8 60H54.2ZM49.8 48L50 48.2L50.2 48H49.8ZM45.8 48L50 52.2L54.2 48H52.8L50 50.8L47.2 48H45.8Z" fill="white"/>
    <path fill-rule="evenodd" clip-rule="evenodd" d="M49.8 36L40 26.2V24.8L50 34.8L60 24.8V26.2L50.2 36H49.8ZM45.8 36L40 30.2V28.8L47.2 36H45.8ZM54.2 36L60 30.2V28.8L52.8 36H54.2ZM49.8 24L50 24.2L50.2 24H49.8ZM45.8 24L50 28.2L54.2 24H52.8L50 26.8L47.2 24H45.8Z" fill="white"/>
    <path fill-rule="evenodd" clip-rule="evenodd" d="M49.8 84L40 74.2V72.8L50 82.8L60 72.8V74.2L50.2 84H49.8ZM45.8 84L40 78.2V76.8L47.2 84H45.8ZM54.2 84L60 78.2V76.8L52.8 84H54.2ZM49.8 72L50 72.2L50.2 72H49.8ZM45.8 72L50 76.2L54.2 72H52.8L50 74.8L47.2 72H45.8Z" fill="white"/>
    <path fill-rule="evenodd" clip-rule="evenodd" d="M49.8 24L40 14.2V12.8L50 22.8L60 12.8V14.2L50.2 24H49.8ZM45.8 24L40 18.2V16.8L47.2 24H45.8ZM54.2 24L60 18.2V16.8L52.8 24H54.2ZM49.8 12L50 12.2L50.2 12H49.8ZM45.8 12L50 16.2L54.2 12H52.8L50 14.8L47.2 12H45.8Z" fill="white"/>
    <path fill-rule="evenodd" clip-rule="evenodd" d="M49.8 72L40 62.2V60.8L50 70.8L60 60.8V62.2L50.2 72H49.8ZM45.8 72L40 66.2V64.8L47.2 72H45.8ZM54.2 72L60 66.2V64.8L52.8 72H54.2ZM49.8 60L50 60.2L50.2 60H49.8ZM45.8 60L50 64.2L54.2 60H52.8L50 62.8L47.2 60H45.8Z" fill="white"/>
    <path fill-rule="evenodd" clip-rule="evenodd" d="M49.8 48L40 38.2V36.8L50 46.8L60 36.8V38.2L50.2 48H49.8ZM45.8 48L40 42.2V40.8L47.2 48H45.8ZM54.2 48L60 42.2V40.8L52.8 48H54.2ZM49.8 36L50 36.2L50.2 36H49.8ZM45.8 36L50 40.2L54.2 36H52.8L50 38.8L47.2 36H45.8Z" fill="white"/>
    <path fill-rule="evenodd" clip-rule="evenodd" d="M49.8 96L40 86.2V84.8L50 94.8L60 84.8V86.2L50.2 96H49.8ZM45.8 96L40 90.2V88.8L47.2 96H45.8ZM54.2 96L60 90.2V88.8L52.8 96H54.2ZM49.8 84L50 84.2L50.2 84H49.8ZM45.8 84L50 88.2L54.2 84H52.8L50 86.8L47.2 84H45.8Z" fill="white"/>
    <path fill-rule="evenodd" clip-rule="evenodd" d="M69.8 12L60 2.2V0.8L70 10.8L80 0.8V2.2L70.2 12H69.8ZM65.8 12L60 6.2V4.8L67.2 12H65.8ZM74.2 12L80 6.2V4.8L72.8 12H74.2ZM69.8 0L70 0.2L70.2 0H69.8ZM65.8 0L70 4.2L74.2 0H72.8L70 2.8L67.2 0H65.8Z" fill="white"/>
    <path fill-rule="evenodd" clip-rule="evenodd" d="M69.8 60L60 50.2V48.8L70 58.8L80 48.8V50.2L70.2 60H69.8ZM65.8 60L60 54.2V52.8L67.2 60H65.8ZM74.2 60L80 54.2V52.8L72.8 60H74.2ZM69.8 48L70 48.2L70.2 48H69.8ZM65.8 48L70 52.2L74.2 48H72.8L70 50.8L67.2 48H65.8Z" fill="white"/>
    <path fill-rule="evenodd" clip-rule="evenodd" d="M69.8 36L60 26.2V24.8L70 34.8L80 24.8V26.2L70.2 36H69.8ZM65.8 36L60 30.2V28.8L67.2 36H65.8ZM74.2 36L80 30.2V28.8L72.8 36H74.2ZM69.8 24L70 24.2L70.2 24H69.8ZM65.8 24L70 28.2L74.2 24H72.8L70 26.8L67.2 24H65.8Z" fill="white"/>
    <path fill-rule="evenodd" clip-rule="evenodd" d="M69.8 84L60 74.2V72.8L70 82.8L80 72.8V74.2L70.2 84H69.8ZM65.8 84L60 78.2V76.8L67.2 84H65.8ZM74.2 84L80 78.2V76.8L72.8 84H74.2ZM69.8 72L70 72.2L70.2 72H69.8ZM65.8 72L70 76.2L74.2 72H72.8L70 74.8L67.2 72H65.8Z" fill="white"/>
    <path fill-rule="evenodd" clip-rule="evenodd" d="M69.8 24L60 14.2V12.8L70 22.8L80 12.8V14.2L70.2 24H69.8ZM65.8 24L60 18.2V16.8L67.2 24H65.8ZM74.2 24L80 18.2V16.8L72.8 24H74.2ZM69.8 12L70 12.2L70.2 12H69.8ZM65.8 12L70 16.2L74.2 12H72.8L70 14.8L67.2 12H65.8Z" fill="white"/>
    <path fill-rule="evenodd" clip-rule="evenodd" d="M69.8 72L60 62.2V60.8L70 70.8L80 60.8V62.2L70.2 72H69.8ZM65.8 72L60 66.2V64.8L67.2 72H65.8ZM74.2 72L80 66.2V64.8L72.8 72H74.2ZM69.8 60L70 60.2L70.2 60H69.8ZM65.8 60L70 64.2L74.2 60H72.8L70 62.8L67.2 60H65.8Z" fill="white"/>
    <path fill-rule="evenodd" clip-rule="evenodd" d="M69.8 48L60 38.2V36.8L70 46.8L80 36.8V38.2L70.2 48H69.8ZM65.8 48L60 42.2V40.8L67.2 48H65.8ZM74.2 48L80 42.2V40.8L72.8 48H74.2ZM69.8 36L70 36.2L70.2 36H69.8ZM65.8 36L70 40.2L74.2 36H72.8L70 38.8L67.2 36H65.8Z" fill="white"/>
    <path fill-rule="evenodd" clip-rule="evenodd" d="M69.8 96L60 86.2V84.8L70 94.8L80 84.8V86.2L70.2 96H69.8ZM65.8 96L60 90.2V88.8L67.2 96H65.8ZM74.2 96L80 90.2V88.8L72.8 96H74.2ZM69.8 84L70 84.2L70.2 84H69.8ZM65.8 84L70 88.2L74.2 84H72.8L70 86.8L67.2 84H65.8Z" fill="white"/>
    <path fill-rule="evenodd" clip-rule="evenodd" d="M89.8 12L80 2.2V0.8L90 10.8L100 0.8V2.2L90.2 12H89.8ZM85.8 12L80 6.2V4.8L87.2 12H85.8ZM94.2 12L100 6.2V4.8L92.8 12H94.2ZM89.8 0L90 0.2L90.2 0H89.8ZM85.8 0L90 4.2L94.2 0H92.8L90 2.8L87.2 0H85.8Z" fill="white"/>
    <path fill-rule="evenodd" clip-rule="evenodd" d="M89.8 60L80 50.2V48.8L90 58.8L100 48.8V50.2L90.2 60H89.8ZM85.8 60L80 54.2V52.8L87.2 60H85.8ZM94.2 60L100 54.2V52.8L92.8 60H94.2ZM89.8 48L90 48.2L90.2 48H89.8ZM85.8 48L90 52.2L94.2 48H92.8L90 50.8L87.2 48H85.8Z" fill="white"/>
    <path fill-rule="evenodd" clip-rule="evenodd" d="M89.8 36L80 26.2V24.8L90 34.8L100 24.8V26.2L90.2 36H89.8ZM85.8 36L80 30.2V28.8L87.2 36H85.8ZM94.2 36L100 30.2V28.8L92.8 36H94.2ZM89.8 24L90 24.2L90.2 24H89.8ZM85.8 24L90 28.2L94.2 24H92.8L90 26.8L87.2 24H85.8Z" fill="white"/>
    <path fill-rule="evenodd" clip-rule="evenodd" d="M89.8 84L80 74.2V72.8L90 82.8L100 72.8V74.2L90.2 84H89.8ZM85.8 84L80 78.2V76.8L87.2 84H85.8ZM94.2 84L100 78.2V76.8L92.8 84H94.2ZM89.8 72L90 72.2L90.2 72H89.8ZM85.8 72L90 76.2L94.2 72H92.8L90 74.8L87.2 72H85.8Z" fill="white"/>
    <path fill-rule="evenodd" clip-rule="evenodd" d="M89.8 24L80 14.2V12.8L90 22.8L100 12.8V14.2L90.2 24H89.8ZM85.8 24L80 18.2V16.8L87.2 24H85.8ZM94.2 24L100 18.2V16.8L92.8 24H94.2ZM89.8 12L90 12.2L90.2 12H89.8ZM85.8 12L90 16.2L94.2 12H92.8L90 14.8L87.2 12H85.8Z" fill="white"/>
    <path fill-rule="evenodd" clip-rule="evenodd" d="M89.8 72L80 62.2V60.8L90 70.8L100 60.8V62.2L90.2 72H89.8ZM85.8 72L80 66.2V64.8L87.2 72H85.8ZM94.2 72L100 66.2V64.8L92.8 72H94.2ZM89.8 60L90 60.2L90.2 60H89.8ZM85.8 60L90 64.2L94.2 60H92.8L90 62.8L87.2 60H85.8Z" fill="white"/>
    <path fill-rule="evenodd" clip-rule="evenodd" d="M89.8 48L80 38.2V36.8L90 46.8L100 36.8V38.2L90.2 48H89.8ZM85.8 48L80 42.2V40.8L87.2 48H85.8ZM94.2 48L100 42.2V40.8L92.8 48H94.2ZM89.8 36L90 36.2L90.2 36H89.8ZM85.8 36L90 40.2L94.2 36H92.8L90 38.8L87.2 36H85.8Z" fill="white"/>
    <path fill-rule="evenodd" clip-rule="evenodd" d="M89.8 96L80 86.2V84.8L90 94.8L100 84.8V86.2L90.2 96H89.8ZM85.8 96L80 90.2V88.8L87.2 96H85.8ZM94.2 96L100 90.2V88.8L92.8 96H94.2ZM89.8 84L90 84.2L90.2 84H89.8ZM85.8 84L90 88.2L94.2 84H92.8L90 86.8L87.2 84H85.8Z" fill="white"/>
    </svg>
    