<svg xmlns="http://www.w3.org/2000/svg" width="50" height="50" fill="none"><path fill="#fff" fill-rule="evenodd" d="M1.463 41.866a1.431 1.431 0 0 1 1.805 1.083h5.585l7.035 7.04V50h-.791l-6.48-6.481h-5.35a1.434 1.434 0 0 1-1.543 1.142 1.43 1.43 0 0 1-.261-2.795Zm.398.511a.859.859 0 1 0 .004 1.717.859.859 0 0 0-.004-1.717Z" clip-rule="evenodd"/><path fill="#fff" fill-rule="evenodd" d="M1.723 37.235a1.43 1.43 0 0 1 1.545 1.138h7.87l9.33 9.326V50h-.576v-2.071l-8.986-8.986H3.268a1.43 1.43 0 1 1-1.545-1.708Zm.138.555a.862.862 0 1 0 .006 1.725.862.862 0 0 0-.006-1.725Z" clip-rule="evenodd"/><path fill="#fff" fill-rule="evenodd" d="M6.3 32.653a1.433 1.433 0 0 1 1.547 1.139h5.58l11.617 11.616V50h-.57v-4.36L13.198 34.364h-5.35a1.432 1.432 0 1 1-1.547-1.71Zm.144.563a.86.86 0 0 0-.859.86.857.857 0 0 0 1.186.793.857.857 0 0 0 .282-1.401.861.861 0 0 0-.609-.252ZM24.62 37.23a1.432 1.432 0 0 1 1.546 1.14h3.459V50h-.57V38.94h-2.889a1.432 1.432 0 1 1-1.547-1.71Zm-.021.583a.858.858 0 0 0 .159 1.7h.002a.863.863 0 0 0 .861-.857.859.859 0 0 0-1.022-.843ZM34.176 23.514a1.43 1.43 0 0 1 .027 2.806l.003.003v21.202h4.575V50h-.571v-1.904h-4.583V26.32a1.437 1.437 0 0 1-1.136-1.549 1.43 1.43 0 0 1 1.685-1.257Zm-.255.544a.865.865 0 0 0-.863.863c0 .47.386.856.863.856a.861.861 0 0 0 0-1.72Z" clip-rule="evenodd"/><path fill="#fff" d="m50 16.105-6.64 6.641L43.362 50h-.572V22.508l7.034-7.035H50v.632Z"/><path fill="#fff" fill-rule="evenodd" d="M47.656 32.642a1.43 1.43 0 0 1 1.422 1.29 1.425 1.425 0 0 1-1.136 1.544V50h-.57V35.476a1.43 1.43 0 0 1 .284-2.834Zm0 .577a.858.858 0 0 0-.862.856c0 .477.387.857.862.858a.858.858 0 0 0 0-1.714ZM6.587 46.392a1.433 1.433 0 0 1 1.288 1.42 1.432 1.432 0 0 1-2.834.286H0v-.57h5.041a1.433 1.433 0 0 1 1.546-1.136Zm-.14.561a.86.86 0 0 0-.86.86.857.857 0 0 0 1.185.791.859.859 0 0 0 .467-.462.859.859 0 0 0-.793-1.189ZM50 11.469h-2.512l-8.707 8.7-.002 21.663a1.431 1.431 0 0 1 .858 2.266 1.43 1.43 0 1 1-1.427-2.268V19.938l9.039-9.046H50v.577ZM38.33 42.388a.862.862 0 0 0 .165 1.706.866.866 0 0 0 .863-.863.863.863 0 0 0-1.029-.843ZM25.042 2.308h-9.156v15.857L2.152 31.9l-.002.776a1.426 1.426 0 0 1 1.135 1.544 1.43 1.43 0 0 1-2.848 0 1.43 1.43 0 0 1 1.143-1.544V31.67l13.735-13.737V1.737h9.156V0h.571v2.308ZM1.863 33.216a.859.859 0 1 0 .001 1.718.859.859 0 0 0 0-1.718ZM34.062 18.915A1.433 1.433 0 0 1 35.32 20.6a1.433 1.433 0 0 1-1.782 1.117 1.43 1.43 0 0 1-1.024-1.09h-2.889v13.737h-8.041a1.432 1.432 0 1 1 0-.572h7.47V20.056h3.46a1.442 1.442 0 0 1 1.547-1.141ZM20.184 33.219a.856.856 0 0 0-.61.249.858.858 0 0 0-.254.607.86.86 0 0 0 .864.858.858.858 0 0 0 0-1.714ZM33.92 19.483a.857.857 0 0 0-.863.857c0 .475.386.855.863.855v.002a.859.859 0 0 0 0-1.714Z" clip-rule="evenodd"/><path fill="#fff" fill-rule="evenodd" d="M24.758 14.33a1.433 1.433 0 0 1 1.153 2.28c-.21.286-.52.481-.867.552v12.615H12.422a1.426 1.426 0 0 1-2.828-.283 1.432 1.432 0 0 1 2.828-.286h12.05V17.164a1.432 1.432 0 0 1 .286-2.835ZM11.024 28.637a.86.86 0 1 0 .001 1.718.86.86 0 0 0 0-1.718ZM24.767 14.9a.862.862 0 1 0-.009 1.725.862.862 0 0 0 .009-1.725ZM47.253 28.127a1.43 1.43 0 0 1 1.805 1.083H50v.571h-.942a1.435 1.435 0 0 1-1.544 1.14 1.43 1.43 0 0 1-.261-2.794Zm.57.525a.861.861 0 1 0-.335 1.69.861.861 0 0 0 .335-1.69ZM11.023.59a1.431 1.431 0 0 1 .285 2.832v12.453L0 27.186v-.807l10.737-10.735V3.422A1.43 1.43 0 0 1 11.023.59Zm0 .573a.853.853 0 0 0-.793 1.187.851.851 0 0 0 .793.527.853.853 0 0 0 .856-.856.852.852 0 0 0-.856-.858Z" clip-rule="evenodd"/><path fill="#fff" fill-rule="evenodd" d="M29.625 6.89h-9.156v18.318h-3.466a1.425 1.425 0 0 1-1.543 1.135 1.432 1.432 0 0 1-1.299-1.425 1.43 1.43 0 0 1 1.299-1.424 1.431 1.431 0 0 1 1.543 1.137h2.889V6.317h9.163V0h.57v6.89Zm-14.02 17.168a.861.861 0 0 0-.609 1.467.861.861 0 0 0 1.468-.607.861.861 0 0 0-.86-.86ZM47.512 23.493a1.431 1.431 0 0 1 1.546 1.134H50v.578h-.942a1.431 1.431 0 1 1-1.546-1.712Zm.144.565a.866.866 0 0 0-.862.863c0 .47.387.856.862.856a.862.862 0 0 0 0-1.72ZM6.444 5.161A1.43 1.43 0 0 1 7.868 6.46a1.43 1.43 0 0 1-1.137 1.543v5.587L0 20.317v-.81l6.156-6.155v-5.35A1.425 1.425 0 0 1 5.02 6.46a1.432 1.432 0 0 1 1.424-1.299Zm0 .58a.86.86 0 0 0-.859.86.857.857 0 0 0 1.186.794.857.857 0 0 0 .282-1.402.861.861 0 0 0-.609-.252ZM50 6.888h-4.395l-9.163 9.156H30.74a1.432 1.432 0 0 1-1.55 1.163 1.431 1.431 0 0 1-1.286-1.45 1.43 1.43 0 0 1 1.293-1.418 1.425 1.425 0 0 1 1.543 1.134h5.464l9.163-9.156H50v.57Zm-20.66 8.014a.861.861 0 0 0-.86.86.86.86 0 1 0 .86-.86Z" clip-rule="evenodd"/><path fill="#fff" fill-rule="evenodd" d="m34.205 11.469-8.039.002a1.433 1.433 0 1 1 0-.577h7.463V0h.576v11.469Zm-9.606-1.13a.86.86 0 0 0-.63 1.167.86.86 0 0 0 .789.534.865.865 0 0 0 .863-.856.859.859 0 0 0-1.022-.844ZM2.007 9.756a1.433 1.433 0 0 1 .918 2.385 1.432 1.432 0 0 1-2.466-.672H0v-.577h.459a1.433 1.433 0 0 1 1.548-1.136Zm-.148.561a.86.86 0 1 0 .005 1.722.86.86 0 0 0-.005-1.722ZM38.777 5.203a1.426 1.426 0 0 1-.283 2.828 1.432 1.432 0 0 1-.286-2.828V0h.57v5.203Zm-.277.54a.86.86 0 0 0-.86.86.858.858 0 0 0 1.187.793.858.858 0 0 0-.327-1.654Z" clip-rule="evenodd"/><path fill="#fff" d="M0 6.58v-.804L5.772 0h.814L0 6.58Z"/><path fill="#fff" fill-rule="evenodd" d="M42.933.6a1.425 1.425 0 0 1 1.543 1.135H50v.572h-5.524a1.436 1.436 0 0 1-2.842-.284A1.432 1.432 0 0 1 42.933.6Zm.142.563a.852.852 0 0 0-.856.858.855.855 0 0 0 1.185.792.854.854 0 0 0 .529-.792.851.851 0 0 0-.858-.858Z" clip-rule="evenodd"/></svg>