<svg xmlns="http://www.w3.org/2000/svg" width="50" height="50"><path style="stroke:none;fill-rule:nonzero;fill:#fff;fill-opacity:1" d="M7.254 36.844a.822.822 0 0 1 1.629.164c0 .422-.32.773-.742.816a.819.819 0 0 1-.887-.652H0v-.328Zm26.316 7.894a.822.822 0 1 1 .887.98.819.819 0 0 1-.887-.652H13.488v-.328Zm9.504-7.566a.819.819 0 0 1-.886.652.822.822 0 0 1 0-1.637.822.822 0 0 1 .886.657H50v.328Zm0 2.629a.822.822 0 1 1-.886-.98.819.819 0 0 1 .886.652H50v.328Zm1.02-18.75a.826.826 0 0 1 .89-.653.822.822 0 1 1-.89.984H29.918a.822.822 0 1 1 0-.332ZM1.988 13.156a.823.823 0 1 1 0 .332H0v-.332Zm30.563 5.594a.823.823 0 1 1 0-.328h14.176a.829.829 0 0 1 .89-.656.822.822 0 1 1-.89.984Zm9.883-16.762a.829.829 0 0 1 .656.89.825.825 0 0 1-.82.74.823.823 0 0 1-.164-1.629V0h.328ZM31.906 36.2c.414.086.7.469.657.89a.822.822 0 1 1-.984-.89v-8.914a.819.819 0 0 1-.653-.887.822.822 0 1 1 .98.887Zm7.895-32.597v9.554H50v.332H39.473V3.602a.822.822 0 1 1 .328 0Zm2.633 2.632v4.293H50v.328h-7.895v-4.62a.823.823 0 1 1 .329 0Zm-21.051 15.79V34.21h2.629v1.988c.414.086.699.469.656.89a.822.822 0 1 1-.984-.89v-1.66H21.05V22.023a.826.826 0 0 1-.653-.89.822.822 0 1 1 .984.89Zm-.973-3.602a.829.829 0 0 1 .89-.656.822.822 0 1 1-.89.984h-1.66v7.895h-4.621a.823.823 0 1 1 0-.329h4.293v-7.894ZM19.39 39.8a.822.822 0 0 1-1.628-.164c0-.422.32-.774.742-.817a.819.819 0 0 1 .887.653h9.558V27.285a.822.822 0 0 1 .164-1.629c.422 0 .774.32.817.742a.819.819 0 0 1-.653.887v12.516Zm-2.628-10.524a.823.823 0 1 1 0-.328h1.988v7.895h1.66a.826.826 0 0 1 .89-.657.822.822 0 1 1-.89.984h-1.988v-7.894Zm-5.907 17.45a.823.823 0 1 1-.328 0v-1.66H8.223V50h-.328v-5.262h2.96Zm27.977-17.778a.824.824 0 0 1 .887-.656.822.822 0 1 1-.887.984h-1.66v15.461h7.894V50h-.328v-4.934h-7.894V28.95Zm4.242-4.937a.822.822 0 1 1-.886-.98.819.819 0 0 1 .886.652h1.992v7.253a.822.822 0 1 1-.328 0v-6.925ZM32.551 39.8a.826.826 0 0 1-.89.656.822.822 0 1 1 .89-.984h1.66V26.316h2.633v-2.304h-6.926a.824.824 0 0 1-.887.656.822.822 0 1 1 .887-.984h7.254v2.96h-2.633v13.157ZM46.727 5.26a.823.823 0 1 1 0 .333h-1.989V0h.328v5.262Zm-30.61 11.5v7.25H8.863a.819.819 0 0 1-1.625-.163.822.822 0 0 1 1.625-.164h6.926v-6.922a.823.823 0 1 1 .328 0ZM8.863 5.595a.82.82 0 0 1-.886.652.823.823 0 0 1 0-1.637.816.816 0 0 1 .886.653h4.293V0h.332v5.594Zm9.887.64v4.621h-5.262v10.528h-1.992a.819.819 0 0 1-.887.652.822.822 0 0 1 0-1.637.822.822 0 0 1 .887.653h1.66V10.527h5.266V6.234a.829.829 0 0 1-.656-.89.822.822 0 1 1 .984.89Zm-1.988 7.254a.823.823 0 1 1 0-.332h4.289V6.234a.826.826 0 0 1-.653-.89.822.822 0 1 1 .984.89v7.254ZM19.39 2.961a.819.819 0 0 1-.887.652.822.822 0 1 1 .887-.98h4.62v7.254a.819.819 0 0 1-.163 1.625.822.822 0 0 1-.164-1.625V2.96Zm16.808 44.406a.823.823 0 1 1 0 .332H16.117V50h-.328v-2.633Zm3.602-22.71v1.66h2.633v5.59H39.8v10.198h7.898V50h-.332v-7.566h-7.894V31.578h2.632v-4.933h-2.632v-1.989a.823.823 0 1 1 .328 0ZM8.863 2.96a.822.822 0 1 1 0-.328h1.664V.328H7.895V0h2.96v2.96Zm18.422 5.262a.825.825 0 0 1-.887.656.822.822 0 0 1 0-1.637.819.819 0 0 1 .887.653h4.293V0h8.223v.328h-7.895v7.895ZM19.391.328a.817.817 0 0 1-.97.64.817.817 0 0 1-.64-.968h.34a.491.491 0 0 0 .172.563c.172.125.41.125.586 0A.497.497 0 0 0 19.05 0h10.226v5.594h-2.96V3.602a.827.827 0 0 1-.657-.887.826.826 0 0 1 .82-.742.82.82 0 0 1 .817.742.821.821 0 0 1-.652.887v1.66h2.304V.328Zm0 15.79a.822.822 0 0 1-1.63-.165c0-.422.321-.773.743-.816a.819.819 0 0 1 .887.652h3.14l5.266-5.262h6.414V3.602a.821.821 0 0 1-.652-.887.82.82 0 0 1 1.632 0 .821.821 0 0 1-.652.887v7.253h-6.605l-5.266 5.262Zm4.62 14.82c.415.085.7.468.657.886a.822.822 0 1 1-.984-.887V18.355l5.195-5.199h7.965V3.602a.824.824 0 0 1-.657-.887.822.822 0 1 1 .984.887v9.886h-8.155l-5.004 5Zm2.634 5.261a.823.823 0 1 1-.329 0V19.832l4.043-4.043h19a.819.819 0 0 1 .641-.64v.34a.492.492 0 0 0-.328.464c0 .211.129.399.328.465v.344a.823.823 0 0 1-.64-.645H30.495l-3.851 3.852ZM2.96 25.676a.819.819 0 0 1 .652.887.822.822 0 0 1-1.637 0 .822.822 0 0 1 .657-.887v-.578l7.894-7.895V7.895h5.262V0h.328v8.223h-5.262v9.113L2.961 25.23ZM8.223 8.863v7.157L.328 23.918v10.293h4.293a.823.823 0 0 1 1.629.164.823.823 0 0 1-1.629.164H0V23.781l7.895-7.894V8.863a.822.822 0 1 1 .328 0Zm-2.63 2.633v3.211L0 20.297v-.465l5.262-5.262v-3.074a.819.819 0 0 1-.653-.887.822.822 0 0 1 1.637 0 .822.822 0 0 1-.652.887ZM1.989 5.262a.823.823 0 1 1 0 .332h-.441L0 7.14v-.465l1.414-1.414Zm43.719 2.96a.827.827 0 0 1-.887.657.822.822 0 1 1 .887-.984h3.074L50 6.675v.466l-1.082 1.082ZM43.074 34.54a.819.819 0 0 1-.886.652.816.816 0 0 1-.739-.816c0-.422.317-.777.739-.816a.819.819 0 0 1 .886.652h4.293V22.465L50 19.832v.465l-2.3 2.305v11.937Zm-34.21 5.262a.819.819 0 0 1-1.626-.164.822.822 0 0 1 1.625-.164h1.664v-3.715l-3.851-3.852H3.602a.824.824 0 0 1-.887.657.822.822 0 1 1 .887-.984h3.21l4.043 4.046v4.176Zm24.706 2.304a.819.819 0 0 1 .887-.652c.422.04.738.395.738.817a.822.822 0 0 1-.738.82.825.825 0 0 1-.887-.656H15.79v-9.309l-6.481-6.48H6.234a.823.823 0 1 1 0-.329h3.207l6.676 6.676v9.113Zm-24.707.329a.822.822 0 0 1-.886.656.825.825 0 0 1-.739-.82c0-.422.32-.778.739-.817a.816.816 0 0 1 .886.652h4.293v-7.664l-5.164-5.164h-4.39a.822.822 0 1 1 0-.328h4.523l5.363 5.36v8.125ZM5.593 6.547v.266l-4.046 4.042H0v-.328h1.414l3.848-3.851V0h.332ZM.329 49.359a.814.814 0 0 1 .64.641h-.34A.492.492 0 0 0 0 49.7v-7.595h2.96V50h-.327v-7.566H.328Zm5.266-9.722V50h-.332V39.8H0v-.327h5.594ZM2.797 2.96H0v-.328h2.633V0h.328v2.96Zm44.902-.328H50v.328h-2.633V0h.332ZM42.434 47.53V50h-.329v-2.3h-2.304V50h-.328v-2.633h2.96ZM0 15.148a.842.842 0 0 1 .684.168c.191.157.3.391.304.637a.83.83 0 0 1-.988.809v-.344a.491.491 0 0 0 .563-.172.505.505 0 0 0 0-.586c-.13-.172-.36-.242-.563-.172Zm13.156 29.59h.332V50h-.332ZM19.391 50h-.34a.492.492 0 0 0-.93 0h-.34a.823.823 0 0 1 .805-.66c.39 0 .727.277.805.66ZM.969 0a.834.834 0 0 1-.223.746A.834.834 0 0 1 0 .97v-.34c.18.066.379.02.516-.113A.494.494 0 0 0 .629 0Zm48.39 0h.34c-.09.258.043.54.301.629v.34A.82.82 0 0 1 49.36 0ZM50 49.36v.34c-.14.05-.25.16-.3.3h-.34a.819.819 0 0 1 .64-.64ZM15.953 16.45a.493.493 0 1 0 .005-.99.493.493 0 0 0-.005.99Zm0-2.634a.496.496 0 0 0 .496-.492.493.493 0 1 0-.496.492Zm2.633 2.633a.493.493 0 0 0 0-.988.493.493 0 0 0 0 .988Zm2.633 2.63a.493.493 0 0 0 0-.985.493.493 0 0 0-.496.492c0 .273.222.492.496.492Zm0 2.632a.495.495 0 0 0 0-.988.497.497 0 0 0-.496.496c0 .27.222.492.496.492Zm-7.895 5.262a.493.493 0 0 0 0-.985.493.493 0 0 0-.496.492c0 .274.223.493.496.493Zm2.63 2.632a.496.496 0 0 0 .495-.492.493.493 0 1 0-.496.492Zm5.265 7.895a.495.495 0 0 0 0-.988.497.497 0 0 0-.496.496c0 .27.222.492.496.492Zm-2.633 2.633a.493.493 0 0 0 0-.988.493.493 0 0 0 0 .988Zm5.262-2.633a.496.496 0 0 0 .496-.492.497.497 0 0 0-.496-.496.495.495 0 0 0 0 .988Zm0-5.262a.497.497 0 0 0 .496-.496.495.495 0 1 0-.496.496ZM26.48 37.5a.493.493 0 0 0 0-.988.493.493 0 0 0 0 .988Zm5.262 2.633a.497.497 0 0 0 .496-.496.495.495 0 1 0-.496.496Zm0-2.633a.496.496 0 0 0 .496-.492.497.497 0 0 0-.496-.496.495.495 0 0 0 0 .988Zm-2.629-10.527a.493.493 0 0 0 0-.985.493.493 0 0 0-.496.492c0 .274.223.493.496.493Zm2.63 0a.493.493 0 0 0 .495-.493.493.493 0 0 0-.988 0c0 .274.223.493.492.493Zm2.632 15.789a.49.49 0 0 0 .492-.492.49.49 0 0 0-.492-.493.49.49 0 0 0-.492.493.49.49 0 0 0 .492.492Zm0 2.633a.493.493 0 0 0 0-.988.493.493 0 0 0 0 .988Zm2.633 2.632a.495.495 0 1 0-.496-.496c0 .274.222.496.496.496Zm2.629-23.683a.497.497 0 0 0 .496-.496.495.495 0 1 0-.496.496Zm0 5.261a.496.496 0 0 0 .496-.492.497.497 0 0 0-.496-.496.495.495 0 0 0 0 .988Zm2.633-5.261a.493.493 0 0 0 0-.989.493.493 0 0 0 0 .988Zm2.632-2.633a.495.495 0 0 0 0-.988.497.497 0 0 0-.496.496c0 .27.223.492.496.492Zm-15.789 0a.495.495 0 0 0 0-.988.497.497 0 0 0-.496.496c0 .27.223.492.496.492Zm0 2.633a.495.495 0 1 0-.496-.496c0 .273.223.496.496.496Zm2.63-5.266a.493.493 0 0 0 .495-.492.493.493 0 0 0-.988 0c0 .273.223.492.492.492Zm15.788 0a.493.493 0 0 0 .496-.492.493.493 0 0 0-.988 0c0 .273.223.492.492.492ZM44.902 8.551a.493.493 0 0 0 0-.985.493.493 0 0 0-.496.493c0 .273.223.492.496.492Zm2.63-2.63a.497.497 0 0 0 .495-.495.495.495 0 1 0-.496.496Zm-5.262 0a.493.493 0 0 0 0-.987.493.493 0 0 0 0 .988Zm0-2.632a.493.493 0 0 0 0-.988.493.493 0 0 0 0 .988Zm-2.633 0a.493.493 0 1 0 .005-.987.493.493 0 0 0-.005.987Zm-2.63 0c.27 0 .493-.219.493-.492a.496.496 0 0 0-.492-.496.493.493 0 1 0 0 .988Zm-2.632 0a.493.493 0 0 0 0-.988.493.493 0 0 0 0 .988ZM8.059 5.922a.493.493 0 0 0 0-.988.493.493 0 0 0 0 .988Zm-5.262 0a.493.493 0 1 0-.003-.987.493.493 0 0 0 .003.987ZM8.059 8.55a.49.49 0 0 0 .492-.492.49.49 0 0 0-.492-.493.49.49 0 0 0-.493.493.49.49 0 0 0 .493.492Zm-2.633 2.633a.493.493 0 0 0 .496-.493.493.493 0 0 0-.988 0c0 .274.222.493.492.493Zm2.633-7.895a.493.493 0 0 0 0-.988.493.493 0 0 0 0 .988Zm0 39.473a.49.49 0 0 0 .492-.492.49.49 0 0 0-.492-.493.49.49 0 0 0-.493.493.49.49 0 0 0 .493.492Zm2.632 5.265a.493.493 0 0 0 0-.988.493.493 0 0 0 0 .988ZM8.06 37.5a.493.493 0 0 0 0-.988.493.493 0 0 0 0 .988Zm0 2.633a.493.493 0 0 0 0-.988.493.493 0 0 0 0 .988Zm-2.633-5.266a.493.493 0 0 0 .496-.492.493.493 0 0 0-.988 0c0 .273.222.492.492.492Zm13.16-28.945a.493.493 0 0 0 0-.988.493.493 0 0 0 0 .988Zm2.633 0a.495.495 0 1 0-.496-.496c0 .273.222.496.496.496Zm-2.633-2.633a.493.493 0 0 0 0-.988.493.493 0 0 0 0 .988Zm5.262 7.895a.493.493 0 0 0 .496-.493.493.493 0 0 0-.989 0c0 .274.223.493.493.493ZM26.48 8.55a.49.49 0 0 0 .493-.492.49.49 0 0 0-.493-.493.49.49 0 0 0-.492.493.49.49 0 0 0 .492.492Zm0-5.262a.493.493 0 0 0 0-.988.493.493 0 0 0 0 .988Zm18.422 28.95a.495.495 0 1 0-.496-.496c0 .273.223.495.496.495Zm-2.632 2.628a.49.49 0 0 0 .492-.492.49.49 0 0 0-.492-.492.49.49 0 0 0-.493.492.49.49 0 0 0 .493.492Zm0 2.633a.493.493 0 0 0 0-.988.493.493 0 0 0 0 .988Zm0 2.633a.493.493 0 0 0 0-.988.493.493 0 0 0 0 .988ZM2.797 29.605a.493.493 0 1 0-.003-.99.493.493 0 0 0 .003.99Zm0 2.633a.493.493 0 1 0-.003-.987.493.493 0 0 0 .003.987Zm0-5.265a.49.49 0 0 0 .492-.493.493.493 0 0 0-.988 0c0 .274.222.493.496.493Zm2.629 0a.493.493 0 0 0 .496-.493.493.493 0 0 0-.988 0c0 .274.222.493.492.493Zm-2.63-13.157a.493.493 0 1 0-.003-.99.493.493 0 0 0 .004.99ZM8.06 24.344a.493.493 0 0 0 0-.989.493.493 0 0 0 0 .988Zm2.632-2.633a.493.493 0 0 0 0-.988.493.493 0 0 0 0 .988Zm0 0"/></svg>