<svg width="50" height="51" viewBox="0 0 50 51" fill="none" xmlns="http://www.w3.org/2000/svg">
    <path d="M9.81884 21.6996C9.71799 19.7835 8.68432 18.1112 6.39006 18.2456C4.85215 18.3381 3.37307 18.5482 2.39822 19.9348C1.96122 20.5567 1.50741 21.2458 1.44018 22.0274C1.39816 22.5148 1.45699 23.0358 1.54103 23.5149C2.29737 27.6832 8.70953 27.4395 9.64236 23.5317C9.79363 22.935 9.85246 22.3047 9.81884 21.6996Z" fill="white"/>
    <path d="M30.0719 3.05124C29.4752 0.177112 24.8951 -1.3776 22.7185 1.63098C21.7773 2.58062 21.6512 3.8412 22.0798 4.96732C22.2311 5.59761 22.542 6.13546 22.9538 6.57246C24.5842 8.27845 27.4415 8.77427 29.0719 6.73213C29.9038 5.69005 30.5761 4.38745 30.0719 3.05124Z" fill="white"/>
    <path d="M48.0648 28.4981C47.3756 27.9855 46.4596 28.3384 45.7705 28.683C45.1486 28.994 44.5603 29.3721 43.9553 29.6999C43.4006 30.0024 42.8039 30.2881 42.2913 30.6663C40.7534 31.8008 42.0812 34.4565 43.1821 35.4061C44.6108 36.6331 46.6781 36.7423 48.1908 35.5826C50.7624 33.5993 50.4767 30.2881 48.0648 28.4981Z" fill="white"/>
    <path d="M34.3159 11.2701C33.4587 12.5727 33.5343 14.1442 34.2402 15.5057C34.4587 15.9259 34.7613 16.304 35.1143 16.615C36.3076 17.6739 38.0976 18.052 39.5851 17.4133C40.7869 16.9007 41.5936 15.7494 41.8289 14.4972C43.4761 10.3877 36.9463 7.26986 34.3159 11.2701Z" fill="white"/>
    <path d="M26.8697 38.7678C25.4158 40.667 25.8781 43.7261 28.3404 45.0959C30.2397 46.1548 32.7272 45.2387 33.7021 43.3395C35.5005 39.8098 32.9289 36.1962 28.9539 37.3727C28.0462 37.6416 27.3571 38.1375 26.8697 38.7678Z" fill="white"/>
    <path d="M35.0723 23.557C35.0303 23.5234 34.9883 23.4898 34.9547 23.4561C33.568 22.3804 32.4167 21.5989 30.7275 22.7502C29.4249 23.641 28.2904 25.2966 28.0887 26.8765C27.7357 29.7002 30.6603 30.8179 33.0134 30.2885C36.0976 29.5994 37.8624 25.8428 35.0723 23.557Z" fill="white"/>
    <path d="M18.5332 12.0179C15.4658 12.1272 12.306 15.5308 14.9112 18.262C16.5751 20.0184 19.4829 20.0016 21.1805 18.304C22.9032 16.5897 22.7268 13.8416 20.6006 12.539C19.9703 12.1524 19.256 11.9927 18.5332 12.0179Z" fill="white"/>
    <path d="M8.50797 5.96753C8.49957 5.95912 8.49957 5.95912 8.49117 5.95072C7.29782 4.53047 5.27248 3.79933 3.33119 4.91704C2.19666 5.57255 1.60839 6.48857 1.42351 7.45501C0.944488 8.96771 1.54957 10.3291 2.61686 11.2199C3.91105 12.6318 6.00362 13.2453 8.01214 11.6822C8.81892 11.0603 9.27273 10.3123 9.45761 9.54758C9.96184 8.13573 9.46601 6.85834 8.50797 5.96753Z" fill="white"/>
    <path d="M19.2477 41.0622C17.8275 39.8436 15.7349 39.2554 14.0625 40.2638C12.5246 41.1966 13.9785 48.6761 16.7686 48.1214C18.7687 47.7265 20.5755 46.239 20.8108 44.3985C20.9705 43.2052 20.2898 41.9614 19.2477 41.0622Z" fill="white"/>
    <path d="M7.68421 38.2886C7.65899 38.255 7.62538 38.2298 7.60017 38.2046C5.97822 36.7255 2.63348 38.1542 1.03674 39.0702C-0.963379 40.2215 0.347626 42.5242 1.49055 43.7595C2.86038 45.2386 5.079 45.8773 7.20518 44.247C8.50778 43.2469 8.86075 39.5576 7.68421 38.2886Z" fill="white"/>
    <path d="M12.9617 27.9602C12.1213 29.2124 12.1885 30.826 12.8861 32.1202C13.1718 32.6496 13.6088 33.2799 14.2391 33.448C14.8358 33.6076 15.5081 33.5068 16.0964 33.3975C17.4158 33.1454 19.9285 32.5151 20.4916 31.1453C22.1387 27.0946 15.5921 24.0272 12.9617 27.9602Z" fill="white"/>
    <path d="M40.4509 42.7344C39.5517 42.8773 38.7534 43.4319 38.2491 44.6001C36.4423 48.76 42.0645 51.735 44.9218 49.0793C46.2916 47.8019 46.9387 46.4741 45.468 45.0371C44.9722 44.5496 44.4344 44.1126 43.8629 43.7261C42.8124 43.0033 41.5518 42.5579 40.4509 42.7344Z" fill="white"/>
    </svg>
    