<svg xmlns="http://www.w3.org/2000/svg" width="50" height="50" viewBox="0 0 50 25"><path style="stroke:none;fill-rule:nonzero;fill:#fff;fill-opacity:1" d="M50 23.215V25h-6.918A14.273 14.273 0 0 1 50 23.215ZM26.785 25c0-.984-.8-1.785-1.785-1.785-.984 0-1.785.8-1.785 1.785h-3.652A23.191 23.191 0 0 0 0 14.285V12.5c.598 0 1.195.02 1.785.063V12.5c0-.984-.8-1.785-1.785-1.785V8.93a3.57 3.57 0 0 1 3.555 3.215 25.18 25.18 0 0 1 2.5-3.45A7.158 7.158 0 0 0 0 5.355V3.57a8.918 8.918 0 0 1 7.293 3.778C8.133 6.5 9.043 5.715 10 5A12.486 12.486 0 0 0 0 0h6.918c1.789.98 3.332 2.348 4.555 3.973a25.3 25.3 0 0 1 3.152-1.723C14.062 1.45 13.434.7 12.75 0h2.41c.402.5.785 1.02 1.152 1.555 1.16-.43 2.348-.778 3.57-1.028a5.575 5.575 0 0 0-.32-.527h3.653v.063a25.93 25.93 0 0 1 3.57 0V0h3.652l-.332.527c1.235.25 2.43.598 3.582 1.028.356-.535.75-1.055 1.16-1.555h2.403c-.684.7-1.313 1.45-1.875 2.25 1.098.5 2.152 1.07 3.16 1.723A14.323 14.323 0 0 1 43.082 0H50c-4.09 0-7.723 1.965-10 5 .957.715 1.867 1.5 2.707 2.348A8.918 8.918 0 0 1 50 3.57v1.785a7.147 7.147 0 0 0-6.043 3.34 25.774 25.774 0 0 1 2.488 3.45A3.57 3.57 0 0 1 50 8.93v1.785c-.484 0-.95.195-1.285.543-.336.351-.516.82-.5 1.305A24.697 24.697 0 0 1 50 12.5v1.785c-8.215 0-15.445 4.27-19.563 10.715ZM6.918 25H0v-1.785c2.508 0 4.875.652 6.918 1.785ZM50 17.855v1.79c-5 0-9.508 2.05-12.75 5.355h-2.41A19.611 19.611 0 0 1 50 17.855ZM15.152 25H12.75A17.795 17.795 0 0 0 0 19.645v-1.79A19.584 19.584 0 0 1 15.152 25Zm13.403-.355a25.18 25.18 0 0 1 2.5-3.45 7.143 7.143 0 0 0-12.098 0 25.774 25.774 0 0 1 2.488 3.45A3.57 3.57 0 0 1 25 21.43a3.57 3.57 0 0 1 3.555 3.215Zm12.758-10.59c1.16-.43 2.347-.778 3.57-1.028a23.2 23.2 0 0 0-19.887-11.25 23.212 23.212 0 0 0-19.89 11.25c1.234.25 2.43.598 3.582 1.028a19.624 19.624 0 0 1 32.624 0Zm-4.848 2.418a25.4 25.4 0 0 1 3.16-1.723 17.839 17.839 0 0 0-29.25 0c1.098.5 2.152 1.07 3.16 1.723a14.268 14.268 0 0 1 22.93 0Zm-4.172 3.375c.84-.848 1.75-1.633 2.707-2.348a12.486 12.486 0 0 0-10-5.012c-3.938 0-7.645 1.86-10 5.012.957.715 1.867 1.5 2.707 2.348A8.91 8.91 0 0 1 25 16.063a8.91 8.91 0 0 1 7.293 3.785Zm0 0"/></svg>