<svg width="70" height="70" viewBox="0 0 70 70" fill="none" xmlns="http://www.w3.org/2000/svg">
    <g clip-path="url(#clip0_2163_311)">
    <path d="M77.6487 28.6978L108 32.3077M95.5424 102.424L73.3452 86.2294L49.4492 77.509L25.5532 63.6924L-4.91142 70.6007M-4.91142 70.6007L23.9676 89.2872L4.88481 102.368L-4.91142 70.6007ZM-4.91142 70.6007L-31.752 58.5961L2.11016 46.0252L-12.9523 28.6978L4.88481 11.7667L-17.2558 -4.37158" stroke="white" stroke-width="0.25"/>
    <path d="M-12.9521 28.698L17.3992 32.322L34.7266 46.0254L58.8491 58.5963L25.4966 63.636L2.05364 45.9688M32.4616 105.256L23.9677 89.2874" stroke="white" stroke-width="0.25"/>
    <path d="M49.4491 77.5091L56.0177 98.1208L73.3451 86.2295L85.6895 70.6008L58.8489 58.5962L49.4491 77.5091ZM49.4491 77.5091L23.9676 89.2873L25.5531 63.6925L34.7264 46.0253L51.6009 33.2279L77.6486 28.6979L55.961 7.46325L32.4614 14.6547L23.9676 -1.31372L4.88475 11.7668L17.399 32.3219L2.11009 46.0253L-4.91148 70.6008L-17.2559 86.2295L4.94137 102.424" stroke="white" stroke-width="0.25"/>
    <path d="M49.4489 -13.092L56.0741 7.57631L73.3449 -4.3717M58.8487 58.596L51.6006 33.2277M51.6006 33.2277L17.3988 32.3217L32.4612 14.6545M51.6006 33.2277L92.7108 46.0251M34.7262 46.0251H2.10986" stroke="white" stroke-width="0.25"/>
    <path d="M-34.5832 7.52004L4.88484 11.767L32.4615 14.6549L51.601 33.2281L55.9611 7.46342M55.9611 7.46342L95.5424 11.8236L77.6487 28.698L92.7112 46.0255L58.849 58.5963L73.3452 86.2296M55.9611 7.46342L23.9677 -1.31355M56.0178 98.121L23.9677 89.2874M-4.91139 -20L4.94147 11.8236M2.11019 46.0255L-39 33.2281" stroke="white" stroke-width="0.25"/>
    <path d="M78.2147 28.6989C78.2065 28.8436 78.1433 28.9796 78.038 29.0791C77.9327 29.1786 77.7933 29.234 77.6484 29.234C77.5036 29.234 77.3642 29.1786 77.2589 29.0791C77.1536 28.9796 77.0904 28.8436 77.0822 28.6989C77.0904 28.5543 77.1536 28.4183 77.2589 28.3187C77.3642 28.2192 77.5036 28.1638 77.6484 28.1638C77.7933 28.1638 77.9327 28.2192 78.038 28.3187C78.1433 28.4183 78.2065 28.5543 78.2147 28.6989ZM52.1669 33.229C52.1587 33.3736 52.0955 33.5096 51.9902 33.6091C51.8849 33.7086 51.7455 33.7641 51.6006 33.7641C51.4558 33.7641 51.3164 33.7086 51.2111 33.6091C51.1058 33.5096 51.0426 33.3736 51.0344 33.229C51.0426 33.0843 51.1058 32.9483 51.2111 32.8488C51.3164 32.7493 51.4558 32.6939 51.6006 32.6939C51.7455 32.6939 51.8849 32.7493 51.9902 32.8488C52.0955 32.9483 52.1587 33.0843 52.1669 33.229ZM59.415 58.5972C59.4068 58.7419 59.3436 58.8779 59.2383 58.9774C59.133 59.0769 58.9936 59.1324 58.8487 59.1324C58.7039 59.1324 58.5645 59.0769 58.4592 58.9774C58.3539 58.8779 58.2907 58.7419 58.2825 58.5972C58.2907 58.4526 58.3539 58.3166 58.4592 58.2171C58.5645 58.1176 58.7039 58.0621 58.8487 58.0621C58.9936 58.0621 59.133 58.1176 59.2383 58.2171C59.3436 58.3166 59.4068 58.4526 59.415 58.5972ZM73.9111 86.2305C73.903 86.3752 73.8397 86.5112 73.7344 86.6107C73.6291 86.7102 73.4898 86.7656 73.3449 86.7656C73.2 86.7656 73.0606 86.7102 72.9553 86.6107C72.85 86.5112 72.7868 86.3752 72.7786 86.2305C72.7868 86.0859 72.85 85.9499 72.9553 85.8504C73.0606 85.7509 73.2 85.6954 73.3449 85.6954C73.4898 85.6954 73.6291 85.7509 73.7344 85.8504C73.8397 85.9499 73.903 86.0859 73.9111 86.2305ZM50.016 77.5093C50.0079 77.6539 49.9446 77.79 49.8393 77.8895C49.734 77.989 49.5947 78.0444 49.4498 78.0444C49.3049 78.0444 49.1655 77.989 49.0602 77.8895C48.9549 77.79 48.8917 77.6539 48.8835 77.5093C48.8835 77.1976 49.1372 76.9421 49.4489 76.9421C49.7605 76.9421 50.016 77.1976 50.016 77.5093ZM26.1191 63.6926C26.1109 63.8373 26.0477 63.9733 25.9424 64.0728C25.8371 64.1723 25.6977 64.2278 25.5529 64.2278C25.408 64.2278 25.2686 64.1723 25.1633 64.0728C25.058 63.9733 24.9948 63.8373 24.9866 63.6926C24.9948 63.548 25.058 63.412 25.1633 63.3125C25.2686 63.213 25.408 63.1575 25.5529 63.1575C25.6977 63.1575 25.8371 63.213 25.9424 63.3125C26.0477 63.412 26.1109 63.548 26.1191 63.6926ZM24.5336 89.2874C24.5254 89.4321 24.4622 89.5681 24.3569 89.6676C24.2516 89.7671 24.1122 89.8225 23.9674 89.8225C23.8225 89.8225 23.6831 89.7671 23.5778 89.6676C23.4725 89.5681 23.4093 89.4321 23.4011 89.2874C23.4093 89.1428 23.4725 89.0067 23.5778 88.9072C23.6831 88.8077 23.8225 88.7523 23.9674 88.7523C24.1122 88.7523 24.2516 88.8077 24.3569 88.9072C24.4622 89.0067 24.5254 89.1428 24.5336 89.2874ZM-4.34454 70.6019C-4.35272 70.7465 -4.41595 70.8825 -4.52124 70.982C-4.62654 71.0815 -4.76592 71.137 -4.91079 71.137C-5.05567 71.137 -5.19505 71.0815 -5.30034 70.982C-5.40564 70.8825 -5.46887 70.7465 -5.47705 70.6019C-5.47705 70.2902 -5.22337 70.0347 -4.9117 70.0347C-4.60003 70.0347 -4.34454 70.2884 -4.34454 70.6019ZM2.67704 46.0255C2.66885 46.1701 2.60562 46.3061 2.50033 46.4056C2.39503 46.5051 2.25565 46.5606 2.11078 46.5606C1.96591 46.5606 1.82653 46.5051 1.72123 46.4056C1.61594 46.3061 1.55271 46.1701 1.54452 46.0255C1.54452 45.7138 1.79821 45.4583 2.10987 45.4583C2.42154 45.4583 2.67704 45.7138 2.67704 46.0255ZM5.50741 11.8236C5.49922 11.9682 5.436 12.1043 5.3307 12.2038C5.22541 12.3033 5.08603 12.3587 4.94115 12.3587C4.79628 12.3587 4.6569 12.3033 4.5516 12.2038C4.44631 12.1043 4.38308 11.9682 4.3749 11.8236C4.38308 11.6789 4.44631 11.5429 4.5516 11.4434C4.6569 11.3439 4.79628 11.2885 4.94115 11.2885C5.08603 11.2885 5.22541 11.3439 5.3307 11.4434C5.436 11.5429 5.49922 11.6789 5.50741 11.8236ZM33.0284 14.6558C33.0202 14.8004 32.9569 14.9364 32.8517 15.0359C32.7464 15.1355 32.607 15.1909 32.4621 15.1909C32.3172 15.1909 32.1778 15.1355 32.0726 15.0359C31.9673 14.9364 31.904 14.8004 31.8958 14.6558C31.8958 14.3441 32.1495 14.0886 32.4612 14.0886C32.7729 14.0886 33.0284 14.3423 33.0284 14.6558ZM56.5846 7.52004C56.5764 7.66468 56.5132 7.80071 56.4079 7.90022C56.3026 7.99972 56.1632 8.05516 56.0184 8.05516C55.8735 8.05516 55.7341 7.99972 55.6288 7.90022C55.5235 7.80071 55.4603 7.66468 55.4521 7.52004C55.4521 7.20838 55.7058 6.95288 56.0174 6.95288C56.3291 6.95288 56.5846 7.20838 56.5846 7.52004ZM17.965 32.323C17.9569 32.4676 17.8936 32.6036 17.7883 32.7031C17.683 32.8026 17.5437 32.8581 17.3988 32.8581C17.2539 32.8581 17.1145 32.8026 17.0092 32.7031C16.9039 32.6036 16.8407 32.4676 16.8325 32.323C16.8407 32.1783 16.9039 32.0423 17.0092 31.9428C17.1145 31.8433 17.2539 31.7878 17.3988 31.7878C17.5437 31.7878 17.683 31.8433 17.7883 31.9428C17.8936 32.0423 17.9569 32.1783 17.965 32.323ZM35.2934 46.0255C35.2852 46.1701 35.222 46.3061 35.1167 46.4056C35.0114 46.5051 34.872 46.5606 34.7271 46.5606C34.5823 46.5606 34.4429 46.5051 34.3376 46.4056C34.2323 46.3061 34.1691 46.1701 34.1609 46.0255C34.1609 45.7138 34.4146 45.4583 34.7262 45.4583C35.0379 45.4583 35.2934 45.7138 35.2934 46.0255Z" fill="white"/>
    </g>
    <defs>
    <clipPath id="clip0_2163_311">
    <rect width="70" height="70" fill="white"/>
    </clipPath>
    </defs>
    </svg>
    