<svg xmlns="http://www.w3.org/2000/svg" width="70" height="70" fill="none"><path fill="#fff" d="M48.71 63.499a9.279 9.279 0 0 1 3.284 1.906l4.794-2.073 2.355 4.078L55.664 70h-1.31l3.753-2.802-1.652-2.876-4.616 1.996a8.717 8.717 0 0 0-3.844-2.212l-.584-5.003h-3.316l-.592 5.003a8.647 8.647 0 0 0-3.835 2.212l-4.616-1.993-1.664 2.876L37.14 70h-1.309l-3.468-2.59 2.346-4.078 4.794 2.073a9.42 9.42 0 0 1 3.29-1.906l.607-5.178h4.704l.606 5.178Zm-2.951 4.227A4.7 4.7 0 0 1 49.779 70h-.953a3.917 3.917 0 0 0-6.147 0h-.95a4.701 4.701 0 0 1 4.03-2.274Zm-26.04-9.351c.285.031.55.11.815.209l.593-.607.684.386-.242.827c.22.174.43.372.607.592l.814-.228.396.67-.616.593c.1.268.175.542.22.83l.826.197v.781l-.826.21a4.293 4.293 0 0 1-.22.827l.616.584-.396.683-.817-.232a3.874 3.874 0 0 1-.604.592l.242.83-.682.383-.595-.604a4.024 4.024 0 0 1-.817.21l-.21.836h-.78l-.21-.837a3.55 3.55 0 0 1-.817-.209l-.592.604-.682-.384.242-.826a3.801 3.801 0 0 1-.595-.595l-.826.232-.397-.683.617-.584a4.355 4.355 0 0 1-.22-.826l-.826-.211v-.781l.826-.21c.042-.276.121-.549.22-.817l-.617-.592.394-.671.83.231c.174-.223.371-.42.591-.595h.003l-.242-.827.682-.397.592.618a3.5 3.5 0 0 1 .83-.209l.197-.838h.78l.213.838Zm-.6.726c-.53 0-1.052.136-1.514.396l-.102.057a3.102 3.102 0 0 0-1.068 1.065l-.054.102a3.092 3.092 0 0 0 0 3.029l.055.099c.263.44.627.815 1.067 1.08l.102.056a3.157 3.157 0 0 0 3.028 0l.098-.056c.44-.267.808-.638 1.07-1.08l.055-.099a3.092 3.092 0 0 0 0-3.03l-.055-.1a3.104 3.104 0 0 0-1.072-1.066l-.096-.057a3.09 3.09 0 0 0-1.514-.396Zm0 .788a2.352 2.352 0 0 1 2.352 2.352 2.35 2.35 0 0 1-4.011 1.661 2.351 2.351 0 0 1-.693-1.66 2.353 2.353 0 0 1 2.352-2.353Zm.005.784a1.565 1.565 0 1 0 0 3.129 1.565 1.565 0 0 0 0-3.13ZM4.144 43.877 1.86 46.333c.254.44.474.903.663 1.377l3.317-.285.705 3.062-3.12 1.198c.035.508.035 1.016 0 1.524l3.12 1.198-.705 3.063-3.317-.285a10.54 10.54 0 0 1-.66 1.375l2.279 2.458-1.974 2.433L0 62.152v-.902l1.981 1.188 1.126-1.398-2.213-2.38c.453-.719.823-1.487 1.1-2.29l3.228.262.406-1.74L2.6 53.726c.09-.846.09-1.706 0-2.555l3.028-1.168-.406-1.74-3.229.262c-.28-.801-.65-1.57-1.1-2.29l2.214-2.39-1.126-1.388L0 43.644v-.903l2.17-1.298 1.975 2.434Zm65.122-12.555.734.639v1.031l-1.317-1.142-.672-.452-.287.266.375.716 1.364 1.95a14.297 14.297 0 0 0-1.485 1.674l-2.104-1.114-.751-.285-.23.319.529.606 1.771 1.608a14.791 14.791 0 0 0-1.035 1.963l-2.3-.574-.804-.101-.144.375.66.451 2.104 1.137c-.231.7-.408 1.418-.528 2.146h-2.38l-.804.102-.045.394.75.287 2.313.584a14.505 14.505 0 0 0 0 2.214l-2.313.584-.75.287.045.396.804.087 2.38.011c.122.728.297 1.444.528 2.149l-2.105 1.122-.659.466.14.372.807-.099 2.301-.572c.3.682.64 1.334 1.035 1.96l-1.771 1.607-.53.607.231.321.751-.288 2.104-1.111a14.41 14.41 0 0 0 1.485 1.672l-1.364 1.952-.375.716.287.262.672-.451L70 57.026v1.026l-.734.633-1.345.903-1.156-1.044.761-1.436.925-1.319a14.441 14.441 0 0 1-.682-.784l-1.444.762-1.509.572-.902-1.277 1.055-1.224 1.223-1.1c-.166-.3-.33-.595-.473-.917l-1.585.398-1.599.197-.564-1.466 1.325-.923 1.441-.772c-.084-.33-.175-.66-.243-1.001h-1.63l-1.607-.197-.186-1.554 1.51-.584 1.584-.397c-.011-.341-.01-.683 0-1.024l-1.585-.395-1.509-.586.186-1.552 1.607-.2h1.63c.068-.342.156-.672.243-1.004l-1.441-.77-1.325-.925.564-1.466 1.599.197 1.585.387c.14-.308.31-.604.473-.903l-1.223-1.1-1.058-1.223.903-1.29 1.511.585 1.444.76c.22-.264.44-.53.682-.783l-.925-1.333-.761-1.422 1.156-1.043 1.345.89ZM.056 55.983 0 56.118v-.145l.056.01ZM0 48.777a9.765 9.765 0 0 1 .386 6.18L0 54.775v-5.998Zm70 3.356-.052-.07-.682.398c.229.325.475.639.734.941v1.163a13.74 13.74 0 0 1-1.848-2.369L70 51.136v.997ZM68.474 45.4a11.459 11.459 0 0 0 1.319 4.947l-2.024 1.178a13.565 13.565 0 0 1-1.642-6.125h2.347Zm-1.52.78a12.95 12.95 0 0 0 1.133 4.254l.682-.395a12.359 12.359 0 0 1-1.035-3.858h-.78ZM35.778 24.33c.44.053.88.129 1.297.228l1.026-2.214 2.228.803-.64 2.346c.407.198.782.42 1.157.663l1.706-1.72 1.804 1.523-1.373 1.96c.308.33.592.671.868 1.023l2.16-1.014 1.19 2.038-1.962 1.353c.19.423.341.852.474 1.28l2.357-.207.42 2.323-2.293.606c.023.452.023.903 0 1.366l2.293.594-.42 2.324-2.357-.208c-.13.435-.288.862-.474 1.277l1.962 1.353-1.19 2.04-2.16-1.013c-.276.363-.563.705-.868 1.023l1.376 1.963-1.804 1.52-1.71-1.708a12.76 12.76 0 0 1-1.156.662l.637 2.335-2.224.803-1.024-2.202a16 16 0 0 1-1.3.22l-.197 2.433h-2.37l-.211-2.433c-.436-.047-.87-.12-1.297-.22l-1.015 2.2-2.225-.801.629-2.335c-.398-.2-.784-.42-1.157-.662L26.24 47.56l-1.816-1.524 1.388-1.945a11.11 11.11 0 0 1-.872-1.038l-2.171 1.023-1.176-2.047 1.948-1.353c-.18-.418-.339-.846-.474-1.28l-2.357.208-.406-2.324 2.29-.591a9.41 9.41 0 0 1 0-1.369l-2.29-.606.406-2.323 2.357.208a14.2 14.2 0 0 1 .474-1.278l-1.948-1.353 1.178-2.04 2.172 1.016c.263-.355.558-.705.869-1.026l-1.388-1.963 1.816-1.52 1.697 1.72c.373-.242.762-.463 1.157-.663l-.63-2.345 2.215-.804 1.026 2.214c.428-.1.861-.177 1.297-.232l.212-2.423h2.369l.197 2.426Zm-2.036.724c-.86.056-1.686.197-2.481.428l-.99-2.157-.86.319.617 2.293c-.77.333-1.498.754-2.172 1.254l-1.671-1.686-.706.584 1.376 1.94a11.179 11.179 0 0 0-1.618 1.926l-2.15-1.013-.461.793 1.96 1.354a10.52 10.52 0 0 0-.87 2.368l-2.357-.22-.155.903 2.29.609a10.642 10.642 0 0 0 0 2.51l-2.3.606.165.903 2.37-.22c.186.817.482 1.607.857 2.357l-1.96 1.367.462.782 2.15-1.016a10.802 10.802 0 0 0 1.607 1.93l-1.366 1.95.706.585 1.664-1.687c.682.497 1.41.914 2.18 1.255l-.63 2.293.86.31 1.002-2.151c.795.23 1.62.375 2.466.431l.199 2.368h.916l.197-2.368c.86-.056 1.686-.197 2.482-.431l.987 2.148.86-.31-.615-2.29a11.477 11.477 0 0 0 2.172-1.255l1.672 1.687.705-.596-1.376-1.94a10.497 10.497 0 0 0 1.618-1.926l2.15 1.013.461-.782-1.95-1.353c.374-.761.662-1.557.86-2.37l2.357.219.152-.903-2.29-.606c.1-.834.1-1.676 0-2.51l2.3-.606-.151-.903-2.38.22a10.61 10.61 0 0 0-.86-2.358l1.962-1.367-.465-.78-2.146 1.014a10.443 10.443 0 0 0-1.618-1.929l1.376-1.951-.705-.584-1.675 1.686a11.486 11.486 0 0 0-2.172-1.255l.621-2.292-.86-.31-.993 2.148a11.441 11.441 0 0 0-2.479-.428h.012l-.197-2.37h-.915l-.197 2.37Zm.646 15.642c1.082 0 1.963.883 1.963 1.96a1.966 1.966 0 0 1-1.96 1.963 1.965 1.965 0 0 1-1.963-1.963c0-1.077.88-1.96 1.96-1.96Zm35.404-1.023a11.204 11.204 0 0 0-1.32 4.946h-2.357a13.68 13.68 0 0 1 1.65-6.12l2.027 1.174Zm-1.706-.08a12.731 12.731 0 0 0-1.134 4.242h.781a12.355 12.355 0 0 1 1.035-3.855l-.682-.386Zm-33.695 1.884a1.172 1.172 0 0 0-1.168 1.18 1.174 1.174 0 1 0 2-.835 1.179 1.179 0 0 0-.832-.345Zm-4.718-2.702a1.944 1.944 0 0 1 1.39.556 1.952 1.952 0 0 1 .056 2.764 1.965 1.965 0 0 1-2.777.056 1.974 1.974 0 0 1 .584-3.215c.235-.102.49-.157.747-.16Zm9.42-.047c.52-.01 1.024.187 1.4.547a1.973 1.973 0 0 1 .042 2.778 1.962 1.962 0 0 1-2.82-2.722 1.967 1.967 0 0 1 1.378-.603Zm.018.837a1.183 1.183 0 0 0-1.11.687 1.168 1.168 0 0 0 .582 1.55 1.178 1.178 0 0 0 .898.033 1.175 1.175 0 0 0 .45-1.9 1.182 1.182 0 0 0-.82-.37Zm-9.417-.06c-.311-.011-.615.1-.844.311a1.182 1.182 0 0 0 .314 1.932 1.177 1.177 0 0 0 .899.033 1.173 1.173 0 0 0 .45-1.9 1.182 1.182 0 0 0-.819-.375Zm4.71-6.637a3.136 3.136 0 1 1-.338 6.263 3.136 3.136 0 0 1 .338-6.263ZM70 36.616c-.259.303-.505.617-.734.942l.682.383.052-.069v1.009l-1.848-1.06A13.708 13.708 0 0 1 70 35.451v1.164Zm-2.231 1.878c-.001.002-.003.003-.003.005l-.01-.005h.013Zm-32.466-4.667a2.354 2.354 0 0 0-3.08 3.066 2.352 2.352 0 0 0 2.169 1.457 2.36 2.36 0 0 0 2.357-2.346 2.353 2.353 0 0 0-1.446-2.177Zm-7.567.217c1.08 0 1.963.869 1.963 1.96a1.957 1.957 0 0 1-1.963 1.948 1.956 1.956 0 1 1 0-3.908Zm13.319 0c1.08 0 1.949.869 1.949 1.96a1.945 1.945 0 0 1-1.95 1.948 1.948 1.948 0 0 1-1.958-1.948c0-1.091.868-1.96 1.959-1.96Zm-13.323.785a1.175 1.175 0 0 0-1.174 1.175c0 .648.53 1.167 1.178 1.167.649 0 1.171-.519 1.171-1.167a1.176 1.176 0 0 0-1.175-1.175Zm13.318.002a1.174 1.174 0 0 0-1.174 1.173c0 .648.53 1.167 1.179 1.167.648 0 1.168-.519 1.168-1.167a1.175 1.175 0 0 0-1.173-1.173Zm-2.012-5.533a1.965 1.965 0 0 1 1.973 2.307 1.963 1.963 0 0 1-3.295 1.07h.003a1.964 1.964 0 0 1 1.32-3.377Zm-9.418.056a1.965 1.965 0 0 1 1.838 1.174 1.955 1.955 0 0 1-.393 2.148 1.964 1.964 0 0 1-3.293-1.35c-.023-.501.146-.991.472-1.37.361-.376.856-.592 1.376-.602Zm9.553.793a1.169 1.169 0 0 0-.839.316 1.172 1.172 0 0 0-.308 1.272 1.17 1.17 0 0 0 1.063.762c.312.01.615-.102.844-.314a1.182 1.182 0 0 0-.315-1.932c-.14-.064-.291-.1-.445-.105Zm-9.413-.053a1.173 1.173 0 0 0-1.113.681 1.166 1.166 0 0 0 .204 1.287 1.18 1.18 0 0 0 1.931-.306 1.179 1.179 0 0 0 .034-.898 1.176 1.176 0 0 0-1.056-.764Zm4.629-2.57a1.965 1.965 0 0 1 1.96 1.816 1.966 1.966 0 0 1-1.957 1.96 1.965 1.965 0 0 1-1.963-1.96 1.966 1.966 0 0 1 1.96-1.817Zm.003.649a1.16 1.16 0 0 0-1.168 1.167 1.17 1.17 0 1 0 1.997-.823 1.172 1.172 0 0 0-.83-.344ZM17.9.52c.141.705.265 1.435.341 2.171l4.011.807v2.346l-4.01.803a20.463 20.463 0 0 1-.342 2.158l3.57 2.005-.727 2.236-4.066-.474c-.296.67-.63 1.32-1.001 1.951l2.774 3.007-1.376 1.895-3.722-1.706a18.679 18.679 0 0 1-1.542 1.55l1.706 3.723-1.904 1.38-3.008-2.775c-.63.363-1.279.704-1.95.989l.474 4.066-2.228.725-2.013-3.566c-.713.152-1.435.265-2.16.337L0 27.785V23.87l.09-.445a18.243 18.243 0 0 0 3.183-.508l1.983 3.525 1.035-.338-.474-4.013c1-.404 1.962-.896 2.876-1.467l2.973 2.744.882-.648-1.686-3.666a19.388 19.388 0 0 0 2.27-2.27l3.678 1.672.64-.88-2.733-2.964a20.008 20.008 0 0 0 1.467-2.877l4.01.475.337-1.044-3.524-1.974c.254-1.043.423-2.115.496-3.183l3.968-.793v-1.1l-3.968-.784A19.164 19.164 0 0 0 17.01.147L17.27 0h1.556L17.9.52Zm-6.432 13.298A15.636 15.636 0 0 1 .32 20.251v-6.709a9.043 9.043 0 0 0 5.33-3.085l5.817 3.361Zm-5.662-2.37a9.755 9.755 0 0 1-4.704 2.735v5.188a14.96 14.96 0 0 0 9.21-5.321l-4.506-2.603ZM66.026 0a9.96 9.96 0 0 1-.11.765l2.95 1.345-.407 1.512-3.214-.322c-.123.332-.26.66-.41.981l2.499 2.059-.781 1.353-3.04-1.13c-.197.284-.42.572-.64.834l1.872 2.634-1.1 1.114-2.633-1.883c-.272.222-.55.435-.837.637l1.136 3.04-1.354.784-2.062-2.501c-.32.14-.639.285-.98.406l.318 3.218-1.508.408-1.343-2.941c-.352.056-.697.098-1.049.13l-.538 3.195h-1.566l-.527-3.196c-.35-.031-.699-.075-1.046-.13l-1.346 2.942-1.508-.408.31-3.215a15.32 15.32 0 0 1-.981-.41l-2.05 2.502-1.365-.784L43.86 9.9c-.288-.2-.568-.413-.838-.637l-2.642 1.883-1.1-1.114 1.87-2.634a23.969 23.969 0 0 1-.637-.835l-3.032 1.134-.78-1.353 2.49-2.062a13.02 13.02 0 0 1-.396-.981l-3.217.322-.41-1.512L38.112.768C38.071.513 38.04.257 38.01 0h.79c.047.41.111.814.199 1.214l-2.898 1.322.067.254 3.173-.31c.22.682.494 1.353.835 2.004l-2.468 2.028.133.231 2.986-1.122c.395.603.837 1.188 1.322 1.718l-1.852 2.6.188.186 2.59-1.85c.538.484 1.121.925 1.728 1.323L43.68 12.58l.231.133 2.025-2.468c.64.33 1.31.617 2.004.837l-.31 3.176.254.064 1.323-2.895c.705.14 1.418.242 2.145.276l.53 3.15h.265l.528-3.15a13.812 13.812 0 0 0 2.15-.276l1.322 2.895.253-.064-.31-3.173c.694-.22 1.365-.507 2.003-.837l2.04 2.467.22-.132-1.113-2.983a13.893 13.893 0 0 0 1.72-1.327l2.598 1.853.177-.186-1.85-2.6c.485-.53.937-1.114 1.32-1.72l2.997 1.125.122-.231-2.457-2.028c.327-.646.607-1.315.838-2.002l3.173.308.064-.254-2.907-1.323c.088-.401.153-.806.201-1.216h.788ZM13.712 0c.47 1.507.71 3.08.708 4.665 0 2.225-.474 4.416-1.379 6.443l-5.826-3.36a8.97 8.97 0 0 0 0-6.157L9.974 0h1.556L8.163 1.941a9.917 9.917 0 0 1 0 5.443l4.495 2.596A14.859 14.859 0 0 0 12.891 0h.822ZM1.638 0a5.48 5.48 0 0 1 2.591 4.665A5.477 5.477 0 0 1 .853 9.731a5.474 5.474 0 0 1-.853.273v-.807c.188-.052.373-.113.554-.188A4.7 4.7 0 0 0 0 .139V0h1.638Zm44.731 0a5.871 5.871 0 0 0 4.48 4.157V9.7A11.365 11.365 0 0 1 40.768 0h5.601Zm16.897 0a11.365 11.365 0 0 1-10.07 9.7V4.156A5.9 5.9 0 0 0 57.672 0h5.593ZM41.628.356a10.568 10.568 0 0 0 8.429 8.44V4.765A6.705 6.705 0 0 1 45.65.356h-4.023Zm16.753 0a6.683 6.683 0 0 1-4.404 4.408v4.033a10.579 10.579 0 0 0 8.436-8.44h-4.032ZM0 .994a3.917 3.917 0 0 1 1.456 6.403A3.917 3.917 0 0 1 0 8.343v-.801a3.134 3.134 0 0 0 0-5.749V.994ZM55.59 0a3.916 3.916 0 0 1-2.074 2.02 3.92 3.92 0 0 1-4.269-.848A3.916 3.916 0 0 1 48.441 0h1.047c.118.2.256.389.418.56a3.137 3.137 0 0 0 4.433.12c.212-.2.394-.43.542-.68h.71Z"/></svg>