<svg xmlns="http://www.w3.org/2000/svg" width="50" height="50" fill="none"><path fill="#fff" d="M12.78 5.385c-3.627 0-6.719 2.697-7.3 6.37-.58 3.672 1.522 7.234 4.963 8.41.371.068.504-.165.504-.366 0-.18-.006-.657-.008-1.292-2.058.456-2.492-1.018-2.492-1.018a1.998 1.998 0 0 0-.82-1.109c-.668-.47.05-.46.05-.46.476.067.894.355 1.133.782.202.377.543.656.946.774a1.54 1.54 0 0 0 1.203-.144c.035-.385.202-.744.471-1.014-1.641-.191-3.367-.842-3.367-3.749a2.982 2.982 0 0 1 .76-2.03 2.793 2.793 0 0 1 .075-2.008s.62-.205 2.032.776a6.828 6.828 0 0 1 3.701 0c1.413-.981 2.033-.776 2.033-.776.274.635.3 1.353.074 2.007.5.552.771 1.281.759 2.034 0 2.915-1.727 3.555-3.374 3.743.355.372.537.883.5 1.403 0 1.015-.009 1.833-.009 2.081 0 .203.132.439.51.364 3.44-1.177 5.539-4.74 4.957-8.411-.582-3.671-3.674-6.368-7.3-6.367ZM36.45 29.053c-3.628 0-6.72 2.698-7.3 6.37-.581 3.673 1.52 7.235 4.962 8.41.37.069.503-.164.503-.365 0-.18-.006-.658-.008-1.293-2.057.457-2.491-1.017-2.491-1.017a1.999 1.999 0 0 0-.821-1.11c-.667-.47.051-.46.051-.46.475.067.893.356 1.132.782.203.378.543.656.947.775A1.54 1.54 0 0 0 34.628 41c.034-.384.201-.744.47-1.014-1.64-.19-3.366-.841-3.366-3.748a2.982 2.982 0 0 1 .76-2.031 2.794 2.794 0 0 1 .074-2.007s.62-.205 2.033.776a6.827 6.827 0 0 1 3.7 0c1.413-.982 2.033-.776 2.033-.776.274.634.3 1.353.074 2.007.5.552.772 1.28.76 2.034 0 2.914-1.728 3.554-3.375 3.742.355.373.538.884.5 1.404 0 1.014-.008 1.832-.008 2.08 0 .204.131.44.509.365 3.44-1.177 5.54-4.74 4.958-8.411-.582-3.672-3.674-6.369-7.3-6.368ZM12.78 29.053c-3.627 0-6.719 2.698-7.3 6.37-.58 3.673 1.522 7.235 4.963 8.41.371.069.504-.164.504-.365 0-.18-.006-.658-.008-1.293-2.058.457-2.492-1.017-2.492-1.017a1.998 1.998 0 0 0-.82-1.11c-.668-.47.05-.46.05-.46.476.067.894.356 1.133.782.202.378.543.656.946.775A1.54 1.54 0 0 0 10.96 41c.035-.384.202-.744.471-1.014-1.641-.19-3.367-.841-3.367-3.748a2.981 2.981 0 0 1 .76-2.031 2.793 2.793 0 0 1 .075-2.007s.62-.205 2.032.776a6.827 6.827 0 0 1 3.701 0c1.413-.982 2.033-.776 2.033-.776.274.634.3 1.353.074 2.007.5.552.771 1.28.759 2.034 0 2.914-1.727 3.554-3.374 3.742.355.373.537.884.5 1.404 0 1.014-.009 1.832-.009 2.08 0 .204.132.44.51.365 3.44-1.177 5.539-4.74 4.957-8.411-.582-3.672-3.674-6.369-7.3-6.368ZM36.45 5.385c-3.628 0-6.72 2.697-7.3 6.37-.581 3.672 1.52 7.234 4.962 8.41.37.068.503-.165.503-.366 0-.18-.006-.657-.008-1.292-2.057.456-2.491-1.018-2.491-1.018a1.999 1.999 0 0 0-.821-1.109c-.667-.47.051-.46.051-.46.475.067.893.355 1.132.782.203.377.543.656.947.774a1.54 1.54 0 0 0 1.203-.144c.034-.385.201-.744.47-1.014-1.64-.191-3.366-.842-3.366-3.749a2.982 2.982 0 0 1 .76-2.03 2.794 2.794 0 0 1 .074-2.008s.62-.205 2.033.776a6.828 6.828 0 0 1 3.7 0c1.413-.981 2.033-.776 2.033-.776.274.635.3 1.353.074 2.007.5.552.772 1.281.76 2.034 0 2.915-1.728 3.555-3.375 3.743.355.372.538.883.5 1.403 0 1.015-.008 1.833-.008 2.081 0 .203.131.439.509.364 3.44-1.177 5.54-4.74 4.958-8.411-.582-3.671-3.674-6.368-7.3-6.367Z"/></svg>