<svg xmlns="http://www.w3.org/2000/svg" width="50" height="50"><path style="stroke:none;fill-rule:evenodd;fill:#fff;fill-opacity:1" d="M22.578 24.445h-3.574l5.36 5.36Zm.586 0h3.672L25 29.953Zm4.258 0h3.574l-5.36 5.36Zm-9.145-.613 2.164-2.164h9.118l.14.137 2.024 2.027.336.336L25 31.227l-7.059-7.059Zm.727.059 1.55-1.555 1.551 1.555Zm4.445 0L25 22.336l1.55 1.555Zm4.446 0 1.55-1.555 1.551 1.555Zm-2.223-1.668h3.101l-1.55 1.55Zm-2.895 1.55 1.551-1.55h-3.101ZM4.836 0 0 4.836V0ZM1.187 0 0 3.566V0Zm2.864 0L.637 3.414 1.773 0ZM50 4.836 45.164 0H50ZM45.95 0l3.413 3.414L48.227 0ZM50 3.566 48.812 0H50ZM0 45.277h4.559l2.5 2.5L4.836 50H0Zm0 2.778h1.836L1.187 50H0ZM4.05 50l1.946-1.945H2.422L1.773 50ZM0 45.95l1.55 1.55H0Zm2.895 1.55 1.55-1.55 1.551 1.55ZM.672 45.832h3.101l-1.55 1.555ZM50 45.277h-4.559l-2.5 2.5L45.164 50H50ZM45.95 50l-1.946-1.945h3.574L48.227 50ZM50 48.055h-1.836L48.812 50H50Zm-5.996-.555 1.55-1.55 1.551 1.55ZM50 45.95l-1.55 1.55H50Zm-2.223 1.437 1.551-1.555h-3.101ZM42.48 7.125l.395.395-9.43 9.425-.39-.39Zm.395 35.355-.395.395-9.425-9.43.39-.39Zm-35.355.395-.395-.395 9.43-9.425.39.39ZM7.125 7.52l.395-.395 9.425 9.43-.39.39ZM0 23.61a1.112 1.112 0 0 1 0 2.222Zm50 0a1.112 1.112 0 0 0 0 2.222ZM26.11 0a1.109 1.109 0 1 1-2.22 0Zm0 50a1.109 1.109 0 1 0-2.22 0Zm0 0"/></svg>