<svg width="100" height="100" viewBox="0 0 100 100" fill="none" xmlns="http://www.w3.org/2000/svg">
    <g clip-path="url(#clip0_2166_513)">
        <path opacity="0.5" fill-rule="evenodd" clip-rule="evenodd"
            d="M100.04 98.8H105V100.04H100.04V105H98.8V100.04H87.64V105H86.4V100.04H75.24V105H74V100.04H62.84V105H61.6V100.04H50.44V105H49.2V100.04H38.04V105H36.8V100.04H25.64V105H24.4V100.04H13.24V105H12V100.04H0.84V105H-0.4V100.04H-19V98.8H-0.4V87.64H-19V86.4H-0.4V75.24H-19V74H-0.4V62.84H-19V61.6H-0.4V50.44H-19V49.2H-0.4V38.04H-19V36.8H-0.4V25.64H-19V24.4H-0.4V13.24H-19V12H-0.4V0.84H-19V-0.4H-0.4V-19H0.84V-0.4H12V-19H13.24V-0.4H24.4V-19H25.64V-0.4H36.8V-19H38.04V-0.4H49.2V-19H50.44V-0.4H61.6V-19H62.84V-0.4H74V-19H75.24V-0.4H86.4V-19H87.64V-0.4H98.8V-19H100.04V-0.4H105V0.84H100.04V12H105V13.24H100.04V24.4H105V25.64H100.04V36.8H105V38.04H100.04V49.2H105V50.44H100.04V61.6H105V62.84H100.04V74H105V75.24H100.04V86.4H105V87.64H100.04V98.8ZM98.8 98.8V87.64H87.64V98.8H98.8ZM86.4 98.8V87.64H75.24V98.8H86.4ZM74 98.8V87.64H62.84V98.8H74ZM61.6 98.8V87.64H50.44V98.8H61.6ZM49.2 98.8V87.64H38.04V98.8H49.2ZM36.8 98.8V87.64H25.64V98.8H36.8ZM24.4 98.8V87.64H13.24V98.8H24.4ZM12 98.8V87.64H0.84V98.8H12ZM0.84 86.4H12V75.24H0.84V86.4ZM13.24 86.4H24.4V75.24H13.24V86.4ZM25.64 86.4H36.8V75.24H25.64V86.4ZM38.04 86.4H49.2V75.24H38.04V86.4ZM50.44 86.4H61.6V75.24H50.44V86.4ZM62.84 86.4H74V75.24H62.84V86.4ZM75.24 86.4H86.4V75.24H75.24V86.4ZM87.64 86.4H98.8V75.24H87.64V86.4ZM98.8 74V62.84H87.64V74H98.8ZM86.4 74V62.84H75.24V74H86.4ZM74 74V62.84H62.84V74H74ZM61.6 74V62.84H50.44V74H61.6ZM49.2 74V62.84H38.04V74H49.2ZM36.8 74V62.84H25.64V74H36.8ZM24.4 74V62.84H13.24V74H24.4ZM12 74V62.84H0.84V74H12ZM0.84 61.6H12V50.44H0.84V61.6ZM13.24 61.6H24.4V50.44H13.24V61.6ZM25.64 61.6H36.8V50.44H25.64V61.6ZM38.04 61.6H49.2V50.44H38.04V61.6ZM50.44 61.6H61.6V50.44H50.44V61.6ZM62.84 61.6H74V50.44H62.84V61.6ZM75.24 61.6H86.4V50.44H75.24V61.6ZM87.64 61.6H98.8V50.44H87.64V61.6ZM98.8 49.2V38.04H87.64V49.2H98.8ZM86.4 49.2V38.04H75.24V49.2H86.4ZM74 49.2V38.04H62.84V49.2H74ZM61.6 49.2V38.04H50.44V49.2H61.6ZM49.2 49.2V38.04H38.04V49.2H49.2ZM36.8 49.2V38.04H25.64V49.2H36.8ZM24.4 49.2V38.04H13.24V49.2H24.4ZM12 49.2V38.04H0.84V49.2H12ZM0.84 36.8H12V25.64H0.84V36.8ZM13.24 36.8H24.4V25.64H13.24V36.8ZM25.64 36.8H36.8V25.64H25.64V36.8ZM38.04 36.8H49.2V25.64H38.04V36.8ZM50.44 36.8H61.6V25.64H50.44V36.8ZM62.84 36.8H74V25.64H62.84V36.8ZM75.24 36.8H86.4V25.64H75.24V36.8ZM87.64 36.8H98.8V25.64H87.64V36.8ZM98.8 24.4V13.24H87.64V24.4H98.8ZM86.4 24.4V13.24H75.24V24.4H86.4ZM74 24.4V13.24H62.84V24.4H74ZM61.6 24.4V13.24H50.44V24.4H61.6ZM49.2 24.4V13.24H38.04V24.4H49.2ZM36.8 24.4V13.24H25.64V24.4H36.8ZM24.4 24.4V13.24H13.24V24.4H24.4ZM12 24.4V13.24H0.84V24.4H12ZM0.84 12H12V0.84H0.84V12ZM13.24 12H24.4V0.84H13.24V12ZM25.64 12H36.8V0.84H25.64V12ZM38.04 12H49.2V0.84H38.04V12ZM50.44 12H61.6V0.84H50.44V12ZM62.84 12H74V0.84H62.84V12ZM75.24 12H86.4V0.84H75.24V12ZM87.64 12H98.8V0.84H87.64V12Z"
            fill="white" />
    </g>
    <defs>
        <clipPath id="clip0_2166_513">
            <rect width="100" height="100" fill="white" />
        </clipPath>
    </defs>
</svg>
    