<svg xmlns="http://www.w3.org/2000/svg" width="47" height="46" fill="none"><path fill="#fff" fill-rule="evenodd" d="M39.076 3.864c.043.141.081.287.11.433h-.785l.248.508.094.198-.052.022v1.443a1.108 1.108 0 0 1 .077 1.672 1.044 1.044 0 0 1-.547.273l-.004.013a1.738 1.738 0 0 1-.598.94 1.643 1.643 0 0 1-1.03.363h-4.207a1.652 1.652 0 0 1-1.028-.365 1.747 1.747 0 0 1-.599-.938l-.004-.013a1.044 1.044 0 0 1-.547-.273 1.099 1.099 0 0 1-.311-.538c-.05-.208-.04-.426.03-.628.069-.201.194-.377.359-.506V5.003l-.262-.54.193-.096.132-.07h-.601a5.029 5.029 0 0 1 1.613-2.74A4.753 4.753 0 0 1 34.25.393a4.728 4.728 0 0 1 2.982.891 4.99 4.99 0 0 1 1.844 2.58Zm-7.745.433a.244.244 0 0 0-.092.022l-.65.34.188.388.273-.141a.618.618 0 0 1 .57 0l.46.237a.203.203 0 0 0 .188 0l.465-.237a.607.607 0 0 1 .563 0l.466.237a.202.202 0 0 0 .188 0l.466-.237a.607.607 0 0 1 .563 0l.466.237a.213.213 0 0 0 .18.005l.606-.277a.603.603 0 0 1 .509 0l.605.277a.213.213 0 0 0 .18-.004l.654-.339-.189-.39-.298.155a.61.61 0 0 1-.538.014l-.585-.266a.173.173 0 0 0-.082-.022h-.004a.173.173 0 0 0-.081.022l-.585.266a.608.608 0 0 1-.538-.014l-.487-.247a.168.168 0 0 0-.094-.026.227.227 0 0 0-.094.022l-.466.242a.607.607 0 0 1-.564 0l-.461-.237a.193.193 0 0 0-.099-.027.227.227 0 0 0-.093.022l-.465.242a.607.607 0 0 1-.565 0l-.461-.237a.19.19 0 0 0-.094-.027h-.005Zm0-.433h-1.027a4.55 4.55 0 0 1 1.614-2.203 4.321 4.321 0 0 1 2.55-.836c.912 0 1.803.292 2.549.836a4.551 4.551 0 0 1 1.614 2.203h-.44l-.013-.03-.054.03H31.33Zm6.382 1.668.286-.15h.273v.437h-7.568v-.251l.073-.035.285-.15h.543l.286.15a.608.608 0 0 0 .565 0l.286-.15h.547l.285.15a.607.607 0 0 0 .564 0l.287-.15h.547l.285.15a.61.61 0 0 0 .538.012l.35-.163h.68l.35.163c.175.079.372.076.538-.013Zm-6.667.719 3.442 1.068 3.443-1.068h-6.885Zm-.132.437h.068l3.506 1.086 3.502-1.085h.07a.612.612 0 0 1 .462.18.651.651 0 0 1 .193.47.67.67 0 0 1-.194.47.628.628 0 0 1-.462.18h-7.145a.612.612 0 0 1-.47-.176.652.652 0 0 1-.198-.474.67.67 0 0 1 .198-.475.628.628 0 0 1 .47-.176Zm.28 1.74c.181.515.655.864 1.188.864h4.208c.26.002.515-.08.728-.236.213-.155.374-.375.46-.63l-6.583.002Zm-9.89-5.207a1.95 1.95 0 0 0-.69-.949 1.85 1.85 0 0 0-1.095-.36h-8.832a1.85 1.85 0 0 0-1.095.36 1.95 1.95 0 0 0-.69.95c-.316.027-.61.176-.824.417a1.328 1.328 0 0 0-.332.884c.001.326.12.641.335.881.215.24.51.389.825.415a2.008 2.008 0 0 0 .235 1.784c.354.52.93.829 1.546.825h8.832c.304 0 .603-.073.872-.217.27-.144.502-.352.677-.608A2.008 2.008 0 0 0 21.3 5.82c.315-.027.61-.175.824-.416.215-.24.334-.555.334-.881.001-.327-.117-.643-.331-.884a1.247 1.247 0 0 0-.823-.418Zm-1.785-.873h-8.832a1.46 1.46 0 0 0-1.329.87h11.49a1.5 1.5 0 0 0-.542-.635 1.43 1.43 0 0 0-.787-.235Zm-1.965 5.648c.444-.372.706-.932.7-1.523h-.418c0 .843-.658 1.523-1.473 1.523h-.91c.22-.184.396-.416.517-.68a2.01 2.01 0 0 0 .183-.843h-.418c0 .843-.662 1.523-1.474 1.523h-.913c.448-.372.704-.932.704-1.523h-.423c0 .843-.657 1.523-1.468 1.523h-1.475a1.43 1.43 0 0 1-.564-.116 1.468 1.468 0 0 1-.477-.33 1.524 1.524 0 0 1-.318-.494 1.563 1.563 0 0 1-.111-.583c0-.838.658-1.518 1.47-1.518h8.832c.39 0 .765.16 1.04.446.277.285.432.671.432 1.075 0 .403-.155.79-.431 1.075-.276.285-.65.445-1.04.445h-1.965Zm-6.867-3.479c-.632 0-1.222.328-1.573.87h-.11a.83.83 0 0 1-.595-.255.886.886 0 0 1-.247-.615c0-.48.38-.87.842-.87h12.198c.461 0 .842.39.842.87 0 .481-.38.87-.842.87h-.11a1.915 1.915 0 0 0-.681-.639 1.843 1.843 0 0 0-.892-.231h-8.832ZM4.459 21.581c.224.006.448-.035.657-.12.21-.084.4-.212.56-.374.162-.162.29-.356.377-.57a1.789 1.789 0 0 0-.377-1.921 1.68 1.68 0 0 0-.56-.374 1.637 1.637 0 0 0-.658-.119c-.221 0-.44.045-.645.133-.204.087-.39.215-.546.377a1.77 1.77 0 0 0-.493 1.23c0 .462.178.904.494 1.23.316.326.744.508 1.19.508Zm1.26-1.738c0 .345-.133.676-.37.92a1.24 1.24 0 0 1-.89.38 1.24 1.24 0 0 1-.891-.38 1.324 1.324 0 0 1-.369-.92c0-.72.563-1.306 1.26-1.306.696 0 1.26.587 1.26 1.306Zm-.628-6.301v-.433h1.684v-1.305H4.666a.816.816 0 0 0-.595.254.871.871 0 0 0-.246.615v2.17H.883l-.277.87-.143.437h.459l.803 8.687h5.467l.803-8.687h.457l-.141-.437-.277-.87H5.091v-1.301Zm-.842-.87v2.171h.419v-2.17H6.35v-.432H4.666a.412.412 0 0 0-.295.126.44.44 0 0 0-.122.305Zm.419 2.61H7.73l.142.43H1.045l.141-.432 3.482.002Zm2.905.868H1.345l.765 8.255h4.697l.766-8.255Zm14.469-.145h-1.265v.87h-1.26v.87h-1.26v3.038h-.632l.05.438.791 6.95h7.569l.79-6.95.05-.437h-.631v-3.04h-1.26v-.87h-1.26v-.869h-1.682Zm3.783 4.778v-2.602h-.84v.865h.631v1.738h.209Zm-.632 0v-1.3h-.842v1.301h.842Zm-1.26 1.307v-3.477h-.841v4.166c.338-.155.623-.393.841-.689Zm-1.264.825v-5.171h-.837v5.172c.278.056.56.055.837-.001Zm-1.26-.136v-4.166h-.842v3.477c.218.3.51.539.842.69Zm-1.26-1.995v-1.3h-.842v1.3h.842Zm-1.264 0v-1.74h.632v-.863h-.842v2.603h.21Zm5.68-2.603v-.87h-.841v.87h.628v.865h.213v-.865Zm-1.264 0v-1.739h-.841v.87h.633v.87l.208-.001Zm-1.26-.87v-.869H21.2v1.74h.209v-.87l.633-.001Zm-1.264.87v-.87h-.842v1.735h.214v-.865h.628Zm1.474 5.21c.595 0 1.172-.218 1.627-.615.454-.397.759-.948.858-1.555h1.666l-.739 6.518H18.84L18.1 21.22h1.666c.1.607.404 1.157.859 1.555.454.397 1.03.615 1.626.615Zm17.135-5.507v.431h-.842v-.432h.842Zm.842 0h-.424v.431h.423l.001-.431Zm-4.208 0v.021a1.043 1.043 0 0 0-.587.353 1.11 1.11 0 0 0-.073 1.324c.132.198.324.345.545.419l.013.053.235.975a.436.436 0 0 0 .147.237c.074.06.164.093.258.094h.005l1.473 5.33a.434.434 0 0 0 .405.317h1.047a.427.427 0 0 0 .252-.09.45.45 0 0 0 .154-.227l1.474-5.33a.422.422 0 0 0 .41-.331l.235-.975.013-.053c.22-.074.412-.221.543-.42a1.111 1.111 0 0 0-.073-1.323 1.042 1.042 0 0 0-.586-.353v-.022c0-.4-.077-.795-.225-1.164a3.05 3.05 0 0 0-.639-.987 2.939 2.939 0 0 0-.956-.658c-.357-.153 2.797-1.075 2.41-1.074-.78 0-5.066 1.163-5.618 1.733a3.092 3.092 0 0 0-.862 2.15Zm.841 0h1.265v.431H36.23a.612.612 0 0 0-.445.193.653.653 0 0 0-.183.46.64.64 0 0 0 .628.653h5.467a.622.622 0 0 0 .447-.191.664.664 0 0 0 0-.923.622.622 0 0 0-.447-.192h-.628v-.432h.418a2.683 2.683 0 0 0-.177-1.014 2.616 2.616 0 0 0-.543-.864 2.52 2.52 0 0 0-.825-.579 2.453 2.453 0 0 0-1.955 0 2.52 2.52 0 0 0-.824.58c-.235.247-.42.54-.543.863a2.683 2.683 0 0 0-.177 1.014h.419Zm-.302 3.038-.21-.87h5.232l-.21.87H36.56Zm1.883 5.648-1.444-5.21h3.934l-1.443 5.21h-1.047ZM20.99 45.022a4.553 4.553 0 0 0 3.271-1.4 4.86 4.86 0 0 0 1.355-3.38 4.86 4.86 0 0 0-1.356-3.38 4.553 4.553 0 0 0-3.272-1.4 4.553 4.553 0 0 0-3.271 1.401 4.86 4.86 0 0 0-1.354 3.38 4.86 4.86 0 0 0 1.355 3.379 4.554 4.554 0 0 0 3.272 1.4Zm5.044-4.779c0 .684-.131 1.362-.385 1.995a5.227 5.227 0 0 1-1.095 1.69 5.038 5.038 0 0 1-1.637 1.13 4.906 4.906 0 0 1-3.862-.002 5.039 5.039 0 0 1-1.637-1.13 5.227 5.227 0 0 1-1.093-1.693 5.365 5.365 0 0 1-.383-1.995c0-1.382.533-2.708 1.48-3.685a4.965 4.965 0 0 1 3.568-1.525c1.338 0 2.622.55 3.567 1.528a5.301 5.301 0 0 1 1.477 3.687Zm-5.967 3.852.427-.19a1.24 1.24 0 0 1 .987 0l.426.19a.412.412 0 0 0 .526-.181l.24-.411c.18-.305.465-.52.798-.599l.453-.107a.423.423 0 0 0 .245-.17.447.447 0 0 0 .08-.293l-.043-.477a1.345 1.345 0 0 1 .307-.971l.304-.362a.443.443 0 0 0 0-.568l-.304-.361a1.312 1.312 0 0 1-.306-.972l.041-.476a.443.443 0 0 0-.077-.295.419.419 0 0 0-.247-.169l-.453-.106a1.24 1.24 0 0 1-.458-.215 1.286 1.286 0 0 1-.34-.385l-.24-.41a.425.425 0 0 0-.23-.19.41.41 0 0 0-.294.013l-.428.19c-.317.137-.67.137-.986 0l-.428-.19a.41.41 0 0 0-.294-.012.424.424 0 0 0-.23.19l-.241.414a1.307 1.307 0 0 1-.342.38 1.26 1.26 0 0 1-.456.215l-.453.11a.415.415 0 0 0-.244.168.44.44 0 0 0-.076.292l.038.476c.03.354-.081.706-.303.972l-.307.361a.443.443 0 0 0 0 .57l.307.36c.222.27.334.619.303.972l-.043.476a.448.448 0 0 0 .08.294c.059.085.146.145.245.169l.453.11c.333.08.623.297.798.596l.24.414c.052.09.134.158.231.19a.403.403 0 0 0 .294-.017v.005Zm.594.206a.84.84 0 0 1 .654 0l.43.19a.822.822 0 0 0 1.051-.352l.24-.41a.85.85 0 0 1 .224-.258.82.82 0 0 1 .305-.144l.453-.107a.836.836 0 0 0 .492-.334.886.886 0 0 0 .157-.587l-.043-.477a.91.91 0 0 1 .205-.648l.304-.362a.877.877 0 0 0 0-1.138l-.304-.362a.898.898 0 0 1-.204-.65l.042-.476a.886.886 0 0 0-.157-.587.837.837 0 0 0-.492-.335l-.453-.11a.828.828 0 0 1-.53-.397l-.239-.415a.855.855 0 0 0-.464-.379.825.825 0 0 0-.59.026l-.427.19a.803.803 0 0 1-.654 0l-.432-.19a.815.815 0 0 0-.587-.025.846.846 0 0 0-.46.378l-.238.415a.862.862 0 0 1-.534.397l-.453.11a.844.844 0 0 0-.49.337.894.894 0 0 0-.16.585l.044.477a.905.905 0 0 1-.205.648l-.303.361a.887.887 0 0 0 0 1.14l.303.36a.886.886 0 0 1 .205.646l-.044.476a.891.891 0 0 0 .157.59c.12.17.295.29.493.336l.453.107a.84.84 0 0 1 .534.402l.239.41a.84.84 0 0 0 .46.381.81.81 0 0 0 .59-.029l.428-.19Zm.747-6.882c0-.12.094-.217.21-.217a.217.217 0 0 1 0 .433.207.207 0 0 1-.148-.063.22.22 0 0 1-.062-.153Zm1.26.432c0-.119.099-.216.214-.216a.207.207 0 0 1 .138.068.22.22 0 0 1 0 .296.207.207 0 0 1-.138.068.21.21 0 0 1-.15-.063.224.224 0 0 1-.064-.153Zm-2.31.216a.22.22 0 0 1 .068-.138.206.206 0 0 1 .282 0 .22.22 0 0 1 .068.138c0 .125-.094.22-.21.22a.206.206 0 0 1-.148-.065.219.219 0 0 1-.06-.155Zm-1.26 0a.22.22 0 0 1 .066-.143.207.207 0 0 1 .286 0 .22.22 0 0 1 .066.143c0 .125-.094.22-.209.22a.205.205 0 0 1-.149-.064.22.22 0 0 1-.06-.156Zm.627-1.085c0-.12.094-.217.21-.217.12 0 .213.097.213.217a.225.225 0 0 1-.063.155.21.21 0 0 1-.15.065.21.21 0 0 1-.149-.066.224.224 0 0 1-.061-.154Zm-1.683 1.738c0-.12.094-.215.215-.215.051.005.1.03.134.07a.22.22 0 0 1 0 .29.208.208 0 0 1-.134.071.207.207 0 0 1-.151-.062.217.217 0 0 1-.064-.154Zm.632 1.306c0-.124.094-.22.21-.22.115 0 .213.097.213.22 0 .12-.098.217-.213.217a.207.207 0 0 1-.148-.064.22.22 0 0 1-.062-.153Zm0 1.302c0-.12.094-.216.21-.216a.216.216 0 0 1 0 .431.207.207 0 0 1-.148-.063.22.22 0 0 1-.062-.152Zm.842 1.522c0-.124.094-.22.209-.22.116 0 .21.097.21.22a.22.22 0 0 1-.067.143.206.206 0 0 1-.285 0 .22.22 0 0 1-.067-.143Zm1.05-.437c0-.119.095-.215.21-.215.12 0 .214.096.214.215a.225.225 0 0 1-.063.154.21.21 0 0 1-.151.063.207.207 0 0 1-.148-.064.221.221 0 0 1-.061-.153h-.001Zm1.052.87c0-.119.094-.216.213-.216.052.005.1.03.134.07a.221.221 0 0 1 0 .29.208.208 0 0 1-.134.071.205.205 0 0 1-.15-.062.217.217 0 0 1-.063-.153Zm.842-1.302c0-.124.093-.221.207-.221.042 0 .083.011.118.035a.224.224 0 0 1 .037.335.209.209 0 0 1-.23.05.212.212 0 0 1-.095-.078.223.223 0 0 1-.037-.12Zm1.264-.87c0-.118.094-.22.208-.22.116 0 .21.102.21.22a.22.22 0 0 1-.069.14.207.207 0 0 1-.281 0 .22.22 0 0 1-.068-.14Zm-.842-.652c0-.058.022-.113.061-.154a.207.207 0 0 1 .297 0 .22.22 0 0 1 0 .307.207.207 0 0 1-.297 0 .221.221 0 0 1-.061-.153Zm.842-.653a.22.22 0 0 1 .068-.14.206.206 0 0 1 .281 0 .22.22 0 0 1 .068.14.224.224 0 0 1-.06.154.21.21 0 0 1-.148.066.21.21 0 0 1-.148-.066.224.224 0 0 1-.061-.154Zm-1.056-.87c0-.118.099-.216.214-.216.116 0 .21.098.21.216a.215.215 0 0 1-.21.221.211.211 0 0 1-.151-.065.225.225 0 0 1-.063-.156Zm-5.044 1.308a.223.223 0 0 1 .056-.163.21.21 0 0 1 .154-.07.204.204 0 0 1 .154.07.218.218 0 0 1 .055.163.22.22 0 0 1-.066.143.206.206 0 0 1-.286 0 .22.22 0 0 1-.067-.143Zm3.366 1.084c.279 0 .546-.114.743-.317.197-.204.307-.48.307-.768 0-.287-.11-.563-.307-.767a1.034 1.034 0 0 0-1.487 0c-.198.203-.31.479-.311.767 0 .6.473 1.085 1.055 1.085Zm1.468-1.084c0 .3-.087.594-.249.843-.162.25-.392.444-.66.558a1.427 1.427 0 0 1-.85.085 1.457 1.457 0 0 1-.753-.417 1.536 1.536 0 0 1-.4-.778c-.057-.294-.028-.6.084-.877.111-.278.3-.515.542-.681.242-.167.526-.256.817-.255.812 0 1.47.68 1.47 1.522Zm16.492-4.03a.204.204 0 0 0-.149.064.22.22 0 0 0-.061.153c0 .119.094.22.209.22h.423c.116 0 .21-.101.21-.22a.221.221 0 0 0-.062-.153.207.207 0 0 0-.148-.063h-.422Zm3.993 1.955c0-.119.098-.215.213-.215h.419c.051.005.1.03.134.07a.221.221 0 0 1 0 .291.208.208 0 0 1-.134.07h-.419a.21.21 0 0 1-.15-.062.224.224 0 0 1-.063-.153v-.001ZM40 39.255a.205.205 0 0 0-.148.066.219.219 0 0 0-.06.154c0 .12.093.217.208.217h.423c.056 0 .11-.023.149-.063a.225.225 0 0 0 0-.309.21.21 0 0 0-.149-.065H40Zm-5.257.22a.208.208 0 0 0-.138.07.22.22 0 0 0 0 .294c.036.04.085.065.138.07h.423a.207.207 0 0 0 .139-.07.22.22 0 0 0 0-.295.207.207 0 0 0-.139-.069h-.423Zm1.055.866a.218.218 0 0 0-.214.22c0 .12.094.217.214.217h.418c.056 0 .11-.023.148-.064a.224.224 0 0 0 0-.308.21.21 0 0 0-.148-.065h-.418Zm1.892 0c0-.12.094-.217.21-.217h.418c.056 0 .11.023.15.064a.222.222 0 0 1 0 .309.208.208 0 0 1-.15.064H37.9a.207.207 0 0 1-.15-.065.22.22 0 0 1-.06-.155Zm3.152.22c0-.119.094-.22.21-.22h.422c.116 0 .21.101.21.22a.22.22 0 0 1-.062.153.207.207 0 0 1-.147.064h-.424a.207.207 0 0 1-.148-.064.22.22 0 0 1-.06-.153Zm2.525-.437a.207.207 0 0 0-.148.063.22.22 0 0 0-.062.154c0 .124.094.22.21.22h.418c.056 0 .11-.023.15-.064a.222.222 0 0 0 0-.31.208.208 0 0 0-.15-.063h-.418Zm-2.316-3.04c0-.12.094-.217.214-.217h.418c.052.006.1.031.135.07a.221.221 0 0 1 0 .291.208.208 0 0 1-.135.07h-.418a.206.206 0 0 1-.15-.061.217.217 0 0 1-.064-.154Zm-3.993 0a.208.208 0 0 0-.139.068.22.22 0 0 0 0 .295c.037.04.086.065.139.069h.419c.12 0 .213-.097.213-.217a.226.226 0 0 0-.063-.154.208.208 0 0 0-.15-.062h-.419Zm1.26 1.083c0-.118.094-.214.214-.214h.418c.051.005.1.03.134.07a.22.22 0 0 1 0 .291.208.208 0 0 1-.134.07h-.418a.207.207 0 0 1-.15-.062.217.217 0 0 1-.064-.155Zm-5.253 3.263c0-.107 0-.208.004-.305a1.058 1.058 0 0 1-.397-.31 1.126 1.126 0 0 1 .038-1.428.895.895 0 0 1-.02-.646.858.858 0 0 1 .418-.48 1.118 1.118 0 0 1 .085-.828c.066-.125.155-.236.263-.325a1.04 1.04 0 0 1 .364-.197.614.614 0 0 1 .308-.229c.03-.18.103-.348.213-.49.11-.143.252-.255.414-.325a1.023 1.023 0 0 1 1.004.104 6.35 6.35 0 0 1 7.642.001 1.02 1.02 0 0 1 1.004-.107c.332.146.568.45.627.817.125.04.234.121.312.23.133.04.256.106.364.196a1.08 1.08 0 0 1 .386.73c.015.143.002.286-.037.423.193.1.341.272.414.481.074.21.066.44-.02.644a1.116 1.116 0 0 1 .044 1.433 1.05 1.05 0 0 1-.403.307c.004.096.008.197.008.304v.215H33.066v-.215Zm.17-1.56a8.06 8.06 0 0 0-.127.774.642.642 0 0 1-.247-.427.669.669 0 0 1 .119-.482.903.903 0 0 0 .255.136Zm.316-1c-.076.19-.145.38-.2.583a.427.427 0 0 1-.203-.149.449.449 0 0 1-.088-.24.456.456 0 0 1 .06-.247.434.434 0 0 1 .183-.172c.07.088.155.164.248.225Zm.487-.988c-.115.19-.218.384-.312.583a.65.65 0 0 1-.243-.504.673.673 0 0 1 .226-.512.65.65 0 0 0 .329.433Zm.24-.37c.073-.107.15-.212.23-.314a.213.213 0 0 0-.099-.097.204.204 0 0 0-.136-.013.21.21 0 0 0-.115.08.222.222 0 0 0-.042.135c0 .102.067.186.161.208Zm1.122-1.255c-.214.19-.418.392-.61.606a.583.583 0 0 0-.23-.168.65.65 0 0 1 .324-.41.625.625 0 0 1 .516-.028Zm8.97.606a6.704 6.704 0 0 0-.61-.604.614.614 0 0 1 .724.193.66.66 0 0 1 .12.244.582.582 0 0 0-.229.167h-.005Zm.282.335c.082.102.158.207.23.313a.208.208 0 0 0 .12-.074.22.22 0 0 0-.11-.35.212.212 0 0 0-.138.015.221.221 0 0 0-.102.096Zm.787 1.265a7.601 7.601 0 0 0-.317-.581.622.622 0 0 0 .328-.433.654.654 0 0 1 .232.512.669.669 0 0 1-.244.504l.001-.002Zm.375.985a7.108 7.108 0 0 0-.201-.578 1.09 1.09 0 0 0 .244-.226.42.42 0 0 1 .184.169.44.44 0 0 1-.227.635Zm.243 1.196c-.03-.26-.077-.52-.131-.772a.989.989 0 0 0 .26-.137.674.674 0 0 1 .037.721.628.628 0 0 1-.166.188Zm-.38.564a6.39 6.39 0 0 0-1.85-4.32 5.99 5.99 0 0 0-4.24-1.773 5.99 5.99 0 0 0-4.243 1.771 6.39 6.39 0 0 0-1.853 4.322h12.186ZM5.583 36.915a.477.477 0 0 1-.072-.248v-2.603h-.42v2.604c0 .366.223.692.556.815a.833.833 0 0 0 .935-.26.89.89 0 0 0 .193-.555v-2.604H6.35v2.604a.432.432 0 0 1-.278.41.408.408 0 0 1-.356-.034.423.423 0 0 1-.134-.129Zm.56-4.805a.971.971 0 0 0 .23-.027.892.892 0 0 0 .184.375.821.821 0 0 0 1.12.146c.238.446.362.949.357 1.46v5.21c0 .72-.563 1.308-1.26 1.308h-.631v1.954c0 .288-.111.564-.308.767a1.034 1.034 0 0 1-.743.318c-.279 0-.546-.114-.743-.318a1.104 1.104 0 0 1-.308-.767v-1.954h-.632c-.696 0-1.26-.588-1.26-1.307v-5.21c0-.807.31-1.58.862-2.151a2.9 2.9 0 0 1 2.08-.894c0 .6.47 1.09 1.052 1.09Zm-3.576 3.255v2.61c0 .17.103.33.257.395.09.04.19.047.285.019a.423.423 0 0 0 .3-.415v-2.608h.423v2.609a.882.882 0 0 1-.09.404.851.851 0 0 1-.264.313.815.815 0 0 1-.773.1.93.93 0 0 1-.138-.064v.547c0 .481.38.87.842.87h3.366a.828.828 0 0 0 .595-.255.884.884 0 0 0 .247-.615v-5.21c0-.336-.048-.628-.155-.91-.09.023-.179.036-.269.04-.448 0-.867-.248-1.093-.653a1.441 1.441 0 0 1-.842-.306 1.519 1.519 0 0 1-.516-.753 2.501 2.501 0 0 0-1.555.87c-.4.475-.62 1.082-.62 1.711v1.301Zm1.892 5.217v1.954a.664.664 0 0 0 .194.445.623.623 0 0 0 .877 0 .664.664 0 0 0 .194-.445v-1.954H4.459Z" clip-rule="evenodd"/></svg>