<svg xmlns="http://www.w3.org/2000/svg" width="50" height="50"><path style="stroke:none;fill-rule:evenodd;fill:#fff;fill-opacity:1" d="M4.688 3.078c.039.125.074.254.101.383H4.07l.227.45.086.175-.047.02v1.277c.309.234.45.629.355 1.004a.967.967 0 0 1-.785.718l-.004.012A1.534 1.534 0 0 1 2.414 8.27h-3.848c-.699 0-1.312-.477-1.488-1.153l-.004-.012a.967.967 0 0 1-.785-.718.967.967 0 0 1 .356-1.004V4.086l-.239-.477.176-.086.121-.062h-.55a4.426 4.426 0 0 1 8.535-.383Zm-7.083.383a.229.229 0 0 0-.085.02l-.594.3.172.344.25-.125a.58.58 0 0 1 .52 0l.421.21a.19.19 0 0 0 .172 0l.426-.21a.57.57 0 0 1 .515 0l.426.21a.19.19 0 0 0 .172 0L.426 4A.57.57 0 0 1 .94 4l.426.21a.2.2 0 0 0 .164.005l.555-.246a.567.567 0 0 1 .465 0l.554.246a.2.2 0 0 0 .165-.004l.597-.3-.172-.345-.273.137a.572.572 0 0 1-.492.012l-.535-.235a.162.162 0 0 0-.075-.02h-.004a.162.162 0 0 0-.074.02l-.535.235a.572.572 0 0 1-.492-.012L.77 3.484a.157.157 0 0 0-.086-.023.213.213 0 0 0-.086.02l-.426.214a.57.57 0 0 1-.516 0l-.422-.21a.232.232 0 0 0-.09-.02.164.164 0 0 0-.085.02l-.426.21a.57.57 0 0 1-.516 0l-.422-.21a.229.229 0 0 0-.086-.02h-.004Zm0-.383h-.94a4.04 4.04 0 0 1 7.616 0H3.88l-.012-.027-.05.027Zm5.836 1.477.262-.133h.25v.387h-6.922v-.223l.067-.031.261-.133h.496l.262.133a.57.57 0 0 0 .516 0l.262-.133h.5l.261.133a.57.57 0 0 0 .516 0l.262-.133h.5l.261.133a.572.572 0 0 0 .492.011l.32-.144h.622l.32.144c.16.07.34.067.492-.011Zm-6.097.636 3.148.946 3.149-.946Zm-.121.387h.062l3.207.961 3.203-.96h.063a.576.576 0 1 1 0 1.151h-6.535a.577.577 0 1 1 0-1.152Zm.257 1.54c.165.456.598.765 1.086.765h3.848A1.14 1.14 0 0 0 3.5 7.117ZM54.688 3.078c.039.125.074.254.101.383h-.719l.227.45.086.175-.047.02v1.277c.309.234.45.629.355 1.004a.967.967 0 0 1-.785.718l-.004.012a1.534 1.534 0 0 1-1.488 1.153h-3.848c-.699 0-1.312-.477-1.488-1.153l-.004-.012a.967.967 0 0 1-.785-.718.967.967 0 0 1 .356-1.004V4.086l-.239-.477.176-.086.121-.062h-.55a4.426 4.426 0 0 1 8.535-.383Zm-7.083.383a.229.229 0 0 0-.085.02l-.594.3.172.344.25-.125a.58.58 0 0 1 .52 0l.421.21a.19.19 0 0 0 .172 0l.426-.21a.57.57 0 0 1 .515 0l.426.21a.19.19 0 0 0 .172 0l.426-.21a.57.57 0 0 1 .515 0l.426.21a.2.2 0 0 0 .164.005l.555-.246a.567.567 0 0 1 .465 0l.554.246a.2.2 0 0 0 .165-.004l.597-.3-.172-.345-.273.137a.572.572 0 0 1-.492.012l-.535-.235a.162.162 0 0 0-.075-.02h-.004a.162.162 0 0 0-.074.02l-.535.235a.572.572 0 0 1-.492-.012l-.445-.219a.157.157 0 0 0-.086-.023.213.213 0 0 0-.086.02l-.426.214a.57.57 0 0 1-.516 0l-.422-.21a.181.181 0 0 0-.09-.024.213.213 0 0 0-.085.02l-.426.214a.57.57 0 0 1-.516 0l-.422-.21a.178.178 0 0 0-.086-.024Zm0-.383h-.94a4.04 4.04 0 0 1 7.616 0h-.402l-.012-.027-.05.027Zm5.836 1.477.262-.133h.25v.387h-6.922v-.223l.067-.031.261-.133h.496l.262.133a.57.57 0 0 0 .516 0l.262-.133h.5l.261.133a.57.57 0 0 0 .516 0l.262-.133h.5l.261.133a.572.572 0 0 0 .492.011l.32-.144h.622l.32.144c.16.07.34.067.492-.011Zm-6.097.636 3.148.946 3.149-.946Zm-.121.387h.062l3.207.961 3.203-.96h.063a.576.576 0 1 1 0 1.151h-6.535a.577.577 0 1 1 0-1.152Zm.257 1.54c.165.456.598.765 1.086.765h3.848a1.14 1.14 0 0 0 1.086-.766ZM30.672 4.043a1.73 1.73 0 0 0-1.633-1.16h-8.078a1.73 1.73 0 0 0-1.633 1.16 1.154 1.154 0 0 0 .004 2.3 1.724 1.724 0 0 0 .215 1.579c.324.46.851.734 1.414.73h8.078a1.724 1.724 0 0 0 1.629-2.309 1.154 1.154 0 0 0 .004-2.3Zm-1.633-.773h-8.078c-.52 0-.992.296-1.215.77h10.508a1.34 1.34 0 0 0-1.215-.77Zm-1.797 5c.406-.329.645-.825.64-1.348H27.5c0 .746-.602 1.348-1.348 1.348h-.832c.407-.329.64-.825.64-1.348h-.382c0 .746-.605 1.348-1.348 1.348h-.835c.41-.329.644-.825.644-1.348h-.387c0 .746-.601 1.348-1.343 1.348H20.96a1.345 1.345 0 0 1-1.344-1.348c0-.742.602-1.344 1.344-1.344h8.078c.742 0 1.344.602 1.344 1.344 0 .746-.602 1.348-1.344 1.348ZM20.961 5.19c-.578 0-1.117.29-1.438.77h-.101a.771.771 0 0 1-.77-.77c0-.425.348-.77.77-.77h11.156c.422 0 .77.345.77.77 0 .426-.348.77-.77.77h-.101c-.32-.48-.86-.77-1.438-.77ZM7.5 22.117a1.54 1.54 0 1 0-.001-3.079 1.54 1.54 0 0 0 .001 3.08Zm1.152-1.539a1.152 1.152 0 1 1-2.304 0c0-.637.515-1.156 1.152-1.156.637 0 1.152.52 1.152 1.156ZM8.078 15v-.383h1.54v-1.156H7.69a.769.769 0 0 0-.77.77v1.921h-2.69l-.254.77-.13.387h.419L5 25h5l.734-7.691h.418l-.129-.387-.253-.77H8.078Zm-.77-.77v1.922h.383V14.23h1.54v-.382H7.69a.383.383 0 0 0-.382.382Zm.383 2.31h2.801l.13.382H4.378l.129-.383Zm2.657.769H4.652l.7 7.308h4.296ZM24.809 17.691h-1.157v.77H22.5v.77h-1.152v2.69h-.578l.046.388.723 6.152h6.922l.723-6.152.046-.387h-.578V19.23H27.5v-.77h-1.152v-.769Zm3.46 4.23v-2.304H27.5v.766h.578v1.539Zm-.578 0V20.77h-.77v1.152Zm-1.152 1.157V20h-.77v3.688c.31-.137.57-.348.77-.61Zm-1.156.73V19.23h-.766v4.579c.254.05.512.05.766 0Zm-1.153-.12V20h-.77v3.078c.2.266.466.477.77.61Zm-1.152-1.766V20.77h-.77v1.152Zm-1.156 0v-1.54h.578v-.765h-.77v2.305Zm5.195-2.305v-.77h-.77v.77h.575v.766h.195Zm-1.156 0v-1.539h-.77v.77h.579v.77Zm-1.152-.77v-.769h-.77v1.54h.191v-.77Zm-1.157.77v-.77h-.77v1.536h.196v-.766ZM25 24.23a2.306 2.306 0 0 0 2.273-1.921h1.524l-.676 5.77H21.88l-.676-5.77h1.524A2.306 2.306 0 0 0 25 24.23ZM40.77 16.54v.382H40v-.383Zm.77 0h-.388v.382h.387Zm-3.849 0v.019a.96.96 0 0 0-.105 1.855l.012.047.215.863a.384.384 0 0 0 .37.293h.005l1.347 4.719c.047.164.2.277.371.281h.957a.398.398 0 0 0 .371-.281l1.348-4.719c.18 0 .332-.12.375-.293l.215-.863.012-.047a.96.96 0 0 0-.106-1.855v-.02a2.692 2.692 0 0 0-2.695-2.691 2.692 2.692 0 0 0-2.692 2.691Zm.77 0h1.156v.382h-1.734a.576.576 0 0 0-.574.578c0 .32.257.578.574.578h5a.577.577 0 1 0 0-1.156h-.574v-.383h.382a2.307 2.307 0 1 0-4.613 0Zm-.277 2.69-.192-.77h4.785l-.191.77Zm1.722 5-1.32-4.613h3.598l-1.32 4.613ZM28.848 46.54a4.231 4.231 0 1 0-.002-8.463 4.231 4.231 0 0 0 .002 8.462Zm4.613-4.231a4.615 4.615 0 1 1-9.23-.004 4.615 4.615 0 0 1 9.23.004Zm-5.457 3.41.39-.168c.29-.121.614-.121.903 0l.39.168c.18.074.383.008.481-.16l.219-.364c.164-.27.425-.46.73-.53l.414-.095a.387.387 0 0 0 .297-.41l-.039-.422a1.155 1.155 0 0 1 .281-.86l.278-.32a.385.385 0 0 0 0-.503l-.278-.32a1.15 1.15 0 0 1-.28-.86l.038-.422a.383.383 0 0 0-.297-.41l-.414-.094a1.151 1.151 0 0 1-.73-.531l-.219-.363a.386.386 0 0 0-.48-.157l-.391.168c-.29.121-.613.121-.902 0l-.391-.168a.386.386 0 0 0-.48.157l-.22.367a1.17 1.17 0 0 1-.73.527l-.414.098a.38.38 0 0 0-.293.406l.035.422c.028.313-.074.625-.277.86l-.281.32a.385.385 0 0 0 0 .504l.281.32c.203.238.305.547.277.86l-.039.421a.387.387 0 0 0 .297.41l.414.098c.305.07.57.262.73.527l.22.367a.38.38 0 0 0 .48.153Zm.543.183a.791.791 0 0 1 .598 0l.394.168c.352.153.762.02.961-.312l.219-.363a.76.76 0 0 1 .484-.356l.414-.094a.766.766 0 0 0 .594-.816l-.04-.422a.782.782 0 0 1 .188-.574l.278-.32a.762.762 0 0 0 0-1.008l-.278-.32a.788.788 0 0 1-.187-.575l.039-.422a.766.766 0 0 0-.594-.816l-.414-.098a.769.769 0 0 1-.484-.351l-.219-.368a.778.778 0 0 0-.965-.312l-.39.168a.756.756 0 0 1-.598 0l-.395-.168a.768.768 0 0 0-.957.312l-.218.368a.787.787 0 0 1-.489.351l-.414.098a.773.773 0 0 0-.594.816l.04.422a.776.776 0 0 1-.188.574l-.277.32a.77.77 0 0 0 0 1.008l.277.32a.778.778 0 0 1 .188.571l-.04.422a.77.77 0 0 0 .594.82l.414.094a.779.779 0 0 1 .489.356l.218.363a.763.763 0 0 0 .961.312Zm.683-6.093c0-.106.086-.192.192-.192.105 0 .195.086.195.192 0 .105-.09.191-.195.191a.192.192 0 0 1-.192-.191Zm1.153.382c0-.105.09-.191.195-.191a.192.192 0 0 1 0 .383.195.195 0 0 1-.195-.192Zm-2.113.192a.192.192 0 0 1 .382 0c0 .11-.086.195-.191.195a.193.193 0 0 1-.191-.195Zm-1.153 0a.192.192 0 0 1 .383 0c0 .11-.086.195-.191.195a.193.193 0 0 1-.192-.195Zm.574-.961c0-.106.086-.192.192-.192.11 0 .195.086.195.192a.196.196 0 0 1-.195.195.195.195 0 0 1-.192-.195Zm-1.539 1.539c0-.106.086-.191.196-.191a.192.192 0 0 1 0 .382.193.193 0 0 1-.196-.191Zm.578 1.156c0-.11.086-.195.192-.195.105 0 .195.086.195.195 0 .106-.09.192-.195.192a.192.192 0 0 1-.192-.192Zm0 1.153c0-.106.086-.192.192-.192.105 0 .195.086.195.192 0 .105-.09.19-.195.19a.192.192 0 0 1-.192-.19Zm.77 1.347c0-.11.086-.195.191-.195.106 0 .192.086.192.195a.192.192 0 0 1-.383 0Zm.96-.387c0-.105.087-.19.192-.19.11 0 .196.085.196.19a.193.193 0 0 1-.196.192.192.192 0 0 1-.191-.192Zm.962.77c0-.105.086-.191.195-.191a.192.192 0 0 1 0 .382.193.193 0 0 1-.195-.191Zm.77-1.152c0-.11.085-.196.19-.196a.193.193 0 1 1-.19.196Zm1.156-.77c0-.105.086-.195.191-.195.106 0 .191.09.191.195a.192.192 0 0 1-.382 0Zm-.77-.578a.192.192 0 1 1 .384 0 .192.192 0 0 1-.384 0Zm.77-.578a.192.192 0 0 1 .382 0 .195.195 0 0 1-.19.195.195.195 0 0 1-.192-.195Zm-.965-.77c0-.105.09-.191.195-.191.106 0 .192.086.192.191 0 .11-.086.196-.192.196a.196.196 0 0 1-.195-.196ZM25.77 42.31a.192.192 0 1 1 .383 0 .192.192 0 0 1-.383 0Zm3.078.96a.96.96 0 1 0 0-1.921.964.964 0 0 0-.965.96c0 .532.433.962.965.962Zm1.343-.96a1.345 1.345 0 1 1-1.344-1.348c.743 0 1.344.602 1.344 1.348Zm16.54-5.579a.192.192 0 0 0-.192.192c0 .105.086.195.191.195h.387c.106 0 .192-.09.192-.195a.192.192 0 0 0-.192-.192Zm3.652 1.73c0-.105.09-.19.195-.19h.383a.192.192 0 0 1 0 .382h-.383a.195.195 0 0 1-.195-.191Zm-2.692.962a.193.193 0 0 0-.191.195c0 .106.086.192.191.192h.387a.192.192 0 0 0 .192-.192.193.193 0 0 0-.192-.195Zm-4.808.195a.192.192 0 0 0 0 .383h.387a.192.192 0 0 0 0-.383Zm.965.766c-.11 0-.196.09-.196.195 0 .106.086.192.196.192h.382a.192.192 0 0 0 .192-.192.195.195 0 0 0-.192-.195Zm1.73 0c0-.106.086-.192.192-.192h.382a.193.193 0 1 1 0 .387h-.382a.193.193 0 0 1-.192-.195Zm2.883.195c0-.105.086-.195.191-.195h.387c.106 0 .191.09.191.195a.192.192 0 0 1-.19.192h-.388a.192.192 0 0 1-.191-.192Zm2.309-.387a.192.192 0 0 0-.192.192c0 .11.086.195.192.195h.382a.193.193 0 1 0 0-.387ZM48.652 37.5c0-.105.086-.191.196-.191h.382a.192.192 0 0 1 0 .382h-.382a.193.193 0 0 1-.196-.191ZM45 37.5a.192.192 0 0 0 0 .383h.383c.11 0 .195-.086.195-.192a.193.193 0 0 0-.195-.191Zm1.152.96c0-.105.086-.19.196-.19h.382a.192.192 0 0 1 0 .382h-.382a.193.193 0 0 1-.196-.191Zm-4.804 2.888c0-.094 0-.184.004-.27a.966.966 0 0 1-.329-1.539.768.768 0 0 1 .364-.996.961.961 0 0 1 .652-1.195.56.56 0 0 1 .281-.203.963.963 0 0 1 1.492-.63 5.94 5.94 0 0 1 3.497-1.132c1.304 0 2.511.422 3.492 1.133a.952.952 0 0 1 .918-.094c.304.129.52.398.574.723a.57.57 0 0 1 .285.203.961.961 0 0 1 .652 1.195.768.768 0 0 1 .36.996.956.956 0 0 1-.328 1.54c.004.085.008.175.008.269v.191H41.348Zm.156-1.38c-.05.227-.09.454-.117.684a.574.574 0 0 1-.117-.804c.07.05.148.093.234.12Zm.289-.886c-.07.168-.133.336-.184.516a.39.39 0 0 1-.265-.344.392.392 0 0 1 .222-.371c.063.078.141.144.227.199Zm.445-.875c-.105.168-.199.34-.285.516a.578.578 0 0 1-.016-.899c.04.168.149.305.301.383Zm.219-.328c.066-.094.14-.188.211-.277a.192.192 0 0 0-.215-.098.193.193 0 0 0-.144.191c0 .09.062.164.148.184Zm1.027-1.11c-.199.169-.382.348-.558.536a.533.533 0 0 0-.211-.149.567.567 0 0 1 .297-.363.586.586 0 0 1 .472-.023Zm8.203.536a6.047 6.047 0 0 0-.558-.535.578.578 0 0 1 .773.387.533.533 0 0 0-.21.148Zm.258.297c.075.09.145.183.211.277a.192.192 0 0 0 .153-.184.197.197 0 0 0-.145-.191.2.2 0 0 0-.219.098Zm.72 1.12a6.678 6.678 0 0 0-.29-.515.565.565 0 0 0 .3-.383c.138.114.212.278.212.453a.578.578 0 0 1-.223.446Zm.343.872a6.15 6.15 0 0 0-.184-.512.982.982 0 0 0 .223-.2.38.38 0 0 1 .223.368.387.387 0 0 1-.262.344Zm.222 1.058c-.027-.23-.07-.46-.12-.683a.914.914 0 0 0 .238-.121c.09.12.129.273.109.425a.567.567 0 0 1-.227.38Zm-.347.5a5.571 5.571 0 0 0-5.57-5.394 5.572 5.572 0 0 0-5.575 5.394Zm-38.973-3.05a.412.412 0 0 1-.066-.22v-2.304h-.383v2.305c0 .324.203.613.508.722.304.11.648.016.855-.23a.772.772 0 0 0 .176-.492v-2.305h-.387v2.305c0 .105-.039.203-.113.273a.384.384 0 0 1-.59-.055Zm.512-4.254a.919.919 0 0 0 .21-.024c.06.25.235.453.473.547a.773.773 0 0 0 .72-.086c.218.395.331.84.327 1.293v4.613c0 .637-.515 1.157-1.152 1.157h-.578v1.73a.96.96 0 1 1-1.922 0v-1.73h-.578c-.637 0-1.152-.52-1.152-1.157v-4.613a2.695 2.695 0 0 1 2.69-2.695c0 .531.43.965.962.965Zm-3.27 2.882v2.31c0 .151.094.292.235.35a.386.386 0 0 0 .472-.136.396.396 0 0 0 .063-.215V36.73h.387v2.31a.76.76 0 0 1-1.031.723.868.868 0 0 1-.126-.056v.484c0 .426.348.77.77.77H15c.426 0 .77-.344.77-.77v-4.613c0-.297-.043-.555-.141-.805-.082.02-.164.032-.246.036-.41 0-.793-.22-1-.579a1.345 1.345 0 0 1-1.242-.937 2.307 2.307 0 0 0-1.989 2.285Zm1.73 4.618v1.73a.579.579 0 0 0 1.157 0v-1.73ZM-3.27 36.73a.192.192 0 0 0-.19.192c0 .105.085.195.19.195h.387c.106 0 .192-.09.192-.195a.192.192 0 0 0-.192-.192Zm3.653 1.73c0-.105.09-.19.195-.19h.383a.192.192 0 0 1 0 .382H.578a.195.195 0 0 1-.195-.191Zm-2.692.962a.193.193 0 0 0-.191.195c0 .106.086.192.191.192h.387a.192.192 0 0 0 .192-.192.193.193 0 0 0-.192-.195Zm-4.808.195a.192.192 0 0 0 0 .383h.387a.192.192 0 0 0 0-.383Zm.965.766c-.11 0-.196.09-.196.195 0 .106.086.192.196.192h.382a.192.192 0 0 0 .192-.192.195.195 0 0 0-.192-.195Zm1.73 0c0-.106.086-.192.192-.192h.382a.193.193 0 1 1 0 .387h-.382a.193.193 0 0 1-.192-.195Zm2.883.195c0-.105.086-.195.191-.195h.387c.106 0 .191.09.191.195a.192.192 0 0 1-.19.192h-.388a.192.192 0 0 1-.191-.192Zm2.309-.387a.192.192 0 0 0-.192.192c0 .11.086.195.192.195h.382a.193.193 0 1 0 0-.387ZM-1.348 37.5c0-.105.086-.191.196-.191h.382a.192.192 0 0 1 0 .382h-.382a.193.193 0 0 1-.196-.191ZM-5 37.5a.192.192 0 0 0 0 .383h.383c.11 0 .195-.086.195-.192a.193.193 0 0 0-.195-.191Zm1.152.96c0-.105.086-.19.196-.19h.382a.192.192 0 0 1 0 .382h-.382a.193.193 0 0 1-.196-.191Zm-4.804 2.888c0-.094 0-.184.004-.27a.966.966 0 0 1-.329-1.539.768.768 0 0 1 .364-.996.961.961 0 0 1 .652-1.195.56.56 0 0 1 .281-.203.963.963 0 0 1 1.492-.63 5.94 5.94 0 0 1 3.497-1.132c1.304 0 2.511.422 3.492 1.133a.952.952 0 0 1 .918-.094c.304.129.52.398.574.723a.57.57 0 0 1 .285.203.961.961 0 0 1 .652 1.195.768.768 0 0 1 .36.996.956.956 0 0 1-.328 1.54c.004.085.008.175.008.269v.191H-8.652Zm.156-1.38c-.05.227-.09.454-.117.684a.574.574 0 0 1-.117-.804c.07.05.148.093.234.12Zm.289-.886c-.07.168-.133.336-.184.516a.39.39 0 0 1-.265-.344.392.392 0 0 1 .222-.371c.063.078.141.144.227.199Zm.445-.875c-.105.168-.199.34-.285.516a.578.578 0 0 1-.015-.899c.039.168.148.305.3.383Zm.219-.328c.066-.094.14-.188.211-.277a.192.192 0 0 0-.215-.098.193.193 0 0 0-.144.191c0 .09.062.164.148.184Zm1.027-1.11c-.199.169-.382.348-.558.536a.533.533 0 0 0-.211-.149.567.567 0 0 1 .297-.363.586.586 0 0 1 .472-.023Zm8.204.536a6.047 6.047 0 0 0-.56-.535.578.578 0 0 1 .773.387.533.533 0 0 0-.21.148Zm.257.297c.075.09.145.183.211.277a.192.192 0 0 0 .153-.184.197.197 0 0 0-.145-.191.2.2 0 0 0-.219.098Zm.72 1.12a6.678 6.678 0 0 0-.29-.515.565.565 0 0 0 .3-.383c.138.114.212.278.212.453a.578.578 0 0 1-.223.446Zm.343.872a6.15 6.15 0 0 0-.184-.512.982.982 0 0 0 .223-.2.38.38 0 0 1 .223.368.387.387 0 0 1-.262.344Zm.222 1.058c-.027-.23-.07-.46-.12-.683a.914.914 0 0 0 .238-.121c.09.12.129.273.109.425a.567.567 0 0 1-.227.38Zm-.347.5a5.571 5.571 0 0 0-5.57-5.394 5.572 5.572 0 0 0-5.575 5.394Zm0 0"/></svg>