<svg xmlns="http://www.w3.org/2000/svg" width="50" height="50"><path style="stroke:none;fill-rule:nonzero;fill:#fff;fill-opacity:1" d="M50 3.906v.52a2.866 2.866 0 0 0-2.863 2.867c0 .504.3 1.234.656 1.59l.617.613c.492.535.617 1.309.317 1.969l-.114.219a2.094 2.094 0 0 1-1.734 1.078h-9.117v9.117c.035.527.328 1.004.789 1.27l.219.113c.41.203 1.039.101 1.363-.223l.613-.613a3.144 3.144 0 0 1 1.957-.813 3.386 3.386 0 0 1 .004 6.773 3.133 3.133 0 0 1-1.96-.812l-.614-.613a1.29 1.29 0 0 0-1.363-.223l-.22.114c-.46.265-.753.742-.788 1.27v9.116h9.117a2.094 2.094 0 0 1 1.734 1.078l.114.22c.3.66.175 1.433-.317 1.968l-.617.613c-.39.442-.625 1-.656 1.59A2.866 2.866 0 0 0 50 45.574v.52a3.386 3.386 0 0 1-3.387-3.387c.035-.727.32-1.422.813-1.96l.613-.614a1.29 1.29 0 0 0 .223-1.363l-.114-.22a1.584 1.584 0 0 0-1.27-.788h-9.116v9.117a2.094 2.094 0 0 1-1.078 1.734l-.22.114c-.66.3-1.433.175-1.968-.317l-.613-.617c-.442-.39-1-.625-1.59-.656A2.866 2.866 0 0 0 29.426 50h-.52a3.386 3.386 0 0 1 3.387-3.387c.64 0 1.508.36 1.96.813l.614.613c.375.332.906.418 1.363.223l.22-.114c.46-.265.753-.742.788-1.27v-9.116h-9.117a2.094 2.094 0 0 1-1.734-1.078l-.114-.22c-.3-.66-.175-1.433.317-1.968l.617-.613c.39-.442.625-1 .656-1.59A2.866 2.866 0 0 0 25 29.426a2.866 2.866 0 0 0-2.863 2.867c0 .504.3 1.234.656 1.59l.617.613c.492.535.617 1.309.317 1.969l-.114.219a2.094 2.094 0 0 1-1.734 1.078h-9.117v9.117c.035.527.328 1.004.789 1.27l.219.113c.41.203 1.039.101 1.363-.223l.613-.613a3.144 3.144 0 0 1 1.957-.813A3.391 3.391 0 0 1 21.093 50h-.519a2.866 2.866 0 0 0-2.867-2.863c-.504 0-1.234.3-1.59.656l-.613.617a1.802 1.802 0 0 1-1.969.317l-.219-.114a2.094 2.094 0 0 1-1.078-1.734v-9.117H3.121a1.584 1.584 0 0 0-1.27.789l-.113.219c-.203.41-.101 1.039.223 1.363l.613.613c.489.54.778 1.23.813 1.957A3.391 3.391 0 0 1 0 46.093v-.519a2.866 2.866 0 0 0 2.863-2.867c0-.504-.3-1.234-.656-1.59l-.617-.613a1.802 1.802 0 0 1-.317-1.969l.114-.219a2.094 2.094 0 0 1 1.734-1.078h9.117v-9.117a1.584 1.584 0 0 0-.789-1.27l-.219-.113c-.414-.207-1.039-.101-1.363.223l-.613.613a3.133 3.133 0 0 1-1.961.813 3.386 3.386 0 1 1 0-6.774c.64 0 1.508.36 1.96.813l.614.613c.375.332.906.418 1.363.223l.22-.114c.46-.265.753-.742.788-1.27v-9.116H3.121a2.094 2.094 0 0 1-1.734-1.078l-.114-.22c-.3-.66-.175-1.433.317-1.968l.617-.613c.39-.442.625-1 .656-1.59A2.866 2.866 0 0 0 0 4.426v-.52a3.386 3.386 0 0 1 3.387 3.387c0 .64-.36 1.508-.813 1.96l-.613.614a1.292 1.292 0 0 0-.223 1.363l.114.22c.265.46.742.753 1.27.788h9.116V3.121a2.094 2.094 0 0 1 1.078-1.734l.22-.114c.66-.3 1.433-.175 1.968.317l.613.617c.442.39 1 .625 1.59.656A2.866 2.866 0 0 0 20.574 0h.52a3.386 3.386 0 0 1-3.387 3.387 3.133 3.133 0 0 1-1.96-.813l-.614-.613a1.29 1.29 0 0 0-1.363-.223l-.22.114c-.46.265-.753.742-.788 1.27v9.116h9.117a2.094 2.094 0 0 1 1.734 1.078l.114.22c.3.66.175 1.433-.317 1.968l-.617.613c-.39.442-.625 1-.656 1.59A2.866 2.866 0 0 0 25 20.574a2.866 2.866 0 0 0 2.863-2.867c0-.504-.3-1.234-.656-1.59l-.617-.613a1.802 1.802 0 0 1-.317-1.969l.114-.219a2.094 2.094 0 0 1 1.734-1.078h9.117V3.121a1.584 1.584 0 0 0-.789-1.27l-.219-.113c-.414-.207-1.039-.101-1.363.223l-.613.613a3.133 3.133 0 0 1-1.961.813A3.386 3.386 0 0 1 28.906 0h.52a2.866 2.866 0 0 0 2.867 2.863c.504 0 1.234-.3 1.59-.656l.613-.617a1.802 1.802 0 0 1 1.969-.317l.219.114a2.094 2.094 0 0 1 1.078 1.734v9.117h9.117a1.584 1.584 0 0 0 1.27-.789l.113-.219c.207-.414.101-1.039-.223-1.363l-.613-.613a3.133 3.133 0 0 1-.813-1.961A3.386 3.386 0 0 1 50 3.906ZM21.879 37.238a1.584 1.584 0 0 0 1.27-.789l.113-.219c.207-.414.101-1.039-.223-1.363l-.613-.613a3.133 3.133 0 0 1-.813-1.961 3.386 3.386 0 1 1 6.774 0c0 .64-.36 1.508-.813 1.96l-.613.614a1.292 1.292 0 0 0-.223 1.363l.114.22c.265.46.742.753 1.27.788h9.116v-9.117a2.094 2.094 0 0 1 1.078-1.734l.22-.114c.66-.3 1.433-.175 1.968.317l.613.617c.442.39 1 .625 1.59.656A2.866 2.866 0 0 0 45.574 25a2.866 2.866 0 0 0-2.867-2.863c-.504 0-1.234.3-1.59.656l-.613.617a1.802 1.802 0 0 1-1.969.317l-.219-.114a2.094 2.094 0 0 1-1.078-1.734v-9.117h-9.117a1.584 1.584 0 0 0-1.27.789l-.113.219c-.203.41-.101 1.039.223 1.363l.613.613c.488.54.778 1.23.813 1.957a3.386 3.386 0 0 1-6.773.004c.034-.727.32-1.422.812-1.96l.613-.614a1.29 1.29 0 0 0 .223-1.363l-.114-.22a1.584 1.584 0 0 0-1.27-.788h-9.116v9.117a2.094 2.094 0 0 1-1.078 1.734l-.22.114c-.66.3-1.433.175-1.968-.317l-.613-.617c-.442-.39-1-.625-1.59-.656A2.866 2.866 0 0 0 4.426 25a2.866 2.866 0 0 0 2.867 2.863c.504 0 1.234-.3 1.59-.656l.613-.617a1.802 1.802 0 0 1 1.969-.317l.219.114a2.094 2.094 0 0 1 1.078 1.734v9.117Zm0 0"/></svg>