<svg xmlns="http://www.w3.org/2000/svg" width="50" height="50" fill="none"><path fill="#fff" d="M15.494 12.253a7.553 7.553 0 0 1-1.954 7.288 7.542 7.542 0 0 1-7.285 1.952 7.551 7.551 0 0 1 5.337-9.236 7.539 7.539 0 0 1 3.902 0v-.004Zm-8.154 8.69a6.779 6.779 0 0 0 7.295-4.543 6.79 6.79 0 0 0 .305-3.061l-7.6 7.604Zm2.713-7.227v3.45l4.352-4.359a6.838 6.838 0 0 0-4.36.905l.008.004ZM8.738 14.74a6.785 6.785 0 0 0-1.933 5.666l2.49-2.488v-3.68a6.88 6.88 0 0 0-.557.502ZM44.144 12.253a7.55 7.55 0 0 1-5.335 9.24 7.539 7.539 0 0 1-3.904 0 7.552 7.552 0 0 1 1.957-7.285 7.543 7.543 0 0 1 7.282-1.951v-.004Zm-8.154 8.69a6.779 6.779 0 0 0 7.295-4.543c.335-.984.439-2.031.305-3.061l-7.6 7.604Zm2.713-7.227v3.45l4.352-4.359a6.838 6.838 0 0 0-4.36.905l.008.004Zm-1.315 1.025a6.785 6.785 0 0 0-1.933 5.666l2.49-2.488v-3.68c-.191.155-.376.321-.557.502ZM29.494 35.253a7.553 7.553 0 0 1-1.954 7.288 7.542 7.542 0 0 1-7.285 1.952 7.55 7.55 0 0 1 5.337-9.236 7.539 7.539 0 0 1 3.902 0v-.004Zm-8.154 8.69a6.779 6.779 0 0 0 7.295-4.543 6.79 6.79 0 0 0 .305-3.061l-7.6 7.604Zm2.713-7.227v3.45l4.352-4.359a6.838 6.838 0 0 0-4.36.905l.008.004Zm-1.315 1.025a6.785 6.785 0 0 0-1.933 5.666l2.49-2.488v-3.68c-.192.155-.376.321-.557.502ZM29.494 5.253a7.553 7.553 0 0 1-1.954 7.287 7.542 7.542 0 0 1-7.285 1.953 7.55 7.55 0 0 1 5.337-9.236 7.54 7.54 0 0 1 3.902 0v-.004Zm-8.154 8.69A6.779 6.779 0 0 0 28.635 9.4a6.79 6.79 0 0 0 .305-3.061l-7.6 7.604Zm2.713-7.227v3.45l4.352-4.359a6.838 6.838 0 0 0-4.36.905l.008.004ZM22.738 7.74a6.785 6.785 0 0 0-1.933 5.666l2.49-2.488V7.24c-.192.155-.376.321-.557.502ZM29.794 20.053a7.552 7.552 0 0 1-5.335 9.24 7.539 7.539 0 0 1-3.904 0 7.55 7.55 0 0 1 5.337-9.236 7.539 7.539 0 0 1 3.902 0v-.004Zm-8.154 8.69a6.779 6.779 0 0 0 7.295-4.543 6.79 6.79 0 0 0 .305-3.061l-7.6 7.604Zm2.713-7.227v3.45l4.352-4.359a6.838 6.838 0 0 0-4.36.905l.008.004Zm-1.315 1.025a6.785 6.785 0 0 0-1.933 5.666l2.49-2.488v-3.68c-.191.155-.376.321-.557.502ZM15.494 27.203a7.553 7.553 0 0 1-1.954 7.287 7.542 7.542 0 0 1-7.285 1.953 7.551 7.551 0 0 1 5.337-9.236 7.539 7.539 0 0 1 3.902 0v-.004Zm-8.154 8.69a6.779 6.779 0 0 0 7.295-4.543 6.79 6.79 0 0 0 .305-3.061l-7.6 7.604Zm2.713-7.227v3.45l4.352-4.359a6.838 6.838 0 0 0-4.36.905l.008.004ZM8.738 29.69a6.785 6.785 0 0 0-1.933 5.666l2.49-2.488v-3.68a6.88 6.88 0 0 0-.557.502ZM43.494 27.203a7.553 7.553 0 0 1-1.955 7.287 7.542 7.542 0 0 1-7.284 1.953 7.55 7.55 0 0 1 5.337-9.236 7.539 7.539 0 0 1 3.902 0v-.004Zm-8.154 8.69a6.777 6.777 0 0 0 7.295-4.543 6.79 6.79 0 0 0 .305-3.061l-7.6 7.604Zm2.713-7.227v3.45l4.352-4.359a6.838 6.838 0 0 0-4.36.905l.008.004Zm-1.315 1.025a6.785 6.785 0 0 0-1.933 5.666l2.49-2.488v-3.68c-.192.155-.376.321-.557.502Z"/></svg>