<svg xmlns="http://www.w3.org/2000/svg" width="50" height="50"><path style="stroke:none;fill-rule:evenodd;fill:#fff;fill-opacity:1" d="M25.625 23.492v-7.867h-1.25v7.867l-5.563-5.562-.882.883 5.562 5.562h-7.867v1.25h7.867l-5.562 5.563.883.882 5.562-5.562v7.867h1.25v-7.867l5.563 5.562.882-.883-5.562-5.562h7.867v-1.25h-7.867l5.562-5.563-.883-.882ZM.625.625h1.25v1.25H.625Zm0 2.5h1.25v1.25H.625Zm0 2.5h1.25v1.25H.625Zm0 2.5h1.25v1.25H.625Zm0 2.5h1.25v1.25H.625Zm0 2.5h1.25v1.25H.625Zm0 2.5h1.25v1.25H.625Zm0 2.5h1.25v1.25H.625Zm0 2.5h1.25v1.25H.625Zm0 2.5h1.25v1.25H.625Zm0 2.5h1.25v1.25H.625Zm0 2.5h1.25v1.25H.625Zm0 2.5h1.25v1.25H.625Zm0 2.5h1.25v1.25H.625Zm0 2.5h1.25v1.25H.625Zm0 2.5h1.25v1.25H.625Zm0 2.5h1.25v1.25H.625Zm0 2.5h1.25v1.25H.625Zm0 2.5h1.25v1.25H.625Zm0 2.5h1.25v1.25H.625Zm2.5 0h1.25v1.25h-1.25Zm2.5 0h1.25v1.25h-1.25Zm2.5 0h1.25v1.25h-1.25Zm2.5 0h1.25v1.25h-1.25Zm2.5 0h1.25v1.25h-1.25Zm2.5 0h1.25v1.25h-1.25Zm2.5 0h1.25v1.25h-1.25Zm2.5 0h1.25v1.25h-1.25Zm2.5 0h1.25v1.25h-1.25Zm2.5 0h1.25v1.25h-1.25Zm2.5 0h1.25v1.25h-1.25Zm2.5 0h1.25v1.25h-1.25Zm2.5 0h1.25v1.25h-1.25Zm2.5 0h1.25v1.25h-1.25Zm2.5 0h1.25v1.25h-1.25Zm2.5 0h1.25v1.25h-1.25Zm2.5 0h1.25v1.25h-1.25Zm2.5 0h1.25v1.25h-1.25Zm2.5 0h1.25v1.25h-1.25Zm-45-47.5h1.25v1.25h-1.25Zm2.5 0h1.25v1.25h-1.25Zm2.5 0h1.25v1.25h-1.25Zm2.5 0h1.25v1.25h-1.25Zm2.5 0h1.25v1.25h-1.25Zm2.5 0h1.25v1.25h-1.25Zm2.5 0h1.25v1.25h-1.25Zm2.5 0h1.25v1.25h-1.25Zm2.5 0h1.25v1.25h-1.25Zm2.5 0h1.25v1.25h-1.25Zm2.5 0h1.25v1.25h-1.25Zm2.5 0h1.25v1.25h-1.25Zm2.5 0h1.25v1.25h-1.25Zm2.5 0h1.25v1.25h-1.25Zm2.5 0h1.25v1.25h-1.25Zm2.5 0h1.25v1.25h-1.25Zm2.5 0h1.25v1.25h-1.25Zm2.5 0h1.25v1.25h-1.25Zm2.5 0h1.25v1.25h-1.25Zm0 2.5h1.25v1.25h-1.25Zm0 2.5h1.25v1.25h-1.25Zm0 2.5h1.25v1.25h-1.25Zm0 2.5h1.25v1.25h-1.25Zm0 2.5h1.25v1.25h-1.25Zm0 2.5h1.25v1.25h-1.25Zm0 2.5h1.25v1.25h-1.25Zm0 2.5h1.25v1.25h-1.25Zm0 2.5h1.25v1.25h-1.25Zm0 2.5h1.25v1.25h-1.25Zm0 2.5h1.25v1.25h-1.25Zm0 2.5h1.25v1.25h-1.25Zm0 2.5h1.25v1.25h-1.25Zm0 2.5h1.25v1.25h-1.25Zm0 2.5h1.25v1.25h-1.25Zm0 2.5h1.25v1.25h-1.25Zm0 2.5h1.25v1.25h-1.25Zm0 2.5h1.25v1.25h-1.25Zm-45-42.5h43.75v43.75H3.125Zm1.25 42.5h41.25V4.375H4.375Zm1.25-40h38.75v38.75H5.625Zm1.25 37.5h36.25V6.875H6.875Zm1.25-24.75V8.125h10.25a18.193 18.193 0 0 0-10.25 10.25Zm1.25-9v4.168a19.523 19.523 0 0 1 4.168-4.168Zm-1.25 32.5v-10.25a18.193 18.193 0 0 0 10.25 10.25Zm1.25-5.418v4.168h4.168a19.523 19.523 0 0 1-4.168-4.168Zm32.5 5.418h-10.25a18.193 18.193 0 0 0 10.25-10.25Zm-5.418-1.25h4.168v-4.168a19.523 19.523 0 0 1-4.168 4.168Zm5.418-32.5v10.25a18.193 18.193 0 0 0-10.25-10.25Zm-1.25 5.418V9.375h-4.168a19.523 19.523 0 0 1 4.168 4.168Zm-16.25-5.418h1.25v1.25h-1.25Zm4.387.414 1.207.324-.32 1.207-1.212-.328Zm4.133 1.535 1.085.625-.625 1.082-1.085-.625Zm3.593 2.551.887.887-.887.875-.875-.875Zm2.813 3.395.625 1.085-1.082.625-.625-1.085Zm1.836 4.011.324 1.207-1.203.325-.328-1.211Zm.738 4.344v1.25h-1.25v-1.25Zm-.414 4.387-.324 1.207-1.207-.32.328-1.212Zm-1.535 4.133L39.3 33.98l-1.082-.625.625-1.085Zm-2.551 3.593-.887.887-.875-.887.875-.875Zm-3.395 2.813-1.085.625-.625-1.082 1.085-.625Zm-8.355 2.574h-1.25v-1.25h1.25Zm4.344-.738-1.207.324-.325-1.203 1.211-.328Zm-8.73.324-1.208-.324.32-1.207 1.212.328Zm-4.134-1.535L16.02 39.3l.625-1.082 1.085.625Zm-3.593-2.551-.887-.887.887-.875.875.875Zm-2.813-3.395-.625-1.085 1.082-.625.625 1.085ZM8.863 29.97l-.324-1.207 1.203-.325.328 1.211Zm-.738-4.344v-1.25h1.25v1.25Zm.414-4.387.324-1.207 1.207.32-.328 1.212Zm1.535-4.133.625-1.085 1.082.625-.625 1.085Zm2.551-3.593.887-.887.875.887-.875.875Zm3.395-2.813 1.085-.625.625 1.082-1.085.625Zm4.011-1.836 1.207-.324.325 1.203-1.211.328ZM25 39.375c-7.938 0-14.375-6.438-14.375-14.375 0-7.938 6.438-14.375 14.375-14.375 7.938 0 14.375 6.438 14.375 14.375 0 7.938-6.438 14.375-14.375 14.375Zm0-1.25c7.25 0 13.125-5.875 13.125-13.125S32.25 11.875 25 11.875 11.875 17.75 11.875 25 17.75 38.125 25 38.125Zm0-1.25c-6.559 0-11.875-5.316-11.875-11.875S18.441 13.125 25 13.125 36.875 18.441 36.875 25 31.559 36.875 25 36.875Zm0-1.25c5.867 0 10.625-4.758 10.625-10.625S30.867 14.375 25 14.375 14.375 19.133 14.375 25 19.133 35.625 25 35.625Zm0 0"/></svg>