<svg width="65" height="71" viewBox="0 0 65 71" fill="none" xmlns="http://www.w3.org/2000/svg">
    <path fill-rule="evenodd" clip-rule="evenodd"
        d="M6.05 5.97554V7.09091H5.4997C2.76688 7.09091 0.55 9.28878 0.55 12C0.55 14.7118 2.76606 16.9091 5.4997 16.9091H6.05V18.0245C8.25328 18.2215 10.1159 19.5895 10.9999 21.4964C11.8834 19.5896 13.7454 18.2214 15.95 18.0245V16.9091H16.5003C19.2331 16.9091 21.45 14.7112 21.45 12C21.45 9.28819 19.2339 7.09091 16.5003 7.09091H15.95V5.97551C13.7467 5.77854 11.8841 4.41053 11.0001 2.50357C10.1166 4.4104 8.25461 5.77865 6.05 5.97554ZM14.85 15.8182V17.0988C13.317 17.458 11.9747 18.3064 11 19.4688C10.0253 18.3064 8.68296 17.458 7.15 17.0988V15.8182H5.50198C3.37459 15.8182 1.65 14.1092 1.65 12C1.65 9.89128 3.37573 8.18182 5.50198 8.18182H7.15V6.90117C8.68296 6.54205 10.0253 5.69357 11 4.53117C11.9747 5.69357 13.317 6.54205 14.85 6.90117V8.18182H16.498C18.6254 8.18182 20.35 9.89081 20.35 12C20.35 14.1087 18.6243 15.8182 16.498 15.8182H14.85ZM11.55 24C11.55 21.2888 13.7669 19.0909 16.4997 19.0909H17.05V17.9755C19.2545 17.7787 21.1164 16.4105 22 14.5038V16.5312C21.0253 17.6936 19.683 18.542 18.15 18.9012V20.1818H16.502C14.3757 20.1818 12.65 21.8913 12.65 24H11.55ZM10.45 24C10.45 21.2882 8.23394 19.0909 5.5003 19.0909H4.95V17.9755C2.74672 17.7785 0.884067 16.4105 0.000120654 14.5036L0 16.5312C0.97474 17.6936 2.31704 18.542 3.85 18.9012V20.1818H5.49802C7.62541 20.1818 9.35 21.8908 9.35 24H10.45ZM11.55 0C11.55 2.71181 13.7661 4.90909 16.4997 4.90909H17.05V6.02449C19.2533 6.22146 21.1159 7.58947 21.9999 9.49643L22 7.46883C21.0253 6.30643 19.683 5.45795 18.15 5.09883V3.81818H16.502C14.3746 3.81818 12.65 2.10919 12.65 0H11.55ZM0 9.49617C0.883575 7.58947 2.74549 6.22135 4.95 6.02446V4.90909H5.5003C8.23312 4.90909 10.45 2.71122 10.45 0H9.35C9.35 2.10872 7.62427 3.81818 5.49802 3.81818H3.85V5.09883C2.31704 5.45795 0.97474 6.30643 0 7.46883L0 9.49617Z"
        fill="white" />
    <path fill-rule="evenodd" clip-rule="evenodd"
        d="M6.05 28.9755V30.0909H5.4997C2.76688 30.0909 0.55 32.2888 0.55 35C0.55 37.7118 2.76606 39.9091 5.4997 39.9091H6.05V41.0245C8.25328 41.2215 10.1159 42.5895 10.9999 44.4964C11.8834 42.5896 13.7454 41.2214 15.95 41.0245V39.9091H16.5003C19.2331 39.9091 21.45 37.7112 21.45 35C21.45 32.2882 19.2339 30.0909 16.5003 30.0909H15.95V28.9755C13.7467 28.7785 11.8841 27.4105 11.0001 25.5036C10.1166 27.4104 8.25461 28.7786 6.05 28.9755ZM14.85 38.8182V40.0988C13.317 40.458 11.9747 41.3064 11 42.4688C10.0253 41.3064 8.68296 40.458 7.15 40.0988V38.8182H5.50198C3.37459 38.8182 1.65 37.1092 1.65 35C1.65 32.8913 3.37573 31.1818 5.50198 31.1818H7.15V29.9012C8.68296 29.542 10.0253 28.6936 11 27.5312C11.9747 28.6936 13.317 29.542 14.85 29.9012V31.1818H16.498C18.6254 31.1818 20.35 32.8908 20.35 35C20.35 37.1087 18.6243 38.8182 16.498 38.8182H14.85ZM11.55 47C11.55 44.2888 13.7669 42.0909 16.4997 42.0909H17.05V40.9755C19.2545 40.7787 21.1164 39.4105 22 37.5038V39.5312C21.0253 40.6936 19.683 41.542 18.15 41.9012V43.1818H16.502C14.3757 43.1818 12.65 44.8913 12.65 47H11.55ZM10.45 47C10.45 44.2882 8.23394 42.0909 5.5003 42.0909H4.95V40.9755C2.74672 40.7785 0.884067 39.4105 0.000120654 37.5036L0 39.5312C0.97474 40.6936 2.31704 41.542 3.85 41.9012V43.1818H5.49802C7.62541 43.1818 9.35 44.8908 9.35 47H10.45ZM11.55 23C11.55 25.7118 13.7661 27.9091 16.4997 27.9091H17.05V29.0245C19.2533 29.2215 21.1159 30.5895 21.9999 32.4964L22 30.4688C21.0253 29.3064 19.683 28.458 18.15 28.0988V26.8182H16.502C14.3746 26.8182 12.65 25.1092 12.65 23H11.55ZM0 32.4962C0.883575 30.5895 2.74549 29.2213 4.95 29.0245V27.9091H5.5003C8.23312 27.9091 10.45 25.7112 10.45 23H9.35C9.35 25.1087 7.62427 26.8182 5.49802 26.8182H3.85V28.0988C2.31704 28.458 0.97474 29.3064 0 30.4688L0 32.4962Z"
        fill="white" />
    <path fill-rule="evenodd" clip-rule="evenodd"
        d="M6.05 52.9755V54.0909H5.4997C2.76688 54.0909 0.55 56.2888 0.55 59C0.55 61.7118 2.76606 63.9091 5.4997 63.9091H6.05V65.0245C8.25328 65.2215 10.1159 66.5895 10.9999 68.4964C11.8834 66.5896 13.7454 65.2214 15.95 65.0245V63.9091H16.5003C19.2331 63.9091 21.45 61.7112 21.45 59C21.45 56.2882 19.2339 54.0909 16.5003 54.0909H15.95V52.9755C13.7467 52.7785 11.8841 51.4105 11.0001 49.5036C10.1166 51.4104 8.25461 52.7786 6.05 52.9755ZM14.85 62.8182V64.0988C13.317 64.458 11.9747 65.3064 11 66.4688C10.0253 65.3064 8.68296 64.458 7.15 64.0988V62.8182H5.50198C3.37459 62.8182 1.65 61.1092 1.65 59C1.65 56.8913 3.37573 55.1818 5.50198 55.1818H7.15V53.9012C8.68296 53.542 10.0253 52.6936 11 51.5312C11.9747 52.6936 13.317 53.542 14.85 53.9012V55.1818H16.498C18.6254 55.1818 20.35 56.8908 20.35 59C20.35 61.1087 18.6243 62.8182 16.498 62.8182H14.85ZM11.55 71C11.55 68.2888 13.7669 66.0909 16.4997 66.0909H17.05V64.9755C19.2545 64.7787 21.1164 63.4105 22 61.5038V63.5312C21.0253 64.6936 19.683 65.5421 18.15 65.9012V67.1818H16.502C14.3757 67.1818 12.65 68.8913 12.65 71H11.55ZM10.45 71C10.45 68.2882 8.23394 66.0909 5.5003 66.0909H4.95V64.9755C2.74672 64.7785 0.884067 63.4105 0.000120654 61.5036L0 63.5312C0.97474 64.6936 2.31704 65.5421 3.85 65.9012V67.1818H5.49802C7.62541 67.1818 9.35 68.8908 9.35 71H10.45ZM11.55 47C11.55 49.7118 13.7661 51.9091 16.4997 51.9091H17.05V53.0245C19.2533 53.2215 21.1159 54.5895 21.9999 56.4964L22 54.4688C21.0253 53.3064 19.683 52.458 18.15 52.0988V50.8182H16.502C14.3746 50.8182 12.65 49.1092 12.65 47H11.55ZM0 56.4962C0.883575 54.5895 2.74549 53.2213 4.95 53.0245V51.9091H5.5003C8.23312 51.9091 10.45 49.7112 10.45 47H9.35C9.35 49.1087 7.62427 50.8182 5.49802 50.8182H3.85V52.0988C2.31704 52.458 0.97474 53.3064 0 54.4688L0 56.4962Z"
        fill="white" />
    <path fill-rule="evenodd" clip-rule="evenodd"
        d="M27.775 5.97554V7.09091H27.2497C24.6411 7.09091 22.525 9.28878 22.525 12C22.525 14.7118 24.6403 16.9091 27.2497 16.9091H27.775V18.0245C29.8781 18.2215 31.6561 19.5895 32.4999 21.4964C33.3433 19.5896 35.1206 18.2214 37.225 18.0245V16.9091H37.7503C40.3589 16.9091 42.475 14.7112 42.475 12C42.475 9.28819 40.3597 7.09091 37.7503 7.09091H37.225V5.97551C35.1219 5.77854 33.3439 4.41053 32.5001 2.50357C31.6567 4.4104 29.8794 5.77865 27.775 5.97554ZM36.175 15.8182V17.0988C34.7117 17.458 33.4304 18.3064 32.5 19.4688C31.5696 18.3064 30.2883 17.458 28.825 17.0988V15.8182H27.2519C25.2212 15.8182 23.575 14.1092 23.575 12C23.575 9.89128 25.2223 8.18182 27.2519 8.18182H28.825V6.90117C30.2883 6.54205 31.5696 5.69357 32.5 4.53117C33.4304 5.69357 34.7117 6.54205 36.175 6.90117V8.18182H37.7481C39.7788 8.18182 41.425 9.89081 41.425 12C41.425 14.1087 39.7777 15.8182 37.7481 15.8182H36.175ZM33.025 24C33.025 21.2888 35.1411 19.0909 37.7497 19.0909H38.275V17.9755C40.3793 17.7787 42.1566 16.4105 43 14.5038V16.5312C42.0696 17.6936 40.7883 18.542 39.325 18.9012V20.1818H37.7519C35.7223 20.1818 34.075 21.8913 34.075 24H33.025ZM31.975 24C31.975 21.2882 29.8597 19.0909 27.2503 19.0909H26.725V17.9755C24.6219 17.7785 22.8438 16.4108 22 14.5038V16.5312C22.9304 17.6936 24.2117 18.542 25.675 18.9012V20.1818H27.2481C29.2788 20.1818 30.925 21.8908 30.925 24H31.975ZM33.025 0C33.025 2.71181 35.1403 4.90909 37.7497 4.90909H38.275V6.02449C40.3781 6.22146 42.1561 7.58947 42.9999 9.49643L43 7.46883C42.0696 6.30643 40.7883 5.45795 39.325 5.09883V3.81818H37.7519C35.7212 3.81818 34.075 2.10919 34.075 0H33.025ZM21.9999 9.49643C22.8433 7.58973 24.6207 6.22135 26.725 6.02446V4.90909H27.2503C29.8589 4.90909 31.975 2.71122 31.975 0H30.925C30.925 2.10872 29.2777 3.81818 27.2481 3.81818H25.675V5.09883C24.2117 5.45795 22.9304 6.30643 22 7.46883L21.9999 9.49643Z"
        fill="white" />
    <path fill-rule="evenodd" clip-rule="evenodd"
        d="M27.775 28.9755V30.0909H27.2497C24.6411 30.0909 22.525 32.2888 22.525 35C22.525 37.7118 24.6403 39.9091 27.2497 39.9091H27.775V41.0245C29.8781 41.2215 31.6561 42.5895 32.4999 44.4964C33.3433 42.5896 35.1206 41.2214 37.225 41.0245V39.9091H37.7503C40.3589 39.9091 42.475 37.7112 42.475 35C42.475 32.2882 40.3597 30.0909 37.7503 30.0909H37.225V28.9755C35.1219 28.7785 33.3439 27.4105 32.5001 25.5036C31.6567 27.4104 29.8794 28.7786 27.775 28.9755ZM36.175 38.8182V40.0988C34.7117 40.458 33.4304 41.3064 32.5 42.4688C31.5696 41.3064 30.2883 40.458 28.825 40.0988V38.8182H27.2519C25.2212 38.8182 23.575 37.1092 23.575 35C23.575 32.8913 25.2223 31.1818 27.2519 31.1818H28.825V29.9012C30.2883 29.542 31.5696 28.6936 32.5 27.5312C33.4304 28.6936 34.7117 29.542 36.175 29.9012V31.1818H37.7481C39.7788 31.1818 41.425 32.8908 41.425 35C41.425 37.1087 39.7777 38.8182 37.7481 38.8182H36.175ZM33.025 47C33.025 44.2888 35.1411 42.0909 37.7497 42.0909H38.275V40.9755C40.3793 40.7787 42.1566 39.4105 43 37.5038V39.5312C42.0696 40.6936 40.7883 41.542 39.325 41.9012V43.1818H37.7519C35.7223 43.1818 34.075 44.8913 34.075 47H33.025ZM31.975 47C31.975 44.2882 29.8597 42.0909 27.2503 42.0909H26.725V40.9755C24.6219 40.7785 22.8438 39.4108 22 37.5038V39.5312C22.9304 40.6936 24.2117 41.542 25.675 41.9012V43.1818H27.2481C29.2788 43.1818 30.925 44.8908 30.925 47H31.975ZM33.025 23C33.025 25.7118 35.1403 27.9091 37.7497 27.9091H38.275V29.0245C40.3781 29.2215 42.1561 30.5895 42.9999 32.4964L43 30.4688C42.0696 29.3064 40.7883 28.458 39.325 28.0988V26.8182H37.7519C35.7212 26.8182 34.075 25.1092 34.075 23H33.025ZM21.9999 32.4964C22.8433 30.5897 24.6207 29.2213 26.725 29.0245V27.9091H27.2503C29.8589 27.9091 31.975 25.7112 31.975 23H30.925C30.925 25.1087 29.2777 26.8182 27.2481 26.8182H25.675V28.0988C24.2117 28.458 22.9304 29.3064 22 30.4688L21.9999 32.4964Z"
        fill="white" />
    <path fill-rule="evenodd" clip-rule="evenodd"
        d="M27.775 52.9755V54.0909H27.2497C24.6411 54.0909 22.525 56.2888 22.525 59C22.525 61.7118 24.6403 63.9091 27.2497 63.9091H27.775V65.0245C29.8781 65.2215 31.6561 66.5895 32.4999 68.4964C33.3433 66.5896 35.1206 65.2214 37.225 65.0245V63.9091H37.7503C40.3589 63.9091 42.475 61.7112 42.475 59C42.475 56.2882 40.3597 54.0909 37.7503 54.0909H37.225V52.9755C35.1219 52.7785 33.3439 51.4105 32.5001 49.5036C31.6567 51.4104 29.8794 52.7786 27.775 52.9755ZM36.175 62.8182V64.0988C34.7117 64.458 33.4304 65.3064 32.5 66.4688C31.5696 65.3064 30.2883 64.458 28.825 64.0988V62.8182H27.2519C25.2212 62.8182 23.575 61.1092 23.575 59C23.575 56.8913 25.2223 55.1818 27.2519 55.1818H28.825V53.9012C30.2883 53.542 31.5696 52.6936 32.5 51.5312C33.4304 52.6936 34.7117 53.542 36.175 53.9012V55.1818H37.7481C39.7788 55.1818 41.425 56.8908 41.425 59C41.425 61.1087 39.7777 62.8182 37.7481 62.8182H36.175ZM33.025 71C33.025 68.2888 35.1411 66.0909 37.7497 66.0909H38.275V64.9755C40.3793 64.7787 42.1566 63.4105 43 61.5038V63.5312C42.0696 64.6936 40.7883 65.5421 39.325 65.9012V67.1818H37.7519C35.7223 67.1818 34.075 68.8913 34.075 71H33.025ZM31.975 71C31.975 68.2882 29.8597 66.0909 27.2503 66.0909H26.725V64.9755C24.6219 64.7785 22.8438 63.4108 22 61.5038V63.5312C22.9304 64.6936 24.2117 65.5421 25.675 65.9012V67.1818H27.2481C29.2788 67.1818 30.925 68.8908 30.925 71H31.975ZM33.025 47C33.025 49.7118 35.1403 51.9091 37.7497 51.9091H38.275V53.0245C40.3781 53.2215 42.1561 54.5895 42.9999 56.4964L43 54.4688C42.0696 53.3064 40.7883 52.458 39.325 52.0988V50.8182H37.7519C35.7212 50.8182 34.075 49.1092 34.075 47H33.025ZM21.9999 56.4964C22.8433 54.5897 24.6207 53.2213 26.725 53.0245V51.9091H27.2503C29.8589 51.9091 31.975 49.7112 31.975 47H30.925C30.925 49.1087 29.2777 50.8182 27.2481 50.8182H25.675V52.0988C24.2117 52.458 22.9304 53.3064 22 54.4688L21.9999 56.4964Z"
        fill="white" />
    <path fill-rule="evenodd" clip-rule="evenodd"
        d="M49.05 5.97554V7.09091H48.4997C45.7669 7.09091 43.55 9.28878 43.55 12C43.55 14.7118 45.7661 16.9091 48.4997 16.9091H49.05V18.0245C51.2533 18.2215 53.1159 19.5895 53.9999 21.4964C54.8834 19.5896 56.7454 18.2214 58.95 18.0245V16.9091H59.5003C62.2331 16.9091 64.45 14.7112 64.45 12C64.45 9.28819 62.2339 7.09091 59.5003 7.09091H58.95V5.97551C56.7467 5.77854 54.8841 4.41053 54.0001 2.50357C53.1166 4.4104 51.2546 5.77865 49.05 5.97554ZM57.85 15.8182V17.0988C56.317 17.458 54.9747 18.3064 54 19.4688C53.0253 18.3064 51.683 17.458 50.15 17.0988V15.8182H48.502C46.3746 15.8182 44.65 14.1092 44.65 12C44.65 9.89128 46.3757 8.18182 48.502 8.18182H50.15V6.90117C51.683 6.54205 53.0253 5.69357 54 4.53117C54.9747 5.69357 56.317 6.54205 57.85 6.90117V8.18182H59.498C61.6254 8.18182 63.35 9.89081 63.35 12C63.35 14.1087 61.6243 15.8182 59.498 15.8182H57.85ZM54.55 24C54.55 21.2888 56.7669 19.0909 59.4997 19.0909H60.05V17.9755C62.2545 17.7787 64.1164 16.4105 65 14.5038V16.5312C64.0253 17.6936 62.683 18.542 61.15 18.9012V20.1818H59.502C57.3757 20.1818 55.65 21.8913 55.65 24H54.55ZM53.45 24C53.45 21.2882 51.2339 19.0909 48.5003 19.0909H47.95V17.9755C45.7467 17.7785 43.8839 16.4108 43 14.5038V16.5312C43.9747 17.6936 45.317 18.542 46.85 18.9012V20.1818H48.498C50.6254 20.1818 52.35 21.8908 52.35 24H53.45ZM54.55 0C54.55 2.71181 56.7661 4.90909 59.4997 4.90909H60.05V6.02449C62.2533 6.22146 64.1159 7.58947 64.9999 9.49643L65 7.46883C64.0253 6.30643 62.683 5.45795 61.15 5.09883V3.81818H59.502C57.3746 3.81818 55.65 2.10919 55.65 0H54.55ZM42.9999 9.49643C43.8835 7.58973 45.7455 6.22135 47.95 6.02446V4.90909H48.5003C51.2331 4.90909 53.45 2.71122 53.45 0H52.35C52.35 2.10872 50.6243 3.81818 48.498 3.81818H46.85V5.09883C45.317 5.45795 43.9747 6.30643 43 7.46883L42.9999 9.49643Z"
        fill="white" />
    <path fill-rule="evenodd" clip-rule="evenodd"
        d="M49.05 28.9755V30.0909H48.4997C45.7669 30.0909 43.55 32.2888 43.55 35C43.55 37.7118 45.7661 39.9091 48.4997 39.9091H49.05V41.0245C51.2533 41.2215 53.1159 42.5895 53.9999 44.4964C54.8834 42.5896 56.7454 41.2214 58.95 41.0245V39.9091H59.5003C62.2331 39.9091 64.45 37.7112 64.45 35C64.45 32.2882 62.2339 30.0909 59.5003 30.0909H58.95V28.9755C56.7467 28.7785 54.8841 27.4105 54.0001 25.5036C53.1166 27.4104 51.2546 28.7786 49.05 28.9755ZM57.85 38.8182V40.0988C56.317 40.458 54.9747 41.3064 54 42.4688C53.0253 41.3064 51.683 40.458 50.15 40.0988V38.8182H48.502C46.3746 38.8182 44.65 37.1092 44.65 35C44.65 32.8913 46.3757 31.1818 48.502 31.1818H50.15V29.9012C51.683 29.542 53.0253 28.6936 54 27.5312C54.9747 28.6936 56.317 29.542 57.85 29.9012V31.1818H59.498C61.6254 31.1818 63.35 32.8908 63.35 35C63.35 37.1087 61.6243 38.8182 59.498 38.8182H57.85ZM54.55 47C54.55 44.2888 56.7669 42.0909 59.4997 42.0909H60.05V40.9755C62.2545 40.7787 64.1164 39.4105 65 37.5038V39.5312C64.0253 40.6936 62.683 41.542 61.15 41.9012V43.1818H59.502C57.3757 43.1818 55.65 44.8913 55.65 47H54.55ZM53.45 47C53.45 44.2882 51.2339 42.0909 48.5003 42.0909H47.95V40.9755C45.7467 40.7785 43.8839 39.4108 43 37.5038V39.5312C43.9747 40.6936 45.317 41.542 46.85 41.9012V43.1818H48.498C50.6254 43.1818 52.35 44.8908 52.35 47H53.45ZM54.55 23C54.55 25.7118 56.7661 27.9091 59.4997 27.9091H60.05V29.0245C62.2533 29.2215 64.1159 30.5895 64.9999 32.4964L65 30.4688C64.0253 29.3064 62.683 28.458 61.15 28.0988V26.8182H59.502C57.3746 26.8182 55.65 25.1092 55.65 23H54.55ZM42.9999 32.4964C43.8835 30.5897 45.7455 29.2213 47.95 29.0245V27.9091H48.5003C51.2331 27.9091 53.45 25.7112 53.45 23H52.35C52.35 25.1087 50.6243 26.8182 48.498 26.8182H46.85V28.0988C45.317 28.458 43.9747 29.3064 43 30.4688L42.9999 32.4964Z"
        fill="white" />
    <path fill-rule="evenodd" clip-rule="evenodd"
        d="M49.05 52.9755V54.0909H48.4997C45.7669 54.0909 43.55 56.2888 43.55 59C43.55 61.7118 45.7661 63.9091 48.4997 63.9091H49.05V65.0245C51.2533 65.2215 53.1159 66.5895 53.9999 68.4964C54.8834 66.5896 56.7454 65.2214 58.95 65.0245V63.9091H59.5003C62.2331 63.9091 64.45 61.7112 64.45 59C64.45 56.2882 62.2339 54.0909 59.5003 54.0909H58.95V52.9755C56.7467 52.7785 54.8841 51.4105 54.0001 49.5036C53.1166 51.4104 51.2546 52.7786 49.05 52.9755ZM57.85 62.8182V64.0988C56.317 64.458 54.9747 65.3064 54 66.4688C53.0253 65.3064 51.683 64.458 50.15 64.0988V62.8182H48.502C46.3746 62.8182 44.65 61.1092 44.65 59C44.65 56.8913 46.3757 55.1818 48.502 55.1818H50.15V53.9012C51.683 53.542 53.0253 52.6936 54 51.5312C54.9747 52.6936 56.317 53.542 57.85 53.9012V55.1818H59.498C61.6254 55.1818 63.35 56.8908 63.35 59C63.35 61.1087 61.6243 62.8182 59.498 62.8182H57.85ZM54.55 71C54.55 68.2888 56.7669 66.0909 59.4997 66.0909H60.05V64.9755C62.2545 64.7787 64.1164 63.4105 65 61.5038V63.5312C64.0253 64.6936 62.683 65.5421 61.15 65.9012V67.1818H59.502C57.3757 67.1818 55.65 68.8913 55.65 71H54.55ZM53.45 71C53.45 68.2882 51.2339 66.0909 48.5003 66.0909H47.95V64.9755C45.7467 64.7785 43.8839 63.4108 43 61.5038V63.5312C43.9747 64.6936 45.317 65.5421 46.85 65.9012V67.1818H48.498C50.6254 67.1818 52.35 68.8908 52.35 71H53.45ZM54.55 47C54.55 49.7118 56.7661 51.9091 59.4997 51.9091H60.05V53.0245C62.2533 53.2215 64.1159 54.5895 64.9999 56.4964L65 54.4688C64.0253 53.3064 62.683 52.458 61.15 52.0988V50.8182H59.502C57.3746 50.8182 55.65 49.1092 55.65 47H54.55ZM42.9999 56.4964C43.8835 54.5897 45.7455 53.2213 47.95 53.0245V51.9091H48.5003C51.2331 51.9091 53.45 49.7112 53.45 47H52.35C52.35 49.1087 50.6243 50.8182 48.498 50.8182H46.85V52.0988C45.317 52.458 43.9747 53.3064 43 54.4688L42.9999 56.4964Z"
        fill="white" />
</svg>
    