<svg xmlns="http://www.w3.org/2000/svg" width="50" height="50" fill="none"><path fill="#fff" fill-rule="evenodd" d="M22.966 40.068a4.193 4.193 0 1 1 4.193 4.193 4.19 4.19 0 0 1-5.798 3.875 4.192 4.192 0 0 1 1.605-8.068ZM6.193 23.295a4.192 4.192 0 0 1 8.068-1.605 4.193 4.193 0 0 1-3.875 5.798 4.19 4.19 0 0 1-5.798 3.875 4.193 4.193 0 0 1 1.605-8.068Zm4.193 3.355a3.355 3.355 0 1 0 0-6.71 3.355 3.355 0 0 0 0 6.71ZM27.16 43.423a3.355 3.355 0 1 0 0-6.71 3.355 3.355 0 0 0 0 6.71ZM39.068 23.966a4.193 4.193 0 1 1 4.193 4.193 4.19 4.19 0 0 1-4.193 4.194 4.193 4.193 0 1 1 0-8.387ZM22.295 7.193a4.193 4.193 0 1 1 8.068 1.605 4.191 4.191 0 0 1-3.875 2.588 4.19 4.19 0 0 1-4.193 4.194 4.193 4.193 0 1 1 0-8.387Zm4.193 3.355a3.355 3.355 0 1 0 0-6.71 3.355 3.355 0 0 0 0 6.71ZM43.261 27.32a3.355 3.355 0 1 0 0-6.71 3.355 3.355 0 0 0 0 6.71Z" clip-rule="evenodd"/></svg>