<svg width="50" height="50" viewBox="0 0 50 50" fill="none" xmlns="http://www.w3.org/2000/svg">
<path fill-rule="evenodd" clip-rule="evenodd" d="M22.9661 40.0681C22.9659 39.5174 23.0743 38.972 23.2849 38.4632C23.4956 37.9544 23.8045 37.4921 24.1939 37.1026C24.5833 36.7132 25.0456 36.4044 25.5545 36.1937C26.0633 35.983 26.6086 35.8747 27.1593 35.8749C27.7101 35.8747 28.2554 35.983 28.7642 36.1937C29.2731 36.4044 29.7354 36.7132 30.1248 37.1026C30.5142 37.4921 30.8231 37.9544 31.0337 38.4632C31.2444 38.972 31.3527 39.5174 31.3526 40.0681C31.3527 40.6188 31.2444 41.1642 31.0337 41.673C30.8231 42.1818 30.5142 42.6441 30.1248 43.0335C29.7354 43.423 29.2731 43.7318 28.7642 43.9425C28.2554 44.1532 27.7101 44.2615 27.1593 44.2613C27.1595 44.812 27.0512 45.3574 26.8405 45.8662C26.6298 46.375 26.321 46.8374 25.9316 47.2268C25.5422 47.6162 25.0798 47.925 24.571 48.1357C24.0622 48.3464 23.5168 48.4547 22.9661 48.4545C22.4154 48.4547 21.8701 48.3464 21.3612 48.1357C20.8524 47.925 20.3901 47.6162 20.0007 47.2268C19.6113 46.8374 19.3024 46.375 19.0917 45.8662C18.8811 45.3574 18.7727 44.812 18.7729 44.2613C18.7727 43.7106 18.8811 43.1653 19.0917 42.6564C19.3024 42.1476 19.6113 41.6853 20.0007 41.2959C20.3901 40.9065 20.8524 40.5976 21.3612 40.3869C21.8701 40.1763 22.4154 40.0679 22.9661 40.0681ZM6.19322 23.2952C6.19305 22.7445 6.30139 22.1991 6.51206 21.6903C6.72272 21.1815 7.03159 20.7192 7.421 20.3297C7.81041 19.9403 8.27274 19.6315 8.78156 19.4208C9.29039 19.2101 9.83574 19.1018 10.3864 19.102C10.9372 19.1018 11.4825 19.2101 11.9913 19.4208C12.5002 19.6315 12.9625 19.9403 13.3519 20.3297C13.7413 20.7192 14.0502 21.1815 14.2608 21.6903C14.4715 22.1991 14.5798 22.7445 14.5797 23.2952C14.5798 23.8459 14.4715 24.3913 14.2608 24.9001C14.0502 25.4089 13.7413 25.8712 13.3519 26.2606C12.9625 26.6501 12.5002 26.9589 11.9913 27.1696C11.4825 27.3803 10.9372 27.4886 10.3864 27.4884C10.3866 28.0391 10.2783 28.5845 10.0676 29.0933C9.85695 29.6021 9.54809 30.0645 9.15867 30.4539C8.76926 30.8433 8.30693 31.1521 7.79811 31.3628C7.28928 31.5735 6.74394 31.6818 6.19322 31.6816C5.64251 31.6818 5.09716 31.5735 4.58834 31.3628C4.07951 31.1521 3.61719 30.8433 3.22777 30.4539C2.83836 30.0645 2.5295 29.6021 2.31883 29.0933C2.10816 28.5845 1.99982 28.0391 2 27.4884C1.99982 26.9377 2.10816 26.3924 2.31883 25.8835C2.5295 25.3747 2.83836 24.9124 3.22777 24.523C3.61719 24.1336 4.07951 23.8247 4.58834 23.614C5.09716 23.4034 5.64251 23.295 6.19322 23.2952ZM10.3864 26.6498C11.2761 26.6498 12.1294 26.2963 12.7585 25.6672C13.3876 25.0381 13.741 24.1849 13.741 23.2952C13.741 22.4055 13.3876 21.5523 12.7585 20.9232C12.1294 20.294 11.2761 19.9406 10.3864 19.9406C9.49676 19.9406 8.64351 20.294 8.0144 20.9232C7.3853 21.5523 7.03187 22.4055 7.03187 23.2952C7.03187 24.1849 7.3853 25.0381 8.0144 25.6672C8.64351 26.2963 9.49676 26.6498 10.3864 26.6498ZM27.1593 43.4227C28.049 43.4227 28.9023 43.0692 29.5314 42.4401C30.1605 41.811 30.5139 40.9578 30.5139 40.0681C30.5139 39.1784 30.1605 38.3252 29.5314 37.696C28.9023 37.0669 28.049 36.7135 27.1593 36.7135C26.2697 36.7135 25.4164 37.0669 24.7873 37.696C24.1582 38.3252 23.8048 39.1784 23.8048 40.0681C23.8048 40.9578 24.1582 41.811 24.7873 42.4401C25.4164 43.0692 26.2697 43.4227 27.1593 43.4227Z" fill="white"/>
<path fill-rule="evenodd" clip-rule="evenodd" d="M39.0681 23.9661C39.0679 23.4154 39.1763 22.8701 39.3869 22.3612C39.5976 21.8524 39.9065 21.3901 40.2959 21.0007C40.6853 20.6113 41.1476 20.3024 41.6564 20.0917C42.1653 19.8811 42.7106 19.7727 43.2613 19.7729C43.812 19.7727 44.3574 19.8811 44.8662 20.0917C45.375 20.3024 45.8374 20.6113 46.2268 21.0007C46.6162 21.3901 46.9251 21.8524 47.1357 22.3612C47.3464 22.8701 47.4547 23.4154 47.4546 23.9661C47.4547 24.5168 47.3464 25.0622 47.1357 25.571C46.9251 26.0798 46.6162 26.5422 46.2268 26.9316C45.8374 27.321 45.375 27.6298 44.8662 27.8405C44.3574 28.0512 43.812 28.1595 43.2613 28.1593C43.2615 28.7101 43.1532 29.2554 42.9425 29.7642C42.7318 30.2731 42.423 30.7354 42.0336 31.1248C41.6441 31.5142 41.1818 31.8231 40.673 32.0337C40.1642 32.2444 39.6188 32.3527 39.0681 32.3526C38.5174 32.3527 37.972 32.2444 37.4632 32.0337C36.9544 31.8231 36.4921 31.5142 36.1027 31.1248C35.7132 30.7354 35.4044 30.2731 35.1937 29.7642C34.983 29.2554 34.8747 28.7101 34.8749 28.1593C34.8747 27.6086 34.983 27.0633 35.1937 26.5545C35.4044 26.0456 35.7132 25.5833 36.1027 25.1939C36.4921 24.8045 36.9544 24.4956 37.4632 24.2849C37.972 24.0743 38.5174 23.9659 39.0681 23.9661ZM22.2952 7.19322C22.295 6.64251 22.4034 6.09716 22.614 5.58834C22.8247 5.07951 23.1336 4.61719 23.523 4.22777C23.9124 3.83836 24.3747 3.5295 24.8836 3.31883C25.3924 3.10816 25.9377 2.99982 26.4884 3C27.0391 2.99982 27.5845 3.10816 28.0933 3.31883C28.6021 3.5295 29.0645 3.83836 29.4539 4.22777C29.8433 4.61719 30.1522 5.07951 30.3628 5.58834C30.5735 6.09716 30.6818 6.64251 30.6817 7.19322C30.6818 7.74394 30.5735 8.28928 30.3628 8.79811C30.1522 9.30693 29.8433 9.76926 29.4539 10.1587C29.0645 10.5481 28.6021 10.8569 28.0933 11.0676C27.5845 11.2783 27.0391 11.3866 26.4884 11.3864C26.4886 11.9372 26.3803 12.4825 26.1696 12.9913C25.9589 13.5002 25.6501 13.9625 25.2607 14.3519C24.8713 14.7413 24.4089 15.0502 23.9001 15.2608C23.3913 15.4715 22.8459 15.5798 22.2952 15.5797C21.7445 15.5798 21.1992 15.4715 20.6903 15.2608C20.1815 15.0502 19.7192 14.7413 19.3298 14.3519C18.9404 13.9625 18.6315 13.5002 18.4208 12.9913C18.2102 12.4825 18.1018 11.9372 18.102 11.3864C18.1018 10.8357 18.2102 10.2904 18.4208 9.78156C18.6315 9.27274 18.9404 8.81041 19.3298 8.421C19.7192 8.03159 20.1815 7.72272 20.6903 7.51206C21.1992 7.30139 21.7445 7.19305 22.2952 7.19322ZM26.4884 10.5478C27.3781 10.5478 28.2314 10.1944 28.8605 9.56527C29.4896 8.93616 29.843 8.08291 29.843 7.19322C29.843 6.30353 29.4896 5.45028 28.8605 4.82118C28.2314 4.19207 27.3781 3.83864 26.4884 3.83864C25.5987 3.83864 24.7455 4.19207 24.1164 4.82118C23.4873 5.45028 23.1339 6.30353 23.1339 7.19322C23.1339 8.08291 23.4873 8.93616 24.1164 9.56527C24.7455 10.1944 25.5987 10.5478 26.4884 10.5478ZM43.2613 27.3207C44.151 27.3207 45.0043 26.9673 45.6334 26.3382C46.2625 25.7091 46.6159 24.8558 46.6159 23.9661C46.6159 23.0764 46.2625 22.2232 45.6334 21.5941C45.0043 20.965 44.151 20.6115 43.2613 20.6115C42.3716 20.6115 41.5184 20.965 40.8893 21.5941C40.2602 22.2232 39.9068 23.0764 39.9068 23.9661C39.9068 24.8558 40.2602 25.7091 40.8893 26.3382C41.5184 26.9673 42.3716 27.3207 43.2613 27.3207Z" fill="white"/>
</svg>
