<svg width="105" height="105" viewBox="0 0 105 105" fill="none" xmlns="http://www.w3.org/2000/svg">
    <path fill-rule="evenodd" clip-rule="evenodd" d="M0 0H35V35H0V0ZM5 5H30V30H5V5ZM10 10H25V25H10V10ZM15 15H20V20H15V15ZM40 5H65V30H40V5ZM45 10H60V25H45V10ZM50 15H55V20H50V15Z" fill="white"/>
    <path fill-rule="evenodd" clip-rule="evenodd" d="M70 35H35V70H70V35ZM65 40H40V65H65V40ZM60 45H45V60H60V45ZM55 50H50V55H55V50ZM30 40H5V65H30V40ZM25 45H10V60H25V45ZM20 50H15V55H20V50Z" fill="white"/>
    <path fill-rule="evenodd" clip-rule="evenodd" d="M0 70H35V105H0V70ZM5 75H30V100H5V75ZM10 80H25V95H10V80ZM15 85H20V90H15V85ZM40 75H65V100H40V75ZM45 80H60V95H45V80ZM50 85H55V90H50V85Z" fill="white"/>
    <path fill-rule="evenodd" clip-rule="evenodd" d="M95 25H80V10H95V25ZM85 20H90V15H85V20Z" fill="white"/>
    <path fill-rule="evenodd" clip-rule="evenodd" d="M105 35H70V0H105V35ZM75 30H100V5H75V30Z" fill="white"/>
    <path fill-rule="evenodd" clip-rule="evenodd" d="M95 95H80V80H95V95ZM85 90H90V85H85V90Z" fill="white"/>
    <path fill-rule="evenodd" clip-rule="evenodd" d="M105 105H70V70H105V105ZM75 100H100V75H75V100Z" fill="white"/>
    <path d="M100 65H75V40H100V65ZM80 60H95V45H80V60ZM90 55H85V50H90V55Z" fill="white"/>
    </svg>
    