<svg width="80" height="80" viewBox="0 0 80 80" fill="none" xmlns="http://www.w3.org/2000/svg">
    <path d="M2 14H14V2H2V14ZM0 0H16V16H0V0Z" fill="white" />
    <path d="M2 46H14V34H2V46ZM0 32H16V48H0V32Z" fill="white" />
    <path d="M2 78H14V66H2V78ZM0 64H16V80H0V64Z" fill="white" />
    <path d="M34 14H46V2H34V14ZM32 0H48V16H32V0Z" fill="white" />
    <path d="M34 46H46V34H34V46ZM32 32H48V48H32V32Z" fill="white" />
    <path d="M34 78H46V66H34V78ZM32 64H48V80H32V64Z" fill="white" />
    <path d="M34 14H46V2H34V14ZM32 0H48V16H32V0Z" fill="white" />
    <path d="M34 46H46V34H34V46ZM32 32H48V48H32V32Z" fill="white" />
    <path d="M34 78H46V66H34V78ZM32 64H48V80H32V64Z" fill="white" />
    <path d="M66 14H78V2H66V14ZM64 0H80V16H64V0Z" fill="white" />
    <path d="M66 46H78V34H66V46ZM64 32H80V48H64V32Z" fill="white" />
    <path d="M66 78H78V66H66V78ZM64 64H80V80H64V64Z" fill="white" />
</svg>
    