<svg xmlns="http://www.w3.org/2000/svg" width="47" height="50" fill="none"><path fill="#fff" fill-rule="evenodd" d="M6.6 15.238a.72.72 0 0 1 .519.223.777.777 0 0 1 .214.539h.734c0-.202.077-.396.214-.539a.72.72 0 0 1 .519-.223.72.72 0 0 1 .519.223.777.777 0 0 1 .214.539h.734c0-.202.077-.396.215-.539a.72.72 0 0 1 .518-.223v-.762a.72.72 0 0 1-.518-.223.777.777 0 0 1-.215-.539c0-.202.077-.396.215-.539a.72.72 0 0 1 .518-.223v-.761a.72.72 0 0 1-.518-.224.777.777 0 0 1-.215-.538c0-.203.077-.396.215-.54a.72.72 0 0 1 .518-.222v-.762a.72.72 0 0 1-.518-.223.777.777 0 0 1-.215-.54c0-.201.077-.395.215-.538A.72.72 0 0 1 11 8.381v-.762a.72.72 0 0 1-.518-.223.777.777 0 0 1-.215-.539c0-.202.077-.396.215-.539A.72.72 0 0 1 11 6.095v-.762a.72.72 0 0 1-.518-.223.777.777 0 0 1-.215-.539c0-.202.077-.395.215-.538A.72.72 0 0 1 11 3.81v-.762a.72.72 0 0 1-.518-.224.777.777 0 0 1-.215-.538c0-.202.077-.396.215-.539A.72.72 0 0 1 11 1.524V.762a.72.72 0 0 1-.518-.223.777.777 0 0 1-.215-.539h-.734a.777.777 0 0 1-.214.539.72.72 0 0 1-.519.223.72.72 0 0 1-.519-.223A.777.777 0 0 1 8.067 0h-.734a.777.777 0 0 1-.214.539.72.72 0 0 1-.519.223.72.72 0 0 1-.519-.223A.777.777 0 0 1 5.867 0h-.734a.777.777 0 0 1-.214.539.72.72 0 0 1-.519.223.72.72 0 0 1-.519-.223A.777.777 0 0 1 3.667 0h-.734a.777.777 0 0 1-.214.539.72.72 0 0 1-.519.223.72.72 0 0 1-.519-.223A.777.777 0 0 1 1.467 0H.733A.788.788 0 0 1 .52.539.732.732 0 0 1 0 .762v.762a.72.72 0 0 1 .519.223.777.777 0 0 1 .214.539.777.777 0 0 1-.214.538.72.72 0 0 1-.519.224v.762a.72.72 0 0 1 .519.223.777.777 0 0 1 .214.538.777.777 0 0 1-.214.54.72.72 0 0 1-.519.222v.762a.72.72 0 0 1 .519.223.777.777 0 0 1 .214.54.777.777 0 0 1-.214.538.72.72 0 0 1-.519.223v.762a.72.72 0 0 1 .519.223.777.777 0 0 1 .214.539.777.777 0 0 1-.214.539.72.72 0 0 1-.519.223v.762a.72.72 0 0 1 .519.223.777.777 0 0 1 .214.539.777.777 0 0 1-.214.538.72.72 0 0 1-.519.223v.762a.72.72 0 0 1 .519.223.777.777 0 0 1 .214.54.777.777 0 0 1-.214.538.72.72 0 0 1-.519.223v.762a.71.71 0 0 1 .519.223.764.764 0 0 1 .214.539h.734c0-.202.077-.396.214-.539a.72.72 0 0 1 .519-.223.72.72 0 0 1 .519.223.777.777 0 0 1 .214.539h.734c0-.202.077-.396.214-.539a.72.72 0 0 1 .519-.223.72.72 0 0 1 .519.223.777.777 0 0 1 .214.539h.734c0-.202.077-.396.214-.539a.72.72 0 0 1 .519-.223Zm2.2-.305c-.221 0-.436.074-.614.212-.177.137-.307.33-.37.55h-.232a1.068 1.068 0 0 0-.37-.55 1.002 1.002 0 0 0-1.228 0c-.177.137-.307.33-.37.55h-.232a1.068 1.068 0 0 0-.37-.55 1.002 1.002 0 0 0-1.228 0c-.177.137-.307.33-.37.55h-.232a1.068 1.068 0 0 0-.37-.55 1.002 1.002 0 0 0-1.228 0c-.177.137-.307.33-.37.55H.984a1.078 1.078 0 0 0-.258-.45 1.021 1.021 0 0 0-.433-.268v-.24c.212-.066.398-.2.53-.385a1.094 1.094 0 0 0 0-1.276 1.028 1.028 0 0 0-.53-.384v-.241c.212-.065.398-.2.53-.385a1.094 1.094 0 0 0 0-1.275 1.028 1.028 0 0 0-.53-.385v-.24c.212-.066.398-.201.53-.385a1.094 1.094 0 0 0 0-1.276 1.028 1.028 0 0 0-.53-.385v-.24c.212-.066.398-.2.53-.385a1.094 1.094 0 0 0 0-1.276 1.028 1.028 0 0 0-.53-.384v-.241c.212-.066.398-.2.53-.385a1.094 1.094 0 0 0 0-1.275 1.028 1.028 0 0 0-.53-.385v-.24c.212-.066.398-.201.53-.385a1.094 1.094 0 0 0 0-1.276 1.028 1.028 0 0 0-.53-.385v-.24C.457.971.605.878.726.753c.12-.125.21-.28.258-.45h.232c.063.221.193.414.37.552a1.001 1.001 0 0 0 1.228 0c.177-.138.307-.33.37-.551h.232c.063.22.193.413.37.55a1.001 1.001 0 0 0 1.228 0c.177-.137.307-.33.37-.55h.232c.063.22.193.413.37.55a1.001 1.001 0 0 0 1.228 0c.177-.137.307-.33.37-.55h.232c.063.22.193.413.37.55a1.001 1.001 0 0 0 1.228 0c.177-.137.307-.33.37-.55h.232c.049.17.137.324.258.45.12.124.27.217.433.267v.241c-.212.066-.399.2-.53.385a1.094 1.094 0 0 0 0 1.276c.132.184.318.319.53.384v.241c-.212.065-.399.2-.53.385a1.094 1.094 0 0 0 0 1.275c.132.185.318.32.53.385v.24c-.212.066-.399.201-.53.385a1.094 1.094 0 0 0 0 1.276c.132.184.318.32.53.385v.24c-.212.066-.399.2-.53.385a1.094 1.094 0 0 0 0 1.276c.132.184.318.319.53.384v.241c-.212.066-.399.2-.53.385a1.095 1.095 0 0 0 0 1.275c.132.185.318.32.53.385v.24c-.212.066-.399.201-.53.385a1.095 1.095 0 0 0 0 1.276c.132.184.318.32.53.385v.24c-.164.051-.312.143-.433.269-.12.125-.21.28-.258.45h-.232a1.068 1.068 0 0 0-.37-.551 1.002 1.002 0 0 0-.614-.212ZM1.613 1.676h7.774v12.648H1.613V1.676Zm7.48 12.343H1.907V1.981h7.186v12.038ZM6.6 32.238a.72.72 0 0 1 .519.223.777.777 0 0 1 .214.539h.734c0-.202.077-.396.214-.539a.72.72 0 0 1 .519-.223.72.72 0 0 1 .519.223.777.777 0 0 1 .214.539h.734c0-.202.077-.396.215-.539a.72.72 0 0 1 .518-.223v-.762a.72.72 0 0 1-.518-.223.777.777 0 0 1-.215-.539c0-.202.077-.396.215-.538a.72.72 0 0 1 .518-.224v-.762a.72.72 0 0 1-.518-.223.777.777 0 0 1-.215-.538c0-.202.077-.396.215-.54a.72.72 0 0 1 .518-.222v-.762a.72.72 0 0 1-.518-.223.777.777 0 0 1-.215-.54c0-.201.077-.395.215-.538a.72.72 0 0 1 .518-.223v-.762a.72.72 0 0 1-.518-.223.777.777 0 0 1-.215-.539c0-.202.077-.396.215-.539a.72.72 0 0 1 .518-.223v-.762a.72.72 0 0 1-.518-.223.777.777 0 0 1-.215-.539c0-.202.077-.395.215-.538a.72.72 0 0 1 .518-.224v-.761a.72.72 0 0 1-.518-.223.777.777 0 0 1-.215-.54c0-.201.077-.395.215-.538a.72.72 0 0 1 .518-.223v-.762a.72.72 0 0 1-.518-.223.777.777 0 0 1-.215-.539h-.734a.777.777 0 0 1-.214.539.72.72 0 0 1-.519.223.72.72 0 0 1-.519-.223.777.777 0 0 1-.214-.539h-.734a.777.777 0 0 1-.214.539.72.72 0 0 1-.519.223.72.72 0 0 1-.519-.223.777.777 0 0 1-.214-.539h-.734a.777.777 0 0 1-.214.539.72.72 0 0 1-.519.223.72.72 0 0 1-.519-.223.777.777 0 0 1-.214-.539h-.734a.777.777 0 0 1-.214.539.72.72 0 0 1-.519.223.72.72 0 0 1-.519-.223.777.777 0 0 1-.214-.539H.733a.788.788 0 0 1-.214.539.732.732 0 0 1-.519.223v.762a.72.72 0 0 1 .519.223.777.777 0 0 1 .214.539.777.777 0 0 1-.214.538.72.72 0 0 1-.519.224v.762a.72.72 0 0 1 .519.223.777.777 0 0 1 .214.538.777.777 0 0 1-.214.54.72.72 0 0 1-.519.222v.762a.72.72 0 0 1 .519.223.777.777 0 0 1 .214.54.777.777 0 0 1-.214.538.72.72 0 0 1-.519.223v.762a.72.72 0 0 1 .519.223.777.777 0 0 1 .214.539.777.777 0 0 1-.214.539.72.72 0 0 1-.519.223v.762a.72.72 0 0 1 .519.223.777.777 0 0 1 .214.539.777.777 0 0 1-.214.538.72.72 0 0 1-.519.224v.761a.72.72 0 0 1 .519.223.777.777 0 0 1 .214.54.777.777 0 0 1-.214.538.72.72 0 0 1-.519.223v.762a.71.71 0 0 1 .519.223.764.764 0 0 1 .214.539h.734c0-.202.077-.396.214-.539a.72.72 0 0 1 .519-.223.72.72 0 0 1 .519.223.777.777 0 0 1 .214.539h.734c0-.202.077-.396.214-.539a.72.72 0 0 1 .519-.223.72.72 0 0 1 .519.223.777.777 0 0 1 .214.539h.734c0-.202.077-.396.214-.539a.72.72 0 0 1 .519-.223Zm2.2-.305c-.221 0-.436.074-.614.212-.177.137-.307.33-.37.55h-.232a1.068 1.068 0 0 0-.37-.55 1.002 1.002 0 0 0-1.228 0c-.177.137-.307.33-.37.55h-.232a1.068 1.068 0 0 0-.37-.55 1.002 1.002 0 0 0-1.228 0c-.177.137-.307.33-.37.55h-.232a1.068 1.068 0 0 0-.37-.55 1.002 1.002 0 0 0-1.228 0c-.177.137-.307.33-.37.55H.984a1.078 1.078 0 0 0-.258-.45 1.021 1.021 0 0 0-.433-.267v-.241c.212-.066.398-.2.53-.385a1.094 1.094 0 0 0 0-1.276 1.028 1.028 0 0 0-.53-.384v-.241c.212-.065.398-.2.53-.385a1.094 1.094 0 0 0 0-1.275 1.028 1.028 0 0 0-.53-.385v-.24c.212-.066.398-.201.53-.385a1.094 1.094 0 0 0 0-1.276 1.028 1.028 0 0 0-.53-.385v-.24c.212-.066.398-.2.53-.385a1.095 1.095 0 0 0 0-1.276 1.027 1.027 0 0 0-.53-.384v-.241c.212-.066.398-.2.53-.385a1.095 1.095 0 0 0 0-1.275 1.027 1.027 0 0 0-.53-.385v-.24c.212-.066.398-.201.53-.385a1.095 1.095 0 0 0 0-1.276 1.028 1.028 0 0 0-.53-.385v-.24c.164-.051.312-.144.433-.269.12-.125.21-.28.258-.45h.232c.063.221.193.414.37.552a1.002 1.002 0 0 0 1.228 0c.177-.138.307-.33.37-.551h.232c.063.22.193.413.37.55a1.002 1.002 0 0 0 1.228 0c.177-.137.307-.33.37-.55h.232c.063.22.193.413.37.55a1.002 1.002 0 0 0 1.228 0c.177-.137.307-.33.37-.55h.232c.063.22.193.413.37.55a1.002 1.002 0 0 0 1.228 0c.177-.137.307-.33.37-.55h.232c.049.17.137.324.258.45.12.124.27.217.433.268v.24c-.212.066-.399.2-.53.385a1.094 1.094 0 0 0 0 1.276c.132.184.318.319.53.384v.241c-.212.065-.399.2-.53.385a1.094 1.094 0 0 0 0 1.275c.132.184.318.32.53.385v.24c-.212.066-.399.201-.53.385a1.094 1.094 0 0 0 0 1.276c.132.184.318.32.53.385v.24c-.212.066-.399.2-.53.385a1.095 1.095 0 0 0 0 1.276c.132.184.318.319.53.384v.241c-.212.066-.399.2-.53.385a1.095 1.095 0 0 0 0 1.275c.132.185.318.32.53.385v.24c-.212.066-.399.201-.53.385a1.095 1.095 0 0 0 0 1.276c.132.184.318.32.53.385v.24c-.164.051-.312.143-.433.269-.12.125-.21.28-.258.45h-.232a1.068 1.068 0 0 0-.37-.551 1.002 1.002 0 0 0-.614-.212ZM1.613 18.676h7.774v12.648H1.613V18.676Zm7.48 12.343H1.907V18.981h7.186v12.038ZM6.6 49.238a.72.72 0 0 1 .519.223.777.777 0 0 1 .214.539h.734c0-.202.077-.396.214-.539a.72.72 0 0 1 .519-.223.72.72 0 0 1 .519.223.777.777 0 0 1 .214.539h.734c0-.202.077-.396.215-.539a.72.72 0 0 1 .518-.223v-.762a.72.72 0 0 1-.518-.223.777.777 0 0 1-.215-.539c0-.202.077-.396.215-.538a.72.72 0 0 1 .518-.224v-.761a.72.72 0 0 1-.518-.224.777.777 0 0 1-.215-.538c0-.203.077-.396.215-.54a.72.72 0 0 1 .518-.222v-.762a.72.72 0 0 1-.518-.223.777.777 0 0 1-.215-.54c0-.201.077-.395.215-.538a.72.72 0 0 1 .518-.223v-.762a.72.72 0 0 1-.518-.223.777.777 0 0 1-.215-.539c0-.202.077-.396.215-.539a.72.72 0 0 1 .518-.223v-.762a.72.72 0 0 1-.518-.223.777.777 0 0 1-.215-.539c0-.202.077-.395.215-.538a.72.72 0 0 1 .518-.224v-.761a.72.72 0 0 1-.518-.224.777.777 0 0 1-.215-.538c0-.202.077-.396.215-.539a.72.72 0 0 1 .518-.223v-.762a.72.72 0 0 1-.518-.223.777.777 0 0 1-.215-.539h-.734a.777.777 0 0 1-.214.539.72.72 0 0 1-.519.223.72.72 0 0 1-.519-.223.777.777 0 0 1-.214-.539h-.734a.777.777 0 0 1-.214.539.72.72 0 0 1-.519.223.72.72 0 0 1-.519-.223.777.777 0 0 1-.214-.539h-.734a.777.777 0 0 1-.214.539.72.72 0 0 1-.519.223.72.72 0 0 1-.519-.223.777.777 0 0 1-.214-.539h-.734a.777.777 0 0 1-.214.539.72.72 0 0 1-.519.223.72.72 0 0 1-.519-.223.777.777 0 0 1-.214-.539H.733a.788.788 0 0 1-.214.539.732.732 0 0 1-.519.223v.762a.72.72 0 0 1 .519.223.777.777 0 0 1 .214.539.777.777 0 0 1-.214.538.72.72 0 0 1-.519.224v.761a.72.72 0 0 1 .519.224.777.777 0 0 1 .214.538.777.777 0 0 1-.214.54.72.72 0 0 1-.519.222v.762a.72.72 0 0 1 .519.223.777.777 0 0 1 .214.54.777.777 0 0 1-.214.538.72.72 0 0 1-.519.223v.762a.72.72 0 0 1 .519.223.777.777 0 0 1 .214.539.777.777 0 0 1-.214.539.72.72 0 0 1-.519.223v.762a.72.72 0 0 1 .519.223.777.777 0 0 1 .214.539.777.777 0 0 1-.214.538.72.72 0 0 1-.519.224v.761a.72.72 0 0 1 .519.224.777.777 0 0 1 .214.538.777.777 0 0 1-.214.539.72.72 0 0 1-.519.223v.762a.71.71 0 0 1 .519.223.764.764 0 0 1 .214.539h.734c0-.202.077-.396.214-.539a.72.72 0 0 1 .519-.223.72.72 0 0 1 .519.223.777.777 0 0 1 .214.539h.734c0-.202.077-.396.214-.539a.72.72 0 0 1 .519-.223.72.72 0 0 1 .519.223.777.777 0 0 1 .214.539h.734c0-.202.077-.396.214-.539a.72.72 0 0 1 .519-.223Zm2.2-.305c-.221 0-.436.074-.614.212-.177.137-.307.33-.37.55h-.232a1.068 1.068 0 0 0-.37-.55 1.002 1.002 0 0 0-1.228 0c-.177.137-.307.33-.37.55h-.232a1.068 1.068 0 0 0-.37-.55 1.002 1.002 0 0 0-1.228 0c-.177.137-.307.33-.37.55h-.232a1.068 1.068 0 0 0-.37-.55 1.002 1.002 0 0 0-1.228 0c-.177.137-.307.33-.37.55H.984a1.078 1.078 0 0 0-.258-.45 1.021 1.021 0 0 0-.433-.267v-.241c.212-.066.398-.2.53-.385a1.094 1.094 0 0 0 0-1.276 1.028 1.028 0 0 0-.53-.384v-.241c.212-.065.398-.2.53-.385a1.094 1.094 0 0 0 0-1.275 1.028 1.028 0 0 0-.53-.385v-.24c.212-.066.398-.201.53-.385a1.094 1.094 0 0 0 0-1.276 1.028 1.028 0 0 0-.53-.385v-.24c.212-.066.398-.2.53-.385a1.095 1.095 0 0 0 0-1.276 1.027 1.027 0 0 0-.53-.384v-.241c.212-.066.398-.2.53-.385a1.095 1.095 0 0 0 0-1.275 1.027 1.027 0 0 0-.53-.385v-.24c.212-.066.398-.201.53-.385a1.095 1.095 0 0 0 0-1.276 1.028 1.028 0 0 0-.53-.385v-.24c.164-.051.312-.144.433-.269.12-.125.21-.28.258-.45h.232c.063.221.193.414.37.552a1.002 1.002 0 0 0 1.228 0c.177-.138.307-.33.37-.551h.232c.063.22.193.413.37.55a1.002 1.002 0 0 0 1.228 0c.177-.137.307-.33.37-.55h.232c.063.22.193.413.37.55a1.002 1.002 0 0 0 1.228 0c.177-.137.307-.33.37-.55h.232c.063.22.193.413.37.55a1.002 1.002 0 0 0 1.228 0c.177-.137.307-.33.37-.55h.232c.049.17.137.324.258.45.12.124.27.217.433.267v.241c-.212.066-.399.2-.53.385a1.094 1.094 0 0 0 0 1.276c.132.184.318.319.53.384v.241c-.212.065-.399.2-.53.385a1.094 1.094 0 0 0 0 1.275c.132.184.318.32.53.385v.24c-.212.066-.399.201-.53.385a1.094 1.094 0 0 0 0 1.276c.132.184.318.32.53.385v.24c-.212.066-.399.2-.53.385a1.095 1.095 0 0 0 0 1.276c.132.184.318.319.53.384v.241c-.212.066-.399.2-.53.385a1.095 1.095 0 0 0 0 1.275c.132.185.318.32.53.385v.24c-.212.066-.399.201-.53.385a1.095 1.095 0 0 0 0 1.276c.132.184.318.32.53.385v.24c-.164.051-.312.143-.433.269-.12.125-.21.28-.258.45h-.232a1.068 1.068 0 0 0-.37-.551 1.002 1.002 0 0 0-.614-.212ZM1.613 35.676h7.774v12.648H1.613V35.676Zm7.48 12.343H1.907V35.981h7.186v12.038ZM18.6 15.238a.72.72 0 0 1 .518.223.777.777 0 0 1 .215.539h.734c0-.202.077-.396.215-.539a.72.72 0 0 1 .518-.223.72.72 0 0 1 .518.223.777.777 0 0 1 .215.539h.734c0-.202.077-.396.215-.539a.72.72 0 0 1 .518-.223v-.762a.72.72 0 0 1-.518-.223.777.777 0 0 1-.215-.539c0-.202.077-.396.215-.539a.72.72 0 0 1 .518-.223v-.761a.72.72 0 0 1-.518-.224.777.777 0 0 1-.215-.538c0-.203.077-.396.215-.54a.72.72 0 0 1 .518-.222v-.762a.72.72 0 0 1-.518-.223.777.777 0 0 1-.215-.54c0-.201.077-.395.215-.538A.72.72 0 0 1 23 8.381v-.762a.72.72 0 0 1-.518-.223.777.777 0 0 1-.215-.539c0-.202.077-.396.215-.539A.72.72 0 0 1 23 6.095v-.762a.72.72 0 0 1-.518-.223.777.777 0 0 1-.215-.539c0-.202.077-.395.215-.538A.72.72 0 0 1 23 3.81v-.762a.72.72 0 0 1-.518-.224.777.777 0 0 1-.215-.538c0-.202.077-.396.215-.539A.72.72 0 0 1 23 1.524V.762a.72.72 0 0 1-.518-.223.777.777 0 0 1-.215-.539h-.734a.777.777 0 0 1-.215.539.72.72 0 0 1-.518.223.72.72 0 0 1-.518-.223.777.777 0 0 1-.215-.539h-.734a.777.777 0 0 1-.214.539.72.72 0 0 1-.519.223.72.72 0 0 1-.519-.223.777.777 0 0 1-.214-.539h-.734a.777.777 0 0 1-.214.539.72.72 0 0 1-.519.223.72.72 0 0 1-.518-.223.777.777 0 0 1-.215-.539h-.734a.777.777 0 0 1-.214.539.72.72 0 0 1-.519.223.72.72 0 0 1-.518-.223.777.777 0 0 1-.215-.539h-.734a.787.787 0 0 1-.215.539.732.732 0 0 1-.518.223v.762a.72.72 0 0 1 .518.223.777.777 0 0 1 .215.539.777.777 0 0 1-.215.538.72.72 0 0 1-.518.224v.762a.72.72 0 0 1 .518.223.777.777 0 0 1 .215.538.777.777 0 0 1-.215.54.72.72 0 0 1-.518.222v.762a.72.72 0 0 1 .518.223.777.777 0 0 1 .215.54.777.777 0 0 1-.215.538.72.72 0 0 1-.518.223v.762a.72.72 0 0 1 .518.223.777.777 0 0 1 .215.539.777.777 0 0 1-.215.539.72.72 0 0 1-.518.223v.762a.72.72 0 0 1 .518.223.777.777 0 0 1 .215.539.777.777 0 0 1-.215.538.72.72 0 0 1-.518.223v.762a.72.72 0 0 1 .518.223.777.777 0 0 1 .215.54.777.777 0 0 1-.215.538.72.72 0 0 1-.518.223v.762a.709.709 0 0 1 .518.223.763.763 0 0 1 .215.539h.734c0-.202.077-.396.214-.539a.72.72 0 0 1 .519-.223.72.72 0 0 1 .519.223.777.777 0 0 1 .214.539h.734c0-.202.077-.396.215-.539a.72.72 0 0 1 .518-.223.72.72 0 0 1 .519.223.777.777 0 0 1 .214.539h.734c0-.202.077-.396.214-.539a.72.72 0 0 1 .519-.223Zm2.2-.305c-.221 0-.436.074-.614.212-.177.137-.307.33-.37.55h-.232a1.067 1.067 0 0 0-.37-.55 1.002 1.002 0 0 0-1.228 0c-.177.137-.307.33-.37.55h-.232a1.067 1.067 0 0 0-.37-.55 1.002 1.002 0 0 0-1.228 0c-.177.137-.307.33-.37.55h-.232a1.067 1.067 0 0 0-.37-.55 1.002 1.002 0 0 0-1.228 0c-.177.137-.307.33-.37.55h-.232a1.077 1.077 0 0 0-.258-.45 1.021 1.021 0 0 0-.433-.268v-.24c.212-.066.399-.2.53-.385a1.094 1.094 0 0 0 0-1.276 1.028 1.028 0 0 0-.53-.384v-.241c.212-.065.399-.2.53-.385a1.094 1.094 0 0 0 0-1.275 1.028 1.028 0 0 0-.53-.385v-.24c.212-.066.399-.201.53-.385a1.094 1.094 0 0 0 0-1.276 1.028 1.028 0 0 0-.53-.385v-.24c.212-.066.399-.2.53-.385a1.094 1.094 0 0 0 0-1.276 1.028 1.028 0 0 0-.53-.384v-.241c.212-.066.399-.2.53-.385a1.094 1.094 0 0 0 0-1.275 1.028 1.028 0 0 0-.53-.385v-.24c.212-.066.399-.201.53-.385a1.094 1.094 0 0 0 0-1.276 1.028 1.028 0 0 0-.53-.385v-.24c.164-.051.312-.144.433-.269.12-.125.21-.28.258-.45h.232c.063.221.193.414.37.552a1.001 1.001 0 0 0 1.228 0c.177-.138.307-.33.37-.551h.232c.063.22.193.413.37.55a1.001 1.001 0 0 0 1.228 0c.177-.137.307-.33.37-.55h.232c.063.22.193.413.37.55a1.001 1.001 0 0 0 1.228 0c.177-.137.307-.33.37-.55h.232c.063.22.193.413.37.55a1.001 1.001 0 0 0 1.228 0c.177-.137.307-.33.37-.55h.232c.049.17.138.324.258.45.12.124.27.217.433.267v.241c-.212.066-.399.2-.53.385a1.094 1.094 0 0 0 0 1.276c.131.184.318.319.53.384v.241c-.212.065-.399.2-.53.385a1.094 1.094 0 0 0 0 1.275c.131.185.318.32.53.385v.24c-.212.066-.399.201-.53.385a1.094 1.094 0 0 0 0 1.276c.131.184.318.32.53.385v.24c-.212.066-.399.2-.53.385a1.094 1.094 0 0 0 0 1.276c.131.184.318.319.53.384v.241c-.212.066-.399.2-.53.385a1.095 1.095 0 0 0 0 1.275c.131.185.318.32.53.385v.24c-.212.066-.399.201-.53.385a1.095 1.095 0 0 0 0 1.276c.131.184.318.32.53.385v.24c-.164.051-.312.143-.433.269-.12.125-.21.28-.258.45h-.232a1.067 1.067 0 0 0-.37-.551 1.002 1.002 0 0 0-.614-.212ZM13.613 1.676h7.774v12.648h-7.774V1.676Zm7.48 12.343h-7.186V1.981h7.186v12.038ZM18.6 32.238a.72.72 0 0 1 .518.223.777.777 0 0 1 .215.539h.734c0-.202.077-.396.215-.539a.72.72 0 0 1 .518-.223.72.72 0 0 1 .518.223.777.777 0 0 1 .215.539h.734c0-.202.077-.396.215-.539a.72.72 0 0 1 .518-.223v-.762a.72.72 0 0 1-.518-.223.777.777 0 0 1-.215-.539c0-.202.077-.396.215-.538a.72.72 0 0 1 .518-.224v-.762a.72.72 0 0 1-.518-.223.777.777 0 0 1-.215-.538c0-.202.077-.396.215-.54a.72.72 0 0 1 .518-.222v-.762a.72.72 0 0 1-.518-.223.777.777 0 0 1-.215-.54c0-.201.077-.395.215-.538a.72.72 0 0 1 .518-.223v-.762a.72.72 0 0 1-.518-.223.777.777 0 0 1-.215-.539c0-.202.077-.396.215-.539a.72.72 0 0 1 .518-.223v-.762a.72.72 0 0 1-.518-.223.777.777 0 0 1-.215-.539c0-.202.077-.395.215-.538a.72.72 0 0 1 .518-.224v-.761a.72.72 0 0 1-.518-.223.777.777 0 0 1-.215-.54c0-.201.077-.395.215-.538a.72.72 0 0 1 .518-.223v-.762a.72.72 0 0 1-.518-.223.777.777 0 0 1-.215-.539h-.734a.777.777 0 0 1-.215.539.72.72 0 0 1-.518.223.72.72 0 0 1-.518-.223.777.777 0 0 1-.215-.539h-.734a.777.777 0 0 1-.214.539.72.72 0 0 1-.519.223.72.72 0 0 1-.519-.223.777.777 0 0 1-.214-.539h-.734a.777.777 0 0 1-.214.539.72.72 0 0 1-.519.223.72.72 0 0 1-.518-.223.777.777 0 0 1-.215-.539h-.734a.777.777 0 0 1-.214.539.72.72 0 0 1-.519.223.72.72 0 0 1-.518-.223.777.777 0 0 1-.215-.539h-.734a.787.787 0 0 1-.215.539.731.731 0 0 1-.518.223v.762a.72.72 0 0 1 .518.223.777.777 0 0 1 .215.539.777.777 0 0 1-.215.538.72.72 0 0 1-.518.224v.762a.72.72 0 0 1 .518.223.777.777 0 0 1 .215.538.777.777 0 0 1-.215.54.72.72 0 0 1-.518.222v.762a.72.72 0 0 1 .518.223.777.777 0 0 1 .215.54.777.777 0 0 1-.215.538.72.72 0 0 1-.518.223v.762a.72.72 0 0 1 .518.223.777.777 0 0 1 .215.539.777.777 0 0 1-.215.539.72.72 0 0 1-.518.223v.762a.72.72 0 0 1 .518.223.777.777 0 0 1 .215.539.777.777 0 0 1-.215.538.72.72 0 0 1-.518.224v.761a.72.72 0 0 1 .518.223.777.777 0 0 1 .215.54.777.777 0 0 1-.215.538.72.72 0 0 1-.518.223v.762a.709.709 0 0 1 .518.223.763.763 0 0 1 .215.539h.734c0-.202.077-.396.214-.539a.72.72 0 0 1 .519-.223.72.72 0 0 1 .519.223.777.777 0 0 1 .214.539h.734c0-.202.077-.396.215-.539a.72.72 0 0 1 .518-.223.72.72 0 0 1 .519.223.777.777 0 0 1 .214.539h.734c0-.202.077-.396.214-.539a.72.72 0 0 1 .519-.223Zm2.2-.305c-.221 0-.436.074-.614.212-.177.137-.307.33-.37.55h-.232a1.067 1.067 0 0 0-.37-.55 1.002 1.002 0 0 0-1.228 0c-.177.137-.307.33-.37.55h-.232a1.067 1.067 0 0 0-.37-.55 1.002 1.002 0 0 0-1.228 0c-.177.137-.307.33-.37.55h-.232a1.067 1.067 0 0 0-.37-.55 1.002 1.002 0 0 0-1.228 0c-.177.137-.307.33-.37.55h-.232a1.077 1.077 0 0 0-.258-.45 1.021 1.021 0 0 0-.433-.267v-.241c.212-.066.399-.2.53-.385a1.094 1.094 0 0 0 0-1.276 1.028 1.028 0 0 0-.53-.384v-.241c.212-.065.399-.2.53-.385a1.094 1.094 0 0 0 0-1.275 1.028 1.028 0 0 0-.53-.385v-.24c.212-.066.399-.201.53-.385a1.094 1.094 0 0 0 0-1.276 1.028 1.028 0 0 0-.53-.385v-.24c.212-.066.399-.2.53-.385a1.095 1.095 0 0 0 0-1.276 1.027 1.027 0 0 0-.53-.384v-.241c.212-.066.399-.2.53-.385a1.095 1.095 0 0 0 0-1.275 1.027 1.027 0 0 0-.53-.385v-.24c.212-.066.399-.201.53-.385a1.095 1.095 0 0 0 0-1.276 1.028 1.028 0 0 0-.53-.385v-.24c.164-.051.312-.144.433-.269.12-.125.21-.28.258-.45h.232c.063.221.193.414.37.552a1.002 1.002 0 0 0 1.228 0c.177-.138.307-.33.37-.551h.232c.063.22.193.413.37.55a1.002 1.002 0 0 0 1.228 0c.177-.137.307-.33.37-.55h.232c.063.22.193.413.37.55a1.002 1.002 0 0 0 1.228 0c.177-.137.307-.33.37-.55h.232c.063.22.193.413.37.55a1.002 1.002 0 0 0 1.228 0c.177-.137.307-.33.37-.55h.232c.049.17.138.324.258.45.12.124.27.217.433.268v.24c-.212.066-.399.2-.53.385a1.094 1.094 0 0 0 0 1.276c.131.184.318.319.53.384v.241c-.212.065-.399.2-.53.385a1.094 1.094 0 0 0 0 1.275c.131.184.318.32.53.385v.24c-.212.066-.399.201-.53.385a1.094 1.094 0 0 0 0 1.276c.131.184.318.32.53.385v.24c-.212.066-.399.2-.53.385a1.095 1.095 0 0 0 0 1.276c.131.184.318.319.53.384v.241c-.212.066-.399.2-.53.385a1.095 1.095 0 0 0 0 1.275c.131.185.318.32.53.385v.24c-.212.066-.399.201-.53.385a1.095 1.095 0 0 0 0 1.276c.131.184.318.32.53.385v.24c-.164.051-.312.143-.433.269-.12.125-.21.28-.258.45h-.232a1.067 1.067 0 0 0-.37-.551 1.002 1.002 0 0 0-.614-.212Zm-7.187-13.257h7.774v12.648h-7.774V18.676Zm7.48 12.343h-7.186V18.981h7.186v12.038ZM18.6 49.238a.72.72 0 0 1 .518.223.777.777 0 0 1 .215.539h.734c0-.202.077-.396.215-.539a.72.72 0 0 1 .518-.223.72.72 0 0 1 .518.223.777.777 0 0 1 .215.539h.734c0-.202.077-.396.215-.539a.72.72 0 0 1 .518-.223v-.762a.72.72 0 0 1-.518-.223.777.777 0 0 1-.215-.539c0-.202.077-.396.215-.538a.72.72 0 0 1 .518-.224v-.761a.72.72 0 0 1-.518-.224.777.777 0 0 1-.215-.538c0-.203.077-.396.215-.54a.72.72 0 0 1 .518-.222v-.762a.72.72 0 0 1-.518-.223.777.777 0 0 1-.215-.54c0-.201.077-.395.215-.538a.72.72 0 0 1 .518-.223v-.762a.72.72 0 0 1-.518-.223.777.777 0 0 1-.215-.539c0-.202.077-.396.215-.539a.72.72 0 0 1 .518-.223v-.762a.72.72 0 0 1-.518-.223.777.777 0 0 1-.215-.539c0-.202.077-.395.215-.538a.72.72 0 0 1 .518-.224v-.761a.72.72 0 0 1-.518-.224.777.777 0 0 1-.215-.538c0-.202.077-.396.215-.539a.72.72 0 0 1 .518-.223v-.762a.72.72 0 0 1-.518-.223.777.777 0 0 1-.215-.539h-.734a.777.777 0 0 1-.215.539.72.72 0 0 1-.518.223.72.72 0 0 1-.518-.223.777.777 0 0 1-.215-.539h-.734a.777.777 0 0 1-.214.539.72.72 0 0 1-.519.223.72.72 0 0 1-.519-.223.777.777 0 0 1-.214-.539h-.734a.777.777 0 0 1-.214.539.72.72 0 0 1-.519.223.72.72 0 0 1-.518-.223.777.777 0 0 1-.215-.539h-.734a.777.777 0 0 1-.214.539.72.72 0 0 1-.519.223.72.72 0 0 1-.518-.223.777.777 0 0 1-.215-.539h-.734a.787.787 0 0 1-.215.539.731.731 0 0 1-.518.223v.762a.72.72 0 0 1 .518.223.777.777 0 0 1 .215.539.777.777 0 0 1-.215.538.72.72 0 0 1-.518.224v.761a.72.72 0 0 1 .518.224.777.777 0 0 1 .215.538.777.777 0 0 1-.215.54.72.72 0 0 1-.518.222v.762a.72.72 0 0 1 .518.223.777.777 0 0 1 .215.54.777.777 0 0 1-.215.538.72.72 0 0 1-.518.223v.762a.72.72 0 0 1 .518.223.777.777 0 0 1 .215.539.777.777 0 0 1-.215.539.72.72 0 0 1-.518.223v.762a.72.72 0 0 1 .518.223.777.777 0 0 1 .215.539.777.777 0 0 1-.215.538.72.72 0 0 1-.518.224v.761a.72.72 0 0 1 .518.224.777.777 0 0 1 .215.538.777.777 0 0 1-.215.539.72.72 0 0 1-.518.223v.762a.709.709 0 0 1 .518.223.763.763 0 0 1 .215.539h.734c0-.202.077-.396.214-.539a.72.72 0 0 1 .519-.223.72.72 0 0 1 .519.223.777.777 0 0 1 .214.539h.734c0-.202.077-.396.215-.539a.72.72 0 0 1 .518-.223.72.72 0 0 1 .519.223.777.777 0 0 1 .214.539h.734c0-.202.077-.396.214-.539a.72.72 0 0 1 .519-.223Zm2.2-.305c-.221 0-.436.074-.614.212-.177.137-.307.33-.37.55h-.232a1.067 1.067 0 0 0-.37-.55 1.002 1.002 0 0 0-1.228 0c-.177.137-.307.33-.37.55h-.232a1.067 1.067 0 0 0-.37-.55 1.002 1.002 0 0 0-1.228 0c-.177.137-.307.33-.37.55h-.232a1.067 1.067 0 0 0-.37-.55 1.002 1.002 0 0 0-1.228 0c-.177.137-.307.33-.37.55h-.232a1.077 1.077 0 0 0-.258-.45 1.021 1.021 0 0 0-.433-.267v-.241c.212-.066.399-.2.53-.385a1.094 1.094 0 0 0 0-1.276 1.028 1.028 0 0 0-.53-.384v-.241c.212-.065.399-.2.53-.385a1.094 1.094 0 0 0 0-1.275 1.028 1.028 0 0 0-.53-.385v-.24c.212-.066.399-.201.53-.385a1.094 1.094 0 0 0 0-1.276 1.028 1.028 0 0 0-.53-.385v-.24c.212-.066.399-.2.53-.385a1.095 1.095 0 0 0 0-1.276 1.027 1.027 0 0 0-.53-.384v-.241c.212-.066.399-.2.53-.385a1.095 1.095 0 0 0 0-1.275 1.027 1.027 0 0 0-.53-.385v-.24c.212-.066.399-.201.53-.385a1.095 1.095 0 0 0 0-1.276 1.028 1.028 0 0 0-.53-.385v-.24c.164-.051.312-.144.433-.269.12-.125.21-.28.258-.45h.232c.063.221.193.414.37.552a1.002 1.002 0 0 0 1.228 0c.177-.138.307-.33.37-.551h.232c.063.22.193.413.37.55a1.002 1.002 0 0 0 1.228 0c.177-.137.307-.33.37-.55h.232c.063.22.193.413.37.55a1.002 1.002 0 0 0 1.228 0c.177-.137.307-.33.37-.55h.232c.063.22.193.413.37.55a1.002 1.002 0 0 0 1.228 0c.177-.137.307-.33.37-.55h.232c.049.17.138.324.258.45.12.124.27.217.433.267v.241c-.212.066-.399.2-.53.385a1.094 1.094 0 0 0 0 1.276c.131.184.318.319.53.384v.241c-.212.065-.399.2-.53.385a1.094 1.094 0 0 0 0 1.275c.131.184.318.32.53.385v.24c-.212.066-.399.201-.53.385a1.094 1.094 0 0 0 0 1.276c.131.184.318.32.53.385v.24c-.212.066-.399.2-.53.385a1.095 1.095 0 0 0 0 1.276c.131.184.318.319.53.384v.241c-.212.066-.399.2-.53.385a1.095 1.095 0 0 0 0 1.275c.131.185.318.32.53.385v.24c-.212.066-.399.201-.53.385a1.095 1.095 0 0 0 0 1.276c.131.184.318.32.53.385v.24c-.164.051-.312.143-.433.269-.12.125-.21.28-.258.45h-.232a1.067 1.067 0 0 0-.37-.551 1.002 1.002 0 0 0-.614-.212Zm-7.187-13.257h7.774v12.648h-7.774V35.676Zm7.48 12.343h-7.186V35.981h7.186v12.038ZM30.6 15.238a.72.72 0 0 1 .518.223.777.777 0 0 1 .215.539h.734c0-.202.077-.396.215-.539a.72.72 0 0 1 .518-.223.72.72 0 0 1 .519.223.777.777 0 0 1 .214.539h.734c0-.202.077-.396.214-.539a.72.72 0 0 1 .519-.223v-.762a.72.72 0 0 1-.519-.223.777.777 0 0 1-.214-.539c0-.202.077-.396.214-.539a.72.72 0 0 1 .519-.223v-.761a.72.72 0 0 1-.519-.224.777.777 0 0 1-.214-.538c0-.203.077-.396.214-.54a.72.72 0 0 1 .519-.222v-.762a.72.72 0 0 1-.519-.223.777.777 0 0 1-.214-.54c0-.201.077-.395.214-.538A.72.72 0 0 1 35 8.381v-.762a.72.72 0 0 1-.519-.223.777.777 0 0 1-.214-.539c0-.202.077-.396.214-.539A.72.72 0 0 1 35 6.095v-.762a.72.72 0 0 1-.519-.223.777.777 0 0 1-.214-.539c0-.202.077-.395.214-.538A.72.72 0 0 1 35 3.81v-.762a.72.72 0 0 1-.519-.224.777.777 0 0 1-.214-.538c0-.202.077-.396.214-.539A.72.72 0 0 1 35 1.524V.762a.72.72 0 0 1-.519-.223.777.777 0 0 1-.214-.539h-.734a.777.777 0 0 1-.215.539.72.72 0 0 1-.518.223.72.72 0 0 1-.518-.223.777.777 0 0 1-.215-.539h-.734a.777.777 0 0 1-.214.539.72.72 0 0 1-.519.223.72.72 0 0 1-.519-.223.777.777 0 0 1-.214-.539h-.734a.777.777 0 0 1-.214.539.72.72 0 0 1-.519.223.72.72 0 0 1-.518-.223.777.777 0 0 1-.215-.539h-.734a.777.777 0 0 1-.215.539.72.72 0 0 1-.518.223.72.72 0 0 1-.518-.223.777.777 0 0 1-.215-.539h-.734a.787.787 0 0 1-.215.539.732.732 0 0 1-.518.223v.762a.72.72 0 0 1 .518.223.777.777 0 0 1 .215.539.777.777 0 0 1-.215.538.72.72 0 0 1-.518.224v.762a.72.72 0 0 1 .518.223.777.777 0 0 1 .215.538.777.777 0 0 1-.215.54.72.72 0 0 1-.518.222v.762a.72.72 0 0 1 .518.223.777.777 0 0 1 .215.54.777.777 0 0 1-.215.538.72.72 0 0 1-.518.223v.762a.72.72 0 0 1 .518.223.777.777 0 0 1 .215.539.777.777 0 0 1-.215.539.72.72 0 0 1-.518.223v.762a.72.72 0 0 1 .518.223.777.777 0 0 1 .215.539.777.777 0 0 1-.215.538.72.72 0 0 1-.518.223v.762a.72.72 0 0 1 .518.223.777.777 0 0 1 .215.54.777.777 0 0 1-.215.538.72.72 0 0 1-.518.223v.762a.709.709 0 0 1 .518.223.763.763 0 0 1 .215.539h.734c0-.202.077-.396.215-.539a.72.72 0 0 1 .518-.223.72.72 0 0 1 .518.223.777.777 0 0 1 .215.539h.734c0-.202.077-.396.214-.539a.72.72 0 0 1 .519-.223.72.72 0 0 1 .519.223.777.777 0 0 1 .214.539h.734c0-.202.077-.396.214-.539a.72.72 0 0 1 .519-.223Zm2.2-.305c-.221 0-.436.074-.614.212-.177.137-.307.33-.37.55h-.232a1.067 1.067 0 0 0-.37-.55 1.002 1.002 0 0 0-1.228 0c-.177.137-.307.33-.37.55h-.232a1.067 1.067 0 0 0-.37-.55 1.002 1.002 0 0 0-1.228 0c-.177.137-.307.33-.37.55h-.232a1.067 1.067 0 0 0-.37-.55 1.002 1.002 0 0 0-1.228 0c-.177.137-.307.33-.37.55h-.232a1.077 1.077 0 0 0-.258-.45 1.021 1.021 0 0 0-.433-.268v-.24c.212-.066.399-.2.53-.385a1.094 1.094 0 0 0 0-1.276 1.028 1.028 0 0 0-.53-.384v-.241c.212-.065.399-.2.53-.385a1.094 1.094 0 0 0 0-1.275 1.028 1.028 0 0 0-.53-.385v-.24c.212-.066.399-.201.53-.385a1.094 1.094 0 0 0 0-1.276 1.028 1.028 0 0 0-.53-.385v-.24c.212-.066.399-.2.53-.385a1.094 1.094 0 0 0 0-1.276 1.028 1.028 0 0 0-.53-.384v-.241c.212-.066.399-.2.53-.385a1.094 1.094 0 0 0 0-1.275 1.028 1.028 0 0 0-.53-.385v-.24c.212-.066.399-.201.53-.385a1.094 1.094 0 0 0 0-1.276 1.028 1.028 0 0 0-.53-.385v-.24c.164-.051.312-.144.433-.269.12-.125.21-.28.258-.45h.232c.063.221.193.414.37.552a1.001 1.001 0 0 0 1.228 0c.177-.138.307-.33.37-.551h.232c.063.22.193.413.37.55a1.001 1.001 0 0 0 1.228 0c.177-.137.307-.33.37-.55h.232c.063.22.193.413.37.55a1.001 1.001 0 0 0 1.228 0c.177-.137.307-.33.37-.55h.232c.063.22.193.413.37.55a1.001 1.001 0 0 0 1.228 0c.177-.137.307-.33.37-.55h.232c.049.17.138.324.258.45.12.124.27.217.433.267v.241c-.212.066-.398.2-.53.385a1.094 1.094 0 0 0 0 1.276c.132.184.318.319.53.384v.241c-.212.065-.398.2-.53.385a1.094 1.094 0 0 0 0 1.275c.132.185.318.32.53.385v.24c-.212.066-.398.201-.53.385a1.094 1.094 0 0 0 0 1.276c.132.184.318.32.53.385v.24c-.212.066-.398.2-.53.385a1.094 1.094 0 0 0 0 1.276c.132.184.318.319.53.384v.241c-.212.066-.398.2-.53.385a1.095 1.095 0 0 0 0 1.275c.132.185.318.32.53.385v.24c-.212.066-.398.201-.53.385a1.095 1.095 0 0 0 0 1.276c.132.184.318.32.53.385v.24c-.164.051-.312.143-.433.269-.12.125-.21.28-.258.45h-.232a1.067 1.067 0 0 0-.37-.551 1.002 1.002 0 0 0-.614-.212ZM25.613 1.676h7.774v12.648h-7.774V1.676Zm7.48 12.343h-7.186V1.981h7.186v12.038ZM30.6 32.238a.72.72 0 0 1 .518.223.777.777 0 0 1 .215.539h.734c0-.202.077-.396.215-.539a.72.72 0 0 1 .518-.223.72.72 0 0 1 .519.223.777.777 0 0 1 .214.539h.734c0-.202.077-.396.214-.539a.72.72 0 0 1 .519-.223v-.762a.72.72 0 0 1-.519-.223.777.777 0 0 1-.214-.539c0-.202.077-.396.214-.538a.72.72 0 0 1 .519-.224v-.762a.72.72 0 0 1-.519-.223.777.777 0 0 1-.214-.538c0-.202.077-.396.214-.54a.72.72 0 0 1 .519-.222v-.762a.72.72 0 0 1-.519-.223.777.777 0 0 1-.214-.54c0-.201.077-.395.214-.538a.72.72 0 0 1 .519-.223v-.762a.72.72 0 0 1-.519-.223.777.777 0 0 1-.214-.539c0-.202.077-.396.214-.539a.72.72 0 0 1 .519-.223v-.762a.72.72 0 0 1-.519-.223.777.777 0 0 1-.214-.539c0-.202.077-.395.214-.538a.72.72 0 0 1 .519-.224v-.761a.72.72 0 0 1-.519-.223.777.777 0 0 1-.214-.54c0-.201.077-.395.214-.538a.72.72 0 0 1 .519-.223v-.762a.72.72 0 0 1-.519-.223.777.777 0 0 1-.214-.539h-.734a.777.777 0 0 1-.215.539.72.72 0 0 1-.518.223.72.72 0 0 1-.518-.223.777.777 0 0 1-.215-.539h-.734a.777.777 0 0 1-.214.539.72.72 0 0 1-.519.223.72.72 0 0 1-.519-.223.777.777 0 0 1-.214-.539h-.734a.777.777 0 0 1-.214.539.72.72 0 0 1-.519.223.72.72 0 0 1-.518-.223.777.777 0 0 1-.215-.539h-.734a.777.777 0 0 1-.215.539.72.72 0 0 1-.518.223.72.72 0 0 1-.518-.223.777.777 0 0 1-.215-.539h-.734a.787.787 0 0 1-.215.539.731.731 0 0 1-.518.223v.762a.72.72 0 0 1 .518.223.777.777 0 0 1 .215.539.777.777 0 0 1-.215.538.72.72 0 0 1-.518.224v.762a.72.72 0 0 1 .518.223.777.777 0 0 1 .215.538.777.777 0 0 1-.215.54.72.72 0 0 1-.518.222v.762a.72.72 0 0 1 .518.223.777.777 0 0 1 .215.54.777.777 0 0 1-.215.538.72.72 0 0 1-.518.223v.762a.72.72 0 0 1 .518.223.777.777 0 0 1 .215.539.777.777 0 0 1-.215.539.72.72 0 0 1-.518.223v.762a.72.72 0 0 1 .518.223.777.777 0 0 1 .215.539.777.777 0 0 1-.215.538.72.72 0 0 1-.518.224v.761a.72.72 0 0 1 .518.223.777.777 0 0 1 .215.54.777.777 0 0 1-.215.538.72.72 0 0 1-.518.223v.762a.709.709 0 0 1 .518.223.763.763 0 0 1 .215.539h.734c0-.202.077-.396.215-.539a.72.72 0 0 1 .518-.223.72.72 0 0 1 .518.223.777.777 0 0 1 .215.539h.734c0-.202.077-.396.214-.539a.72.72 0 0 1 .519-.223.72.72 0 0 1 .519.223.777.777 0 0 1 .214.539h.734c0-.202.077-.396.214-.539a.72.72 0 0 1 .519-.223Zm2.2-.305c-.221 0-.436.074-.614.212-.177.137-.307.33-.37.55h-.232a1.067 1.067 0 0 0-.37-.55 1.002 1.002 0 0 0-1.228 0c-.177.137-.307.33-.37.55h-.232a1.067 1.067 0 0 0-.37-.55 1.002 1.002 0 0 0-1.228 0c-.177.137-.307.33-.37.55h-.232a1.067 1.067 0 0 0-.37-.55 1.002 1.002 0 0 0-1.228 0c-.177.137-.307.33-.37.55h-.232a1.077 1.077 0 0 0-.258-.45 1.021 1.021 0 0 0-.433-.267v-.241c.212-.066.399-.2.53-.385a1.094 1.094 0 0 0 0-1.276 1.028 1.028 0 0 0-.53-.384v-.241c.212-.065.399-.2.53-.385a1.094 1.094 0 0 0 0-1.275 1.028 1.028 0 0 0-.53-.385v-.24c.212-.066.399-.201.53-.385a1.094 1.094 0 0 0 0-1.276 1.028 1.028 0 0 0-.53-.385v-.24c.212-.066.399-.2.53-.385a1.095 1.095 0 0 0 0-1.276 1.027 1.027 0 0 0-.53-.384v-.241c.212-.066.399-.2.53-.385a1.095 1.095 0 0 0 0-1.275 1.027 1.027 0 0 0-.53-.385v-.24c.212-.066.399-.201.53-.385a1.095 1.095 0 0 0 0-1.276 1.028 1.028 0 0 0-.53-.385v-.24c.164-.051.312-.144.433-.269.12-.125.21-.28.258-.45h.232c.063.221.193.414.37.552a1.002 1.002 0 0 0 1.228 0c.177-.138.307-.33.37-.551h.232c.063.22.193.413.37.55a1.002 1.002 0 0 0 1.228 0c.177-.137.307-.33.37-.55h.232c.063.22.193.413.37.55a1.002 1.002 0 0 0 1.228 0c.177-.137.307-.33.37-.55h.232c.063.22.193.413.37.55a1.002 1.002 0 0 0 1.228 0c.177-.137.307-.33.37-.55h.232c.049.17.138.324.258.45.12.124.27.217.433.268v.24c-.212.066-.398.2-.53.385a1.094 1.094 0 0 0 0 1.276c.132.184.318.319.53.384v.241c-.212.065-.398.2-.53.385a1.094 1.094 0 0 0 0 1.275c.132.184.318.32.53.385v.24c-.212.066-.398.201-.53.385a1.094 1.094 0 0 0 0 1.276c.132.184.318.32.53.385v.24c-.212.066-.398.2-.53.385a1.095 1.095 0 0 0 0 1.276c.132.184.318.319.53.384v.241c-.212.066-.398.2-.53.385a1.095 1.095 0 0 0 0 1.275c.132.185.318.32.53.385v.24c-.212.066-.398.201-.53.385a1.095 1.095 0 0 0 0 1.276c.132.184.318.32.53.385v.24c-.164.051-.312.143-.433.269-.12.125-.21.28-.258.45h-.232a1.067 1.067 0 0 0-.37-.551 1.002 1.002 0 0 0-.614-.212Zm-7.187-13.257h7.774v12.648h-7.774V18.676Zm7.48 12.343h-7.186V18.981h7.186v12.038ZM30.6 49.238a.72.72 0 0 1 .518.223.777.777 0 0 1 .215.539h.734c0-.202.077-.396.215-.539a.72.72 0 0 1 .518-.223.72.72 0 0 1 .519.223.777.777 0 0 1 .214.539h.734c0-.202.077-.396.214-.539a.72.72 0 0 1 .519-.223v-.762a.72.72 0 0 1-.519-.223.777.777 0 0 1-.214-.539c0-.202.077-.396.214-.538a.72.72 0 0 1 .519-.224v-.761a.72.72 0 0 1-.519-.224.777.777 0 0 1-.214-.538c0-.203.077-.396.214-.54a.72.72 0 0 1 .519-.222v-.762a.72.72 0 0 1-.519-.223.777.777 0 0 1-.214-.54c0-.201.077-.395.214-.538a.72.72 0 0 1 .519-.223v-.762a.72.72 0 0 1-.519-.223.777.777 0 0 1-.214-.539c0-.202.077-.396.214-.539a.72.72 0 0 1 .519-.223v-.762a.72.72 0 0 1-.519-.223.777.777 0 0 1-.214-.539c0-.202.077-.395.214-.538a.72.72 0 0 1 .519-.224v-.761a.72.72 0 0 1-.519-.224.777.777 0 0 1-.214-.538c0-.202.077-.396.214-.539a.72.72 0 0 1 .519-.223v-.762a.72.72 0 0 1-.519-.223.777.777 0 0 1-.214-.539h-.734a.777.777 0 0 1-.215.539.72.72 0 0 1-.518.223.72.72 0 0 1-.518-.223.777.777 0 0 1-.215-.539h-.734a.777.777 0 0 1-.214.539.72.72 0 0 1-.519.223.72.72 0 0 1-.519-.223.777.777 0 0 1-.214-.539h-.734a.777.777 0 0 1-.214.539.72.72 0 0 1-.519.223.72.72 0 0 1-.518-.223.777.777 0 0 1-.215-.539h-.734a.777.777 0 0 1-.215.539.72.72 0 0 1-.518.223.72.72 0 0 1-.518-.223.777.777 0 0 1-.215-.539h-.734a.787.787 0 0 1-.215.539.731.731 0 0 1-.518.223v.762a.72.72 0 0 1 .518.223.777.777 0 0 1 .215.539.777.777 0 0 1-.215.538.72.72 0 0 1-.518.224v.761a.72.72 0 0 1 .518.224.777.777 0 0 1 .215.538.777.777 0 0 1-.215.54.72.72 0 0 1-.518.222v.762a.72.72 0 0 1 .518.223.777.777 0 0 1 .215.54.777.777 0 0 1-.215.538.72.72 0 0 1-.518.223v.762a.72.72 0 0 1 .518.223.777.777 0 0 1 .215.539.777.777 0 0 1-.215.539.72.72 0 0 1-.518.223v.762a.72.72 0 0 1 .518.223.777.777 0 0 1 .215.539.777.777 0 0 1-.215.538.72.72 0 0 1-.518.224v.761a.72.72 0 0 1 .518.224.777.777 0 0 1 .215.538.777.777 0 0 1-.215.539.72.72 0 0 1-.518.223v.762a.709.709 0 0 1 .518.223.763.763 0 0 1 .215.539h.734c0-.202.077-.396.215-.539a.72.72 0 0 1 .518-.223.72.72 0 0 1 .518.223.777.777 0 0 1 .215.539h.734c0-.202.077-.396.214-.539a.72.72 0 0 1 .519-.223.72.72 0 0 1 .519.223.777.777 0 0 1 .214.539h.734c0-.202.077-.396.214-.539a.72.72 0 0 1 .519-.223Zm2.2-.305c-.221 0-.436.074-.614.212-.177.137-.307.33-.37.55h-.232a1.067 1.067 0 0 0-.37-.55 1.002 1.002 0 0 0-1.228 0c-.177.137-.307.33-.37.55h-.232a1.067 1.067 0 0 0-.37-.55 1.002 1.002 0 0 0-1.228 0c-.177.137-.307.33-.37.55h-.232a1.067 1.067 0 0 0-.37-.55 1.002 1.002 0 0 0-1.228 0c-.177.137-.307.33-.37.55h-.232a1.077 1.077 0 0 0-.258-.45 1.021 1.021 0 0 0-.433-.267v-.241c.212-.066.399-.2.53-.385a1.094 1.094 0 0 0 0-1.276 1.028 1.028 0 0 0-.53-.384v-.241c.212-.065.399-.2.53-.385a1.094 1.094 0 0 0 0-1.275 1.028 1.028 0 0 0-.53-.385v-.24c.212-.066.399-.201.53-.385a1.094 1.094 0 0 0 0-1.276 1.028 1.028 0 0 0-.53-.385v-.24c.212-.066.399-.2.53-.385a1.095 1.095 0 0 0 0-1.276 1.027 1.027 0 0 0-.53-.384v-.241c.212-.066.399-.2.53-.385a1.095 1.095 0 0 0 0-1.275 1.027 1.027 0 0 0-.53-.385v-.24c.212-.066.399-.201.53-.385a1.095 1.095 0 0 0 0-1.276 1.028 1.028 0 0 0-.53-.385v-.24c.164-.051.312-.144.433-.269.12-.125.21-.28.258-.45h.232c.063.221.193.414.37.552a1.002 1.002 0 0 0 1.228 0c.177-.138.307-.33.37-.551h.232c.063.22.193.413.37.55a1.002 1.002 0 0 0 1.228 0c.177-.137.307-.33.37-.55h.232c.063.22.193.413.37.55a1.002 1.002 0 0 0 1.228 0c.177-.137.307-.33.37-.55h.232c.063.22.193.413.37.55a1.002 1.002 0 0 0 1.228 0c.177-.137.307-.33.37-.55h.232c.049.17.138.324.258.45.12.124.27.217.433.267v.241c-.212.066-.398.2-.53.385a1.094 1.094 0 0 0 0 1.276c.132.184.318.319.53.384v.241c-.212.065-.398.2-.53.385a1.094 1.094 0 0 0 0 1.275c.132.184.318.32.53.385v.24c-.212.066-.398.201-.53.385a1.094 1.094 0 0 0 0 1.276c.132.184.318.32.53.385v.24c-.212.066-.398.2-.53.385a1.095 1.095 0 0 0 0 1.276c.132.184.318.319.53.384v.241c-.212.066-.398.2-.53.385a1.095 1.095 0 0 0 0 1.275c.132.185.318.32.53.385v.24c-.212.066-.398.201-.53.385a1.095 1.095 0 0 0 0 1.276c.132.184.318.32.53.385v.24c-.164.051-.312.143-.433.269-.12.125-.21.28-.258.45h-.232a1.067 1.067 0 0 0-.37-.551 1.002 1.002 0 0 0-.614-.212Zm-7.187-13.257h7.774v12.648h-7.774V35.676Zm7.48 12.343h-7.186V35.981h7.186v12.038ZM42.6 15.238a.72.72 0 0 1 .518.223.777.777 0 0 1 .215.539h.734c0-.202.077-.396.215-.539a.72.72 0 0 1 .518-.223.72.72 0 0 1 .519.223.777.777 0 0 1 .214.539h.734c0-.202.077-.396.214-.539a.72.72 0 0 1 .519-.223v-.762a.72.72 0 0 1-.519-.223.777.777 0 0 1-.214-.539c0-.202.077-.396.214-.539a.72.72 0 0 1 .519-.223v-.761a.72.72 0 0 1-.519-.224.777.777 0 0 1-.214-.538c0-.203.077-.396.214-.54a.72.72 0 0 1 .519-.222v-.762a.72.72 0 0 1-.519-.223.777.777 0 0 1-.214-.54c0-.201.077-.395.214-.538A.72.72 0 0 1 47 8.381v-.762a.72.72 0 0 1-.519-.223.777.777 0 0 1-.214-.539c0-.202.077-.396.214-.539A.72.72 0 0 1 47 6.095v-.762a.72.72 0 0 1-.519-.223.777.777 0 0 1-.214-.539c0-.202.077-.395.214-.538A.72.72 0 0 1 47 3.81v-.762a.72.72 0 0 1-.519-.224.777.777 0 0 1-.214-.538c0-.202.077-.396.214-.539A.72.72 0 0 1 47 1.524V.762a.72.72 0 0 1-.519-.223.777.777 0 0 1-.214-.539h-.734a.777.777 0 0 1-.215.539.72.72 0 0 1-.518.223.72.72 0 0 1-.518-.223.777.777 0 0 1-.215-.539h-.734a.777.777 0 0 1-.215.539.72.72 0 0 1-.518.223.72.72 0 0 1-.519-.223.777.777 0 0 1-.214-.539h-.734a.777.777 0 0 1-.215.539.72.72 0 0 1-.518.223.72.72 0 0 1-.518-.223.777.777 0 0 1-.215-.539h-.734a.777.777 0 0 1-.215.539.72.72 0 0 1-.518.223.72.72 0 0 1-.519-.223.777.777 0 0 1-.214-.539h-.734a.787.787 0 0 1-.214.539.732.732 0 0 1-.519.223v.762a.72.72 0 0 1 .519.223.777.777 0 0 1 .214.539.777.777 0 0 1-.214.538.72.72 0 0 1-.519.224v.762a.72.72 0 0 1 .519.223.777.777 0 0 1 .214.538.777.777 0 0 1-.214.54.72.72 0 0 1-.519.222v.762a.72.72 0 0 1 .519.223.777.777 0 0 1 .214.54.777.777 0 0 1-.214.538.72.72 0 0 1-.519.223v.762a.72.72 0 0 1 .519.223.777.777 0 0 1 .214.539.777.777 0 0 1-.214.539.72.72 0 0 1-.519.223v.762a.72.72 0 0 1 .519.223.777.777 0 0 1 .214.539.777.777 0 0 1-.214.538.72.72 0 0 1-.519.223v.762a.72.72 0 0 1 .519.223.777.777 0 0 1 .214.54.777.777 0 0 1-.214.538.72.72 0 0 1-.519.223v.762a.709.709 0 0 1 .519.223.763.763 0 0 1 .214.539h.734c0-.202.077-.396.215-.539a.72.72 0 0 1 .518-.223.72.72 0 0 1 .518.223.777.777 0 0 1 .215.539h.734c0-.202.077-.396.215-.539a.72.72 0 0 1 .518-.223.72.72 0 0 1 .519.223.777.777 0 0 1 .214.539h.734c0-.202.077-.396.215-.539a.72.72 0 0 1 .518-.223Zm2.2-.305c-.221 0-.436.074-.614.212-.177.137-.307.33-.37.55h-.232a1.067 1.067 0 0 0-.37-.55 1.002 1.002 0 0 0-1.228 0c-.177.137-.307.33-.37.55h-.232a1.067 1.067 0 0 0-.37-.55 1.002 1.002 0 0 0-1.228 0c-.177.137-.307.33-.37.55h-.232a1.067 1.067 0 0 0-.37-.55 1.002 1.002 0 0 0-1.228 0c-.177.137-.307.33-.37.55h-.232a1.077 1.077 0 0 0-.258-.45 1.021 1.021 0 0 0-.433-.268v-.24c.212-.066.398-.2.53-.385a1.094 1.094 0 0 0 0-1.276 1.028 1.028 0 0 0-.53-.384v-.241c.212-.065.398-.2.53-.385a1.094 1.094 0 0 0 0-1.275 1.028 1.028 0 0 0-.53-.385v-.24c.212-.066.398-.201.53-.385a1.094 1.094 0 0 0 0-1.276 1.028 1.028 0 0 0-.53-.385v-.24c.212-.066.398-.2.53-.385a1.094 1.094 0 0 0 0-1.276 1.028 1.028 0 0 0-.53-.384v-.241c.212-.066.398-.2.53-.385a1.094 1.094 0 0 0 0-1.275 1.028 1.028 0 0 0-.53-.385v-.24c.212-.066.398-.201.53-.385a1.094 1.094 0 0 0 0-1.276 1.028 1.028 0 0 0-.53-.385v-.24c.164-.051.312-.144.433-.269.12-.125.21-.28.258-.45h.232c.063.221.193.414.37.552a1.001 1.001 0 0 0 1.228 0c.177-.138.307-.33.37-.551h.232c.063.22.193.413.37.55a1.001 1.001 0 0 0 1.228 0c.177-.137.307-.33.37-.55h.232c.063.22.193.413.37.55a1.001 1.001 0 0 0 1.228 0c.177-.137.307-.33.37-.55h.232c.063.22.193.413.37.55a1.001 1.001 0 0 0 1.228 0c.177-.137.307-.33.37-.55h.232c.049.17.138.324.258.45.12.124.27.217.433.267v.241c-.212.066-.398.2-.53.385a1.094 1.094 0 0 0 0 1.276c.132.184.318.319.53.384v.241c-.212.065-.398.2-.53.385a1.094 1.094 0 0 0 0 1.275c.132.185.318.32.53.385v.24c-.212.066-.398.201-.53.385a1.094 1.094 0 0 0 0 1.276c.132.184.318.32.53.385v.24c-.212.066-.398.2-.53.385a1.094 1.094 0 0 0 0 1.276c.132.184.318.319.53.384v.241c-.212.066-.398.2-.53.385a1.095 1.095 0 0 0 0 1.275c.132.185.318.32.53.385v.24c-.212.066-.398.201-.53.385a1.095 1.095 0 0 0 0 1.276c.132.184.318.32.53.385v.24c-.164.051-.312.143-.433.269-.12.125-.21.28-.258.45h-.232a1.067 1.067 0 0 0-.37-.551 1.002 1.002 0 0 0-.614-.212ZM37.613 1.676h7.774v12.648h-7.774V1.676Zm7.48 12.343h-7.186V1.981h7.186v12.038ZM42.6 32.238a.72.72 0 0 1 .518.223.777.777 0 0 1 .215.539h.734c0-.202.077-.396.215-.539a.72.72 0 0 1 .518-.223.72.72 0 0 1 .519.223.777.777 0 0 1 .214.539h.734c0-.202.077-.396.214-.539a.72.72 0 0 1 .519-.223v-.762a.72.72 0 0 1-.519-.223.777.777 0 0 1-.214-.539c0-.202.077-.396.214-.538a.72.72 0 0 1 .519-.224v-.762a.72.72 0 0 1-.519-.223.777.777 0 0 1-.214-.538c0-.202.077-.396.214-.54a.72.72 0 0 1 .519-.222v-.762a.72.72 0 0 1-.519-.223.777.777 0 0 1-.214-.54c0-.201.077-.395.214-.538a.72.72 0 0 1 .519-.223v-.762a.72.72 0 0 1-.519-.223.777.777 0 0 1-.214-.539c0-.202.077-.396.214-.539a.72.72 0 0 1 .519-.223v-.762a.72.72 0 0 1-.519-.223.777.777 0 0 1-.214-.539c0-.202.077-.395.214-.538a.72.72 0 0 1 .519-.224v-.761a.72.72 0 0 1-.519-.223.777.777 0 0 1-.214-.54c0-.201.077-.395.214-.538a.72.72 0 0 1 .519-.223v-.762a.72.72 0 0 1-.519-.223.777.777 0 0 1-.214-.539h-.734a.777.777 0 0 1-.215.539.72.72 0 0 1-.518.223.72.72 0 0 1-.518-.223.777.777 0 0 1-.215-.539h-.734a.777.777 0 0 1-.215.539.72.72 0 0 1-.518.223.72.72 0 0 1-.519-.223.777.777 0 0 1-.214-.539h-.734a.777.777 0 0 1-.215.539.72.72 0 0 1-.518.223.72.72 0 0 1-.518-.223.777.777 0 0 1-.215-.539h-.734a.777.777 0 0 1-.215.539.72.72 0 0 1-.518.223.72.72 0 0 1-.519-.223.777.777 0 0 1-.214-.539h-.734a.787.787 0 0 1-.214.539.731.731 0 0 1-.519.223v.762a.72.72 0 0 1 .519.223.777.777 0 0 1 .214.539.777.777 0 0 1-.214.538.72.72 0 0 1-.519.224v.762a.72.72 0 0 1 .519.223.777.777 0 0 1 .214.538.777.777 0 0 1-.214.54.72.72 0 0 1-.519.222v.762a.72.72 0 0 1 .519.223.777.777 0 0 1 .214.54.777.777 0 0 1-.214.538.72.72 0 0 1-.519.223v.762a.72.72 0 0 1 .519.223.777.777 0 0 1 .214.539.777.777 0 0 1-.214.539.72.72 0 0 1-.519.223v.762a.72.72 0 0 1 .519.223.777.777 0 0 1 .214.539.777.777 0 0 1-.214.538.72.72 0 0 1-.519.224v.761a.72.72 0 0 1 .519.223.777.777 0 0 1 .214.54.777.777 0 0 1-.214.538.72.72 0 0 1-.519.223v.762a.709.709 0 0 1 .519.223.763.763 0 0 1 .214.539h.734c0-.202.077-.396.215-.539a.72.72 0 0 1 .518-.223.72.72 0 0 1 .518.223.777.777 0 0 1 .215.539h.734c0-.202.077-.396.215-.539a.72.72 0 0 1 .518-.223.72.72 0 0 1 .519.223.777.777 0 0 1 .214.539h.734c0-.202.077-.396.215-.539a.72.72 0 0 1 .518-.223Zm2.2-.305c-.221 0-.436.074-.614.212-.177.137-.307.33-.37.55h-.232a1.067 1.067 0 0 0-.37-.55 1.002 1.002 0 0 0-1.228 0c-.177.137-.307.33-.37.55h-.232a1.067 1.067 0 0 0-.37-.55 1.002 1.002 0 0 0-1.228 0c-.177.137-.307.33-.37.55h-.232a1.067 1.067 0 0 0-.37-.55 1.002 1.002 0 0 0-1.228 0c-.177.137-.307.33-.37.55h-.232a1.077 1.077 0 0 0-.258-.45 1.021 1.021 0 0 0-.433-.267v-.241c.212-.066.398-.2.53-.385a1.094 1.094 0 0 0 0-1.276 1.028 1.028 0 0 0-.53-.384v-.241c.212-.065.398-.2.53-.385a1.094 1.094 0 0 0 0-1.275 1.028 1.028 0 0 0-.53-.385v-.24c.212-.066.398-.201.53-.385a1.094 1.094 0 0 0 0-1.276 1.028 1.028 0 0 0-.53-.385v-.24c.212-.066.398-.2.53-.385a1.095 1.095 0 0 0 0-1.276 1.027 1.027 0 0 0-.53-.384v-.241c.212-.066.398-.2.53-.385a1.095 1.095 0 0 0 0-1.275 1.027 1.027 0 0 0-.53-.385v-.24c.212-.066.398-.201.53-.385a1.095 1.095 0 0 0 0-1.276 1.028 1.028 0 0 0-.53-.385v-.24c.164-.051.312-.144.433-.269.12-.125.21-.28.258-.45h.232c.063.221.193.414.37.552a1.002 1.002 0 0 0 1.228 0c.177-.138.307-.33.37-.551h.232c.063.22.193.413.37.55a1.002 1.002 0 0 0 1.228 0c.177-.137.307-.33.37-.55h.232c.063.22.193.413.37.55a1.002 1.002 0 0 0 1.228 0c.177-.137.307-.33.37-.55h.232c.063.22.193.413.37.55a1.002 1.002 0 0 0 1.228 0c.177-.137.307-.33.37-.55h.232c.049.17.138.324.258.45.12.124.27.217.433.268v.24c-.212.066-.398.2-.53.385a1.094 1.094 0 0 0 0 1.276c.132.184.318.319.53.384v.241c-.212.065-.398.2-.53.385a1.094 1.094 0 0 0 0 1.275c.132.184.318.32.53.385v.24c-.212.066-.398.201-.53.385a1.094 1.094 0 0 0 0 1.276c.132.184.318.32.53.385v.24c-.212.066-.398.2-.53.385a1.095 1.095 0 0 0 0 1.276c.132.184.318.319.53.384v.241c-.212.066-.398.2-.53.385a1.095 1.095 0 0 0 0 1.275c.132.185.318.32.53.385v.24c-.212.066-.398.201-.53.385a1.095 1.095 0 0 0 0 1.276c.132.184.318.32.53.385v.24c-.164.051-.312.143-.433.269-.12.125-.21.28-.258.45h-.232a1.067 1.067 0 0 0-.37-.551 1.002 1.002 0 0 0-.614-.212Zm-7.187-13.257h7.774v12.648h-7.774V18.676Zm7.48 12.343h-7.186V18.981h7.186v12.038ZM42.6 49.238a.72.72 0 0 1 .518.223.777.777 0 0 1 .215.539h.734c0-.202.077-.396.215-.539a.72.72 0 0 1 .518-.223.72.72 0 0 1 .519.223.777.777 0 0 1 .214.539h.734c0-.202.077-.396.214-.539a.72.72 0 0 1 .519-.223v-.762a.72.72 0 0 1-.519-.223.777.777 0 0 1-.214-.539c0-.202.077-.396.214-.538a.72.72 0 0 1 .519-.224v-.761a.72.72 0 0 1-.519-.224.777.777 0 0 1-.214-.538c0-.203.077-.396.214-.54a.72.72 0 0 1 .519-.222v-.762a.72.72 0 0 1-.519-.223.777.777 0 0 1-.214-.54c0-.201.077-.395.214-.538a.72.72 0 0 1 .519-.223v-.762a.72.72 0 0 1-.519-.223.777.777 0 0 1-.214-.539c0-.202.077-.396.214-.539a.72.72 0 0 1 .519-.223v-.762a.72.72 0 0 1-.519-.223.777.777 0 0 1-.214-.539c0-.202.077-.395.214-.538a.72.72 0 0 1 .519-.224v-.761a.72.72 0 0 1-.519-.224.777.777 0 0 1-.214-.538c0-.202.077-.396.214-.539a.72.72 0 0 1 .519-.223v-.762a.72.72 0 0 1-.519-.223.777.777 0 0 1-.214-.539h-.734a.777.777 0 0 1-.215.539.72.72 0 0 1-.518.223.72.72 0 0 1-.518-.223.777.777 0 0 1-.215-.539h-.734a.777.777 0 0 1-.215.539.72.72 0 0 1-.518.223.72.72 0 0 1-.519-.223.777.777 0 0 1-.214-.539h-.734a.777.777 0 0 1-.215.539.72.72 0 0 1-.518.223.72.72 0 0 1-.518-.223.777.777 0 0 1-.215-.539h-.734a.777.777 0 0 1-.215.539.72.72 0 0 1-.518.223.72.72 0 0 1-.519-.223.777.777 0 0 1-.214-.539h-.734a.787.787 0 0 1-.214.539.731.731 0 0 1-.519.223v.762a.72.72 0 0 1 .519.223.777.777 0 0 1 .214.539.777.777 0 0 1-.214.538.72.72 0 0 1-.519.224v.761a.72.72 0 0 1 .519.224.777.777 0 0 1 .214.538.777.777 0 0 1-.214.54.72.72 0 0 1-.519.222v.762a.72.72 0 0 1 .519.223.777.777 0 0 1 .214.54.777.777 0 0 1-.214.538.72.72 0 0 1-.519.223v.762a.72.72 0 0 1 .519.223.777.777 0 0 1 .214.539.777.777 0 0 1-.214.539.72.72 0 0 1-.519.223v.762a.72.72 0 0 1 .519.223.777.777 0 0 1 .214.539.777.777 0 0 1-.214.538.72.72 0 0 1-.519.224v.761a.72.72 0 0 1 .519.224.777.777 0 0 1 .214.538.777.777 0 0 1-.214.539.72.72 0 0 1-.519.223v.762a.709.709 0 0 1 .519.223.763.763 0 0 1 .214.539h.734c0-.202.077-.396.215-.539a.72.72 0 0 1 .518-.223.72.72 0 0 1 .518.223.777.777 0 0 1 .215.539h.734c0-.202.077-.396.215-.539a.72.72 0 0 1 .518-.223.72.72 0 0 1 .519.223.777.777 0 0 1 .214.539h.734c0-.202.077-.396.215-.539a.72.72 0 0 1 .518-.223Zm2.2-.305c-.221 0-.436.074-.614.212-.177.137-.307.33-.37.55h-.232a1.067 1.067 0 0 0-.37-.55 1.002 1.002 0 0 0-1.228 0c-.177.137-.307.33-.37.55h-.232a1.067 1.067 0 0 0-.37-.55 1.002 1.002 0 0 0-1.228 0c-.177.137-.307.33-.37.55h-.232a1.067 1.067 0 0 0-.37-.55 1.002 1.002 0 0 0-1.228 0c-.177.137-.307.33-.37.55h-.232a1.077 1.077 0 0 0-.258-.45 1.021 1.021 0 0 0-.433-.267v-.241c.212-.066.398-.2.53-.385a1.094 1.094 0 0 0 0-1.276 1.028 1.028 0 0 0-.53-.384v-.241c.212-.065.398-.2.53-.385a1.094 1.094 0 0 0 0-1.275 1.028 1.028 0 0 0-.53-.385v-.24c.212-.066.398-.201.53-.385a1.094 1.094 0 0 0 0-1.276 1.028 1.028 0 0 0-.53-.385v-.24c.212-.066.398-.2.53-.385a1.095 1.095 0 0 0 0-1.276 1.027 1.027 0 0 0-.53-.384v-.241c.212-.066.398-.2.53-.385a1.095 1.095 0 0 0 0-1.275 1.027 1.027 0 0 0-.53-.385v-.24c.212-.066.398-.201.53-.385a1.095 1.095 0 0 0 0-1.276 1.028 1.028 0 0 0-.53-.385v-.24c.164-.051.312-.144.433-.269.12-.125.21-.28.258-.45h.232c.063.221.193.414.37.552a1.002 1.002 0 0 0 1.228 0c.177-.138.307-.33.37-.551h.232c.063.22.193.413.37.55a1.002 1.002 0 0 0 1.228 0c.177-.137.307-.33.37-.55h.232c.063.22.193.413.37.55a1.002 1.002 0 0 0 1.228 0c.177-.137.307-.33.37-.55h.232c.063.22.193.413.37.55a1.002 1.002 0 0 0 1.228 0c.177-.137.307-.33.37-.55h.232c.049.17.138.324.258.45.12.124.27.217.433.267v.241c-.212.066-.398.2-.53.385a1.094 1.094 0 0 0 0 1.276c.132.184.318.319.53.384v.241c-.212.065-.398.2-.53.385a1.094 1.094 0 0 0 0 1.275c.132.184.318.32.53.385v.24c-.212.066-.398.201-.53.385a1.094 1.094 0 0 0 0 1.276c.132.184.318.32.53.385v.24c-.212.066-.398.2-.53.385a1.095 1.095 0 0 0 0 1.276c.132.184.318.319.53.384v.241c-.212.066-.398.2-.53.385a1.095 1.095 0 0 0 0 1.275c.132.185.318.32.53.385v.24c-.212.066-.398.201-.53.385a1.095 1.095 0 0 0 0 1.276c.132.184.318.32.53.385v.24c-.164.051-.312.143-.433.269-.12.125-.21.28-.258.45h-.232a1.067 1.067 0 0 0-.37-.551 1.002 1.002 0 0 0-.614-.212Zm-7.187-13.257h7.774v12.648h-7.774V35.676Zm7.48 12.343h-7.186V35.981h7.186v12.038Z" clip-rule="evenodd"/></svg>