<svg xmlns="http://www.w3.org/2000/svg" width="50" height="50"><path style="stroke:none;fill-rule:evenodd;fill:#fff;fill-opacity:1" d="M50 49.344V50H0v-.656h9.21V46.71H2.634v-6.578H0v-.66h2.633V26.316h13.816v6.579h6.578V46.71H9.867v2.633h29.606V46.71H26.316V32.895h6.579v-6.579H46.71v13.157h2.633V9.867H46.71v13.16H32.895V16.45h-6.579V2.633h13.157V0h.66v2.633h6.578V9.21h2.633V0H50Zm-.656 0v-9.211H46.71v6.578h-6.578v2.633ZM26.973 9.867v5.922h5.922V9.867Zm6.578 5.922h6.582v6.578h5.918v-12.5h-6.578V3.29h-12.5v5.922h6.578Zm0 .66v5.918h5.922V16.45Zm6.582-7.238h5.918V3.289h-5.918ZM22.367 39.473V33.55H16.45v5.922ZM15.79 33.55H9.211v-6.578H3.289v12.5h6.578v6.578h12.5v-5.918H15.79Zm0-.656v-5.922H9.867v5.922Zm-6.578 7.238H3.289v5.918h5.922Zm17.762 0v5.918h12.5v-6.578h6.578v-12.5h-5.918v6.578H33.55v6.582Zm5.922-6.582h-5.922v5.922h5.922Zm.656-.656h5.922v-5.922H33.55Zm6.582 13.156v-5.918h5.918v5.918ZM9.867 0h-.656v2.633H2.633V9.21H0v.656h2.633v13.16h13.816V16.45h6.578V2.633H9.867Zm6.582 15.79h5.918V9.866H16.45Zm5.918-6.58H15.79v6.58H9.211v6.577H3.289v-12.5h6.578V3.29h12.5Zm-12.5 7.24h5.922v5.917H9.867ZM9.211 3.29H3.289v5.92h5.922Zm0 0"/></svg>