<svg width="50" height="50" viewBox="0 0 50 50" fill="none" xmlns="http://www.w3.org/2000/svg">
    <g clip-path="url(#clip0_2161_115)">
        <path fill-rule="evenodd" clip-rule="evenodd"
            d="M51 50.3309V51H0V50.3309H9.3942V47.6442H2.68668V40.9346H0V40.2614H2.68566V26.8423H16.778V33.5529H23.4875V47.6442H10.0643V50.3299H40.2625V47.6442H26.8423V33.5529H33.5529V26.8423H47.6442V40.2625H50.3299V10.0643H47.6442V23.4875H33.5529V16.779H26.8423V2.68566H40.2625V0H40.9357V2.68566H47.6452V9.3942H50.3309V0H51V50.3309ZM50.3309 50.3309V40.9357H47.6442V47.6452H40.9346V50.3309H50.3309ZM27.5125 10.0643V16.1048H33.5529V10.0643H27.5125ZM34.222 16.1048H40.9357V22.8143H46.972V10.0643H40.2625V3.3558H27.5125V9.39624H34.222V16.1048ZM34.222 16.778V22.8143H40.2625V16.779L34.222 16.778ZM40.9357 9.39522H46.972V3.35478H40.9357V9.39522ZM22.8143 40.2625V34.221H16.779V40.2614L22.8143 40.2625ZM16.1058 34.221H9.39522V27.5114H3.35478V40.2614H10.0643V46.971H22.8143V40.9346H16.1058V34.221ZM16.1058 33.5519V27.5114H10.0643V33.5519H16.1058ZM9.39624 40.9346H3.35478V46.971H9.39522L9.39624 40.9346ZM27.5135 40.9346V46.971H40.2635V40.2614H46.973V27.5114H40.9367V34.221H34.221V40.9346H27.5135ZM33.5539 34.221H27.5135V40.2614H33.5539V34.221ZM34.223 33.5519H40.2635V27.5114H34.221L34.223 33.5519ZM40.9367 46.971V40.9346H46.973V46.971H40.9367ZM10.0643 0H9.39522V2.68566H2.68566V9.3942H0V10.0633H2.68566V23.4865H16.778V16.779H23.4875V2.68566H10.0643V0ZM16.778 16.1058H22.8143V10.0633H16.779L16.778 16.1058ZM22.8143 9.3942H16.1058V16.1058H9.39522V22.8143H3.35478V10.0643H10.0643V3.3558H22.8143V9.3942ZM10.0643 16.779H16.1048V22.8143H10.0643V16.779ZM9.39522 3.3558H3.35478V9.3942H9.39522V3.3558Z"
            fill="white" />
    </g>
    <defs>
        <clipPath id="clip0_2161_115">
            <rect width="50" height="50" fill="white" />
        </clipPath>
    </defs>
</svg>
    