<svg width="45" height="45" viewBox="0 0 45 45" fill="none" xmlns="http://www.w3.org/2000/svg">
    <path fill-rule="evenodd" clip-rule="evenodd"
        d="M0 13.4148V13.6798C0.597843 12.5643 1.15897 11.4296 1.68247 10.2773C2.06247 9.43859 2.15246 8.54111 2.03247 7.42863C1.98622 6.99988 1.92622 6.63864 1.78997 5.90365C1.59372 4.84992 1.52997 4.42868 1.50497 3.88744C1.47373 3.17495 1.56372 2.57246 1.80747 2.02622C2.14371 1.27373 2.24996 0.947484 2.48871 0.00124998H2.35996C2.12746 0.917485 2.02247 1.23873 1.69247 1.97622C1.43998 2.54121 1.34748 3.16245 1.37998 3.89244C1.40373 4.44118 1.46998 4.86742 1.66622 5.92615C1.80247 6.65864 1.86247 7.01613 1.90747 7.44113C2.02622 8.53361 1.93872 9.40984 1.56747 10.2248C1.07762 11.3039 0.554887 12.3677 0 13.4148ZM0 18.1697V18.3759C0.319386 17.9584 0.589503 17.5054 0.804987 17.026C1.64444 15.2028 2.47361 13.3749 3.29245 11.5423C3.58631 10.8825 3.87797 10.2216 4.16743 9.55984C4.27284 9.27455 4.36256 8.9837 4.43618 8.68861C4.59242 8.03862 4.68742 7.34238 4.68742 6.62614C4.68742 6.43364 4.68492 6.28989 4.67242 5.8774C4.66242 5.52491 4.65742 5.34116 4.65742 5.12866C4.64992 3.31369 5.01242 2.43871 6.1249 2.43871C7.11113 2.43871 8.27361 2.10371 9.1736 1.53872C9.84734 1.11623 10.3398 0.59374 10.6011 0.00124998H10.4636H10.4623C10.2073 0.548741 9.74109 1.03498 9.10735 1.43373C8.22611 1.98622 7.08738 2.31496 6.1249 2.31496C5.46491 2.31496 5.03367 2.62871 4.79117 3.2137C4.59867 3.67869 4.52867 4.28243 4.53242 5.13116C4.53242 5.34366 4.53742 5.52866 4.54742 5.8824C4.55867 6.29364 4.56242 6.43614 4.56242 6.62614C4.55936 7.52047 4.41768 8.40892 4.14243 9.25985C3.96628 9.70568 3.90702 9.83983 3.84301 9.98472L3.83744 9.99733C2.80622 12.3302 1.75829 14.6556 0.693738 16.9735C0.503383 17.3946 0.270956 17.7953 0 18.1697ZM0 19.6472V19.9472C0.723738 19.4159 1.32623 18.7959 1.61372 18.1784C1.90997 17.5435 2.32621 16.9522 3.0787 16.0347L3.41369 15.6297C4.54742 14.2573 5.03117 13.5648 5.36741 12.6698C5.40655 12.5651 5.53017 12.1971 5.68704 11.7301C5.97605 10.8698 6.37794 9.67336 6.57239 9.1686C7.29238 7.29363 8.07487 5.99115 9.0761 5.22491C9.96983 4.54242 10.4298 4.02493 10.7098 3.44244C10.8045 3.23849 10.8856 3.02844 10.9523 2.8137C11.2536 1.90372 11.3186 1.73247 11.6098 1.18498C11.7873 0.853736 11.9011 0.501242 11.9886 0.00124998H11.7336C11.6777 0.372974 11.5616 0.733104 11.3898 1.06748C11.0898 1.63122 11.0211 1.80997 10.7148 2.73495C10.6286 2.9962 10.5648 3.16495 10.4836 3.33369C10.2236 3.87744 9.78859 4.36493 8.9236 5.02742C7.87612 5.82865 7.07488 7.16488 6.33864 9.0786C6.14701 9.57875 5.75558 10.7425 5.46777 11.5982C5.30315 12.0877 5.17244 12.4763 5.13241 12.5823C4.80992 13.4423 4.33743 14.1198 3.21995 15.4697L2.88495 15.8772C2.12121 16.8097 1.69497 17.4135 1.38748 18.0722C1.13748 18.6097 0.642489 19.1547 0 19.6472ZM0 22.2584V22.4021C0.653921 22.0293 1.25684 21.5735 1.79372 21.0459C5.09867 17.8722 5.47116 17.4647 6.42864 15.9085C6.83739 15.2447 7.21238 13.9648 7.66612 11.9086C7.72146 11.6563 7.84801 11.0619 7.9687 10.4951C8.08247 9.96069 8.19104 9.45074 8.22986 9.27485C8.42361 8.40236 8.56236 7.89112 8.6811 7.65362C8.8311 7.35488 9.13985 6.94113 9.57484 6.44614C10.088 5.87257 10.6222 5.31804 11.1761 4.78367C11.3795 4.39941 11.4255 4.26312 11.4705 4.13016C11.4727 4.12342 11.475 4.11669 11.4773 4.10993C11.6098 3.70994 11.7561 3.30994 11.9148 2.93495C12.0588 2.58012 12.2301 2.23701 12.4273 1.90872C12.631 1.58497 12.7873 1.03873 12.9948 0.00124998H12.8673C12.6648 1.00498 12.5123 1.53872 12.3223 1.84372C12.1209 2.17751 11.9458 2.52647 11.7986 2.88745C11.5685 3.43681 11.369 3.9985 11.2011 4.56992C10.9961 4.78242 10.8923 4.88492 10.7798 4.99492C10.4586 5.31241 10.1386 5.63991 9.83859 5.9649C9.71359 6.0999 9.59359 6.23365 9.48109 6.36239C9.03985 6.86614 8.72485 7.28613 8.56986 7.59862C8.44486 7.84862 8.30361 8.36236 8.10736 9.2486C8.06934 9.42088 7.9644 9.91364 7.8532 10.4358C7.73043 11.0123 7.60003 11.6246 7.54362 11.8811C7.09363 13.9223 6.72114 15.196 6.32114 15.8435C5.37116 17.3872 5.00617 17.7897 1.70622 20.9559C1.1936 21.459 0.620477 21.8965 0 22.2584ZM0 24.3996V24.5383V24.5408C0.966234 24.0583 1.88622 23.2359 2.8262 22.1084C3.09161 21.7888 3.61151 21.0984 4.05384 20.5111C4.4073 20.0418 4.71123 19.6382 4.79617 19.5422C5.01617 19.2959 5.29241 19.0597 5.7049 18.7534L6.39114 18.2559C7.58237 17.3835 8.17861 16.7272 8.43486 15.7672C8.53611 15.3897 8.62986 14.9123 8.74485 14.2173C8.7539 14.1626 8.78022 13.9994 8.81453 13.7867C8.894 13.294 9.01633 12.5355 9.0661 12.2448C9.41984 10.1723 9.77359 8.92985 10.2986 8.28986C11.6761 6.60614 12.8123 4.80992 12.8123 4.12618C12.8123 3.83869 12.8635 3.71619 13.556 2.21496C13.6423 2.02747 13.7135 1.87122 13.7785 1.72122C14.0998 0.984984 14.2785 0.436243 14.3073 0.00124998H14.1823C14.1523 0.416243 13.9773 0.952484 13.6648 1.67122C13.5998 1.81997 13.5285 1.97622 13.4435 2.16246C12.7298 3.70744 12.6873 3.80869 12.6873 4.12618C12.6873 4.76742 11.5573 6.55489 10.2011 8.20986C9.65859 8.8736 9.3011 10.1261 8.94235 12.2223C8.87235 12.6385 8.65111 14.016 8.62236 14.196C8.50736 14.886 8.41486 15.361 8.31486 15.7335C8.06736 16.6585 7.48738 17.2972 6.31739 18.1534C6.28973 18.1738 6.20044 18.2385 6.09365 18.3158C5.92541 18.4377 5.71374 18.591 5.63116 18.6522C5.21116 18.9634 4.92867 19.2034 4.70367 19.4584C4.61458 19.5582 4.30088 19.9747 3.93974 20.4542C3.50032 21.0376 2.99067 21.7143 2.72995 22.0271C1.81872 23.1209 0.927485 23.9221 0 24.3996ZM0 25.9846V26.1096C0.849986 26.0883 1.31248 26.4783 1.31248 27.3758C1.31248 28.717 0.741238 30.6857 0 32.2757V32.5632C0.806237 30.9195 1.43748 28.802 1.43748 27.3758C1.43748 26.4008 0.913735 25.9646 0 25.9846ZM0 34.5107V34.7482L0.677489 33.6594C1.17004 32.8777 1.67648 32.1833 1.98209 31.7643C2.12553 31.5676 2.22472 31.4316 2.25746 31.3757C2.35996 31.2032 2.43371 31.0107 2.56496 30.5857C2.593 30.4967 2.70044 30.1368 2.82303 29.7262C2.95177 29.2949 3.09722 28.8077 3.18495 28.5195C3.42457 27.7205 3.64132 26.9147 3.83494 26.1033C3.88558 25.8968 4.00198 25.4034 4.11239 24.9353C4.21181 24.5139 4.30637 24.1131 4.34368 23.9608C4.91367 21.6184 5.39366 20.5034 6.28865 19.8009C6.39239 19.7184 6.50114 19.6359 6.61614 19.5509C6.78739 19.4259 6.96238 19.3009 7.19988 19.1384L7.76987 18.7459C9.32984 17.6535 9.93733 16.816 9.93733 15.251C9.93733 14.2185 10.4286 13.6898 11.5261 13.1823C11.6348 13.1323 12.0185 12.9623 12.0061 12.9685C12.856 12.5873 13.1873 12.301 13.1873 11.7511C13.1873 10.8198 13.251 10.3211 13.4785 9.83984C13.751 9.26235 14.2673 8.77985 15.1535 8.30611C15.6872 8.02237 16.0935 7.66737 16.8785 6.86864C17.7297 6.00115 18.1097 5.66366 18.6159 5.37241C18.9306 5.18221 19.2802 5.0568 19.644 5.00357C20.0078 4.95033 20.3787 4.97034 20.7347 5.06242C22.9046 5.57866 26.1058 5.93865 27.4995 5.93865C28.277 5.93865 30.7357 5.37241 31.5157 5.06117C32.6395 4.88117 33.5919 4.90867 35.0357 5.07866C36.5169 5.25491 36.7994 5.26991 37.2319 5.13241C37.7994 4.95117 38.0619 4.45618 38.0619 3.50119C38.0619 2.24746 38.2556 1.48623 38.7431 0.353744C38.7969 0.229996 38.8469 0.113748 38.8931 0.00124998H38.7619C38.1319 1.46373 37.9369 2.23871 37.9369 3.50119C37.9369 4.40743 37.7019 4.85117 37.1944 5.01367C36.7881 5.14241 36.5044 5.12741 35.0507 4.95492C33.5932 4.78242 32.6295 4.75617 31.4895 4.93867C30.7157 5.24741 28.262 5.81365 27.4995 5.81365C26.1146 5.81365 22.9234 5.45491 20.7647 4.93992C20.3931 4.84404 20.0061 4.82329 19.6264 4.87888C19.2467 4.93447 18.8819 5.06529 18.5534 5.26366C18.0334 5.56366 17.6485 5.9049 16.8635 6.70489C16.0135 7.57112 15.6135 7.91987 15.0947 8.19611C14.186 8.6811 13.651 9.18235 13.3648 9.78734C13.1285 10.2886 13.0623 10.8011 13.0623 11.7511C13.0623 12.2323 12.7623 12.491 11.9548 12.8535C11.9605 12.8515 11.8973 12.8796 11.8135 12.917C11.6959 12.9694 11.5378 13.0398 11.4736 13.0698C10.3373 13.5935 9.81234 14.1585 9.81234 15.251C9.81234 16.7672 9.2286 17.5722 7.69737 18.6434L7.12988 19.0359C6.89239 19.1997 6.71489 19.3234 6.54239 19.4509C6.42614 19.5359 6.31614 19.6184 6.21115 19.7022C5.28616 20.4284 4.79867 21.5621 4.22118 23.9309C4.18857 24.0666 4.11036 24.3981 4.02363 24.7659C3.90425 25.272 3.76871 25.8467 3.71369 26.0733C3.49494 26.9708 3.29369 27.7283 3.06495 28.482C2.97764 28.7701 2.83316 29.2547 2.70503 29.6844C2.58184 30.0976 2.47378 30.46 2.44621 30.5482C2.35556 30.8404 2.22648 31.1314 2.17113 31.2562C2.14786 31.3086 2.13762 31.3317 2.14871 31.3132C1.59243 32.051 1.06658 32.8112 0.57249 33.5919L0 34.5107ZM0 36.5006V36.5019V36.8731C1.37248 35.3794 2.45621 33.7994 3.1162 32.1732C3.53119 31.147 3.87994 30.1457 4.47368 28.337L4.67117 27.732C5.48366 25.2496 5.9299 24.0221 6.50489 22.8171C7.24363 21.2696 8.02487 20.2497 8.93735 19.7347C9.81859 19.2359 10.3023 18.6784 10.5748 17.9622C10.6661 17.7235 10.7136 17.546 10.8173 17.1085C10.9636 16.4872 11.0586 16.2097 11.2723 15.896C11.5486 15.486 11.9873 15.1522 12.6723 14.866C14.7573 13.9985 14.8323 13.961 15.041 13.6485C15.1597 13.471 15.1885 13.2785 15.176 12.9348C15.1738 12.8939 15.1678 12.7968 15.1618 12.6987C15.1539 12.5718 15.146 12.443 15.146 12.431C15.1322 12.1935 15.1247 11.9823 15.1247 11.7511C15.1247 10.6011 15.1447 10.4511 15.3285 10.3011C15.3785 10.2611 15.4422 10.2211 15.5472 10.1661C15.5586 10.1599 15.5952 10.1409 15.6416 10.1168C15.7275 10.0721 15.847 10.0099 15.9022 9.97983C16.3124 9.75999 16.7044 9.50796 17.0747 9.2261C17.3497 9.01985 17.4222 8.9461 18.1097 8.20361C19.0697 7.16863 19.6384 6.80489 20.3409 6.99613C20.9134 7.15238 21.7296 7.25488 22.7409 7.31363C23.6109 7.36363 24.3621 7.37613 25.4996 7.37613C26.0908 7.37613 26.5921 7.43363 27.3808 7.56862C28.3708 7.73737 28.5658 7.76487 28.972 7.76487C29.4917 7.7777 30.0035 7.6354 30.442 7.35613C31.0482 6.97113 31.4045 6.80114 31.7507 6.74114C32.1545 6.67114 32.2957 6.69239 33.7232 6.99863C35.9581 7.47738 37.7456 7.16863 39.0918 5.71115C39.7993 4.94367 39.8568 4.42743 39.5793 3.61119C39.4831 3.32744 39.4593 3.2487 39.4456 3.1237C39.4181 2.88745 39.4893 2.68871 39.7131 2.46371C40.0956 2.08247 40.3718 1.21498 40.5668 0.00124998H40.3131C40.1256 1.14123 39.8668 1.95622 39.5356 2.28746C39.2593 2.56496 39.1606 2.8387 39.1968 3.1537C39.2143 3.30369 39.2393 3.38869 39.3431 3.69119C39.5931 4.42868 39.5456 4.84992 38.9081 5.54116C37.6319 6.92363 35.9331 7.21613 33.7757 6.75364C32.3032 6.43864 32.1595 6.41614 31.707 6.49614C31.3207 6.56239 30.9395 6.74364 30.307 7.14613C29.9008 7.40488 29.4783 7.51487 28.972 7.51487C28.587 7.51487 28.3958 7.48862 27.4245 7.32238C26.6208 7.18488 26.1083 7.12613 25.4996 7.12613C24.3683 7.12613 23.6184 7.11363 22.7559 7.06363C21.7596 7.00613 20.9584 6.90613 20.4084 6.75614C19.9459 6.62989 19.5009 6.72864 19.0459 7.01988C18.7022 7.23988 18.3984 7.52362 17.926 8.03487C17.2547 8.7586 17.1822 8.8336 16.9247 9.0261C16.5647 9.30047 16.1836 9.54582 15.7847 9.75984C15.7165 9.79704 15.5416 9.88719 15.4639 9.92722C15.4476 9.93561 15.4356 9.9418 15.4297 9.94483C15.3122 10.0073 15.236 10.0548 15.171 10.1073C14.8973 10.3298 14.8748 10.4961 14.8748 11.7511C14.875 11.9825 14.8821 12.2138 14.896 12.4448C14.8963 12.4499 14.8978 12.4735 14.9 12.5081C14.9075 12.6267 14.9231 12.8741 14.926 12.9448C14.9373 13.2398 14.9148 13.386 14.8335 13.5085C14.6685 13.7548 14.5498 13.8123 12.5773 14.6348C11.8486 14.9385 11.3711 15.3022 11.0648 15.7547C10.8298 16.101 10.7273 16.3997 10.5736 17.0497C10.5163 17.3292 10.4386 17.6041 10.3411 17.8722C10.0886 18.5334 9.64609 19.0459 8.8136 19.5159C7.84862 20.0609 7.03863 21.1184 6.2799 22.7084C5.69741 23.9258 5.24991 25.1608 4.43368 27.6533L4.23493 28.2583C3.64494 30.062 3.2962 31.0595 2.8837 32.077C2.26621 33.6007 1.26623 35.0869 0 36.5006ZM0 38.3581V38.5519C0.339994 38.1956 0.693738 37.7494 1.11873 37.1644C1.78622 36.2494 2.06872 35.8944 2.41871 35.5444C3.44994 34.5132 4.62367 31.5007 5.68491 27.8945C5.7624 27.6283 6.04365 26.6383 6.0449 26.6321C6.17149 26.1833 6.30777 25.7374 6.45364 25.2946C7.05988 23.4696 7.76612 22.1859 8.7911 21.2984C8.9343 21.1743 9.24788 20.9126 9.58764 20.629C10.0694 20.2268 10.6039 19.7807 10.7798 19.6209C11.5923 18.8847 12.0935 18.2109 12.5573 17.151C12.9123 16.3397 13.3785 16.1122 14.5085 15.9535C15.1297 15.8672 15.3822 15.8135 15.6735 15.6797C16.061 15.5035 16.351 15.2185 16.5572 14.7773C16.7535 14.3535 16.8422 14.0223 16.9947 13.261C17.196 12.261 17.3435 11.8186 17.7372 11.2861C18.2559 10.5848 19.1284 9.98358 20.5222 9.43484C22.5109 8.65111 23.6009 8.6861 25.1696 9.29484L25.5671 9.45109C26.6771 9.89108 27.362 10.0636 28.3745 10.0636C29.7745 10.0636 30.6545 9.91609 31.4732 9.62234C31.5312 9.60151 31.6562 9.55353 31.7861 9.50366C31.9445 9.44283 32.1103 9.3792 32.1707 9.35859C32.5032 9.24235 32.7782 9.1886 33.1244 9.1886C33.5044 9.1886 33.8307 9.19485 34.6732 9.2161C36.3306 9.25735 37.0406 9.25485 37.5081 9.18735C38.6819 8.9536 39.7331 8.57486 40.5493 8.02112C41.6018 7.30863 42.1868 6.35239 42.1868 5.12616C42.1868 4.24743 42.1655 3.63869 42.1068 2.42621C42.058 1.43623 42.0318 0.703738 42.0255 0.00124998H41.9006C41.9055 0.684989 41.9305 1.38123 41.9743 2.28871C42.0405 3.64369 42.0618 4.25118 42.0618 5.12616C42.0618 6.30864 41.4993 7.22613 40.4793 7.91862C39.6793 8.46111 38.6431 8.8336 37.4869 9.06485C37.0331 9.12985 36.3244 9.13235 34.8832 9.0961C33.8332 9.06985 33.5057 9.0636 33.1244 9.0636C32.7848 9.0622 32.4477 9.12233 32.1295 9.2411C32.0676 9.26241 31.9005 9.32648 31.7419 9.38729C31.6122 9.43703 31.4882 9.4846 31.432 9.50484C30.627 9.79359 29.7608 9.93858 28.3745 9.93858C27.3795 9.93858 26.7096 9.76984 25.6133 9.33609L25.2146 9.1786C23.6184 8.55861 22.4959 8.52236 20.4772 9.31734C19.0622 9.87484 18.1709 10.4886 17.636 11.2123C17.2285 11.7636 17.0772 12.2198 16.8722 13.2373C16.7222 13.9873 16.6347 14.3123 16.4435 14.7248C16.2497 15.1385 15.9822 15.4022 15.621 15.566C15.346 15.6922 15.101 15.7447 14.5335 15.8235C13.9223 15.9097 13.6423 15.9722 13.3423 16.1185C12.9485 16.3122 12.6523 16.6222 12.4423 17.101C11.986 18.1434 11.4961 18.8047 10.6961 19.5297C10.53 19.6791 10.0421 20.0865 9.58185 20.4709C9.2142 20.778 8.86417 21.0703 8.70986 21.2046C7.66362 22.1096 6.94738 23.4109 6.33489 25.2546C6.20115 25.6558 6.07615 26.0671 5.9249 26.5971C5.92407 26.5991 5.89285 26.7091 5.84863 26.8648C5.75924 27.1796 5.61676 27.6814 5.56491 27.857C4.51117 31.4395 3.33994 34.4469 2.33121 35.4569C1.97497 35.8119 1.68872 36.1719 1.18498 36.8619C0.716238 37.5056 0.342494 37.9856 0 38.3581ZM0 40.4906V40.4918V40.6368C0.754987 40.1918 1.51747 39.7368 1.78497 39.5518C3.52494 38.3481 5.56241 34.7932 5.56241 32.7507C5.56241 30.5257 8.24236 23.7509 9.53359 22.9271C11.1436 21.9034 13.6023 19.4009 14.0585 18.1459C14.2798 17.536 14.696 17.3072 15.671 17.0785C16.5672 16.8685 16.8947 16.7385 17.1722 16.416C17.3747 16.1797 17.531 15.7885 17.7385 15.0822C17.7449 15.0598 17.7604 15.0055 17.7813 14.9322C17.8536 14.6782 17.9908 14.1964 18.0422 14.0248C18.4834 12.5548 18.9272 11.7798 19.6434 11.5598C19.9597 11.4623 20.0272 11.4361 20.8709 11.0936C21.7959 10.7186 22.3459 10.5461 22.9759 10.4861C23.7921 10.4086 24.5633 10.5773 25.3421 11.0536C26.0433 11.4823 26.9121 11.6623 27.9308 11.6411C28.6945 11.6261 29.4745 11.5048 30.4345 11.2886C30.5858 11.2547 30.9413 11.1704 31.196 11.11C31.3263 11.0792 31.4302 11.0545 31.467 11.0461C31.7945 10.9711 31.9945 10.9373 32.1245 10.9373C32.747 10.9373 33.2432 10.9298 33.9057 10.9036C34.8944 10.8636 35.8569 10.7873 36.7594 10.6673C37.8306 10.5236 38.7631 10.3236 39.5206 10.0586C41.9243 9.21735 43.6755 7.72612 43.8118 6.50739C43.8455 6.1974 43.8593 6.14615 44.1543 5.13866C44.4505 4.13118 44.563 3.49619 44.5005 2.8137C44.4752 2.52741 44.4104 2.246 44.308 1.97747C44.1105 1.46498 43.9705 0.808737 43.8743 0H43.7618C43.8618 0.847486 44.003 1.53247 44.1905 2.02247C44.2893 2.27746 44.3505 2.54496 44.3755 2.82495C44.4368 3.48744 44.3268 4.10993 44.0355 5.10366C43.7368 6.1224 43.723 6.1724 43.6868 6.49239C43.558 7.65362 41.8405 9.1136 39.4781 9.94108C38.7306 10.2023 37.8056 10.4011 36.7431 10.5436C35.8444 10.6636 34.8869 10.7386 33.8994 10.7786C33.2407 10.8061 32.7457 10.8123 32.1245 10.8123C31.982 10.8123 31.7757 10.8486 31.4395 10.9236C31.4013 10.9323 31.2925 10.9581 31.1573 10.9903C30.9031 11.0507 30.5555 11.1334 30.407 11.1661C29.4533 11.3823 28.682 11.5011 27.9283 11.5161C26.9308 11.5361 26.0858 11.3611 25.4071 10.9461C24.6046 10.4561 23.8071 10.2811 22.9634 10.3623C22.3196 10.4236 21.7596 10.5986 20.8234 10.9773L20.7742 10.9973C19.9819 11.3184 19.9122 11.3467 19.6059 11.4398C18.8347 11.6773 18.3747 12.4785 17.9222 13.9885C17.8803 14.1293 17.7814 14.4761 17.707 14.7366C17.6639 14.888 17.629 15.0102 17.6185 15.046C17.4172 15.7347 17.2647 16.116 17.0772 16.3335C16.8235 16.6297 16.5122 16.7522 15.7435 16.9322C14.6285 17.1947 14.1823 17.441 13.941 18.1034C13.496 19.3272 11.0548 21.8109 9.46609 22.8221C8.13361 23.6696 5.43741 30.487 5.43741 32.7495C5.43741 34.7482 3.42119 38.2656 1.71372 39.4481C1.15074 39.809 0.57934 40.1566 0 40.4906ZM45 8.75947C43.4389 10.5786 40.1816 11.9386 37.1244 11.9386C36.4844 11.9386 35.8082 11.9748 35.0732 12.0423C34.0524 12.1442 33.0349 12.2763 32.022 12.4385C29.3333 12.8448 28.5733 12.9385 27.4995 12.9385C26.6496 12.9385 26.0008 12.8085 24.9421 12.491L24.4758 12.3523C24.3008 12.2998 24.1558 12.2598 24.0159 12.2235C22.9909 11.9623 22.1909 11.9636 21.2284 12.3173C20.6989 12.5068 20.264 12.8951 20.0159 13.3998C19.8084 13.7935 19.6947 14.176 19.5184 14.9598C19.3172 15.8522 19.2134 16.206 19.0147 16.5835C18.8997 16.8183 18.7374 17.0268 18.538 17.1958C18.3386 17.3649 18.1064 17.4909 17.856 17.566C17.3747 17.7185 16.9835 17.8584 16.6572 17.9984C15.8185 18.3572 15.356 18.7172 14.881 19.3459C14.8394 19.4008 14.8104 19.4386 14.7821 19.4769C14.6954 19.594 14.6146 19.7154 14.1973 20.3409C13.9585 20.7009 13.631 21.0471 13.1598 21.4571C13.0255 21.5747 12.6497 21.8842 12.2883 22.1819C11.9771 22.4383 11.6765 22.6859 11.5498 22.7946C10.6211 23.5971 9.95983 24.3308 9.44609 25.2196C8.90985 26.1446 8.45986 27.5295 8.02237 29.412C7.84921 30.1573 7.69002 30.9057 7.54487 31.657L7.40738 32.3395C7.18363 33.4532 7.06238 33.9907 6.94113 34.3557C6.0949 36.8906 4.79617 39.5918 3.58244 40.7043C2.94995 41.2843 2.58246 41.5768 2.21496 41.7956C2.09919 41.8643 1.98077 41.9286 1.85997 41.988C1.84897 41.9934 1.79232 42.0196 1.70431 42.0602C1.36232 42.2181 0.54686 42.5946 0.0974984 42.8193L0 42.868V43.0093L0.152497 42.9318C0.583881 42.7151 1.35786 42.3573 1.72004 42.1899C1.83011 42.139 1.90215 42.1057 1.91497 42.0993C2.04997 42.0331 2.16746 41.9706 2.27996 41.9031C2.65496 41.6793 3.0287 41.3831 3.66744 40.7956C4.90117 39.6656 6.20865 36.9506 7.05863 34.3957C7.18363 34.0232 7.30488 33.4832 7.52987 32.3632L7.66612 31.682L7.81362 30.957C7.92862 30.3945 8.03487 29.9058 8.14361 29.4395C8.57861 27.5695 9.0261 26.1946 9.55359 25.2821C10.0598 24.4071 10.7111 23.6834 11.6323 22.8896C11.7601 22.7795 12.0689 22.5252 12.3862 22.264C12.7425 21.9706 13.1094 21.6685 13.2423 21.5521C13.7198 21.1346 14.0548 20.7809 14.3023 20.4097C14.7178 19.7864 14.798 19.6661 14.884 19.5502C14.9119 19.5127 14.9404 19.4757 14.981 19.4222C15.4435 18.8097 15.8872 18.4634 16.706 18.1134C17.0947 17.952 17.491 17.8093 17.8934 17.686C18.1595 17.6058 18.4062 17.4717 18.618 17.2919C18.8299 17.1121 19.0024 16.8905 19.1247 16.641C19.3309 16.251 19.4359 15.891 19.6234 15.061C19.8134 14.2148 19.9259 13.8385 20.1259 13.4573C20.3602 12.9801 20.7714 12.6133 21.2721 12.4348C22.2071 12.0898 22.9846 12.0885 23.9846 12.3448C24.1233 12.3798 24.2671 12.421 24.4408 12.4723L24.7883 12.576C25.9746 12.9323 26.6346 13.0635 27.4995 13.0635C28.582 13.0635 29.3445 12.9698 32.0395 12.5623C33.0507 12.4005 34.0666 12.2688 35.0857 12.1673C35.8157 12.0985 36.4881 12.0635 37.1244 12.0635C40.1559 12.0635 43.3795 10.7428 45 8.94739V8.75947ZM45 10.9185C44.3862 11.4047 43.7061 11.8248 42.9718 12.1785C41.4418 12.916 39.7431 13.3135 38.4994 13.3135C37.6356 13.3135 36.3331 13.486 33.8207 13.8935L33.5369 13.9385C30.487 14.4348 29.5908 14.5635 28.8745 14.5635C28.4495 14.5635 28.3708 14.551 26.4546 14.2135C26.0083 14.1348 25.6621 14.0773 25.3246 14.0273C24.1558 13.856 23.2721 13.8098 22.5921 13.9198C21.7471 14.0573 21.2584 14.4423 21.1884 15.1197L21.1509 15.471L21.1184 15.8122C20.9821 17.156 20.8684 17.7522 20.5934 18.2609C20.2547 18.8847 19.6872 19.1884 18.7497 19.1884C17.4435 19.1884 17.0772 19.2684 16.7247 19.6209C16.7822 19.5622 16.0935 20.3547 15.7072 20.7047C15.4618 20.9285 14.6454 21.6405 14.1385 22.0827C13.9405 22.2553 13.7898 22.3869 13.7385 22.4321C13.4335 22.7009 13.166 22.9434 12.9185 23.1746C12.0398 23.9921 11.4286 24.6571 11.0723 25.2171C10.3236 26.3921 9.74984 27.4945 9.59484 28.2695C9.35859 29.4508 10.1611 29.6383 12.1548 28.5558C13.9704 27.5719 15.8244 26.6604 17.7122 25.8233C17.9618 25.7117 18.4952 25.4759 18.9468 25.2763C19.2891 25.125 19.5845 24.9945 19.6734 24.9546C20.1335 24.7555 20.5859 24.5391 21.0296 24.3058L21.2734 24.1721C21.5661 24.0085 21.8638 23.8539 22.1659 23.7084C24.3946 22.6346 26.4008 22.4221 28.347 23.5571C31.1632 25.2008 33.0619 28.1208 33.0619 30.5007C33.0619 32.8694 32.9732 33.6057 32.4295 34.5907C32.2568 34.8992 32.0551 35.1905 31.827 35.4607C31.0032 36.4481 30.3282 37.5156 30.2032 38.1769C30.0257 39.1256 30.8882 39.2268 32.9007 38.3069C34.5907 37.5344 35.7457 36.4069 36.5206 34.9619C36.8426 34.3523 37.1019 33.7115 37.2944 33.0494C37.3738 32.7838 37.5386 32.1642 37.6387 31.7877C37.6804 31.631 37.7109 31.5164 37.7194 31.487C37.7725 31.2866 37.8432 31.0912 37.9306 30.9032C38.8519 29.0608 40.5368 27.1358 42.3993 26.3071C43.3818 25.8708 44.0705 25.0696 44.8818 23.6571C44.9065 23.6138 44.9486 23.5389 45 23.447V23.1915C44.9015 23.368 44.8144 23.524 44.7743 23.5946C43.9743 24.9871 43.3005 25.7708 42.3493 26.1933C40.4543 27.0358 38.7519 28.982 37.8181 30.8482C37.7275 31.0426 37.6543 31.2447 37.5994 31.452C37.5905 31.4827 37.5594 31.5993 37.5171 31.7578C37.4164 32.135 37.2523 32.7497 37.1731 33.012C36.9837 33.6665 36.7282 34.3002 36.4106 34.9032C35.6482 36.3244 34.5119 37.4331 32.8482 38.1931C30.9132 39.0781 30.177 38.9919 30.327 38.1994C30.4457 37.5656 31.1132 36.5119 31.922 35.5407C32.1558 35.2644 32.3625 34.9664 32.5395 34.6507C33.0957 33.6419 33.1869 32.8907 33.1869 30.5007C33.1869 28.0733 31.2632 25.1133 28.402 23.4459C26.4208 22.2884 24.3733 22.5059 22.1109 23.5959C21.9084 23.6946 21.7059 23.7971 21.4859 23.9146L21.2134 24.0621L20.9697 24.1958C20.6597 24.3646 20.2534 24.5583 19.6222 24.8396C19.5032 24.894 19.0091 25.1124 18.53 25.3241C18.184 25.477 17.8457 25.6265 17.6622 25.7083C15.771 26.5469 13.9137 27.4601 12.0948 28.4458C10.1761 29.487 9.50984 29.332 9.71734 28.2945C9.86858 27.5395 10.4386 26.4471 11.1786 25.2846C11.5273 24.7358 12.1323 24.0771 13.0035 23.2659C13.2728 23.0157 13.5453 22.769 13.821 22.5259C13.8719 22.481 14.0225 22.3496 14.2204 22.177C14.7275 21.7349 15.545 21.0219 15.7922 20.7972C16.1835 20.4409 16.8772 19.6459 16.8122 19.7097C17.1347 19.3884 17.4747 19.3134 18.7497 19.3134C19.7322 19.3134 20.3409 18.9872 20.7034 18.3197C20.9897 17.791 21.1046 17.1872 21.2421 15.8247L21.2759 15.4835C21.2797 15.4463 21.2831 15.4111 21.2865 15.3775C21.2953 15.288 21.3031 15.2095 21.3121 15.1322C21.4321 13.9998 22.7784 13.7798 25.3071 14.1498C25.6421 14.1998 25.9871 14.2573 26.4321 14.3373C28.3645 14.6773 28.4383 14.6873 28.8745 14.6873C29.6008 14.6873 30.4945 14.561 33.5569 14.0623L33.8407 14.016C36.3444 13.611 37.6444 13.4385 38.4994 13.4385C39.7618 13.4385 41.4793 13.0373 43.0268 12.2923C43.7383 11.9489 44.3996 11.544 45 11.0776V10.9185ZM45 12.051C43.7991 12.9018 42.5398 13.5144 41.2356 13.8148C40.3493 14.0185 39.4443 14.1798 38.4244 14.3223C38.0294 14.3773 37.6306 14.4273 37.1406 14.4873L35.9657 14.6273C34.5107 14.806 33.7644 14.9485 33.2244 15.1935C32.087 15.711 29.7133 15.9385 27.1245 15.9385C26.9608 15.9385 26.7883 15.9235 26.6071 15.896C26.2248 15.8295 25.848 15.7351 25.4796 15.6135C24.5458 15.3322 24.2546 15.2635 23.8584 15.2885C23.3209 15.3197 22.9396 15.6085 22.6909 16.2272C22.4534 16.8235 22.3821 17.191 22.2659 18.1322C22.1334 19.2109 21.9359 19.5609 21.1059 19.8159C20.8062 19.9026 20.515 20.0164 20.2359 20.1559C20.1534 20.1997 20.0834 20.2397 20.0059 20.2897L19.8422 20.3947C19.6284 20.5234 19.4022 20.5634 18.7497 20.5634C18.5746 20.5634 18.3266 20.5486 18.0989 20.5351C17.8308 20.5192 17.591 20.5049 17.5322 20.5184C17.494 20.5273 17.4669 20.5313 17.4408 20.5392C17.3381 20.5702 17.2531 20.66 16.581 21.3321C16.3351 21.5678 16.075 21.7882 15.8022 21.9921C15.6609 22.1017 15.23 22.4271 14.981 22.6152C14.8976 22.6782 14.8345 22.7258 14.8098 22.7446C14.186 23.2221 13.7598 23.5771 13.416 23.9296C12.7735 24.5846 12.5085 25.1446 12.691 25.6471C12.8848 26.1821 13.2998 26.2946 13.9623 26.0758C14.3023 25.9538 14.6324 25.8058 14.9497 25.6333C15.0643 25.5741 15.3986 25.3966 15.6879 25.2429C15.8751 25.1435 16.0434 25.0541 16.121 25.0133C16.6157 24.7494 17.1253 24.5144 17.6472 24.3096C18.0159 24.1683 18.4472 23.9771 19.0359 23.6996L20.6609 22.9221C21.2109 22.6621 21.6721 22.4509 22.1121 22.2634C24.2246 21.3621 25.7233 21.0446 26.7271 21.4346L27.4058 21.6946C27.6933 21.8059 27.9258 21.8984 28.1558 21.9921C28.7545 22.2384 29.2795 22.4759 29.7795 22.7384C32.0432 23.9258 33.5194 25.4633 34.0632 27.6408C34.9257 31.087 34.5132 33.2607 33.0732 35.3407C32.5282 36.1281 32.6032 36.6956 33.1907 36.6569C33.7557 36.6194 34.5457 36.0107 35.1769 35.0344C35.5732 34.4207 35.8257 33.7057 36.1981 32.3082L36.4094 31.5145C36.4931 31.2057 36.5644 30.9507 36.6369 30.7057C37.2481 28.6608 37.9931 27.342 39.2856 26.4271C39.8727 26.0106 40.9746 25.3015 41.7203 24.8215C42.1049 24.5739 42.3948 24.3874 42.4705 24.3333C43.3305 23.7184 43.8205 23.1209 44.308 22.0209C44.5066 21.5739 44.7354 21.184 45 20.8468V20.6515C44.6863 21.0252 44.4189 21.4664 44.1905 21.9809C43.7143 23.0509 43.2405 23.6296 42.398 24.2308C42.3232 24.2843 42.0317 24.472 41.6446 24.7213C40.8997 25.201 39.8012 25.9084 39.2131 26.3246C37.8931 27.2595 37.1344 28.5995 36.5181 30.6695C36.4444 30.917 36.3719 31.1732 36.2894 31.482L36.0781 32.2757C35.7094 33.6607 35.4594 34.3669 35.0719 34.9669C34.4594 35.9132 33.7007 36.4969 33.1832 36.5319C32.7357 36.5606 32.6795 36.1294 33.1757 35.4107C34.6357 33.3019 35.0557 31.092 34.1857 27.6108C33.6307 25.3933 32.1295 23.8309 29.837 22.6271C29.3047 22.3513 28.7595 22.101 28.2033 21.8771C27.972 21.7821 27.7383 21.6896 27.4508 21.5796L26.7721 21.3171C25.7283 20.9109 24.2058 21.2359 22.0634 22.1484C21.6196 22.3371 21.1584 22.5471 20.6072 22.8096C20.4311 22.8922 19.9426 23.1266 19.5377 23.321C19.2927 23.4385 19.0783 23.5414 18.9822 23.5871C18.5298 23.8058 18.0695 24.0076 17.6022 24.1921C17.076 24.3988 16.5622 24.6358 16.0635 24.9021C15.9784 24.9465 15.7859 25.0488 15.5789 25.1589C15.3022 25.3061 14.9995 25.467 14.8923 25.5221C14.5801 25.6916 14.2554 25.837 13.921 25.9571C13.3173 26.1571 12.976 26.0633 12.8085 25.6046C12.6473 25.1608 12.8935 24.6396 13.5035 24.0171C13.8448 23.6696 14.266 23.3171 14.886 22.8446C14.9215 22.8173 15.0377 22.7294 15.1803 22.6215C15.4289 22.4334 15.7577 22.1846 15.8785 22.0909C16.2322 21.8171 16.481 21.6071 16.6685 21.4196C17.3266 20.7625 17.4026 20.6825 17.4942 20.6551C17.5138 20.6493 17.5341 20.6458 17.561 20.6397C17.6036 20.6296 17.8024 20.6419 18.0403 20.6567C18.2762 20.6714 18.5506 20.6884 18.7497 20.6884C19.4234 20.6884 19.6684 20.6447 19.9059 20.5022L20.0734 20.3947C20.1484 20.3472 20.2147 20.3084 20.2934 20.2672C20.566 20.1307 20.8505 20.0194 21.1434 19.9347C22.0309 19.6622 22.2521 19.2697 22.3896 18.1472C22.5046 17.216 22.5746 16.8572 22.8071 16.2747C23.0371 15.6997 23.3784 15.4422 23.8659 15.4135C24.2408 15.3897 24.5271 15.4572 25.4446 15.7335C25.9621 15.891 26.2596 15.9685 26.5871 16.0197C26.7746 16.0485 26.9533 16.0635 27.1245 16.0635C29.732 16.0635 32.1157 15.8347 33.2757 15.3085C33.7994 15.0697 34.5394 14.9273 35.9807 14.751L37.1544 14.611C37.6469 14.5523 38.0456 14.501 38.4419 14.446C39.3893 14.3182 40.3306 14.1485 41.2631 13.9373C42.5593 13.6387 43.8089 13.0374 45 12.2045V12.051ZM45 12.7781C43.4911 13.7856 41.6969 14.8134 40.3531 15.3172C39.7981 15.5247 39.2718 15.6835 38.7031 15.8172C38.2969 15.9135 37.8831 15.9947 37.3031 16.096C37.2381 16.106 36.2044 16.2835 35.8657 16.3435C35.2569 16.4522 34.7007 16.5622 34.1119 16.6897C31.5432 17.2485 30.9945 17.3135 29.3745 17.3135C29.075 17.3135 29.0172 17.3035 27.6464 17.0672L27.6395 17.066C27.3358 17.0135 27.0983 16.9747 26.8683 16.941C25.8358 16.7885 25.1083 16.7672 24.6083 16.9197C23.9683 17.116 23.7621 17.5997 24.0658 18.3984C24.3283 19.0859 24.7008 19.5259 25.2283 19.8072C25.6521 20.0334 26.0983 20.1434 26.9946 20.2834C28.167 20.4672 28.357 20.4997 28.9195 20.6459C29.722 20.8493 30.495 21.1552 31.2195 21.5559C32.2345 22.1159 33.0032 22.9634 33.6694 24.1183C33.87 24.4687 34.2501 25.2584 34.554 25.8896C34.7597 26.3168 34.9304 26.6714 34.9869 26.7683C35.4494 27.5645 35.9007 27.6883 36.5431 27.0458C37.1506 26.4383 37.8181 26.0146 39.1556 25.3083L39.4206 25.1683C40.4231 24.6396 40.9193 24.3496 41.4218 23.9658C42.0768 23.4659 42.533 22.9246 42.8068 22.2759C43.4205 20.8179 44.1881 19.6653 45 18.9607V18.7966C44.1396 19.5096 43.3319 20.7064 42.6918 22.2271C42.428 22.8534 41.9843 23.3784 41.3456 23.8659C40.8518 24.2446 40.3593 24.5321 39.3618 25.0583C39.3556 25.0604 39.2185 25.1335 39.1381 25.1764C39.1213 25.1853 39.107 25.1929 39.0968 25.1983C37.7494 25.9096 37.0744 26.3383 36.4556 26.9558C35.8769 27.5345 35.5194 27.437 35.0944 26.7058C35.0418 26.6152 34.882 26.2829 34.6864 25.876C34.3798 25.2386 33.9852 24.418 33.7769 24.0571C33.1019 22.8834 32.317 22.0184 31.2795 21.4459C30.5463 21.0403 29.7641 20.7307 28.952 20.5247C28.382 20.3784 28.192 20.3447 27.0145 20.1597C26.1308 20.0209 25.6946 19.9134 25.2871 19.6959C24.7871 19.4297 24.4346 19.0134 24.1821 18.3534C23.9034 17.6197 24.0771 17.2135 24.6446 17.0385C25.1208 16.8935 25.8358 16.9147 26.8496 17.0635C27.0795 17.0972 27.3158 17.136 27.6183 17.1885C29.012 17.4297 29.0633 17.4385 29.3745 17.4385C31.0045 17.4385 31.5607 17.3722 34.1382 16.8122C34.7257 16.6847 35.2807 16.576 35.8881 16.4672C36.102 16.4284 36.5954 16.3439 36.9451 16.2841C37.1472 16.2494 37.3014 16.2231 37.3256 16.2185C37.9069 16.1172 38.3219 16.036 38.7319 15.9385C39.2972 15.8069 39.8534 15.6387 40.3968 15.4347C41.7319 14.9333 43.4987 13.9261 45 12.9289V12.7781ZM45 26.3732C44.6814 26.7611 44.3198 27.0087 43.7618 27.2833L43.2568 27.5295C42.5575 27.8694 41.9101 28.3071 41.3343 28.8295C40.2931 29.7595 39.5968 30.9332 38.4881 33.3169L38.2269 33.8794C37.3206 35.8319 36.7994 36.7744 36.0794 37.5844C35.1382 38.6431 33.5857 39.3556 31.0982 40.0568C30.6582 40.1812 29.3744 40.5193 28.8866 40.6477C28.7716 40.678 28.7008 40.6966 28.6958 40.6981C27.827 40.9318 27.227 41.1181 26.7271 41.3181C25.3908 41.8518 24.3633 42.6443 22.1434 44.6555L21.9309 44.848C21.8735 44.8999 21.8175 44.9506 21.7627 45H21.9476C21.9693 44.9804 21.9912 44.9605 22.0134 44.9405L22.2259 44.748C24.4346 42.748 25.4546 41.9605 26.7733 41.4331C27.267 41.2356 27.862 41.0518 28.727 40.8181C28.752 40.8118 30.5857 40.3306 31.132 40.1768C33.6394 39.4693 35.2082 38.7494 36.1706 37.6669C36.9019 36.8456 37.4269 35.8957 38.3394 33.9332L38.5994 33.3719C39.7018 31.0007 40.3918 29.8383 41.4168 28.922C41.9843 28.407 42.6224 27.9756 43.3118 27.6408L43.8155 27.3958C44.3347 27.1394 44.6917 26.9037 45 26.562V26.3732ZM45 29.7822C44.3757 30.0665 43.9751 30.283 43.5855 30.5757C41.9518 31.8007 41.5631 32.3782 39.5668 36.7244C38.7844 38.4269 37.9981 39.5256 37.1506 40.2081C36.5319 40.7081 36.1119 40.8881 35.0294 41.2206C34.7086 41.3092 34.3961 41.4259 34.0957 41.5693C33.3232 41.9568 32.147 42.3643 30.5782 42.8193C29.807 43.043 29.4545 43.1393 27.857 43.5655C27.3695 43.6955 26.8383 43.9618 26.2483 44.3555C25.9676 44.5434 25.6805 44.7549 25.3712 45H25.5719C25.8158 44.8127 26.0646 44.632 26.3183 44.458C26.8971 44.0718 27.417 43.8105 27.8883 43.6843C28.7998 43.4474 29.7082 43.1986 30.6132 42.938C32.1882 42.4805 33.3707 42.0705 34.1507 41.6806C34.4455 41.5402 34.7521 41.426 35.0669 41.3393C36.1631 41.0018 36.5944 40.8181 37.2294 40.3056C38.0919 39.6093 38.8906 38.4944 39.6793 36.7744C41.6693 32.4457 42.048 31.8845 43.6605 30.6745C44.0304 30.3973 44.412 30.1876 45 29.9186V29.7822ZM45 31.2105C43.4134 32.3694 41.7102 34.436 40.7643 36.1919C40.5168 36.6519 40.3831 37.0044 40.1306 37.7819C39.6368 39.3043 39.2568 40.0093 38.1644 41.0343C37.3156 41.8293 35.6157 42.5593 33.0657 43.3393C32.5395 43.4992 32.0116 43.6534 31.482 43.8018C30.9911 43.9381 30.5002 44.0748 30.0095 44.2118C28.8445 44.5355 28.2483 44.7168 27.8283 44.8843C27.737 44.9208 27.6477 44.9593 27.5601 45H28.2359C28.6308 44.8633 29.186 44.7002 30.0757 44.4518C30.568 44.3171 31.0596 44.1804 31.5507 44.0418C32.0816 43.893 32.6107 43.7384 33.1382 43.578C35.7257 42.788 37.4494 42.0468 38.3344 41.2168C39.4643 40.1581 39.8618 39.4181 40.3681 37.8594C40.6156 37.0944 40.7468 36.7531 40.9843 36.3094C41.8841 34.6389 43.4929 32.6722 45 31.5216V31.2105ZM45 33.5166C44.276 34.2406 43.6742 35.0457 43.1955 35.9719C41.2531 39.7268 39.6656 42.1068 38.5906 42.823C37.6315 43.4637 35.9353 43.9639 31.5118 45H32.0601C36.1188 44.041 37.7222 43.5537 38.6606 42.928C39.7606 42.1943 41.3543 39.8043 43.3055 36.0294C43.7589 35.1535 44.324 34.3868 45 33.6948V33.5166ZM45 35.8503C44.991 35.8629 44.982 35.8755 44.973 35.8882C44.4687 36.596 43.5203 38.0961 42.9777 38.9543C42.7538 39.3085 42.599 39.5534 42.573 39.5881C41.0106 41.6718 39.1531 43.728 37.9706 44.3193C37.5897 44.5097 36.9485 44.7491 36.184 45H36.5785C37.1914 44.7909 37.7012 44.594 38.0256 44.4318C39.2331 43.828 41.0981 41.7631 42.673 39.6631C42.7017 39.6253 42.8709 39.3577 43.1124 38.9758C43.6341 38.1508 44.493 36.7926 45 36.0665V35.8503ZM45 38.1998C44.6915 38.247 44.4353 38.4885 44.193 38.9731C43.323 40.7131 40.5806 43.7043 38.7144 44.948C38.6883 44.9654 38.6615 44.9827 38.6341 45H38.8628C40.7438 43.714 43.4377 40.7638 44.3055 39.0294C44.5256 38.5892 44.7439 38.3761 45 38.3274V38.1998ZM45 39.232C44.6651 39.3869 44.3573 39.8031 43.983 40.4893C43.985 40.4854 43.968 40.5169 43.9406 40.568C43.8622 40.714 43.6977 41.0202 43.643 41.1156C43.5545 41.2823 43.4489 41.4393 43.328 41.5843C42.5793 42.4143 42.3118 43.138 42.3118 44.8755C42.3118 44.9179 42.3126 44.9594 42.3142 45H42.4393C42.4376 44.9595 42.4368 44.918 42.4368 44.8755C42.4368 43.1668 42.6943 42.4755 43.4205 41.6668C43.5477 41.5155 43.6587 41.3512 43.7518 41.1768C43.8255 41.0468 44.1018 40.5331 44.093 40.5493C44.434 39.9233 44.7135 39.5382 45 39.3775V39.232ZM44.789 45C44.7953 44.863 44.7315 44.7532 44.6018 44.6493C44.5955 44.6455 44.3555 44.473 44.283 44.408C44.008 44.1605 43.9055 44.0905 43.758 44.123C43.563 44.1668 43.4993 44.3993 43.4993 44.8755C43.4993 44.9183 43.5005 44.9598 43.503 45H43.7527C43.7504 44.9605 43.7493 44.919 43.7493 44.8755C43.7493 44.5218 43.7905 44.3718 43.8118 44.368C43.8368 44.3618 43.928 44.4243 44.1155 44.593V44.5943C44.2018 44.6693 44.4493 44.848 44.4455 44.8443C44.509 44.8953 44.5432 44.9385 44.5415 45H44.789ZM18.7115 45C19.372 44.3752 19.8954 43.8184 20.1759 43.4118C21.9259 40.8756 23.7234 39.1181 26.7796 37.4319C28.4395 36.5156 29.4545 35.5432 29.977 34.4982C30.3545 33.7457 30.437 33.167 30.437 32.127C30.437 30.722 30.3445 29.762 29.967 28.6583C29.5658 27.482 28.8995 26.5183 27.9108 25.8258C25.2358 23.9534 24.1196 23.7421 21.7234 24.8196C21.7368 24.8136 21.6989 24.8306 21.623 24.8645C21.1907 25.0578 19.5258 25.8022 19.0772 26.0096C17.887 26.5564 16.7244 27.1613 15.5935 27.822C14.8776 28.2398 14.1371 28.6138 13.376 28.942L12.8298 29.177C12.804 29.1883 12.779 29.1992 12.7546 29.2098C12.6551 29.2533 12.5667 29.2918 12.4823 29.332C11.9498 29.5758 11.5023 29.8283 10.9648 30.2007V30.1995C10.7466 30.3496 10.5222 30.4905 10.2923 30.622C10.2604 30.6403 10.1935 30.6782 10.1154 30.7226C9.96425 30.8084 9.77074 30.9183 9.70484 30.957C8.64361 31.5782 8.20486 32.232 7.81487 34.1132C7.15488 37.2769 6.75989 38.2906 5.57741 39.7106C5.24991 40.1043 4.87617 40.4718 4.23993 41.0543C3.18995 42.0131 3.0787 42.1168 2.75245 42.4918C2.29621 43.013 2.06247 43.4568 2.06247 43.8755C2.06247 44.2189 2.11944 44.4459 2.35486 45H2.49081C2.24632 44.4293 2.18746 44.2075 2.18746 43.8768C2.18746 43.4943 2.40871 43.0755 2.8462 42.5743C3.1687 42.2068 3.2787 42.1018 4.32368 41.1468C4.96367 40.5618 5.34116 40.1906 5.67366 39.7918C6.87239 38.3531 7.27363 37.3219 7.93612 34.1407C8.32111 32.292 8.7386 31.6682 9.76734 31.0657L10.3548 30.732C10.5873 30.5985 10.8142 30.4555 11.0348 30.3032C11.5068 29.9717 12.0085 29.6846 12.5335 29.4458C12.6385 29.397 12.7485 29.3483 12.8785 29.292L13.4248 29.057C14.1906 28.727 14.9357 28.3509 15.656 27.9308C16.5904 27.3851 17.5466 26.8776 18.5222 26.4096C18.6907 26.3285 18.863 26.2475 19.0439 26.1624C19.0723 26.1491 19.1009 26.1356 19.1297 26.1221C19.6559 25.8796 21.8634 24.8946 21.7759 24.9346C24.1258 23.8759 25.1971 24.0783 27.8383 25.9283C28.8045 26.6046 29.4558 27.5458 29.8495 28.6983C30.2195 29.7858 30.312 30.7357 30.312 32.127C30.312 33.1494 30.2307 33.7107 29.8658 34.4432C29.3558 35.4632 28.3595 36.4181 26.7196 37.3219C23.6446 39.0181 21.8334 40.7893 20.0734 43.3418C19.7835 43.7614 19.2288 44.3454 18.5299 45H18.7115ZM16.8271 45C17.7745 44.2148 18.4639 43.4986 18.9272 42.7855C19.3902 42.0737 20.2398 40.5455 20.6703 39.7711C20.8128 39.5148 20.9095 39.341 20.9309 39.3068C21.3284 38.6681 21.6871 38.2906 22.1521 38.0581C23.0096 37.6294 24.2496 36.8456 25.3046 36.0044C26.7596 34.8432 27.7858 33.6594 28.1833 32.522C28.587 31.3682 27.9333 29.892 26.5921 28.4595C25.4708 27.262 24.0408 26.3146 23.3746 26.3146C22.0109 26.3146 20.1384 27.012 18.8359 28.0783C18.3834 28.4483 17.8835 28.6595 17.1985 28.8145C17.0247 28.8545 16.9097 28.877 16.566 28.942C15.5172 29.1395 15.0585 29.292 14.5835 29.7045C14.1848 30.0507 13.8098 30.2107 13.0448 30.4195C11.6223 30.807 11.0473 31.047 10.0848 31.8282C8.71235 32.9432 8.7061 32.9495 8.55361 33.2557C8.47486 33.4132 8.43361 33.5619 8.35861 33.9394C8.23611 34.5482 8.18861 34.7632 8.06362 35.2357C7.95112 35.6669 7.85612 36.0919 7.76362 36.5644C7.72862 36.7431 7.69487 36.9219 7.65362 37.1556C7.6211 37.3379 7.58776 37.5199 7.55362 37.7019C7.30988 39.0168 7.09113 39.6318 6.57864 40.2106C6.37569 40.4251 6.15718 40.6244 5.9249 40.8068L5.92308 40.8083C5.85922 40.86 5.23411 41.366 5.03867 41.5293C3.75119 42.608 3.1462 43.4143 3.26745 44.2405C3.30569 44.5043 3.42432 44.7574 3.62761 45H3.79411C3.56172 44.7501 3.43019 44.4917 3.39119 44.223C3.27995 43.4568 3.86494 42.6755 5.11991 41.6256C5.31616 41.4618 5.95115 40.9456 6.00365 40.9031C6.24094 40.7165 6.46405 40.5127 6.67114 40.2931C7.20488 39.6931 7.42863 39.0606 7.67612 37.7256L7.72487 37.4569C7.77561 37.1667 7.82936 36.8772 7.88612 36.5881C7.97862 36.1181 8.07237 35.6969 8.18486 35.2682C8.31111 34.7919 8.35861 34.5744 8.48111 33.9632C8.55486 33.5982 8.59236 33.4557 8.66486 33.3107C8.80485 33.0307 8.8186 33.0182 10.1648 31.9257C11.1098 31.157 11.6711 30.9232 13.0785 30.5395C13.8598 30.327 14.2485 30.162 14.666 29.7995C15.1185 29.4058 15.5622 29.2583 16.5885 29.0645C16.9335 28.9995 17.051 28.977 17.2272 28.937C17.9272 28.777 18.4447 28.5595 18.9147 28.1758C20.1959 27.127 22.0409 26.4396 23.3746 26.4396C23.9958 26.4396 25.4008 27.3695 26.5008 28.5445C27.8133 29.947 28.4495 31.3832 28.0658 32.4807C27.677 33.5894 26.6658 34.7582 25.2258 35.9057C24.1783 36.7419 22.9459 37.5206 22.0971 37.9456C21.6071 38.1906 21.2334 38.5844 20.8247 39.2418C20.8016 39.2782 20.6968 39.4665 20.5434 39.7419C20.1064 40.5268 19.2756 42.0191 18.8222 42.7168C18.3483 43.4469 17.6288 44.1841 16.6299 45H16.8271ZM13.7252 45C14.6534 44.6976 15.5421 44.3276 16.186 43.9655C18.1309 42.8718 20.4997 39.7281 20.4997 38.3569C20.4997 37.7406 20.8672 37.3631 21.6234 37.0156C21.6951 36.9825 21.8653 36.9098 22.0205 36.8435C22.152 36.7874 22.2727 36.7358 22.3134 36.7169C22.4134 36.6719 22.4946 36.6306 22.5634 36.5894C22.6671 36.5269 22.7746 36.4744 22.9421 36.4019C23.9333 35.9669 24.3546 35.6744 25.0996 34.6819C25.1297 34.6419 25.2059 34.5448 25.3049 34.4186C25.5924 34.0522 26.0723 33.4405 26.1746 33.2694C26.4246 32.847 26.4996 32.427 26.4996 31.482C26.4996 30.5995 25.9421 29.422 25.1233 28.5233C24.2296 27.5433 23.2009 27.0733 22.3321 27.3833C20.5997 28.002 20.3322 28.1295 19.1822 28.877C19.037 28.9715 18.7417 29.1817 18.4585 29.3832C18.1761 29.5841 17.9058 29.7765 17.8085 29.837C17.371 30.1095 16.991 30.232 16.4997 30.232C15.396 30.232 15.0785 30.4382 14.516 31.4195C14.3435 31.722 14.2173 31.7345 13.5873 31.6095C12.841 31.4607 12.3398 31.4932 11.6873 31.8745C9.65234 33.0607 8.24986 34.9307 8.24986 37.2319C8.24986 38.3219 7.85487 39.2968 7.01863 40.6343C6.91363 40.8043 6.53989 41.3856 6.55989 41.3543C6.38364 41.6318 6.2624 41.8318 6.15615 42.023C5.8849 42.5105 5.7499 42.8893 5.7499 43.2318C5.7499 43.6243 5.9449 43.8993 6.30989 44.0868C6.57114 44.223 6.83364 44.293 7.43863 44.4168L7.51362 44.4318C8.31465 44.5956 8.71364 44.7361 8.91755 45H9.21223C8.99109 44.5638 8.5563 44.3908 7.56362 44.1868L7.48738 44.1718C6.35864 43.9405 5.9999 43.7555 5.9999 43.2318C5.9999 42.9418 6.1224 42.598 6.37489 42.1443C6.47739 41.9593 6.59739 41.7618 6.77114 41.4881L7.23113 40.7668C8.08986 39.3931 8.49986 38.3819 8.49986 37.2319C8.49986 35.0332 9.84734 33.2357 11.8123 32.0895C12.4035 31.7445 12.846 31.717 13.5373 31.8545C13.9523 31.937 14.0273 31.9482 14.1898 31.9307C14.4198 31.9045 14.596 31.7832 14.7335 31.5445C15.2522 30.6357 15.4897 30.482 16.4997 30.482C17.041 30.482 17.466 30.3445 17.941 30.0495C18.0457 29.9843 18.3298 29.782 18.6199 29.5754C18.8974 29.3778 19.1803 29.1762 19.3172 29.087C20.4509 28.3495 20.7009 28.2308 22.4171 27.6183C23.1684 27.3495 24.1046 27.777 24.9383 28.692C25.7182 29.5469 26.2494 30.6692 26.2496 31.4817C26.2495 32.386 26.182 32.7671 25.9583 33.1432C25.8678 33.2962 25.4201 33.8667 25.1315 34.2343C25.0216 34.3744 24.9348 34.485 24.8996 34.5319C24.1846 35.4844 23.7971 35.7532 22.8409 36.1719C22.6659 36.2494 22.5496 36.3056 22.4346 36.3744C22.3746 36.4106 22.3021 36.4481 22.2096 36.4906C22.1758 36.5058 22.079 36.5471 21.9666 36.5951C21.801 36.6658 21.6016 36.7509 21.5196 36.7881C20.6834 37.1719 20.2497 37.6194 20.2497 38.3569C20.2497 39.6243 17.9359 42.6943 16.0635 43.748C15.1639 44.2539 13.9979 44.6977 12.8835 45H13.7252ZM0 30.6132C0.252496 29.8158 0.437493 29.0258 0.437493 28.6258C0.441933 28.4628 0.457385 28.3004 0.483742 28.1395L0.503742 27.977C0.558741 27.4945 0.533741 27.2145 0.358744 27.0295C0.272495 26.9383 0.153747 26.8833 0 26.8658V26.9908C0.117498 27.007 0.206247 27.0495 0.268746 27.1158C0.408743 27.2633 0.431243 27.517 0.378744 27.962L0.358744 28.1233C0.322495 28.407 0.312495 28.5033 0.312495 28.6258C0.312495 28.9483 0.186247 29.5408 0 30.182V30.6132ZM36.8044 1.40623C37.0492 0.956543 37.2546 0.486453 37.4181 0.00124998H37.2856C37.1244 0.471242 36.9281 0.917485 36.6944 1.34623C36.3694 1.94372 36.1844 2.42371 36.0744 2.8737L36.0244 3.10495L35.9894 3.2837C35.9669 3.39619 35.9456 3.45619 35.9169 3.49619C35.8594 3.57869 35.7382 3.60369 35.3794 3.59994C35.4969 3.60119 34.1482 3.56369 33.4982 3.56369C32.2182 3.56369 31.1795 3.66619 29.7983 3.88494C27.702 4.21618 27.5945 4.22993 26.8646 4.19868C26.5308 4.18493 26.2096 4.14118 25.8883 4.06618C23.6559 3.53994 20.0747 3.32744 18.9797 3.69244C18.6247 3.80994 18.2184 4.05368 17.7535 4.40993C17.4972 4.60617 17.2285 4.83242 16.9285 5.10116C16.8714 5.15256 16.7313 5.28191 16.5611 5.439C16.2057 5.76711 15.7191 6.21622 15.5847 6.32864C15.4485 6.44169 14.9497 6.89953 14.667 7.15891C14.5684 7.24944 14.4961 7.3158 14.4748 7.33488C14.2698 7.51862 14.086 7.67612 13.911 7.81737C13.3098 8.30236 12.8385 8.56486 12.3485 8.56486C12.0823 8.57111 11.9885 8.56486 11.9136 8.52736C11.8298 8.48611 11.8023 8.39986 11.8398 8.21861C11.9273 7.78487 12.3898 6.88863 13.4273 5.15866C14.1448 3.96493 14.616 2.8887 14.9148 1.85372C15.0985 1.21373 15.1597 0.913735 15.291 0.00124998H15.1647C15.036 0.893735 14.9747 1.18873 14.7935 1.81872C14.4985 2.8437 14.0323 3.90868 13.321 5.09367C12.2748 6.83864 11.8086 7.73987 11.7161 8.19361C11.6698 8.42486 11.7161 8.56986 11.8573 8.63986C11.9598 8.68986 12.0598 8.69611 12.4998 8.68986C12.8773 8.68986 13.366 8.41861 13.9898 7.91487C14.1836 7.75735 14.3732 7.5948 14.5585 7.42738C14.5796 7.40847 14.6489 7.34491 14.7436 7.25801C15.0245 7.00023 15.5292 6.53707 15.6647 6.42489C15.7956 6.31595 16.2523 5.89447 16.6037 5.57012C16.7926 5.3958 16.951 5.24953 17.0122 5.19491C17.2759 4.95632 17.5486 4.72782 17.8297 4.50992C18.2847 4.16118 18.6797 3.92368 19.0197 3.81119C20.0872 3.45494 23.6471 3.66744 25.8596 4.18743C26.1878 4.26442 26.5227 4.31005 26.8596 4.32368C27.6008 4.35493 27.7083 4.34118 29.817 4.00868C31.1932 3.79119 32.2245 3.68869 33.4994 3.68869C34.1469 3.68869 35.4932 3.72494 35.3782 3.72494C35.7782 3.72869 35.9269 3.69744 36.0194 3.56869C36.068 3.48989 36.0996 3.40173 36.1119 3.30994L36.1469 3.1287L36.1969 2.9037C36.3031 2.46246 36.4844 1.99372 36.8044 1.40623ZM33.8744 2.7512C35.1507 2.7512 35.6057 2.24371 36.3444 0.00124998H36.0819C35.3932 2.07622 34.9932 2.50121 33.8744 2.50121C33.3032 2.50121 32.5907 2.54121 30.2732 2.68871L30.0807 2.70121C28.1383 2.82495 27.1558 2.8762 26.4996 2.8762C25.8496 2.8762 24.8658 2.7562 22.9284 2.46871L22.7371 2.43996C20.4122 2.09372 19.7022 2.00122 19.1247 2.00122C18.5147 2.00122 18.1147 2.14371 17.6197 2.45871C17.6173 2.46023 17.609 2.46562 17.5965 2.47366C17.5374 2.51183 17.3857 2.6098 17.3372 2.63871C17.0685 2.80495 16.8735 2.8762 16.6247 2.8762C16.4185 2.8762 16.361 2.8112 16.361 2.59871C16.3667 2.44227 16.3863 2.28665 16.4197 2.13371C16.434 2.05683 16.49 1.7817 16.5266 1.6023C16.5381 1.54547 16.5478 1.49824 16.5535 1.46998C16.656 0.938734 16.7197 0.478742 16.741 0.00124998H16.491C16.4697 0.461242 16.4072 0.907485 16.3072 1.42123C16.2942 1.4916 16.2545 1.68649 16.2211 1.85063C16.1999 1.95472 16.1812 2.04644 16.1735 2.08622C16.131 2.31246 16.111 2.46871 16.111 2.59871C16.111 2.9437 16.2747 3.1262 16.6247 3.1262C16.9272 3.1262 17.1635 3.03995 17.4672 2.85245C17.5104 2.82654 17.6252 2.7523 17.6961 2.70641C17.7279 2.68588 17.7508 2.67102 17.7547 2.66871C18.2122 2.37746 18.5684 2.25121 19.1247 2.25121C19.6834 2.25121 20.3972 2.34496 22.6996 2.68746L22.8921 2.7162C24.8446 3.0062 25.8308 3.1262 26.4996 3.1262C27.1633 3.1262 28.147 3.07495 30.097 2.9512L30.2882 2.9387C32.597 2.7912 33.3119 2.7512 33.8744 2.7512ZM17.8297 0.00124998H17.6885C17.446 0.457492 17.3797 0.60624 17.3597 0.758737C17.331 0.977484 17.456 1.09248 17.7535 1.14248C17.9872 1.18248 18.2447 1.18873 19.1247 1.18873C19.8709 1.18873 20.7397 1.25873 21.7784 1.39123C22.2696 1.45373 22.7784 1.52622 23.4159 1.62622C25.865 2.00363 26.197 2.0566 26.5299 2.06317C26.6072 2.06469 26.6845 2.06372 26.7883 2.06372C29.8195 2.06372 33.2994 1.78372 34.4032 1.18123C34.8057 0.962484 35.0982 0.559991 35.3032 0.00124998H35.1694C34.9757 0.509992 34.7044 0.874985 34.3444 1.07123C33.2669 1.65872 29.7908 1.93872 26.7883 1.93872C26.6878 1.93872 26.6124 1.93962 26.537 1.93813C26.2068 1.93161 25.8774 1.87907 23.4346 1.50248C22.7971 1.40373 22.2871 1.32873 21.7934 1.26623C20.7497 1.13373 19.8772 1.06373 19.1247 1.06373C18.2547 1.06373 17.9984 1.05748 17.7735 1.01998C17.536 0.979984 17.4647 0.914985 17.4835 0.774987C17.501 0.638739 17.5722 0.483742 17.8297 0.00124998ZM28.9995 0.313745C28.5345 0.313745 27.9495 0.206247 27.2383 0.00124998H26.8083C27.7095 0.287495 28.437 0.438743 28.9995 0.438743C30.3995 0.438743 31.3895 0.317495 32.172 0.00124998H31.7995C31.087 0.224996 30.1982 0.313745 28.9995 0.313745ZM7.33363 0.817486C7.96737 0.674989 8.47736 0.409993 8.8361 0.00124998H8.8336H8.66236C8.32861 0.343744 7.86862 0.568741 7.30613 0.694988C6.81989 0.803737 6.38864 0.827486 5.7199 0.816236L5.49991 0.813736C4.87742 0.813736 4.48868 0.674989 4.35618 0.278745C4.32868 0.196247 4.31368 0.103748 4.31118 0.00124998H4.18743C4.18822 0.10857 4.20507 0.215167 4.23743 0.317495C4.39243 0.783737 4.82867 0.938734 5.49991 0.938734C5.57283 0.939328 5.64575 0.940578 5.71865 0.942484C6.39614 0.952484 6.83614 0.928735 7.33363 0.817486ZM21.9709 28.452C21.9021 28.4933 21.6209 28.6695 21.6021 28.682V28.6808C21.2043 28.929 20.7856 29.1423 20.3509 29.3183C20.1209 29.4133 19.9147 29.512 19.7272 29.6158C19.4171 29.7844 19.1315 29.9947 18.8784 30.2407C18.7409 30.3757 18.3759 30.7907 18.3972 30.7682C18.1122 31.0732 17.8672 31.1882 17.3747 31.1882C16.621 31.1882 16.2535 31.3795 15.8335 31.8795C15.8205 31.8945 15.7746 31.9507 15.7199 32.0175C15.6426 32.112 15.5479 32.2277 15.5047 32.2782C15.3756 32.4307 15.2348 32.5728 15.0835 32.7032C15.0085 32.7682 14.9323 32.8232 14.856 32.8695C14.566 33.0457 14.3248 33.0919 13.731 33.1257C12.7948 33.1794 12.301 33.2582 11.4773 33.5669C10.7786 33.8294 10.3198 34.2794 10.0123 34.9582C9.76359 35.5057 9.62859 36.1131 9.45109 37.2894C9.39844 37.6607 9.34219 38.0316 9.28235 38.4019C9.21235 38.8456 9.14235 39.2318 9.0636 39.6131C9.00009 39.917 8.86893 40.4543 8.74467 40.9633C8.60726 41.5262 8.4783 42.0545 8.45861 42.1943C8.37861 42.7655 8.51861 43.0668 9.0211 43.358C9.24823 43.4827 9.4838 43.5913 9.72609 43.683C10.4261 43.963 11.0336 44.0755 11.6511 44.0443C12.5073 43.9993 13.0923 43.7993 15.1485 42.933C17.2185 42.0618 18.6997 39.7606 19.6834 36.6444C19.8597 36.0869 20.1672 35.7169 20.6209 35.4644C20.9734 35.2682 21.3159 35.1694 22.0709 35.0082C22.1131 34.9992 22.1494 34.9915 22.1809 34.9848C22.3294 34.9534 22.3745 34.9438 22.4621 34.9232C23.6309 34.6594 24.2971 34.3144 24.8021 33.5344C26.0833 31.5545 25.5121 29.6958 23.6546 28.6958C22.9071 28.2933 22.5959 28.202 22.2746 28.3058C22.1834 28.3345 22.0909 28.3808 21.9709 28.452ZM18.9659 30.3295C19.2108 30.0913 19.4871 29.8878 19.7872 29.7245C19.9709 29.6233 20.1734 29.527 20.3984 29.4333C20.8396 29.2549 21.2645 29.0387 21.6684 28.787C21.6711 28.7853 21.6784 28.7807 21.6893 28.7739C21.7592 28.7299 21.9751 28.5941 22.0346 28.5595C22.1471 28.492 22.2321 28.4495 22.3134 28.4245C22.5909 28.3358 22.8759 28.4183 23.5946 28.8058C25.3908 29.7733 25.9371 31.5495 24.6971 33.4669C24.2146 34.2132 23.5746 34.5432 22.4346 34.8007C22.4167 34.8047 22.4004 34.8084 22.3847 34.812C22.3085 34.8294 22.2436 34.8442 22.0446 34.8857C21.2784 35.0494 20.9272 35.1519 20.5609 35.3557C20.0797 35.6232 19.7509 36.0182 19.5647 36.6056C18.5909 39.6918 17.1272 41.9643 15.101 42.818C13.0598 43.6768 12.481 43.8755 11.6448 43.918C11.0461 43.9493 10.4561 43.8405 9.77359 43.568C9.47109 43.4468 9.25235 43.3455 9.0836 43.2493C8.62611 42.9843 8.50861 42.733 8.58236 42.2118C8.60112 42.0785 8.72598 41.5674 8.86082 41.0154C8.98655 40.5007 9.12096 39.9505 9.1861 39.6381C9.2661 39.2556 9.33484 38.8669 9.40609 38.4219L9.49359 37.8506L9.57484 37.3081C9.75109 36.1431 9.88484 35.5432 10.1261 35.0094C10.4198 34.3594 10.8548 33.9344 11.5223 33.6844C12.331 33.3807 12.8135 33.3032 13.7373 33.2507C14.3523 33.2144 14.6085 33.1657 14.921 32.977C15.0035 32.927 15.0847 32.867 15.166 32.7982C15.3218 32.6635 15.4668 32.5168 15.5997 32.3595C15.6594 32.2899 15.8138 32.1003 15.889 32.0078C15.9084 31.984 15.9226 31.9666 15.9285 31.9595C16.326 31.487 16.6597 31.3132 17.3747 31.3132C17.9035 31.3132 18.1809 31.1832 18.4884 30.8545C18.6433 30.6756 18.8025 30.5006 18.9659 30.3295ZM18.5472 34.5844C17.7835 33.6932 16.5072 33.4557 14.4885 33.8144C14.0823 33.8857 13.8035 33.9094 13.1373 33.9432C12.2873 33.9857 11.9473 34.0457 11.5961 34.2707C11.1561 34.5544 10.8698 35.0819 10.6886 35.9882C10.5923 36.4669 10.4948 36.9056 10.2961 37.7556L10.2811 37.8194C9.92233 39.3531 9.78734 39.9818 9.68984 40.6918C9.55984 41.6406 9.58984 42.2868 9.82234 42.658C10.4736 43.7018 13.1423 43.4393 14.911 42.1768C16.481 41.0543 17.2072 40.2256 17.806 39.0281C18.6884 37.2619 19.1822 35.3257 18.5472 34.5844ZM13.1435 34.0682C13.816 34.0344 14.0985 34.0107 14.511 33.9369C16.4897 33.5857 17.7222 33.8157 18.4522 34.6669C19.0372 35.3482 18.5509 37.2581 17.6935 38.9731C17.1047 40.1506 16.3922 40.9643 14.8385 42.0743C13.1198 43.3018 10.5298 43.5555 9.92733 42.593C9.71609 42.2543 9.68609 41.6293 9.81484 40.7093C9.91108 40.0043 10.0448 39.3768 10.4023 37.8469L10.4173 37.7844C10.6161 36.9319 10.7148 36.4931 10.8111 36.0131C10.9861 35.1369 11.2573 34.6382 11.6636 34.3757C11.9898 34.1657 12.316 34.1094 13.1435 34.0682ZM17.906 35.6507C17.8322 34.9482 17.3897 34.5632 16.4997 34.5632C16.2547 34.5632 16.061 34.5582 15.5772 34.5444L15.091 34.5319C14.0985 34.5107 13.456 34.5482 12.906 34.6982C12.2023 34.8882 11.7498 35.2569 11.5648 35.8569L11.5186 36.0069C11.3861 36.4277 11.259 36.8503 11.1373 37.2744C11.0248 37.6631 10.9261 38.0256 10.8411 38.3694C10.3973 40.1668 10.3398 41.3206 10.8386 41.6768C11.6573 42.2618 13.2835 42.1368 14.1598 41.5531C15.2647 40.8156 17.2397 38.7081 17.5597 37.6431C17.8522 36.6681 17.9585 36.1531 17.906 35.6507ZM15.5735 34.6694C16.0585 34.6832 16.2535 34.6882 16.4997 34.6882C17.326 34.6882 17.7147 35.0257 17.781 35.6632C17.8322 36.1444 17.7272 36.6494 17.4397 37.6081C17.131 38.6381 15.1722 40.7268 14.0898 41.4493C13.2535 42.0056 11.6836 42.1268 10.9123 41.5743C10.4786 41.2656 10.5336 40.1343 10.9623 38.3994C11.0473 38.0569 11.1448 37.6956 11.2573 37.3081C11.3261 37.0669 11.3998 36.8206 11.4848 36.5456C11.5519 36.3287 11.6186 36.1116 11.6848 35.8944C11.8548 35.3394 12.2735 34.9982 12.9385 34.8194C13.4735 34.6732 14.1073 34.6357 15.0885 34.6569L15.5735 34.6694ZM15.3472 35.7382C15 35.6303 14.6395 35.5714 14.276 35.5632C13.8999 35.6067 13.5382 35.7335 13.2173 35.9344C12.6648 36.2831 12.2923 36.8319 12.1873 37.6169C11.9423 39.4606 12.4173 40.0943 13.6448 39.6843C15.2485 39.1506 16.4372 38.1994 16.4372 37.0006C16.4372 36.3669 16.0247 35.9607 15.3472 35.7382ZM13.2835 36.0394C13.563 35.8644 13.8752 35.7483 14.201 35.6982C14.2398 35.6919 14.2673 35.6882 14.2835 35.6882C14.6317 35.6932 14.9771 35.7501 15.3085 35.8569C15.9397 36.0631 16.3122 36.4306 16.3122 37.0006C16.3122 38.1256 15.1622 39.0468 13.6048 39.5668C12.4823 39.9406 12.076 39.3981 12.3123 37.6344C12.411 36.8869 12.761 36.3694 13.2835 36.0394ZM20.9697 33.1794C22.4434 33.9994 23.9696 33.9919 24.3096 32.767L24.3108 32.7682C24.7708 31.1095 24.5433 29.9007 23.3984 29.4433C22.7509 29.1833 22.2396 29.2295 21.6484 29.5333C21.4808 29.6216 21.3173 29.7176 21.1584 29.8208L20.9047 29.9832C20.7225 30.103 20.5357 30.2156 20.3447 30.3207C19.2447 30.932 19.6984 32.4745 20.9697 33.1794ZM21.2259 29.9257C21.3816 29.8248 21.5417 29.731 21.7059 29.6445V29.6458C22.2659 29.3558 22.7396 29.3145 23.3521 29.5583C24.4208 29.987 24.6358 31.1295 24.1896 32.7332C23.8796 33.8494 22.4434 33.8569 21.0296 33.0707C19.8309 32.4057 19.4122 30.9807 20.4047 30.4307C20.5022 30.377 20.5997 30.3195 20.7022 30.257C20.7718 30.2148 20.8414 30.1708 20.9245 30.1183C20.9399 30.1086 20.9557 30.0986 20.9721 30.0882L21.2259 29.9257ZM23.1071 32.4082C23.6321 32.2882 23.9371 31.8757 23.9371 31.1632C23.9371 29.6933 22.1746 29.4558 21.3246 30.5882C20.7659 31.3332 20.7734 31.657 21.2821 31.9545C21.3384 31.987 21.4021 32.022 21.4859 32.0645L21.7221 32.182C22.1621 32.402 22.6946 32.5032 23.1071 32.4082ZM22.8971 30.0182C23.4534 30.0945 23.8121 30.5007 23.8121 31.1632V31.162C23.8121 31.8195 23.5459 32.1795 23.0796 32.287C22.6971 32.3745 22.1946 32.2782 21.7771 32.0695L21.5434 31.9532C21.4609 31.9107 21.3996 31.8782 21.3446 31.847C20.9121 31.5932 20.9059 31.3557 21.4246 30.6632C21.7734 30.1982 22.3684 29.947 22.8971 30.0182ZM41.8493 19.8447C42.2993 19.3259 42.543 18.9572 42.7418 18.4197C43.2718 16.9797 43.2118 16.5322 42.3118 16.0172C41.8906 15.7772 41.3231 15.8535 40.5693 16.1922C40.0243 16.4347 39.6393 16.6622 38.4069 17.4297L38.0581 17.6435C37.7981 17.806 37.5569 17.9085 37.3081 17.9685C36.9244 18.0634 36.7031 18.0622 35.7157 18.0009C34.0907 17.901 32.8032 17.9634 30.7245 18.3784C29.452 18.6322 28.8733 18.8484 28.7895 19.1384C28.712 19.4047 28.972 19.5972 29.592 19.8697C29.6701 19.9039 29.9174 20.0038 30.2094 20.1217C30.6417 20.2963 31.1719 20.5104 31.3957 20.6097C32.5432 21.1134 33.2857 21.6059 33.6432 22.1921C34.9919 24.3996 35.6694 24.7921 37.0456 24.2421C37.9731 23.8708 38.4731 23.6384 39.0043 23.2934C39.7181 22.8296 40.2543 22.2696 40.6106 21.5571C40.7753 21.2267 40.9712 20.9128 41.1956 20.6197C41.3009 20.4817 41.4106 20.3471 41.5243 20.2159L41.8493 19.8447ZM42.1868 16.2347C42.9568 16.6747 43.0005 16.9947 42.5068 18.3322C42.3205 18.8372 42.093 19.1822 41.6606 19.6809L41.3356 20.0522C41.2179 20.1873 41.1045 20.3262 40.9956 20.4684C40.7656 20.7709 40.5681 21.0834 40.3881 21.4459C40.0531 22.1146 39.5468 22.6421 38.8694 23.0834C38.3544 23.4171 37.8656 23.6446 36.9531 24.0108C35.7144 24.5058 35.1494 24.1771 33.8557 22.0609C33.4644 21.4184 32.687 20.9046 31.497 20.3809C31.2775 20.2838 30.7748 20.0806 30.3518 19.9097C30.04 19.7837 29.7716 19.6752 29.692 19.6397C29.2145 19.4309 29.0095 19.2784 29.0295 19.2072C29.0458 19.1497 29.172 19.0634 29.4258 18.9684C29.7183 18.8597 30.162 18.7459 30.7745 18.6247C32.8295 18.2134 34.0957 18.1522 35.7007 18.2497C36.7156 18.3122 36.9481 18.3134 37.3681 18.2122C37.659 18.1382 37.9362 18.0184 38.1894 17.8572L38.5381 17.641C39.7593 16.8822 40.1418 16.6572 40.6718 16.4197C41.3593 16.111 41.8543 16.0447 42.1868 16.2347ZM37.5144 21.4371C39.3606 21.0021 40.6843 19.8834 41.6768 18.2834C42.0531 17.6797 42.088 17.306 41.7756 17.1635C41.5231 17.0472 41.0531 17.1072 40.3568 17.316C39.9756 17.4297 39.5543 17.676 39.0043 18.0759C38.873 18.17 38.7404 18.271 38.5663 18.4036L38.5469 18.4184C37.3244 19.3534 37.0019 19.5634 36.6244 19.5634C36.1606 19.5634 35.8057 20.1397 35.8744 20.6959C35.9557 21.3384 36.5369 21.6659 37.5144 21.4371ZM41.7231 17.2772C41.9393 17.376 41.9118 17.6685 41.5718 18.2184C40.5931 19.7922 39.2956 20.8897 37.4856 21.3146C36.5769 21.5284 36.0694 21.2434 35.9994 20.6809C35.9369 20.1909 36.2469 19.6884 36.6244 19.6884C37.0444 19.6884 37.3619 19.4834 38.6219 18.5184C38.8056 18.3784 38.9431 18.2747 39.0781 18.1759C39.6168 17.7847 40.0293 17.5447 40.3918 17.436C41.0581 17.236 41.5093 17.1785 41.7231 17.2772Z"
        fill="white" />
</svg>