<svg width="35" height="34" viewBox="0 0 35 34" fill="none" xmlns="http://www.w3.org/2000/svg">
    <path fill-rule="evenodd" clip-rule="evenodd"
        d="M15.736 15.3944V1.88889C15.736 1.38792 15.935 0.907478 16.2892 0.553243C16.6435 0.199007 17.1239 0 17.6249 0C18.1258 0 18.6063 0.199007 18.9605 0.553243C19.3148 0.907478 19.5138 1.38792 19.5138 1.88889V15.3944L23.7071 10.1509C23.8591 9.94859 24.0501 9.77889 24.2689 9.65186C24.4878 9.52483 24.7299 9.44305 24.9809 9.41138C25.2319 9.37971 25.4868 9.3988 25.7303 9.46751C25.9738 9.53622 26.201 9.65315 26.3984 9.81136C26.5959 9.96958 26.7595 10.1658 26.8797 10.3885C26.9998 10.6112 27.074 10.8557 27.0978 11.1076C27.1216 11.3595 27.0946 11.6136 27.0183 11.8549C26.942 12.0961 26.8181 12.3196 26.6538 12.512L19.0982 21.9564C18.9212 22.1771 18.6969 22.3551 18.4419 22.4774C18.1869 22.5998 17.9077 22.6633 17.6249 22.6633C17.342 22.6633 17.0628 22.5998 16.8078 22.4774C16.5528 22.3551 16.3285 22.1771 16.1515 21.9564L8.59598 12.512C8.43168 12.3196 8.30771 12.0961 8.23143 11.8549C8.15515 11.6136 8.12812 11.3595 8.15194 11.1076C8.17575 10.8557 8.24993 10.6112 8.37007 10.3885C8.4902 10.1658 8.65386 9.96958 8.85131 9.81136C9.04875 9.65315 9.27598 9.53622 9.51949 9.46751C9.763 9.3988 10.0178 9.37971 10.2689 9.41138C10.5199 9.44305 10.762 9.52483 10.9808 9.65186C11.1996 9.77889 11.3907 9.94859 11.5427 10.1509L15.736 15.3944Z"
        fill="white" />
    <path fill-rule="evenodd" clip-rule="evenodd"
        d="M22.0507 24.3176L26.3932 18.8889H30.8472C31.8492 18.8889 32.81 19.2869 33.5185 19.9954C34.227 20.7039 34.625 21.6648 34.625 22.6667V30.2222C34.625 31.2242 34.227 32.1851 33.5185 32.8935C32.81 33.602 31.8492 34 30.8472 34H4.40278C3.40085 34 2.43996 33.602 1.73149 32.8935C1.02302 32.1851 0.625001 31.2242 0.625001 30.2222V22.6667C0.625001 21.6648 1.02302 20.7039 1.73149 19.9954C2.43996 19.2869 3.40085 18.8889 4.40278 18.8889H8.85678L13.2012 24.3176C13.7321 24.9811 14.4054 25.5168 15.1714 25.8848C15.9373 26.2529 16.7762 26.4441 17.6259 26.4441C18.4757 26.4441 19.3146 26.2529 20.0805 25.8848C20.8465 25.5168 21.5198 24.9811 22.0507 24.3176ZM8.18056 24.5556C8.68152 24.5556 9.16197 24.7546 9.5162 25.1088C9.87044 25.4631 10.0694 25.9435 10.0694 26.4445C10.0694 26.9454 9.87044 27.4259 9.5162 27.7801C9.16197 28.1344 8.68152 28.3334 8.18056 28.3334H8.16167C7.6607 28.3334 7.18026 28.1344 6.82602 27.7801C6.47179 27.4259 6.27278 26.9454 6.27278 26.4445C6.27278 25.9435 6.47179 25.4631 6.82602 25.1088C7.18026 24.7546 7.6607 24.5556 8.16167 24.5556H8.18056Z"
        fill="white" />
</svg>