<svg width="20" height="20" viewBox="0 0 20 20" fill="none" xmlns="http://www.w3.org/2000/svg">
<path d="M9.9995 2.72328e-07C5.09549 -0.000645831 0.915044 3.64728 0.129877 8.61239C-0.655291 13.5775 2.18666 18.3937 6.83945 19.983C7.34056 20.0755 7.51996 19.7599 7.51996 19.4886C7.51996 19.2449 7.51195 18.5993 7.50894 17.741C4.72774 18.3578 4.14042 16.3655 4.14042 16.3655C3.95733 15.7456 3.56372 15.2135 3.03095 14.8657C2.12894 14.2294 3.1001 14.2438 3.1001 14.2438C3.74221 14.3341 4.30735 14.7243 4.63052 15.3005C4.90406 15.8107 5.36492 16.1876 5.91068 16.3477C6.45644 16.5077 7.04191 16.4375 7.537 16.1527C7.58353 15.6326 7.80915 15.1464 8.17342 14.7814C5.95447 14.5234 3.62127 13.6434 3.62127 9.71344C3.60895 8.69696 3.97696 7.71431 4.64956 6.96769C4.34523 6.08291 4.38107 5.11243 4.74978 4.2538C4.74978 4.2538 5.58866 3.97728 7.49792 5.30338C9.13542 4.84285 10.8636 4.84285 12.5011 5.30338C14.4113 3.97625 15.2492 4.2538 15.2492 4.2538C15.6196 5.11203 15.6555 6.08318 15.3494 6.96769C16.0245 7.71424 16.3922 8.69947 16.3757 9.71755C16.3757 13.6578 14.0405 14.5234 11.8135 14.7773C12.2939 15.2811 12.5403 15.9722 12.4901 16.675C12.4901 18.0463 12.478 19.1524 12.478 19.4886C12.478 19.763 12.6564 20.0817 13.1666 19.981C17.8174 18.389 20.6563 13.5725 19.8695 8.60868C19.0827 3.64488 14.9025 -0.00115049 9.9995 2.72328e-07Z" fill="white"/>
</svg>
