<svg xmlns="http://www.w3.org/2000/svg" viewBox="0 0 80 80">
    <path fill="#FFFFFF" fill-rule="evenodd"
        d="M11 0l5 20H6l5-20zm42 31a3 3 0 1 0 0-6 3 3 0 0 0 0 6zM0 72h40v4H0v-4zm0-8h31v4H0v-4zm20-16h20v4H20v-4zM0 56h40v4H0v-4zm63-25a3 3 0 1 0 0-6 3 3 0 0 0 0 6zm10 0a3 3 0 1 0 0-6 3 3 0 0 0 0 6zM53 41a3 3 0 1 0 0-6 3 3 0 0 0 0 6zm10 0a3 3 0 1 0 0-6 3 3 0 0 0 0 6zm10 0a3 3 0 1 0 0-6 3 3 0 0 0 0 6zm-30 0a3 3 0 1 0 0-6 3 3 0 0 0 0 6zm-28-8a5 5 0 0 0-10 0h10zm10 0a5 5 0 0 1-10 0h10zM56 5a5 5 0 0 0-10 0h10zm10 0a5 5 0 0 1-10 0h10zm-3 46a3 3 0 1 0 0-6 3 3 0 0 0 0 6zm10 0a3 3 0 1 0 0-6 3 3 0 0 0 0 6zM21 0l5 20H16l5-20zm43 64v-4h-4v4h-4v4h4v4h4v-4h4v-4h-4zM36 13h4v4h-4v-4zm4 4h4v4h-4v-4zm-4 4h4v4h-4v-4zm8-8h4v4h-4v-4z" />
</svg>