<svg width="40" height="40" viewBox="0 0 40 40" fill="none" xmlns="http://www.w3.org/2000/svg">
<path d="M19.999 5.44656e-07C10.191 -0.00129166 1.83009 7.29456 0.259754 17.2248C-1.31058 27.155 4.37332 36.7874 13.6789 39.966C14.6811 40.1511 15.0399 39.5199 15.0399 38.9771C15.0399 38.4898 15.0239 37.1987 15.0179 35.4819C9.45547 36.7155 8.28085 32.7311 8.28085 32.7311C7.91466 31.4912 7.12743 30.427 6.0619 29.7314C4.25787 28.4588 6.20021 28.4875 6.20021 28.4875C7.48443 28.6681 8.6147 29.4486 9.26104 30.6011C9.80813 31.6214 10.7298 32.3753 11.8214 32.6953C12.9129 33.0154 14.0838 32.875 15.074 32.3055C15.1671 31.2652 15.6183 30.2928 16.3468 29.5628C11.9089 29.0468 7.24253 27.2869 7.24253 19.4269C7.2179 17.3939 7.95392 15.4286 9.29912 13.9354C8.69047 12.1658 8.76214 10.2249 9.49957 8.50761C9.49957 8.50761 11.1773 7.95455 14.9958 10.6068C18.2708 9.6857 21.7272 9.6857 25.0022 10.6068C28.8227 7.9525 30.4984 8.50761 30.4984 8.50761C31.2393 10.2241 31.311 12.1664 30.6989 13.9354C32.049 15.4285 32.7844 17.3989 32.7514 19.4351C32.7514 27.3156 28.081 29.0468 23.6271 29.5546C24.5879 30.5621 25.0806 31.9443 24.9801 33.3499C24.9801 36.0926 24.9561 38.3048 24.9561 38.9771C24.9561 39.526 25.3128 40.1634 26.3331 39.9619C35.6348 36.7779 41.3126 27.1449 39.7391 17.2174C38.1655 7.28976 29.805 -0.00230099 19.999 5.44656e-07Z" fill="white"/>
</svg>