<svg id="Capa_1" data-name="Capa 1" xmlns="http://www.w3.org/2000/svg" viewBox="0 0 585 618"><defs><style>.cls-1{fill:#fff;}.cls-2{fill:#4e6db3;}.cls-3{fill:#605fa1;}.cls-4{fill:#dcc48e;}</style></defs><rect class="cls-1" x="55" width="475" height="618" rx="37.97"/><rect class="cls-2" x="73.16" y="15" width="439" height="586" rx="37.97"/><rect class="cls-1" y="116" width="585" height="181" rx="48.97"/><rect class="cls-3" x="12.5" y="131" width="560" height="151" rx="37.97"/><polygon class="cls-1" points="292.5 140 343.02 244.52 456 261.28 374.25 342.64 393.55 457.51 292.5 403.28 191.45 457.51 210.75 342.64 129 261.28 241.98 244.52 292.5 140"/><polygon class="cls-4" points="292.5 178.58 332.61 259.85 422.28 272.88 357.39 336.13 372.71 425.45 292.5 383.28 212.29 425.45 227.61 336.13 162.72 272.88 252.4 259.85 292.5 178.58"/></svg>