<svg width="18" height="18" viewBox="0 0 18 18" fill="none" xmlns="http://www.w3.org/2000/svg">
    <path
        d="M9 18C6.5 18 4.375 17.125 2.625 15.375C0.875 13.625 0 11.5 0 9C0 6.5 0.875 4.375 2.625 2.625C4.375 0.875 6.5 0 9 0C9.23333 0 9.46267 0.00833343 9.688 0.0250001C9.91267 0.0416668 10.1333 0.0666666 10.35 0.0999999C9.66667 0.583333 9.121 1.21233 8.713 1.987C8.30433 2.76233 8.1 3.6 8.1 4.5C8.1 6 8.625 7.275 9.675 8.325C10.725 9.375 12 9.9 13.5 9.9C14.4167 9.9 15.2583 9.69567 16.025 9.287C16.7917 8.879 17.4167 8.33333 17.9 7.65C17.9333 7.86667 17.9583 8.08733 17.975 8.312C17.9917 8.53733 18 8.76667 18 9C18 11.5 17.125 13.625 15.375 15.375C13.625 17.125 11.5 18 9 18Z"
        fill="white" />
</svg>