<svg width="35" height="34" viewBox="0 0 35 34" fill="none" xmlns="http://www.w3.org/2000/svg">
    <path
        d="M26.4796 33.8924L17.9448 29.8336C17.3794 29.5646 17.1335 28.8768 17.3965 28.2974L23.4359 15.0039C23.6983 14.4251 24.3714 14.1739 24.9364 14.4424L33.4715 18.502C34.0369 18.771 34.2825 19.4588 34.0195 20.0373L27.9804 33.3309C27.7171 33.9097 27.0445 34.1609 26.4796 33.8924ZM5.88354 32.442L0.217349 18.9777C-0.0294558 18.3913 0.235601 17.7106 0.807876 17.4585L3.61349 16.2229L7.11907 29.7011C7.45506 30.9891 8.74785 31.7573 10.008 31.414L12.8019 30.6534L7.36852 33.0471C6.79539 33.2992 6.13049 33.0284 5.88369 32.442L5.88354 32.442ZM8.30936 29.3764L4.62461 15.2097C4.46428 14.5931 4.8236 13.959 5.42558 13.7954L7.86163 13.1325L7.5683 15.3635C7.39494 16.6844 8.30013 17.9012 9.59291 18.0795L15.3069 18.8674L12.9808 26.884C12.7414 27.7101 12.9543 28.5646 13.4723 29.1674L9.69148 30.1963C9.08878 30.3604 8.4697 29.9935 8.30936 29.3764ZM16.0705 29.0278L14.9238 28.6792C14.3254 28.4969 13.9847 27.8541 14.1619 27.2419L18.2398 13.1884C18.4176 12.5762 19.0472 12.2276 19.6443 12.4085L23.1569 13.4765L23.1575 13.4761L23.1661 13.4793L23.1566 13.4768C22.7922 13.7228 22.502 14.0678 22.3187 14.4732L16.2789 27.7672C16.0999 28.1607 16.0279 28.5963 16.0702 29.0281L16.0705 29.0278ZM15.662 17.6452L9.75776 16.8311C9.13982 16.7457 8.70526 16.1632 8.78872 15.5306L10.702 1.00184C10.7851 0.369622 11.3552 -0.0745376 11.9718 0.010413L21.3005 1.29661C21.918 1.382 22.3522 1.96486 22.2691 2.59664L21.0919 11.535L19.9946 11.2016C18.7444 10.821 17.4302 11.552 17.0596 12.8297L15.662 17.6452ZM15.2905 15.3413C15.6248 15.1176 15.8255 14.7966 15.8932 14.3786C15.9602 13.9661 15.8677 13.6011 15.6165 13.2842C15.3653 12.9609 15.016 12.7613 14.5674 12.6853C14.1133 12.6078 13.7135 12.6799 13.3685 12.9017C13.0231 13.1236 12.8179 13.4375 12.7518 13.8442C12.6876 14.2387 12.7823 14.6073 13.036 14.9487C13.2912 15.2786 13.6462 15.4823 14.0999 15.5595C14.5544 15.6368 14.9513 15.5641 15.2905 15.3413ZM17.15 9.39159C17.4859 9.19196 17.7862 8.99364 18.0518 8.79716C18.3168 8.6006 18.5467 8.38808 18.7414 8.1582C18.9351 7.93037 19.0973 7.67639 19.2234 7.40338C19.3494 7.12949 19.4415 6.81517 19.499 6.46124C19.5893 5.9032 19.572 5.40975 19.4463 4.97944C19.3211 4.54956 19.1104 4.17826 18.8141 3.86482C18.5181 3.55212 18.1527 3.29705 17.7176 3.101C17.2832 2.90444 16.8011 2.76171 16.2736 2.67186C15.723 2.57812 15.1784 2.55454 14.6405 2.60031C14.1025 2.64527 13.5933 2.76486 13.1126 2.95768L12.6867 5.57958C13.1744 5.26834 13.6723 5.05933 14.1795 4.95219C14.6869 4.8441 15.162 4.82779 15.6048 4.90327C17.1414 5.20294 16.9963 6.72663 16.2319 7.3954C15.8273 7.72297 15.4206 8.04 15.0908 8.22623C14.3406 8.65933 13.1087 9.91975 13.4772 11.5323L15.7165 11.9133C15.2076 10.6129 16.5513 9.75571 17.1501 9.39159H17.15Z"
        fill="white" />
</svg>