<svg width="21" height="20" viewBox="0 0 21 20" fill="none" xmlns="http://www.w3.org/2000/svg">
    <path
        d="M3.125 0.5C2.2962 0.5 1.50134 0.82924 0.915291 1.41529C0.32924 2.00134 0 2.7962 0 3.625V11.375C0 12.2038 0.32924 12.9987 0.915291 13.5847C1.50134 14.1708 2.2962 14.5 3.125 14.5H11.202L9.476 12.774C9.17128 12.4693 9.0001 12.056 9.0001 11.625C9.0001 11.194 9.17128 10.7807 9.476 10.476L11.034 8.918L10.5 8.384L9.567 9.317C9.50896 9.37504 9.44005 9.42109 9.36421 9.4525C9.28837 9.48391 9.20709 9.50008 9.125 9.50008C9.04291 9.50008 8.96163 9.48391 8.88579 9.4525C8.80995 9.42109 8.74104 9.37504 8.683 9.317C8.62496 9.25896 8.57891 9.19005 8.5475 9.11421C8.51609 9.03837 8.49992 8.95709 8.49992 8.875C8.49992 8.79291 8.51609 8.71163 8.5475 8.63579C8.57891 8.55995 8.62496 8.49104 8.683 8.433L9.616 7.5L8.683 6.567C8.56577 6.44977 8.49992 6.29078 8.49992 6.125C8.49992 5.95922 8.56577 5.80023 8.683 5.683C8.80023 5.56577 8.95922 5.49992 9.125 5.49992C9.29078 5.49992 9.44977 5.56577 9.567 5.683L10.5 6.616L11.433 5.683C11.5502 5.56577 11.7092 5.49992 11.875 5.49992C12.0408 5.49992 12.1998 5.56577 12.317 5.683C12.4342 5.80023 12.5001 5.95922 12.5001 6.125C12.5001 6.29078 12.4342 6.44977 12.317 6.567L11.384 7.5L12.006 8.122C12.3626 7.97506 12.7599 7.95977 13.1267 8.07885C13.4936 8.19793 13.8062 8.44363 14.0085 8.772C14.0329 8.62611 14.1082 8.4936 14.2211 8.39802C14.334 8.30244 14.4771 8.24999 14.625 8.25H16.875C17.0408 8.25 17.1997 8.31585 17.3169 8.43306C17.4342 8.55027 17.5 8.70924 17.5 8.875C17.5 9.04076 17.4342 9.19973 17.3169 9.31694C17.1997 9.43415 17.0408 9.5 16.875 9.5H14.625C14.4745 9.5 14.336 9.4465 14.228 9.3575C14.263 9.5705 14.256 9.7895 14.2065 10H16.5C17.83 10 19.049 10.472 20 11.257V3.625C20 2.7962 19.6708 2.00134 19.0847 1.41529C18.4987 0.82924 17.7038 0.5 16.875 0.5H3.125ZM3.183 5.683C3.24104 5.62495 3.30995 5.57889 3.38578 5.54747C3.46162 5.51606 3.54291 5.49988 3.625 5.49988C3.70709 5.49988 3.78838 5.51606 3.86422 5.54747C3.94005 5.57889 4.00896 5.62495 4.067 5.683L5 6.616L5.933 5.683C6.05023 5.56577 6.20922 5.49992 6.375 5.49992C6.54078 5.49992 6.69977 5.56577 6.817 5.683C6.93423 5.80023 7.00008 5.95922 7.00008 6.125C7.00008 6.29078 6.93423 6.44977 6.817 6.567L5.884 7.5L6.817 8.433C6.87504 8.49104 6.92109 8.55995 6.9525 8.63579C6.98391 8.71163 7.00008 8.79291 7.00008 8.875C7.00008 8.95709 6.98391 9.03837 6.9525 9.11421C6.92109 9.19005 6.87504 9.25896 6.817 9.317C6.75896 9.37504 6.69005 9.42109 6.61421 9.4525C6.53837 9.48391 6.45709 9.50008 6.375 9.50008C6.29291 9.50008 6.21163 9.48391 6.13579 9.4525C6.05995 9.42109 5.99104 9.37504 5.933 9.317L5 8.384L4.067 9.317C3.94977 9.43423 3.79078 9.50008 3.625 9.50008C3.45922 9.50008 3.30023 9.43423 3.183 9.317C3.06577 9.19977 2.99992 9.04078 2.99992 8.875C2.99992 8.70922 3.06577 8.55023 3.183 8.433L4.116 7.5L3.183 6.567C3.12495 6.50896 3.07889 6.44005 3.04747 6.36421C3.01605 6.28838 2.99988 6.20709 2.99988 6.125C2.99988 6.04291 3.01605 5.96162 3.04747 5.88579C3.07889 5.80995 3.12495 5.74104 3.183 5.683ZM13.067 10.067C13.1842 9.94977 13.2501 9.79078 13.2501 9.625C13.2501 9.45922 13.1842 9.30023 13.067 9.183C12.9498 9.06577 12.7908 8.99992 12.625 8.99992C12.4592 8.99992 12.3002 9.06577 12.183 9.183L10.183 11.183C10.1249 11.241 10.0789 11.3099 10.0475 11.3858C10.0161 11.4616 9.99988 11.5429 9.99988 11.625C9.99988 11.7071 10.0161 11.7884 10.0475 11.8642C10.0789 11.9401 10.1249 12.009 10.183 12.067L12.183 14.067C12.3002 14.1842 12.4592 14.2501 12.625 14.2501C12.7908 14.2501 12.9498 14.1842 13.067 14.067C13.1842 13.9498 13.2501 13.7908 13.2501 13.625C13.2501 13.4592 13.1842 13.3002 13.067 13.183L12.134 12.25H16.5C17.1203 12.2501 17.7276 12.4277 18.2502 12.7618C18.7728 13.0959 19.1888 13.5725 19.4492 14.1355C19.7097 14.6984 19.8036 15.3242 19.7198 15.9387C19.6361 16.5533 19.3782 17.1311 18.9767 17.6039C18.5752 18.0767 18.0467 18.4246 17.4538 18.6068C16.8609 18.7889 16.2282 18.7975 15.6305 18.6317C15.0328 18.4658 14.4951 18.1324 14.0808 17.6707C13.6665 17.2091 13.393 16.6386 13.2925 16.0265C13.2793 15.9455 13.2503 15.8678 13.2071 15.798C13.1639 15.7282 13.1073 15.6676 13.0407 15.6197C12.9741 15.5717 12.8987 15.5373 12.8188 15.5185C12.7389 15.4997 12.656 15.4968 12.575 15.51C12.494 15.5232 12.4163 15.5522 12.3465 15.5954C12.2767 15.6386 12.2161 15.6952 12.1682 15.7618C12.1202 15.8284 12.0858 15.9038 12.067 15.9837C12.0482 16.0636 12.0453 16.1465 12.0585 16.2275C12.4065 18.367 14.262 20 16.5 20C17.6935 20 18.8381 19.5259 19.682 18.682C20.5259 17.8381 21 16.6935 21 15.5C21 14.3065 20.5259 13.1619 19.682 12.318C18.8381 11.4741 17.6935 11 16.5 11H12.134L13.067 10.067Z"
        fill="white" />
</svg>
