<svg xmlns="http://www.w3.org/2000/svg" width="32" height="32" fill="none"><path fill="#fff" d="M20.84 9.676v.745h-2.884a5.95 5.95 0 0 1 2.885-.745Zm-9.675.745a.744.744 0 1 0-1.489 0H8.154A9.669 9.669 0 0 0 0 5.955V5.21c.25 0 .499.008.744.026V5.21A.744.744 0 0 0 0 4.466v-.744a1.489 1.489 0 0 1 1.481 1.34c.306-.508.655-.989 1.042-1.437A2.977 2.977 0 0 0 0 2.233V1.49a3.718 3.718 0 0 1 3.04 1.574c.35-.354.73-.681 1.128-.979A5.203 5.203 0 0 0 0 0h2.884c.744.41 1.388.979 1.898 1.656.417-.268.856-.51 1.314-.718A7.48 7.48 0 0 0 5.314 0H6.32c.168.209.328.424.48.648.484-.179.979-.324 1.489-.428A2.66 2.66 0 0 0 8.154 0h1.522v.026c.496-.035.993-.035 1.489 0V0h1.522l-.138.22c.514.104 1.012.25 1.492.428.15-.224.313-.44.484-.648h1.001c-.285.291-.547.605-.781.938.458.208.897.447 1.317.718A5.984 5.984 0 0 1 17.956 0h2.885a5.2 5.2 0 0 0-4.169 2.084c.399.298.778.625 1.128.979a3.718 3.718 0 0 1 3.04-1.574v.744a2.977 2.977 0 0 0-2.519 1.392c.383.447.733.93 1.038 1.436a1.489 1.489 0 0 1 1.482-1.34v.745a.744.744 0 0 0-.745.77c.248-.017.496-.026.745-.026v.745a9.661 9.661 0 0 0-8.154 4.466h-1.522Zm-8.28 0H0v-.745c1.046 0 2.032.272 2.884.745ZM20.84 7.443v.745a7.419 7.419 0 0 0-5.315 2.232h-1.005a8.176 8.176 0 0 1 6.32-2.977ZM6.315 10.421h-1A7.419 7.419 0 0 0 0 8.188v-.745a8.163 8.163 0 0 1 6.315 2.978Zm5.587-.15c.306-.507.654-.987 1.042-1.436a2.977 2.977 0 0 0-5.043 0c.383.447.733.93 1.038 1.437a1.489 1.489 0 0 1 2.963 0Zm5.318-4.413c.483-.179.978-.324 1.488-.428a9.673 9.673 0 0 0-16.58 0c.514.104 1.013.25 1.493.428a8.18 8.18 0 0 1 13.599 0Zm-2.021 1.008c.42-.268.856-.51 1.317-.718a7.435 7.435 0 0 0-12.192 0c.458.209.897.447 1.318.718a5.947 5.947 0 0 1 9.557 0ZM13.46 8.273c.35-.353.73-.68 1.127-.979a5.203 5.203 0 0 0-8.336 0c.398.298.778.626 1.128.98a3.718 3.718 0 0 1 6.08 0Z"/><path fill="#fff" d="M20.84 9.676v.745h-2.884a5.95 5.95 0 0 1 2.885-.745Zm-9.675.745a.744.744 0 1 0-1.489 0H8.154A9.669 9.669 0 0 0 0 5.955V5.21c.25 0 .499.008.744.026V5.21A.744.744 0 0 0 0 4.466v-.744a1.489 1.489 0 0 1 1.481 1.34c.306-.508.655-.989 1.042-1.437A2.977 2.977 0 0 0 0 2.233V1.49a3.718 3.718 0 0 1 3.04 1.574c.35-.354.73-.681 1.128-.979A5.203 5.203 0 0 0 0 0h2.884c.744.41 1.388.979 1.898 1.656.417-.268.856-.51 1.314-.718A7.48 7.48 0 0 0 5.314 0H6.32c.168.209.328.424.48.648.484-.179.979-.324 1.489-.428A2.66 2.66 0 0 0 8.154 0h1.522v.026c.496-.035.993-.035 1.489 0V0h1.522l-.138.22c.514.104 1.012.25 1.492.428.15-.224.313-.44.484-.648h1.001c-.285.291-.547.605-.781.938.458.208.897.447 1.317.718A5.984 5.984 0 0 1 17.956 0h2.885a5.2 5.2 0 0 0-4.169 2.084c.399.298.778.625 1.128.979a3.718 3.718 0 0 1 3.04-1.574v.744a2.977 2.977 0 0 0-2.519 1.392c.383.447.733.93 1.038 1.436a1.489 1.489 0 0 1 1.482-1.34v.745a.744.744 0 0 0-.745.77c.248-.017.496-.026.745-.026v.745a9.661 9.661 0 0 0-8.154 4.466h-1.522Zm-8.28 0H0v-.745c1.046 0 2.032.272 2.884.745ZM20.84 7.443v.745a7.419 7.419 0 0 0-5.315 2.232h-1.005a8.176 8.176 0 0 1 6.32-2.977ZM6.315 10.421h-1A7.419 7.419 0 0 0 0 8.188v-.745a8.163 8.163 0 0 1 6.315 2.978Zm5.587-.15c.306-.507.654-.987 1.042-1.436a2.977 2.977 0 0 0-5.043 0c.383.447.733.93 1.038 1.437a1.489 1.489 0 0 1 2.963 0Zm5.318-4.413c.483-.179.978-.324 1.488-.428a9.673 9.673 0 0 0-16.58 0c.514.104 1.013.25 1.493.428a8.18 8.18 0 0 1 13.599 0Zm-2.021 1.008c.42-.268.856-.51 1.317-.718a7.435 7.435 0 0 0-12.192 0c.458.209.897.447 1.318.718a5.947 5.947 0 0 1 9.557 0ZM13.46 8.273c.35-.353.73-.68 1.127-.979a5.203 5.203 0 0 0-8.336 0c.398.298.778.626 1.128.98a3.718 3.718 0 0 1 6.08 0Z"/><path fill="#fff" d="M20.84 20.096v.745h-2.884a5.95 5.95 0 0 1 2.885-.745Zm-9.675.745a.744.744 0 1 0-1.489 0H8.154A9.668 9.668 0 0 0 0 16.375v-.744c.25 0 .499.007.744.026v-.026A.744.744 0 0 0 0 14.886v-.744a1.488 1.488 0 0 1 1.481 1.34c.306-.508.655-.988 1.042-1.437A2.977 2.977 0 0 0 0 12.653v-.744a3.718 3.718 0 0 1 3.04 1.574c.35-.353.73-.68 1.128-.979A5.203 5.203 0 0 0 0 10.421h2.884c.744.409 1.388.978 1.898 1.655.417-.267.856-.51 1.314-.718a7.478 7.478 0 0 0-.782-.938H6.32c.168.209.328.425.48.648.484-.179.979-.324 1.489-.428a2.662 2.662 0 0 0-.134-.22h1.522v.027c.496-.035.993-.035 1.489 0v-.026h1.522l-.138.219c.514.104 1.012.25 1.492.428.15-.223.313-.44.484-.648h1.001a7.48 7.48 0 0 0-.781.938c.458.209.897.447 1.317.718a5.984 5.984 0 0 1 1.894-1.655h2.885a5.2 5.2 0 0 0-4.169 2.084c.399.297.778.625 1.128.978a3.718 3.718 0 0 1 3.04-1.574v.744a2.976 2.976 0 0 0-2.519 1.392c.383.447.733.93 1.038 1.437a1.488 1.488 0 0 1 1.482-1.34v.744a.744.744 0 0 0-.745.77c.248-.017.496-.026.745-.025v.744a9.661 9.661 0 0 0-8.154 4.466h-1.522Zm-8.28 0H0v-.745c1.046 0 2.032.272 2.884.745Zm17.956-2.978v.745a7.419 7.419 0 0 0-5.315 2.233h-1.005a8.177 8.177 0 0 1 6.32-2.978ZM6.315 20.841h-1A7.42 7.42 0 0 0 0 18.608v-.745a8.163 8.163 0 0 1 6.315 2.978Zm5.587-.15c.306-.507.654-.987 1.042-1.436a2.977 2.977 0 0 0-5.043 0c.383.447.733.93 1.038 1.437a1.489 1.489 0 0 1 2.963 0Zm5.318-4.413c.483-.178.978-.324 1.488-.428a9.673 9.673 0 0 0-16.58 0c.514.104 1.013.25 1.493.428a8.18 8.18 0 0 1 13.599 0Zm-2.021 1.009c.42-.268.856-.51 1.317-.719a7.436 7.436 0 0 0-12.192 0c.458.209.897.447 1.318.719a5.946 5.946 0 0 1 9.557 0Zm-1.738 1.406c.35-.353.73-.68 1.127-.978a5.203 5.203 0 0 0-8.336 0c.398.297.778.625 1.128.978a3.718 3.718 0 0 1 6.08 0Z"/><path fill="#fff" d="M20.84 30.517v.745h-2.884a5.95 5.95 0 0 1 2.885-.745Zm-9.675.745a.744.744 0 1 0-1.489 0H8.154A9.669 9.669 0 0 0 0 26.796v-.745c.25 0 .499.008.744.026v-.026A.744.744 0 0 0 0 25.307v-.744a1.488 1.488 0 0 1 1.481 1.34c.306-.508.655-.989 1.042-1.437A2.977 2.977 0 0 0 0 23.074v-.744a3.718 3.718 0 0 1 3.04 1.574c.35-.354.73-.681 1.128-.979A5.203 5.203 0 0 0 0 20.841h2.884a6.01 6.01 0 0 1 1.898 1.656c.417-.268.856-.51 1.314-.718a7.49 7.49 0 0 0-.782-.938H6.32c.168.209.328.424.48.648.484-.179.979-.324 1.489-.428a2.672 2.672 0 0 0-.134-.22h1.522v.026c.496-.035.993-.035 1.489 0v-.026h1.522l-.138.22c.514.104 1.012.25 1.492.428.15-.224.313-.44.484-.648h1.001c-.285.29-.547.605-.781.938.458.208.897.447 1.317.718a5.987 5.987 0 0 1 1.894-1.656h2.885a5.2 5.2 0 0 0-4.169 2.084c.399.298.778.625 1.128.979a3.719 3.719 0 0 1 3.04-1.574v.744a2.976 2.976 0 0 0-2.519 1.392c.383.447.733.93 1.038 1.436a1.488 1.488 0 0 1 1.482-1.34v.745a.744.744 0 0 0-.745.77c.248-.017.496-.026.745-.026v.745a9.661 9.661 0 0 0-8.154 4.466h-1.522Zm-8.28 0H0v-.745c1.046 0 2.032.272 2.884.745Zm17.956-2.978v.745a7.419 7.419 0 0 0-5.315 2.233h-1.005a8.177 8.177 0 0 1 6.32-2.978ZM6.315 31.262h-1A7.419 7.419 0 0 0 0 29.029v-.745a8.163 8.163 0 0 1 6.315 2.978Zm5.587-.15c.306-.507.654-.987 1.042-1.436a2.977 2.977 0 0 0-5.043 0c.383.447.733.93 1.038 1.437a1.489 1.489 0 0 1 2.963 0ZM17.22 26.7c.483-.179.978-.324 1.488-.428a9.674 9.674 0 0 0-16.58 0c.514.104 1.013.25 1.493.428a8.18 8.18 0 0 1 13.599 0Zm-2.021 1.008c.42-.268.856-.51 1.317-.718a7.436 7.436 0 0 0-12.192 0c.458.209.897.447 1.318.718a5.948 5.948 0 0 1 9.557 0Zm-1.738 1.407c.35-.353.73-.68 1.127-.979a5.203 5.203 0 0 0-8.336 0c.398.298.778.626 1.128.98a3.718 3.718 0 0 1 6.08 0ZM20.84 9.676c1.046 0 2.032.272 2.885.744H20.84v-.744ZM20.84 7.443a8.163 8.163 0 0 1 6.316 2.977h-1.001a7.419 7.419 0 0 0-5.314-2.232v-.745ZM31.26.74a9.673 9.673 0 0 0-8.29 4.69c.513.104 1.012.25 1.492.428a8.18 8.18 0 0 1 6.799-3.632v.744a7.436 7.436 0 0 0-6.096 3.178c.458.208.897.447 1.318.718A5.947 5.947 0 0 1 31.26 4.46v.745a5.203 5.203 0 0 0-4.168 2.09c.398.297.777.625 1.127.978a3.718 3.718 0 0 1 3.04-1.578v.746a2.977 2.977 0 0 0-2.519 1.394c.384.446.733.93 1.039 1.436a1.488 1.488 0 0 1 1.48-1.34v.745a.745.745 0 0 0-.743.744h-1.523a9.67 9.67 0 0 0-8.153-4.465V5.21c.249 0 .498.008.744.026V5.21a.744.744 0 0 0-.744-.744v-.744a1.489 1.489 0 0 1 1.48 1.34c.307-.508.655-.989 1.043-1.437a2.977 2.977 0 0 0-2.523-1.392V1.49a3.718 3.718 0 0 1 3.04 1.574c.35-.354.73-.681 1.128-.979A5.203 5.203 0 0 0 20.84 0h2.884c.744.41 1.388.98 1.898 1.656.416-.268.856-.51 1.313-.718A7.47 7.47 0 0 0 26.155 0h1.005c.167.209.327.425.48.648A10.17 10.17 0 0 1 29.128.22a2.645 2.645 0 0 0-.134-.22h1.523v.026C30.764.01 31.013 0 31.26 0v.74Z"/><path fill="#fff" d="M20.84 9.676c1.046 0 2.032.272 2.885.744H20.84v-.744ZM20.84 7.443a8.163 8.163 0 0 1 6.316 2.977h-1.001a7.419 7.419 0 0 0-5.314-2.232v-.745ZM31.26.74a9.673 9.673 0 0 0-8.29 4.69c.513.104 1.012.25 1.492.428a8.18 8.18 0 0 1 6.799-3.632v.744a7.436 7.436 0 0 0-6.096 3.178c.458.208.897.447 1.318.718A5.947 5.947 0 0 1 31.26 4.46v.745a5.203 5.203 0 0 0-4.168 2.09c.398.297.777.625 1.127.978a3.718 3.718 0 0 1 3.04-1.578v.746a2.977 2.977 0 0 0-2.519 1.394c.384.446.733.93 1.039 1.436a1.488 1.488 0 0 1 1.48-1.34v.745a.745.745 0 0 0-.743.744h-1.523a9.67 9.67 0 0 0-8.153-4.465V5.21c.249 0 .498.008.744.026V5.21a.744.744 0 0 0-.744-.744v-.744a1.489 1.489 0 0 1 1.48 1.34c.307-.508.655-.989 1.043-1.437a2.977 2.977 0 0 0-2.523-1.392V1.49a3.718 3.718 0 0 1 3.04 1.574c.35-.354.73-.681 1.128-.979A5.203 5.203 0 0 0 20.84 0h2.884c.744.41 1.388.98 1.898 1.656.416-.268.856-.51 1.313-.718A7.47 7.47 0 0 0 26.155 0h1.005c.167.209.327.425.48.648A10.17 10.17 0 0 1 29.128.22a2.645 2.645 0 0 0-.134-.22h1.523v.026C30.764.01 31.013 0 31.26 0v.74ZM20.84 20.096c1.046 0 2.032.272 2.885.745H20.84v-.745ZM20.84 17.863a8.163 8.163 0 0 1 6.316 2.978h-1.001a7.419 7.419 0 0 0-5.314-2.233v-.745Z"/><path fill="#fff" d="M31.26 11.161a9.672 9.672 0 0 0-8.29 4.69c.513.103 1.012.248 1.492.427a8.18 8.18 0 0 1 6.799-3.632v.745a7.436 7.436 0 0 0-6.096 3.177c.458.209.897.447 1.318.718a5.948 5.948 0 0 1 4.778-2.406v.746a5.202 5.202 0 0 0-4.168 2.089c.398.297.777.625 1.127.979a3.719 3.719 0 0 1 3.04-1.579v.746a2.977 2.977 0 0 0-2.519 1.394c.384.447.733.93 1.039 1.437a1.488 1.488 0 0 1 1.48-1.34v.744a.745.745 0 0 0-.743.745h-1.523a9.67 9.67 0 0 0-8.153-4.466v-.744c.249 0 .498.007.744.026v-.027a.744.744 0 0 0-.744-.744v-.744a1.488 1.488 0 0 1 1.48 1.34c.307-.508.655-.988 1.043-1.437a2.978 2.978 0 0 0-2.523-1.392v-.744a3.72 3.72 0 0 1 3.04 1.574c.35-.353.73-.681 1.128-.979a5.203 5.203 0 0 0-4.168-2.083h2.884c.744.409 1.388.978 1.898 1.656.416-.268.856-.51 1.313-.719a7.47 7.47 0 0 0-.781-.938h1.005c.167.209.327.425.48.648.484-.178.979-.324 1.488-.428a2.65 2.65 0 0 0-.134-.22h1.523v.026c.247-.017.496-.026.744-.026v.741ZM20.84 30.517c1.046 0 2.032.272 2.885.744H20.84v-.744ZM20.84 28.284a8.163 8.163 0 0 1 6.316 2.977h-1.001a7.419 7.419 0 0 0-5.314-2.232v-.745Z"/><path fill="#fff" d="M31.26 21.582a9.672 9.672 0 0 0-8.29 4.689c.513.104 1.012.25 1.492.428a8.18 8.18 0 0 1 6.799-3.632v.744a7.436 7.436 0 0 0-6.096 3.178c.458.209.897.447 1.318.718a5.948 5.948 0 0 1 4.778-2.406v.746a5.202 5.202 0 0 0-4.168 2.088c.398.298.777.626 1.127.98a3.719 3.719 0 0 1 3.04-1.58v.747a2.978 2.978 0 0 0-2.519 1.394c.384.447.733.93 1.039 1.437a1.488 1.488 0 0 1 1.48-1.34v.744a.745.745 0 0 0-.743.744h-1.523a9.67 9.67 0 0 0-8.153-4.465v-.745c.249 0 .498.008.744.026v-.026a.744.744 0 0 0-.744-.744v-.744a1.489 1.489 0 0 1 1.48 1.34c.307-.508.655-.988 1.043-1.437a2.978 2.978 0 0 0-2.523-1.392v-.744a3.718 3.718 0 0 1 3.04 1.574c.35-.354.73-.681 1.128-.979a5.203 5.203 0 0 0-4.168-2.084h2.884a6.01 6.01 0 0 1 1.898 1.656c.416-.268.856-.51 1.313-.718a7.482 7.482 0 0 0-.781-.938h1.005c.167.209.327.425.48.648.484-.179.979-.324 1.488-.428a2.66 2.66 0 0 0-.134-.22h1.523v.026c.247-.017.496-.026.744-.026v.74Z"/></svg>