<svg xmlns="http://www.w3.org/2000/svg" width="50" height="50"><path style="stroke:none;fill-rule:nonzero;fill:#fff;fill-opacity:1" d="m0 11.809.64-.594c.325.203.665.375 1.02.52l-.168 1.421.371.121.7-1.25c.367.09.742.153 1.128.18l.282 1.402h.386l.282-1.402a6.473 6.473 0 0 0 1.129-.18l.703 1.25.367-.12-.168-1.423a6.586 6.586 0 0 0 1.02-.52l1.054.973.313-.23-.598-1.3c.293-.247.559-.516.805-.805l1.304.593.227-.312-.969-1.051c.2-.324.375-.668.52-1.02l1.422.168.12-.37-1.25-.7c.09-.37.15-.75.176-1.129l1.407-.281v-.39l-1.407-.278a6.794 6.794 0 0 0-.175-1.129l1.246-.703-.117-.367-1.422.164a7.107 7.107 0 0 0-.52-1.016l.969-1.054-.227-.313-1.304.598A6.264 6.264 0 0 0 8.46.457L8.668 0h.3l-.171.379c.191.172.375.355.547.547l1.32-.606.488.676-.984 1.067c.133.222.25.453.355.69l1.442-.167.258.789-1.266.71c.05.25.094.509.121.77l1.422.286v.832l-1.422.285a7.257 7.257 0 0 1-.121.765l1.266.711-.258.793-1.442-.168a6.794 6.794 0 0 1-.355.692l.984 1.066-.488.672-1.32-.605a6.617 6.617 0 0 1-.547.55l.605 1.32-.675.489-1.067-.984c-.223.129-.453.25-.691.351l.168 1.442-.79.257-.714-1.265a6.95 6.95 0 0 1-.766.12l-.285 1.427H3.75l-.285-1.426a7.257 7.257 0 0 1-.766-.121l-.71 1.265-.794-.257.168-1.442a6.761 6.761 0 0 1-.691-.351l-.672.62ZM0 7.32V3.793l1.164.672a3.18 3.18 0 0 0 0 2.183ZM0 1.88A5.55 5.55 0 0 1 3.61.027V2.41A3.193 3.193 0 0 0 1.718 3.5L0 2.508ZM0 9.23v-.628l1.719-.993c.484.575 1.152.961 1.89 1.094v2.379A5.532 5.532 0 0 1 0 9.23Zm4.723 1.852V8.703a3.207 3.207 0 0 0 1.89-1.094l2.063 1.192a5.544 5.544 0 0 1-3.953 2.281ZM9.234 7.84 7.168 6.648a3.18 3.18 0 0 0 0-2.183l2.066-1.192a5.53 5.53 0 0 1 .489 2.282c0 .789-.168 1.566-.489 2.285Zm-.558-5.527L6.613 3.5a3.181 3.181 0 0 0-1.89-1.09V.027A5.557 5.557 0 0 1 8.676 2.31ZM0 6.995l.832-.476a3.45 3.45 0 0 1 0-1.93L0 4.11Zm.07-4.77 1.594.922a3.452 3.452 0 0 1 1.668-.964V.344A5.262 5.262 0 0 0 .07 2.227Zm0 6.657a5.285 5.285 0 0 0 3.262 1.887V8.93a3.459 3.459 0 0 1-1.668-.97ZM5 10.77a5.305 5.305 0 0 0 3.266-1.887L6.668 7.96A3.459 3.459 0 0 1 5 8.93ZM9.098 7.44a5.269 5.269 0 0 0 0-3.77l-1.594.919c.18.633.18 1.3 0 1.93Zm-.832-5.214A5.281 5.281 0 0 0 5 .344v1.84c.648.16 1.223.5 1.668.964ZM4.168 7.5a1.946 1.946 0 0 1 0-3.89c1.074 0 1.941.87 1.941 1.945A1.942 1.942 0 0 1 4.168 7.5Zm0-.277a1.666 1.666 0 1 0-.004-3.333 1.666 1.666 0 0 0 .004 3.333Zm0-.278a1.389 1.389 0 1 1-.004-2.777 1.389 1.389 0 0 1 .004 2.777Zm0-.277a1.112 1.112 0 1 0-.005-2.224 1.112 1.112 0 0 0 .005 2.224Zm10.758 6.273-.223-.832.785-.285.364.785a4.55 4.55 0 0 1 .46-.082l.075-.859h.84l.07.86c.156.019.312.046.46.081l.364-.785.79.285-.227.832c.144.07.277.149.41.235l.605-.61.64.54-.487.695c.109.117.21.238.308.363l.766-.36.422.723-.696.48c.067.15.121.302.168.454l.836-.074.149.824-.813.215c.008.16.008.32 0 .484l.813.211-.149.824-.836-.074a3.706 3.706 0 0 1-.168.453l.696.48-.422.723-.766-.359c-.098.129-.2.25-.308.363l.488.696-.64.539-.606-.606c-.133.086-.27.164-.41.235l.226.828-.789.285-.363-.781a5.668 5.668 0 0 1-.461.078l-.07.863h-.84l-.075-.863a3.787 3.787 0 0 1-.46-.078l-.36.78-.789-.284.223-.828a4.268 4.268 0 0 1-.41-.235l-.602.606-.644-.54.492-.69a3.936 3.936 0 0 1-.309-.368l-.77.363-.417-.726.691-.48a4.486 4.486 0 0 1-.168-.454l-.836.074-.144-.824.812-.21a3.341 3.341 0 0 1 0-.485l-.812-.215.144-.824.836.074c.047-.152.106-.305.168-.453l-.691-.48.418-.723.77.36c.093-.126.198-.25.308-.364l-.492-.696.644-.539.602.61c.132-.086.27-.164.41-.235Zm2.113-.156-.07-.84h-.324l-.07.84c-.305.02-.598.07-.88.152l-.351-.765-.305.113.219.813a3.87 3.87 0 0 0-.77.445l-.593-.598-.25.207.488.688c-.219.207-.41.437-.574.683l-.762-.359-.164.281.695.48a3.732 3.732 0 0 0-.308.84l-.836-.078-.055.32.812.216a3.774 3.774 0 0 0 0 .89l-.816.215.059.32.84-.078c.066.29.171.57.304.836l-.695.485.164.277.762-.36c.164.25.355.481.57.684l-.484.692.25.207.59-.598c.242.176.5.324.773.445l-.223.813.305.11.355-.763c.282.082.575.133.875.153l.07.84h.325l.07-.84c.305-.02.598-.07.88-.153l.35.762.305-.11-.218-.812a4.07 4.07 0 0 0 .77-.445l.593.598.25-.211-.488-.688c.218-.203.41-.433.574-.683l.762.359.164-.277-.692-.48c.133-.27.235-.552.305-.84l.836.077.054-.32-.812-.215a3.774 3.774 0 0 0 0-.89l.816-.215-.054-.32-.844.078a3.76 3.76 0 0 0-.305-.836l.696-.485-.165-.277-.761.36a3.702 3.702 0 0 0-.574-.684l.488-.692-.25-.207-.594.598a4.07 4.07 0 0 0-.77-.445l.22-.813-.305-.11-.352.762a4.056 4.056 0 0 0-.879-.152Zm-.234 4.992a1.112 1.112 0 1 1 .005-2.221 1.112 1.112 0 0 1-.005 2.221Zm0-.277c.46 0 .836-.375.836-.832a.834.834 0 1 0-.836.832Zm0-2.5a.697.697 0 0 1-.696-.695.697.697 0 0 1 1.39 0 .697.697 0 0 1-.694.695Zm1.18.488a.696.696 0 1 1 .984-.02.697.697 0 0 1-.985.02Zm.488 1.18c0-.387.308-.695.695-.695.383 0 .691.308.691.695a.69.69 0 0 1-.691.691.691.691 0 0 1-.695-.691Zm-.489 1.18a.697.697 0 0 1 .985-.02.7.7 0 0 1 .015.985.696.696 0 0 1-1-.965Zm-1.18.484c.384 0 .696.313.696.695a.697.697 0 0 1-.695.696.697.697 0 0 1-.696-.696c0-.382.313-.695.696-.695Zm-1.179-.484a.692.692 0 0 1 .02.98.697.697 0 0 1-.985.02.7.7 0 0 1-.015-.985.689.689 0 0 1 .98-.015Zm-.484-1.18a.694.694 0 0 1-.696.691.694.694 0 1 1 0-1.386c.383 0 .696.308.696.695Zm.484-1.18a.696.696 0 0 1-1-.965.697.697 0 0 1 .984-.02.693.693 0 0 1 .016.985Zm1.18-.765a.415.415 0 1 0 0-.832.412.412 0 0 0-.414.414c0 .23.183.418.414.418Zm1.375.57a.419.419 0 0 0 .59.02.419.419 0 0 0 .02-.59.414.414 0 0 0-.587-.02.415.415 0 0 0-.023.59Zm.57 1.375c0 .23.188.414.418.414.23 0 .414-.184.414-.414a.415.415 0 1 0-.832 0Zm-.57 1.375a.414.414 0 0 0-.02.586.415.415 0 1 0 .61-.567.419.419 0 0 0-.59-.019Zm-1.375.566a.415.415 0 0 0-.414.418.415.415 0 1 0 .832 0 .418.418 0 0 0-.418-.418Zm-1.375-.566a.419.419 0 0 0-.59-.023.419.419 0 0 0-.02.59.415.415 0 1 0 .61-.567Zm-.57-1.375a.415.415 0 1 0-.833 0c0 .23.188.414.418.414.23 0 .414-.184.414-.414Zm.57-1.375a.415.415 0 1 0-.566-.61.414.414 0 0 0-.024.587c.16.168.422.18.59.023Zm17.976-.965c.121.008.242.024.36.043l.21-.543.27-.508.54.137v.57l-.071.575c.117.039.226.082.34.128l.336-.476.382-.426.493.262-.141.555-.207.543c.102.062.203.132.3.207l.442-.387.477-.317.41.371-.266.504-.332.473c.086.09.168.184.246.277l.512-.27.535-.206.317.457-.375.433-.434.391c.059.106.117.211.168.32l.562-.136.57-.07.2.519-.469.328-.515.273c.03.118.062.235.086.356h.582l.566.07.066.551-.53.207-.567.14c.004.122.004.243 0 .364l.566.14.531.208-.066.55-.566.07h-.582c-.024.122-.055.239-.086.356l.511.274.473.328-.2.52-.57-.071-.562-.14c-.05.113-.11.218-.168.324l.434.39.375.434-.317.453-.535-.203-.512-.274c-.078.098-.16.192-.246.282l.332.472.266.504-.41.371-.477-.32-.441-.383c-.098.074-.2.14-.301.207l.207.543.14.555-.492.262-.382-.43-.336-.473c-.114.043-.223.09-.34.13l.07.57v.574l-.539.136-.27-.507-.21-.543c-.118.02-.239.03-.36.043l-.074.578-.137.554h-.554l-.141-.554-.07-.578c-.121-.012-.242-.024-.364-.043l-.207.543-.27.507-.542-.136v-.575l.07-.57a6.03 6.03 0 0 1-.34-.129l-.336.473-.382.43-.493-.262.141-.555.207-.543a3.104 3.104 0 0 1-.297-.207l-.445.383-.477.32-.41-.37.27-.509.328-.468a5.12 5.12 0 0 1-.242-.278l-.512.27-.535.203-.32-.453.374-.434.434-.39c-.059-.106-.117-.211-.168-.325l-.562.141-.567.07-.2-.52.47-.327.511-.274c-.03-.117-.062-.234-.086-.355h-.578l-.57-.07-.066-.551.535-.207.562-.141a5.633 5.633 0 0 1 0-.363l-.562-.14-.535-.208.066-.55.57-.071h.578c.024-.121.055-.238.086-.356l-.511-.273-.47-.328.2-.52.567.07.562.137c.05-.109.11-.214.168-.32l-.434-.39-.375-.434.32-.457.536.207.512.27c.078-.094.156-.188.242-.278l-.328-.473-.27-.504.41-.37.477.316.445.387c.094-.075.195-.145.297-.207l-.207-.543-.137-.555.489-.262.382.426.336.476c.114-.043.227-.09.344-.128l-.07-.575v-.57l.539-.137.27.508.206.543c.121-.02.243-.035.364-.043l.07-.578.14-.555h.555l.137.555Zm-1.988.469c-.254.078-.5.168-.734.281l-.489-.691-.191-.215-.121.066.07.278.3.789a5.292 5.292 0 0 0-.648.445l-.64-.555-.238-.16-.102.094.133.254.484.691a5.07 5.07 0 0 0-.527.594l-.746-.395-.266-.101-.082.113.188.215.628.57c-.14.223-.261.453-.367.696l-.816-.203-.285-.036-.051.133.234.16.746.403a5.043 5.043 0 0 0-.187.761h-.844l-.285.036-.016.14.266.102.82.207c-.02.261-.02.523 0 .785l-.82.207-.266.102.016.14.285.031.844.004c.043.258.105.512.187.762l-.746.398-.234.165.05.132.286-.035.816-.203c.106.242.227.473.367.695l-.628.57-.188.215.082.114.266-.102.746-.394c.16.21.336.41.527.593l-.484.692-.133.254.102.093.238-.16.64-.554c.204.164.422.312.649.445l-.3.789-.071.277.12.063.192-.211.489-.691c.234.109.48.203.734.277l-.102.84v.285l.137.035.133-.254.309-.789c.253.05.511.082.777.094l.105.84.07.277h.137l.07-.277.106-.84c.262-.012.524-.043.781-.094l.305.79.133.253.137-.035v-.285l-.102-.84c.254-.074.5-.168.734-.277l.489.69.191.212.121-.063-.07-.277-.297-.789c.227-.133.441-.281.645-.445l.64.554.238.16.106-.093-.137-.254-.48-.692c.187-.183.367-.382.527-.593l.746.394.266.102.078-.113-.188-.215-.628-.57c.14-.223.261-.454.367-.696l.82.203.281.035.051-.133-.234-.164-.746-.398c.082-.25.144-.504.187-.762l.844-.004.285-.03.016-.142-.266-.101-.82-.207c.02-.262.02-.524 0-.785l.82-.207.266-.102-.016-.14-.285-.036h-.844a5.044 5.044 0 0 0-.187-.761l.746-.403.234-.16-.05-.133-.282.035-.82.204a5.133 5.133 0 0 0-.367-.696l.628-.57.188-.215-.078-.113-.266.101-.746.395c-.164-.211-.34-.41-.531-.594l.484-.691.137-.254-.106-.094-.234.16-.644.555a5.248 5.248 0 0 0-.645-.445l.3-.79.071-.277-.125-.066-.191.215-.489.691a4.736 4.736 0 0 0-.734-.277l.102-.84v-.285l-.137-.035-.133.254-.305.789a5.143 5.143 0 0 0-.78-.094l-.106-.84-.07-.277h-.137l-.07.277-.106.84a5.034 5.034 0 0 0-.777.094l-.31-.79-.132-.253-.137.035v.285Zm-.813.785A4.86 4.86 0 0 1 32.777 15v.832a4.054 4.054 0 0 0-1.754.473Zm.391.117.137.242c.433-.199.894-.32 1.367-.367v-.277a4.568 4.568 0 0 0-1.504.402Zm-.629.024.418.722c-.52.325-.96.762-1.285 1.282l-.723-.415a4.87 4.87 0 0 1 1.59-1.59Zm-.094.394c-.425.301-.8.676-1.101 1.102l.242.136a4.417 4.417 0 0 1 1-1Zm-1.632 1.434h-.004l.722.418c-.289.539-.449 1.14-.468 1.754h-.836a4.85 4.85 0 0 1 .586-2.172Zm.113.39c-.219.473-.356.98-.402 1.504h.277a4.38 4.38 0 0 1 .367-1.367ZM28.059 20h.832c.023.613.18 1.21.468 1.754l-.718.418A4.81 4.81 0 0 1 28.059 20Zm.293.277a4.59 4.59 0 0 0 .402 1.508l.242-.14a4.38 4.38 0 0 1-.367-1.368Zm.425 2.133.723-.414c.324.52.766.957 1.285 1.281l-.418.723a4.87 4.87 0 0 1-1.59-1.59Zm.395.094c.3.426.676.8 1.101 1.101l.141-.242a4.264 4.264 0 0 1-1-1Zm1.433 1.637.418-.723c.543.289 1.141.45 1.754.473v.832a4.911 4.911 0 0 1-2.172-.582Zm.391-.118c.473.22.984.356 1.504.403v-.278a4.277 4.277 0 0 1-1.367-.367Zm2.059.7v-.836a3.982 3.982 0 0 0 1.754-.469l.418.723c-.668.359-1.41.558-2.172.582Zm.277-.297a4.59 4.59 0 0 0 1.508-.403l-.14-.242c-.43.2-.895.32-1.368.367ZM35.465 24l-.414-.723c.52-.324.957-.761 1.281-1.28l.723.413a4.832 4.832 0 0 1-1.59 1.59Zm.094-.395c.43-.3.8-.675 1.101-1.101l-.242-.137a4.339 4.339 0 0 1-1 1Zm1.636-1.433-.722-.418c.289-.54.453-1.14.472-1.754h.832a4.81 4.81 0 0 1-.582 2.172Zm-.117-.39c.219-.473.356-.985.402-1.505h-.277a4.277 4.277 0 0 1-.367 1.368Zm.7-2.06h-.837a3.982 3.982 0 0 0-.468-1.753l.722-.418c.36.668.559 1.414.582 2.172Zm-.298-.277a4.496 4.496 0 0 0-.402-1.508l-.242.141c.2.434.32.895.367 1.367Zm-.425-2.133-.723.415a4.014 4.014 0 0 0-1.281-1.282l.414-.722a4.832 4.832 0 0 1 1.59 1.59Zm-.395-.093a4.54 4.54 0 0 0-1.101-1.102l-.137.242c.387.274.723.614 1 1ZM33.055 15c.761.02 1.504.219 2.172.582l-.418.723c-.54-.29-1.141-.45-1.754-.47Zm1.785.695a4.59 4.59 0 0 0-1.508-.402v.281c.473.043.934.168 1.367.364l.137-.243Zm-1.922 5.973a1.807 1.807 0 1 1-.003-3.614 1.807 1.807 0 0 1 .003 3.614Zm0-.277a1.53 1.53 0 0 0 0-3.059c-.844 0-1.527.684-1.527 1.527a1.53 1.53 0 0 0 1.527 1.532ZM19.102 0h7.906l-.102.145c.078.097.157.19.227.296L28.21.04l.277.48-.886.727c.05.113.101.23.144.348l1.14-.11.145.536-1.047.476c.024.121.04.246.051.371l1.133.188v.554l-1.133.192c-.012.125-.027.25-.05.37l1.046.477-.144.536-1.14-.114a4.628 4.628 0 0 1-.145.348l.886.73-.277.48-1.078-.401c-.07.101-.149.203-.227.296l.664.934-.39.395-.934-.668a5.42 5.42 0 0 1-.297.226l.403 1.078-.48.278-.731-.887c-.114.05-.227.101-.348.144l.113 1.141-.535.145-.476-1.043c-.125.02-.247.035-.372.046l-.191 1.133h-.555l-.187-1.133a5.661 5.661 0 0 1-.371-.046l-.477 1.043-.535-.145.11-1.14a5.424 5.424 0 0 1-.348-.145l-.727.887-.484-.278.406-1.078a4.247 4.247 0 0 1-.297-.226l-.937.668-.39-.395.663-.934a8.492 8.492 0 0 1-.226-.296l-1.075.402-.277-.48.883-.731a4.61 4.61 0 0 1-.14-.348l-1.141.114-.145-.536 1.043-.476a6.019 6.019 0 0 1-.047-.371l-1.133-.192v-.554l1.133-.188c.012-.125.027-.25.047-.37l-1.043-.477.145-.536 1.14.11c.043-.117.09-.235.14-.348L17.626.52l.277-.48 1.075.401c.074-.105.148-.203.23-.296Zm.34 0 .113.164a4.762 4.762 0 0 0-.47.61L18.028.374l-.047.082.875.719c-.12.23-.218.469-.296.71l-1.125-.109-.024.09 1.027.469c-.05.25-.085.508-.097.766l-1.117.187v.09l1.117.187c.012.262.043.516.098.766l-1.028.469.024.09 1.125-.11c.078.242.175.48.296.711l-.875.719.047.082 1.059-.398c.14.214.297.421.469.609l-.657.922.067.066.918-.656c.191.172.398.328.613.469l-.398 1.058.082.047.718-.875c.227.117.465.219.711.297L21.5 8.957l.09.023.469-1.027c.25.05.503.086.761.098l.188 1.117h.094l.187-1.117c.258-.012.516-.047.762-.098l.469 1.027.09-.023-.11-1.125c.246-.078.484-.18.71-.297l.724.875.078-.047-.395-1.058c.215-.14.418-.297.61-.47l.921.657.063-.066-.656-.922c.172-.188.332-.395.468-.61l1.063.399.043-.082-.871-.719a5.36 5.36 0 0 0 .297-.71l1.125.109.023-.09-1.031-.469c.055-.25.086-.504.101-.766l1.118-.187v-.09l-1.118-.187a4.834 4.834 0 0 0-.101-.762l1.031-.469-.023-.09-1.125.11a4.958 4.958 0 0 0-.297-.711l.87-.723-.042-.078-1.063.394a4.682 4.682 0 0 0-.468-.609L26.672 0Zm-.395 3.75h1.969a2.081 2.081 0 0 0 1.625 1.625V7.34a4.03 4.03 0 0 1-3.594-3.59ZM20.793 0h1.848v1.293c-.82.168-1.461.805-1.625 1.625h-1.97A4.034 4.034 0 0 1 20.794 0Zm2.68 7.34V5.375a2.092 2.092 0 0 0 1.625-1.625h1.965a4.03 4.03 0 0 1-3.59 3.59ZM25.316 0a4.022 4.022 0 0 1 1.747 2.918h-1.965a2.086 2.086 0 0 0-1.625-1.625V0Zm-5.945 4.027A3.747 3.747 0 0 0 22.36 7.02V5.59a2.377 2.377 0 0 1-1.562-1.563ZM21.336 0a3.754 3.754 0 0 0-1.965 2.64h1.426a2.369 2.369 0 0 1 1.562-1.562V0Zm2.414 7.02a3.751 3.751 0 0 0 2.992-2.993h-1.43A2.369 2.369 0 0 1 23.75 5.59ZM24.773 0H23.75v1.078a2.36 2.36 0 0 1 1.563 1.563h1.43A3.759 3.759 0 0 0 24.772 0Zm-1.718 4.723a1.388 1.388 0 0 1 0-2.778 1.388 1.388 0 1 1 0 2.778Zm0-.278a1.112 1.112 0 1 0 .003-2.221 1.112 1.112 0 0 0-.003 2.221ZM17.566 28.91l-1.48-1.105.832-1.446 1.7.735a3.34 3.34 0 0 1 1.167-.676L20 24.582h1.668l.215 1.836c.43.145.828.371 1.164.676l1.7-.735.835 1.446-1.484 1.105c.093.445.093.902 0 1.348l1.484 1.101-.836 1.446-1.7-.73c-.335.3-.733.53-1.163.675l-.215 1.832H20l-.215-1.832a3.401 3.401 0 0 1-1.168-.676l-1.699.73-.832-1.445 1.48-1.101a3.403 3.403 0 0 1 0-1.348Zm4.063-2.277-.207-1.774h-1.176l-.21 1.774c-.52.14-.985.414-1.36.785l-1.637-.707-.59 1.02 1.43 1.066a3.144 3.144 0 0 0 0 1.57l-1.43 1.067.59 1.02 1.637-.704c.379.375.847.645 1.363.785l.207 1.77h1.176l.207-1.77c.523-.14.988-.418 1.363-.785l1.637.703.586-1.02-1.43-1.066a3.057 3.057 0 0 0 0-1.57l1.43-1.067-.586-1.02-1.637.708a3.091 3.091 0 0 0-1.363-.785Zm-.797 4.617a1.666 1.666 0 1 1 .004-3.333 1.666 1.666 0 0 1-.004 3.333Zm0-.277a1.389 1.389 0 1 0 .004-2.778 1.389 1.389 0 0 0-.004 2.778Zm.492 9.406.59.008.07.27-.504.304a2.9 2.9 0 0 1 .036.266l.566.164v.277l-.566.16c-.008.09-.02.18-.036.27l.504.304-.07.266-.59.012a6.708 6.708 0 0 1-.101.25l.41.422-.14.242-.575-.145a2.84 2.84 0 0 1-.164.215l.289.516-.195.195-.52-.285-.21.164.14.574-.238.137-.426-.41c-.082.035-.164.07-.25.101l-.008.594-.27.07-.304-.508a2.9 2.9 0 0 1-.266.036l-.164.57h-.277l-.16-.57a3.18 3.18 0 0 1-.27-.035l-.305.507-.265-.07-.012-.594a6.708 6.708 0 0 1-.25-.101l-.422.41-.242-.137.144-.574c-.074-.055-.144-.11-.214-.164l-.516.285-.195-.195.285-.516c-.055-.07-.11-.14-.164-.215l-.574.145-.137-.242.41-.422c-.04-.082-.07-.168-.102-.25l-.593-.012-.07-.27.507-.3a3.18 3.18 0 0 1-.035-.27l-.57-.16v-.277l.57-.164a2.9 2.9 0 0 1 .035-.266l-.508-.309.07-.265.594-.008c.032-.086.063-.168.102-.25l-.41-.426.137-.242.574.144c.054-.07.11-.144.164-.21l-.285-.52.195-.195.516.285c.07-.055.14-.11.214-.16l-.144-.575.242-.14.422.41c.082-.035.168-.07.25-.102l.012-.59.265-.074.305.508c.09-.015.18-.027.27-.035l.16-.566h.277l.164.566c.09.008.18.02.266.035l.304-.508.27.075.008.59c.086.03.168.066.25.101l.426-.41.238.14-.14.575c.07.05.14.105.21.16l.52-.285.195.195-.29.52c.06.066.114.14.165.21l.574-.144.14.242-.41.426c.036.082.071.164.102.25Zm-6.183 1.148a3.054 3.054 0 1 0 6.108.001 3.054 3.054 0 0 0-6.108 0Zm3.761-1.507-.414.726a.799.799 0 0 0-.586 0l-.418-.726c.45-.211.97-.211 1.418 0Zm.243.14c.41.281.668.735.71 1.23h-.835a.844.844 0 0 0-.293-.507Zm-1.903 0 .422.723a.826.826 0 0 0-.293.508h-.836c.04-.496.3-.95.707-1.23Zm-.707 1.508h.836a.84.84 0 0 0 .29.504l-.415.726a1.657 1.657 0 0 1-.71-1.23Zm.95 1.367.417-.722a.83.83 0 0 0 .582 0l.418.722a1.64 1.64 0 0 1-1.418 0Zm1.66-.137-.418-.726a.846.846 0 0 0 .293-.504h.835a1.67 1.67 0 0 1-.71 1.23Zm-.649-2.726a1.42 1.42 0 0 0-.601 0l.144.254c.102-.016.207-.016.313 0Zm.723.418-.149.25a1.1 1.1 0 0 1 .157.27h.293a1.417 1.417 0 0 0-.301-.52Zm-2.047 0a1.364 1.364 0 0 0-.3.52h.288c.04-.094.094-.188.156-.27Zm-.3 1.355c.058.192.163.371.3.52l.144-.25a1.156 1.156 0 0 1-.156-.27Zm1.023.938c.195.047.402.047.601 0l-.144-.254c-.106.016-.211.016-.313 0Zm1.324-.418c.136-.149.238-.328.3-.52h-.292c-.04.098-.09.188-.157.27Zm-1.578-.938a.554.554 0 1 1 1.108 0 .554.554 0 0 1-1.108 0Zm.277 0c0 .153.125.278.277.278a.278.278 0 0 0 .278-.278.278.278 0 0 0-.278-.277.278.278 0 0 0-.277.277Zm2.082 0a.554.554 0 1 1 0 0Zm-.902 1.563a.556.556 0 0 1 .554.965.555.555 0 0 1-.757-.203.56.56 0 0 1 .203-.762Zm-1.805 0a.56.56 0 0 1 .203.762.56.56 0 0 1-.762.203.555.555 0 0 1-.203-.758.562.562 0 0 1 .762-.207Zm-.902-1.563c0 .309-.25.555-.559.555a.554.554 0 1 1 0-1.11c.309 0 .559.25.559.555Zm.902-1.562a.56.56 0 0 1-.762-.203.56.56 0 0 1 .203-.762.56.56 0 0 1 .762.203.56.56 0 0 1-.203.762Zm1.805 0a.56.56 0 0 1-.203-.762.555.555 0 1 1 .96.559.555.555 0 0 1-.757.203Zm1.18 1.562c0 .153.124.278.277.278a.278.278 0 0 0 .277-.278.278.278 0 0 0-.277-.277.278.278 0 0 0-.278.277Zm-1.044 1.805a.28.28 0 0 0-.136.367c.066.14.23.203.367.137a.278.278 0 0 0 .14-.367.282.282 0 0 0-.37-.137Zm-2.082 0a.278.278 0 0 0-.297.469.278.278 0 0 0 .297-.469Zm-1.043-1.805a.276.276 0 0 0-.277-.277.278.278 0 0 0-.277.277c0 .153.125.278.277.278a.276.276 0 0 0 .277-.278Zm1.043-1.804a.273.273 0 0 0 .137-.368.276.276 0 0 0-.367-.136.276.276 0 0 0-.137.367c.063.14.227.203.367.137Zm2.082 0a.278.278 0 1 0 .301-.47.278.278 0 0 0-.383.087.274.274 0 0 0 .082.383Zm14.418-8.57-.109-1.141.805-.215.472 1.043c.317-.059.637-.102.965-.125l.188-1.133h.832l.191 1.133c.324.023.645.066.961.125l.473-1.043.804.215-.109 1.14c.309.11.605.23.895.375l.73-.886.723.418-.403 1.074c.266.18.524.379.766.59l.937-.668.586.59-.664.933c.211.246.407.5.59.77l1.074-.403.418.723-.886.727c.14.292.265.59.37.898l1.141-.113.22.804-1.048.477c.059.312.106.637.125.96l1.133.188v.836l-1.133.188a7.883 7.883 0 0 1-.125.96l1.047.477-.219.805-1.14-.11c-.106.305-.23.602-.371.895l.886.73-.418.72-1.074-.403a8.72 8.72 0 0 1-.59.77l.664.933-.586.59-.937-.668c-.242.211-.5.41-.766.59L41.473 47l-.723.414-.73-.887c-.29.145-.59.27-.895.375l.11 1.141-.805.215-.473-1.043a8.733 8.733 0 0 1-.96.125l-.192 1.133h-.832l-.188-1.133a8.928 8.928 0 0 1-.965-.125l-.472 1.043-.805-.215.11-1.14a7.463 7.463 0 0 1-.895-.376l-.73.887-.723-.414.402-1.078a7.979 7.979 0 0 1-.766-.59l-.937.668-.586-.59.664-.933a8.72 8.72 0 0 1-.59-.77l-1.074.402-.418-.718.887-.73a8.465 8.465 0 0 1-.371-.895l-1.141.109-.215-.805 1.043-.476a8.733 8.733 0 0 1-.125-.961l-1.133-.188v-.836l1.133-.187c.024-.324.067-.649.125-.961l-1.043-.477.215-.804 1.14.113c.106-.309.231-.605.372-.898L28 34.668l.418-.723 1.074.403c.184-.27.38-.524.59-.77l-.664-.933.586-.59.937.668c.243-.211.5-.41.766-.59l-.402-1.074.722-.418.73.886c.29-.14.59-.265.895-.375Zm.293.195a8.12 8.12 0 0 0-1.258.523l-.722-.875-.32.188.398 1.062a8.263 8.263 0 0 0-1.082.828l-.922-.66-.262.262.66.926a7.73 7.73 0 0 0-.832 1.082l-1.062-.399-.184.32.875.723c-.21.402-.386.824-.523 1.258l-1.129-.11-.098.36 1.036.469a8.264 8.264 0 0 0-.18 1.351l-1.117.188v.367l1.117.187c.023.461.082.914.18 1.352l-1.036.473.098.355 1.129-.11c.137.438.312.86.523 1.262l-.875.723.184.317 1.062-.395c.247.383.524.742.832 1.082l-.66.922.262.262.922-.66c.336.304.7.581 1.082.831l-.398 1.063.32.184.723-.875c.402.21.824.386 1.257.523l-.11 1.129.36.094.47-1.032c.437.098.89.157 1.35.176l.188 1.121h.371l.188-1.12c.46-.02.914-.079 1.351-.177l.469 1.032.36-.098-.11-1.125a8.12 8.12 0 0 0 1.258-.523l.722.875.32-.184-.398-1.063a7.964 7.964 0 0 0 1.082-.832l.926.66.258-.261-.66-.922c.308-.34.586-.7.832-1.082l1.062.395.184-.317-.875-.723c.21-.406.387-.828.523-1.261l1.13.11.097-.356-1.035-.473c.097-.441.156-.895.18-1.352l1.117-.187v-.367l-1.117-.188a8.264 8.264 0 0 0-.18-1.351l1.035-.47-.098-.358-1.129.109a7.598 7.598 0 0 0-.523-1.262l.875-.719-.184-.32-1.062.399a7.73 7.73 0 0 0-.832-1.082l.66-.926-.258-.262-.926.66a8.263 8.263 0 0 0-1.082-.828l.399-1.062-.32-.188-.723.875a8.452 8.452 0 0 0-1.258-.523l.11-1.125-.36-.098-.469 1.031a7.905 7.905 0 0 0-1.351-.176l-.188-1.12h-.37l-.188 1.12c-.461.02-.914.082-1.352.176l-.469-1.031-.36.098Zm.637 6.96c-.184.462-.184.977 0 1.442l-4.703 2.715a7.319 7.319 0 0 1-.852-3.438c0-1.242.309-2.41.852-3.437l4.703 2.715Zm.277-.484-4.703-2.715a7.36 7.36 0 0 1 5.953-3.437v5.43a1.968 1.968 0 0 0-1.25.722Zm0 2.406c.309.391.758.653 1.25.723v5.43a7.351 7.351 0 0 1-5.953-3.438Zm1.809.723c.492-.07.941-.332 1.25-.723l4.703 2.715a7.346 7.346 0 0 1-5.953 3.438Zm1.527-1.203c.184-.465.184-.98 0-1.445l4.703-2.715a7.319 7.319 0 0 1 .852 3.437 7.319 7.319 0 0 1-.852 3.438Zm-.277-1.926a1.968 1.968 0 0 0-1.25-.722v-5.43a7.355 7.355 0 0 1 5.953 3.437Zm-7.922-1.847a7.055 7.055 0 0 0-.691 3.05c0 1.055.234 2.098.691 3.051l4.25-2.457a2.268 2.268 0 0 1 0-1.187Zm.555-.961 4.254 2.457a2.21 2.21 0 0 1 1.027-.598v-4.91a7.087 7.087 0 0 0-5.281 3.05Zm0 8.023a7.087 7.087 0 0 0 5.281 3.05v-4.91a2.203 2.203 0 0 1-1.027-.593Zm6.394 3.05a7.08 7.08 0 0 0 5.282-3.05l-4.25-2.453c-.286.285-.641.492-1.032.594Zm5.84-4.01a7.107 7.107 0 0 0 0-6.102l-4.254 2.457c.11.386.11.8 0 1.187Zm-.558-7.063a7.08 7.08 0 0 0-5.282-3.051v4.91c.395.102.75.313 1.032.598Zm-5.836 5.261c-.692 0-1.25-.558-1.25-1.25a1.251 1.251 0 1 1 1.25 1.25Zm0-.277a.97.97 0 0 0 .968-.973.972.972 0 1 0-.968.973ZM0 33.7l.383.054.66.316c.121-.164.254-.32.395-.472l-.422-.594-.239-.711.43-.355.656.351.512.523a5.59 5.59 0 0 1 .535-.308l-.2-.703.024-.746.524-.192.5.559.3.664c.2-.047.403-.082.61-.106l.055-.73.277-.695h.555l.277.695.059.73c.207.024.406.06.605.106l.3-.668.5-.555.524.192.024.746-.2.703c.188.094.364.195.536.309l.511-.524.66-.352.426.356-.234.71-.426.599c.14.148.274.304.395.468l.66-.316.742-.106.277.48-.464.587-.602.414c.082.191.152.383.21.582l.727-.074.731.152.098.547-.637.394-.707.184c.012.207.012.41 0 .617l.707.18.637.394-.098.547-.73.153-.727-.07c-.059.199-.129.39-.211.578l.602.414.464.59-.277.48-.742-.11-.66-.312a5.62 5.62 0 0 1-.395.473l.426.593.234.707-.425.36-.66-.356-.512-.52a5.59 5.59 0 0 1-.535.31l.199.703-.024.746-.523.191-.5-.559-.3-.664c-.2.047-.4.082-.606.106l-.059.73-.277.696H5l-.277-.696-.055-.73a5.37 5.37 0 0 1-.61-.106l-.3.664-.5.559-.524-.191-.023-.746.2-.704a5.59 5.59 0 0 1-.536-.308l-.512.52-.656.355-.43-.36.239-.707.421-.597a4.598 4.598 0 0 1-.394-.473l-.66.316-.383.06v-1.138l.43-.297a4.854 4.854 0 0 1-.211-.578L0 38.758V37.53h.008a5.422 5.422 0 0 1 0-.617H0v-1.227l.219.024c.058-.2.133-.395.21-.582L0 34.832Zm0 .26v.54l.781.535c-.152.309-.27.637-.355.973L0 35.965v.66l.305.078a5.131 5.131 0 0 0 0 1.04L0 37.815v.66l.426-.038c.082.335.203.66.355.972L0 39.945v.54l.246-.036.887-.426c.195.286.418.551.668.793l-.574.801-.141.426.168.145.398-.211.692-.707c.277.203.578.375.894.52l-.261.948.011.45.207.078.301-.336.406-.899c.336.094.676.157 1.02.18l.078.984.168.414h.223l.164-.414.078-.984a5.31 5.31 0 0 0 1.02-.18l.406.899.3.332.207-.075.016-.449-.266-.949c.317-.14.618-.316.895-.52l.691.708.399.21.168-.144-.137-.426-.578-.8c.25-.243.473-.508.668-.794l.887.426.445.063.113-.192-.281-.351-.813-.559c.157-.308.274-.637.356-.972l.98.097.442-.094.039-.218-.383-.239-.957-.242c.04-.347.04-.695 0-1.039l.957-.246.383-.234-.04-.22-.44-.093-.981.098a4.754 4.754 0 0 0-.356-.973l.817-.558.277-.352-.113-.191-.441.062-.891.426a5.168 5.168 0 0 0-.668-.793l.574-.8.14-.43-.167-.141-.399.21-.691.704a5.07 5.07 0 0 0-.895-.516l.266-.949-.016-.45-.207-.077-.3.336-.407.898a5.025 5.025 0 0 0-1.02-.18l-.077-.984-.164-.418h-.223L5 31.25l-.078.984a4.812 4.812 0 0 0-1.02.18l-.406-.898-.3-.332-.208.074-.011.449.261.95c-.316.14-.617.312-.894.515l-.692-.703-.398-.211-.168.14.14.43.575.8c-.25.243-.473.505-.668.794l-.887-.426L0 33.957Zm5.277 3.817a.554.554 0 1 1 0-1.11.554.554 0 0 1 0 1.11Zm0-.277a.278.278 0 0 0 .278-.277.278.278 0 0 0-.278-.278.278.278 0 0 0-.277.278c0 .152.125.277.277.277Zm0-3.61a.558.558 0 0 1 0-1.113c.309 0 .555.25.555.555a.555.555 0 0 1-.555.559Zm3.332 3.333c0-.309.25-.555.559-.555a.554.554 0 1 1 0 1.11.558.558 0 0 1-.559-.555Zm-3.332 3.332c.309 0 .555.25.555.554a.555.555 0 1 1-1.11 0c0-.304.25-.554.555-.554Zm-3.332-3.332a.557.557 0 0 1-1.113 0c0-.309.25-.555.559-.555.304 0 .554.246.554.555Zm3.332-3.614a.276.276 0 0 0 .278-.277.278.278 0 0 0-.278-.277.278.278 0 0 0-.277.277c0 .156.125.277.277.277Zm3.614 3.614c0 .152.12.277.277.277a.278.278 0 0 0 .277-.277.278.278 0 0 0-.277-.278.276.276 0 0 0-.277.278Zm-3.614 3.609a.28.28 0 0 0 0 .559.28.28 0 0 0 0-.559Zm-3.609-3.61a.28.28 0 0 0-.559 0 .28.28 0 0 0 .559 0Zm.465 3.145a1.667 1.667 0 0 1-.106-2.355 1.66 1.66 0 0 1 2.352-.11c.684.621.73 1.672.11 2.356a1.67 1.67 0 0 1-2.356.11Zm0-6.289a1.671 1.671 0 0 1 2.355-.11 1.667 1.667 0 1 1-2.355.11Zm6.289 0a1.668 1.668 0 1 1-2.246 2.464 1.668 1.668 0 0 1 2.246-2.464Zm0 6.29a1.667 1.667 0 0 1-2.465-2.247 1.664 1.664 0 0 1 2.356-.11 1.67 1.67 0 0 1 .109 2.356Zm-2.164-4.126c.535.551 1.414.567 1.965.031a1.389 1.389 0 1 0-1.93-1.996 1.392 1.392 0 0 0-.035 1.965Zm0 1.961a1.389 1.389 0 0 0-.031 1.965c.53.55 1.41.566 1.964.035.551-.535.567-1.414.032-1.965a1.392 1.392 0 0 0-1.965-.035Zm-1.961 0A1.389 1.389 0 1 0 2.3 40.135a1.389 1.389 0 0 0 1.996-1.932Zm0-1.96c.55-.536.566-1.415.031-1.966a1.38 1.38 0 0 0-1.96-.035 1.385 1.385 0 0 0-.036 1.965c.531.55 1.41.566 1.965.035Zm32.07-34.087-.012-.578.266-.074.285.512c.149-.032.301-.051.453-.063l.141-.562h.277l.141.562c.152.012.309.031.453.063l.285-.512.266.074-.008.582c.145.047.285.106.422.172l.406-.418.238.14-.16.56c.125.085.246.179.364.277l.5-.297.195.195-.3.5c.1.113.194.234.276.36l.563-.157.14.238-.417.407c.066.136.125.277.172.422l.585-.012.067.27-.508.285c.027.148.05.296.063.453l.562.14v.278l-.562.14a3.512 3.512 0 0 1-.063.453l.512.286-.074.265-.583-.008a3.292 3.292 0 0 1-.171.422l.418.403-.141.242-.559-.16c-.086.125-.18.246-.277.363l.297.5-.195.195-.5-.3a3.44 3.44 0 0 1-.364.277l.16.562-.238.137-.406-.418a3.998 3.998 0 0 1-.422.176l.008.582-.266.07-.285-.508c-.148.028-.3.051-.453.059l-.14.566H37.5l-.14-.566a2.935 2.935 0 0 1-.454-.059l-.285.512-.266-.074.008-.582a3.998 3.998 0 0 1-.422-.176l-.402.418-.242-.137.16-.558a5.011 5.011 0 0 1-.363-.282l-.5.301-.196-.195.301-.5a3.44 3.44 0 0 1-.277-.363l-.563.16-.136-.242.418-.403a2.83 2.83 0 0 1-.176-.422l-.586.008-.066-.265.507-.286c-.027-.148-.05-.3-.062-.453l-.563-.14v-.278l.563-.14c.012-.157.031-.309.062-.453l-.511-.286.074-.27.582.013a2.83 2.83 0 0 1 .176-.422l-.418-.407.136-.238.559.16c.086-.129.18-.25.277-.363l-.297-.5.196-.195.5.3a3.44 3.44 0 0 1 .363-.277l-.16-.562.242-.14.402.417c.137-.066.278-.125.422-.172Zm1.274 7.29a3.612 3.612 0 1 0-.005-7.224 3.612 3.612 0 0 0 .005 7.223Zm0-1.25a2.364 2.364 0 0 1-2.364-2.364 2.362 2.362 0 1 1 2.363 2.363Zm0-.278a2.085 2.085 0 1 0-.006-4.17 2.085 2.085 0 0 0 .006 4.17Zm0-1.113a.973.973 0 0 1 0-1.945c.535 0 .968.437.968.972a.97.97 0 0 1-.968.973Zm0-.278a.691.691 0 0 0 .691-.695.69.69 0 0 0-.691-.691.691.691 0 0 0-.696.691c0 .387.309.695.696.695Zm0-1.945a.28.28 0 0 1-.282-.277.28.28 0 0 1 .559 0 .278.278 0 0 1-.277.277Zm1.25 1.25c0-.152.12-.277.277-.277.152 0 .277.125.277.277a.276.276 0 0 1-.277.277.273.273 0 0 1-.277-.277Zm-1.25 1.25a.28.28 0 1 1 0 0Zm-1.25-1.25a.277.277 0 0 1-.282.277.276.276 0 0 1-.277-.277.28.28 0 0 1 .559 0Zm6.656 7.473-.25-.543.226-.164.438.406c.055-.024.113-.043.172-.059l.117-.586h.277l.118.586c.058.016.117.035.171.055l.438-.402.226.164-.25.543a.782.782 0 0 1 .11.144l.59-.07.086.266-.52.293a1.38 1.38 0 0 1 0 .18l.52.292-.086.262-.59-.067c-.031.051-.07.102-.11.145l.25.543-.226.164-.438-.402c-.054.023-.113.039-.171.054l-.118.586h-.277l-.117-.586a.88.88 0 0 1-.172-.054l-.438.402-.226-.164.25-.54c-.04-.046-.074-.097-.11-.148l-.59.07-.085-.265.52-.289a1.44 1.44 0 0 1 0-.184l-.52-.292.086-.262.59.07c.035-.055.07-.105.109-.148Zm.844 1.418a.694.694 0 0 0 .691-.696.694.694 0 1 0-1.387 0c0 .383.309.696.696.696ZM10.52 24.89l-.086-.293.242-.141.21.219a1.24 1.24 0 0 1 .294-.074l.07-.297h.277l.075.297c.101.011.195.039.289.074l.21-.215.243.137-.086.293c.078.062.152.132.215.21l.289-.081.14.238-.218.21c.035.095.062.192.078.294l.293.07v.277l-.293.075c-.016.101-.043.199-.078.293l.218.207-.14.242-.29-.082a1.372 1.372 0 0 1-.214.21l.086.294-.242.136-.211-.214a1.427 1.427 0 0 1-.29.074l-.074.297h-.277l-.074-.297a1.259 1.259 0 0 1-.29-.074l-.21.214-.242-.136.086-.293a1.347 1.347 0 0 1-.211-.211l-.293.082-.141-.242.219-.207a1.545 1.545 0 0 1-.078-.293l-.293-.075v-.277l.293-.074c.015-.098.043-.195.078-.29l-.219-.21.14-.238.294.082c.062-.079.132-.149.21-.211Zm.296.129a1.1 1.1 0 0 0-.379.378l-.019.036a1.096 1.096 0 0 0 0 1.074l.02.035c.093.156.222.289.378.383l.036.02c.335.183.742.183 1.074 0l.035-.02a1.11 1.11 0 0 0 .379-.383l.02-.035a1.096 1.096 0 0 0 0-1.074l-.02-.036a1.1 1.1 0 0 0-.38-.378l-.034-.02a1.096 1.096 0 0 0-1.074 0Zm.575 1.785a.834.834 0 0 1-.836-.832.834.834 0 0 1 1.668 0c0 .46-.375.832-.832.832Zm0-.278a.554.554 0 1 0 0-1.11.555.555 0 1 0 0 1.11ZM50 26.97l-.527.777-.996-.488.359-1.117a4.547 4.547 0 0 1-.426-.344l-1.012.605-.699-.863.809-.871a3.737 3.737 0 0 1-.235-.488l-1.175.101-.25-1.086 1.105-.425a4.137 4.137 0 0 1 0-.54l-1.105-.425.25-1.086 1.175.101c.067-.168.145-.332.235-.488l-.809-.871.7-.863 1.011.605c.133-.121.278-.238.426-.344l-.36-1.117.997-.488.527.777Zm0-.489v-7.96l-.621-.915-.566.278.351 1.094a4.364 4.364 0 0 0-.715.57l-.984-.59-.399.496.786.844c-.16.258-.293.531-.391.812l-1.145-.093-.144.617 1.074.414c-.031.3-.031.605 0 .906l-1.074.414.144.617 1.145-.093c.098.28.23.554.39.812l-.785.848.399.492.984-.59c.219.215.457.406.715.57l-.355 1.09.57.278Zm0-7.164v.793l-.496-.527c.16-.102.324-.191.496-.266Zm0 3.149-1.969.926a3.483 3.483 0 0 1 1.164-3.582L50 21.266Zm0 3.219a3.49 3.49 0 0 1-1.852-1.93L50 23.398Zm0-6.063-.055.027.055.059Zm0 2.543v-.328l-.875-1.59a3.198 3.198 0 0 0-.895 2.746Zm0 3.215v-1.7l-1.453.278A3.2 3.2 0 0 0 50 25.379ZM0 18.03l.14.203c.172-.05.348-.09.528-.12l.164-1.169h1.113l.164 1.168c.184.032.36.07.532.121l.664-.98 1 .488-.364 1.117c.149.106.293.223.426.344l1.012-.605.7.863-.81.871c.09.156.168.32.235.488l1.176-.101.25 1.086-1.106.425c.012.18.012.36 0 .54l1.106.425-.25 1.086-1.176-.101a3.737 3.737 0 0 1-.234.488l.808.871-.7.863-1.01-.605a4.547 4.547 0 0 1-.427.344l.364 1.117-1 .488-.664-.98c-.172.05-.348.09-.528.12l-.168 1.169H.832l-.164-1.168a4.699 4.699 0 0 1-.527-.121L0 26.969Zm0 .489v7.96l.027-.043c.282.098.578.168.883.204l.16 1.136h.637l.164-1.136c.305-.036.598-.106.879-.203l.648.957.567-.278-.348-1.094c.254-.164.496-.355.711-.57l.984.59.399-.496-.785-.844a3.89 3.89 0 0 0 .39-.812l1.145.093.144-.617-1.074-.414c.032-.3.032-.605 0-.906l1.074-.414-.144-.617-1.145.093a4.087 4.087 0 0 0-.39-.812l.785-.848-.399-.492-.984.59a4.335 4.335 0 0 0-.71-.57l.35-1.09-.57-.278-.648.953a4.04 4.04 0 0 0-.879-.203l-.164-1.136H1.07l-.164 1.136a4.202 4.202 0 0 0-.883.203Zm4.746 4.87-2.258-1.058a1.124 1.124 0 0 0-.113-.34l1.207-2.183a3.466 3.466 0 0 1 1.164 3.582Zm-.117.364a3.474 3.474 0 0 1-3.047 2.21l.309-2.472a1.26 1.26 0 0 0 .289-.207ZM0 19.316c.438-.191.91-.289 1.39-.289.692 0 1.34.203 1.883.555l-1.707 1.82a1.086 1.086 0 0 0-.355 0L0 20.11Zm0 3.149v-1.2l.398.727c-.054.106-.09.219-.109.34Zm0 3.219v-2.286l.602-.113c.082.082.18.152.285.207l.308 2.473A3.427 3.427 0 0 1 0 25.684Zm1.39-4.016a.833.833 0 0 1 0 1.664.834.834 0 0 1-.835-.832c0-.46.375-.832.836-.832Zm0 .277a.555.555 0 1 0 0 1.11.554.554 0 1 0 0-1.11ZM0 19.621v.086l1.316 1.406a.892.892 0 0 1 .145 0l1.371-1.465A3.196 3.196 0 0 0 0 19.621Zm0 2.543.047-.023c.012-.047.027-.094.043-.137L0 21.836Zm0 3.215c.273.129.57.226.879.273l-.25-1.988a2.845 2.845 0 0 1-.113-.082L0 23.68Zm1.898.273c1-.16 1.868-.789 2.332-1.695l-1.968-.375c-.035.027-.075.059-.117.082Zm2.649-2.66a3.186 3.186 0 0 0-.895-2.742l-.965 1.754c.016.043.032.09.043.137ZM19.102 50l-.563-.793.39-.39.938.663c.094-.078.192-.152.297-.226l-.406-1.074.484-.278.727.887c.113-.055.23-.102.347-.144l-.109-1.141.535-.145.477 1.043a5.66 5.66 0 0 1 .37-.047l.188-1.132h.555l.191 1.132c.125.012.25.028.372.047l.476-1.043.535.145-.113 1.14c.121.044.234.09.348.145l.73-.887.48.278-.402 1.074c.102.074.2.148.297.23l.934-.668.394.391-.566.793Zm.34 0h7.23l.539-.758-.063-.066-.921.656a5.051 5.051 0 0 0-.61-.469l.395-1.058-.078-.047-.723.875a4.549 4.549 0 0 0-.711-.297l.11-1.125-.09-.023-.465 1.027a5.067 5.067 0 0 0-.766-.098l-.187-1.117h-.094l-.184 1.117a4.943 4.943 0 0 0-.765.098l-.47-1.028-.089.024.11 1.125c-.247.078-.481.18-.712.297l-.718-.875-.082.047.398 1.058c-.219.14-.422.297-.613.469l-.918-.656-.067.066Zm1.351 0a3.981 3.981 0 0 1 1.848-.672V50Zm4.523 0h-1.843v-.672c.68.067 1.308.305 1.843.672Zm-3.98 0h1.023v-.352c-.355.067-.699.184-1.023.352Zm3.437 0a3.652 3.652 0 0 0-1.023-.352V50ZM49.832 0h-.168l.207.457c-.289.242-.559.512-.805.805l-1.3-.598-.23.313.972 1.054a6.726 6.726 0 0 0-.52 1.016l-1.422-.164-.12.367 1.25.703a6.473 6.473 0 0 0-.18 1.129l-1.407.277v.391l1.407.281c.027.387.09.762.18 1.13l-1.25.698.12.371 1.422-.168c.145.352.317.696.52 1.02l-.973 1.05.23.313 1.301-.593c.246.289.516.558.805.804l-.598 1.301.317.23.41-.378v.37l-.395.364-.671-.488.605-1.32a6.108 6.108 0 0 1-.55-.551l-1.321.605-.488-.672.984-1.066a6.761 6.761 0 0 1-.352-.692l-1.44.168-.259-.793 1.266-.71a6.369 6.369 0 0 1-.121-.766l-1.426-.285V5.14l1.426-.286a7.02 7.02 0 0 1 .12-.77l-1.265-.71.258-.79 1.441.169c.102-.238.223-.469.352-.692L47.18.996l.488-.676 1.32.606c.172-.192.356-.375.551-.547L49.363 0ZM50 7.32l-.898.52a5.552 5.552 0 0 1 0-4.567l.898.52Zm0-5.441v.629l-.344-.2c.11-.148.223-.288.344-.43Zm0 7.351a6.13 6.13 0 0 1-.344-.43L50 8.603ZM50 7V4.113l-.766-.441a5.269 5.269 0 0 0 0 3.77ZM8.668 50h.3l.434-.941-.675-.489-1.067.985a6.41 6.41 0 0 0-.691-.356l.168-1.441-.79-.258-.714 1.266a7.1 7.1 0 0 0-.766-.121l-.285-1.422H3.75l-.285 1.422a7.257 7.257 0 0 0-.766.12L1.99 47.5l-.794.258.168 1.441a6.41 6.41 0 0 0-.691.356L0 48.934v.718-.347l.64.59c.325-.2.665-.375 1.02-.52l-.168-1.422.371-.117.7 1.246c.37-.09.75-.148 1.128-.176l.282-1.406h.386l.282 1.406c.386.028.765.086 1.129.176l.703-1.25.367.121-.168 1.422c.355.145.695.32 1.02.52l1.054-.973.313.23ZM50 33.96l-.2-.026-.112.191.277.352.035.023Zm0 2.005-.555-.055-.441.094-.04.219.384.234.652.168Zm0 1.851-.652.168-.383.239.039.218.441.094.555-.058Zm0 2.13-.035.023-.278.351.114.192.199-.028Zm0 .8-.355.05-.278-.48.461-.59.172-.117Zm0-1.988-.508.05-.73-.156-.098-.547.637-.394.699-.18Zm0-1.844-.7-.184-.636-.394.098-.543.73-.152.508.047Zm0-2.078-.172-.121-.46-.586.277-.48.355.05Zm0 14.098V50h-.637l-.43-.941.672-.489Zm0 .37-.41-.382-.317.23.391.848H50Zm0 0"/></svg>