<svg width="40" height="40" viewBox="0 0 40 40" fill="none" xmlns="http://www.w3.org/2000/svg">
<g clip-path="url(#clip0_452_123)">
<path d="M0.49937 -12C-5.63064 -12.0008 -10.8562 -7.4409 -11.8377 -1.23451C-12.8191 4.97188 -9.26667 10.9922 -3.45069 12.9788C-2.82429 13.0944 -2.60004 12.6999 -2.60004 12.3607C-2.60004 12.0561 -2.61007 11.2492 -2.61383 10.1762C-6.09033 10.9472 -6.82447 8.45691 -6.82447 8.45691C-7.05333 7.68201 -7.54536 7.01687 -8.21131 6.58213C-9.33883 5.78672 -8.12487 5.80471 -8.12487 5.80471C-7.32223 5.91759 -6.61581 6.40538 -6.21185 7.12567C-5.86992 7.76335 -5.29386 8.23455 -4.61165 8.43458C-3.92945 8.63461 -3.19761 8.54689 -2.57875 8.19092C-2.52059 7.54073 -2.23857 6.93303 -1.78322 6.47676C-4.55691 6.15423 -7.47342 5.05428 -7.47342 0.141796C-7.48881 -1.1288 -7.0288 -2.35711 -6.18805 -3.29039C-6.56846 -4.39636 -6.52366 -5.60946 -6.06277 -6.68274C-6.06277 -6.68274 -5.01418 -7.0284 -2.62761 -5.37078C-0.58073 -5.94644 1.57947 -5.94644 3.62635 -5.37078C6.01417 -7.02969 7.06151 -6.68274 7.06151 -6.68274C7.52454 -5.60997 7.56937 -4.39602 7.18679 -3.29039C8.03062 -2.3572 8.49025 -1.12566 8.46965 0.146936C8.46965 5.07227 5.55064 6.15423 2.76693 6.47162C3.36742 7.10133 3.67539 7.9652 3.61257 8.84369C3.61257 10.5579 3.59753 11.9405 3.59753 12.3607C3.59753 12.7038 3.82053 13.1021 4.4582 12.9762C10.2718 10.9862 13.8204 4.96559 12.8369 -1.23915C11.8534 -7.4439 6.62812 -12.0014 0.49937 -12Z" fill="white"/>
<path d="M40.4994 28C34.3694 27.9992 29.1438 32.5591 28.1623 38.7655C27.1809 44.9719 30.7333 50.9922 36.5493 52.9788C37.1757 53.0944 37.4 52.6999 37.4 52.3607C37.4 52.0561 37.3899 51.2492 37.3862 50.1762C33.9097 50.9472 33.1755 48.4569 33.1755 48.4569C32.9467 47.682 32.4546 47.0169 31.7887 46.5821C30.6612 45.7867 31.8751 45.8047 31.8751 45.8047C32.6778 45.9176 33.3842 46.4054 33.7881 47.1257C34.1301 47.7634 34.7061 48.2346 35.3883 48.4346C36.0706 48.6346 36.8024 48.5469 37.4213 48.1909C37.4794 47.5407 37.7614 46.933 38.2168 46.4768C35.4431 46.1542 32.5266 45.0543 32.5266 40.1418C32.5112 38.8712 32.9712 37.6429 33.812 36.7096C33.4315 35.6036 33.4763 34.3905 33.9372 33.3173C33.9372 33.3173 34.9858 32.9716 37.3724 34.6292C39.4193 34.0536 41.5795 34.0536 43.6263 34.6292C46.0142 32.9703 47.0615 33.3173 47.0615 33.3173C47.5245 34.39 47.5694 35.604 47.1868 36.7096C48.0306 37.6428 48.4902 38.8743 48.4697 40.1469C48.4697 45.0723 45.5506 46.1542 42.7669 46.4716C43.3674 47.1013 43.6754 47.9652 43.6126 48.8437C43.6126 50.5579 43.5975 51.9405 43.5975 52.3607C43.5975 52.7038 43.8205 53.1021 44.4582 52.9762C50.2718 50.9862 53.8204 44.9656 52.8369 38.7608C51.8534 32.5561 46.6281 27.9986 40.4994 28Z" fill="white"/>
<path d="M0.49937 28C-5.63064 27.9992 -10.8562 32.5591 -11.8377 38.7655C-12.8191 44.9719 -9.26667 50.9922 -3.45069 52.9788C-2.82429 53.0944 -2.60004 52.6999 -2.60004 52.3607C-2.60004 52.0561 -2.61007 51.2492 -2.61383 50.1762C-6.09033 50.9472 -6.82447 48.4569 -6.82447 48.4569C-7.05333 47.682 -7.54536 47.0169 -8.21131 46.5821C-9.33883 45.7867 -8.12487 45.8047 -8.12487 45.8047C-7.32223 45.9176 -6.61581 46.4054 -6.21185 47.1257C-5.86992 47.7634 -5.29386 48.2346 -4.61165 48.4346C-3.92945 48.6346 -3.19761 48.5469 -2.57875 48.1909C-2.52059 47.5407 -2.23857 46.933 -1.78322 46.4768C-4.55691 46.1542 -7.47342 45.0543 -7.47342 40.1418C-7.48881 38.8712 -7.0288 37.6429 -6.18805 36.7096C-6.56846 35.6036 -6.52366 34.3905 -6.06277 33.3173C-6.06277 33.3173 -5.01418 32.9716 -2.62761 34.6292C-0.58073 34.0536 1.57947 34.0536 3.62635 34.6292C6.01417 32.9703 7.06151 33.3173 7.06151 33.3173C7.52454 34.39 7.56937 35.604 7.18679 36.7096C8.03062 37.6428 8.49025 38.8743 8.46965 40.1469C8.46965 45.0723 5.55064 46.1542 2.76693 46.4716C3.36742 47.1013 3.67539 47.9652 3.61257 48.8437C3.61257 50.5579 3.59753 51.9405 3.59753 52.3607C3.59753 52.7038 3.82053 53.1021 4.4582 52.9762C10.2718 50.9862 13.8204 44.9656 12.8369 38.7608C11.8534 32.5561 6.62812 27.9986 0.49937 28Z" fill="white"/>
<path d="M40.4994 -12C34.3694 -12.0008 29.1438 -7.4409 28.1623 -1.23451C27.1809 4.97188 30.7333 10.9922 36.5493 12.9788C37.1757 13.0944 37.4 12.6999 37.4 12.3607C37.4 12.0561 37.3899 11.2492 37.3862 10.1762C33.9097 10.9472 33.1755 8.45691 33.1755 8.45691C32.9467 7.68201 32.4546 7.01687 31.7887 6.58213C30.6612 5.78672 31.8751 5.80471 31.8751 5.80471C32.6778 5.91759 33.3842 6.40538 33.7881 7.12567C34.1301 7.76335 34.7061 8.23455 35.3883 8.43458C36.0706 8.63461 36.8024 8.54689 37.4213 8.19092C37.4794 7.54073 37.7614 6.93303 38.2168 6.47676C35.4431 6.15423 32.5266 5.05428 32.5266 0.141796C32.5112 -1.1288 32.9712 -2.35711 33.812 -3.29039C33.4315 -4.39636 33.4763 -5.60946 33.9372 -6.68274C33.9372 -6.68274 34.9858 -7.0284 37.3724 -5.37078C39.4193 -5.94644 41.5795 -5.94644 43.6263 -5.37078C46.0142 -7.02969 47.0615 -6.68274 47.0615 -6.68274C47.5245 -5.60997 47.5694 -4.39602 47.1868 -3.29039C48.0306 -2.3572 48.4902 -1.12566 48.4697 0.146936C48.4697 5.07227 45.5506 6.15423 42.7669 6.47162C43.3674 7.10133 43.6754 7.9652 43.6126 8.84369C43.6126 10.5579 43.5975 11.9405 43.5975 12.3607C43.5975 12.7038 43.8205 13.1021 44.4582 12.9762C50.2718 10.9862 53.8204 4.96559 52.8369 -1.23915C51.8534 -7.4439 46.6281 -12.0014 40.4994 -12Z" fill="white"/>
</g>
<defs>
<clipPath id="clip0_452_123">
<rect width="40" height="40" fill="white"/>
</clipPath>
</defs>
</svg>