<svg width="100" height="93" viewBox="0 0 100 93" fill="none" xmlns="http://www.w3.org/2000/svg">
    <path fill-rule="evenodd" clip-rule="evenodd"
        d="M22.0195 81.8789L11.0098 92.8887L0 81.8789L3.89844 77.9805H18.1211L22.0195 81.8789ZM11.0098 90.9062L13.874 82.3125H8.14551L11.0098 90.9062ZM10.0186 90.6729L7.23145 82.3125H1.6582L10.0186 90.6729ZM12.001 90.6729L20.3613 82.3125H14.7881L12.001 90.6729ZM1.6582 81.4463H6.49805L4.07812 79.0264L1.6582 81.4463ZM8.58984 81.4463H13.4297L11.0098 79.0264L8.58984 81.4463ZM15.5215 81.4463H20.3613L17.9414 79.0264L15.5215 81.4463ZM7.54395 81.2666L9.96387 78.8467H5.12402L7.54395 81.2666ZM14.4756 81.2666L16.8955 78.8467H12.0557L14.4756 81.2666Z"
        fill="white" />
    <path fill-rule="evenodd" clip-rule="evenodd"
        d="M100 81.8789L88.9902 92.8887L77.9795 81.8789L81.8789 77.9805H96.1006L100 81.8789ZM88.9902 90.9062L91.8545 82.3125H86.125L88.9902 90.9062ZM87.999 90.6729L85.2119 82.3125H79.6387L87.999 90.6729ZM89.9814 90.6729L98.3418 82.3125H92.7676L89.9814 90.6729ZM79.6387 81.4463H84.4785L82.0586 79.0264L79.6387 81.4463ZM86.5703 81.4463H91.4102L88.9902 79.0264L86.5703 81.4463ZM93.501 81.4463H98.3418L95.9219 79.0264L93.501 81.4463ZM85.5244 81.2666L87.9443 78.8467H83.1045L85.5244 81.2666ZM92.4561 81.2666L94.876 78.8467H90.0361L92.4561 81.2666Z"
        fill="white" />
    <path
        d="M50 81.0127C50.9568 81.0128 51.7322 81.7883 51.7324 82.7451C51.7324 83.7021 50.957 84.4784 50 84.4785C49.043 84.4784 48.2666 83.7021 48.2666 82.7451C48.2668 81.7883 49.0432 81.0128 50 81.0127Z"
        fill="white" />
    <path d="M38.8857 55.915L24.1816 70.6191L23.5693 70.0068L38.2734 55.3027L38.8857 55.915Z"
        fill="white" />
    <path d="M76.4307 70.0068L75.8174 70.6191L61.1133 55.915L61.7256 55.3027L76.4307 70.0068Z"
        fill="white" />
    <path fill-rule="evenodd" clip-rule="evenodd"
        d="M61.0098 40.7227L50 51.7324L38.9902 40.7227L42.8887 36.8242H57.1104L61.0098 40.7227ZM50 49.75L52.8643 41.1562H47.1348L50 49.75ZM49.0088 49.5166L46.2217 41.1562H40.6484L49.0088 49.5166ZM50.9912 49.5166L59.3516 41.1562H53.7773L50.9912 49.5166ZM40.6484 40.29H45.4883L43.0684 37.8701L40.6484 40.29ZM47.5801 40.29H52.4199L50 37.8701L47.5801 40.29ZM54.5117 40.29H59.3516L56.9316 37.8701L54.5117 40.29ZM46.5342 40.1104L48.9541 37.6904H44.1143L46.5342 40.1104ZM53.4658 40.1104L55.8857 37.6904H51.0459L53.4658 40.1104Z"
        fill="white" />
    <path
        d="M11.0098 42.4561C11.9667 42.4561 12.7421 43.2315 12.7422 44.1885C12.7422 45.1455 11.9668 45.9219 11.0098 45.9219C10.0528 45.9218 9.27734 45.1455 9.27734 44.1885C9.27748 43.2316 10.0529 42.4561 11.0098 42.4561Z"
        fill="white" />
    <path
        d="M88.9902 42.4561C89.947 42.4563 90.7225 43.2317 90.7227 44.1885C90.7227 45.1454 89.9471 45.9217 88.9902 45.9219C88.0333 45.9218 87.2568 45.1455 87.2568 44.1885C87.257 43.2316 88.0333 42.4561 88.9902 42.4561Z"
        fill="white" />
    <path d="M38.8857 32.4629L38.2734 33.0752L23.5693 18.3711L24.1816 17.7588L38.8857 32.4629Z"
        fill="white" />
    <path d="M76.4307 18.3711L61.7256 33.0752L61.1133 32.4629L75.8174 17.7588L76.4307 18.3711Z"
        fill="white" />
    <path fill-rule="evenodd" clip-rule="evenodd"
        d="M22.0195 3.89941L11.0098 14.9092L0 3.89941L3.89844 0H18.1211L22.0195 3.89941ZM11.0098 12.9268L13.874 4.33203H8.14551L11.0098 12.9268ZM10.0186 12.6924L7.23145 4.33203H1.6582L10.0186 12.6924ZM12.001 12.6924L20.3613 4.33203H14.7881L12.001 12.6924ZM1.6582 3.46582H6.49805L4.07812 1.0459L1.6582 3.46582ZM8.58984 3.46582H13.4297L11.0098 1.0459L8.58984 3.46582ZM15.5215 3.46582H20.3613L17.9414 1.0459L15.5215 3.46582ZM7.54395 3.28613L9.96387 0.866211H5.12402L7.54395 3.28613ZM14.4756 3.28613L16.8955 0.866211H12.0557L14.4756 3.28613Z"
        fill="white" />
    <path fill-rule="evenodd" clip-rule="evenodd"
        d="M100 3.89941L88.9902 14.9092L77.9795 3.89941L81.8789 0H96.1006L100 3.89941ZM88.9902 12.9268L91.8545 4.33203H86.125L88.9902 12.9268ZM87.999 12.6924L85.2119 4.33203H79.6387L87.999 12.6924ZM89.9814 12.6924L98.3418 4.33203H92.7676L89.9814 12.6924ZM79.6387 3.46582H84.4785L82.0586 1.0459L79.6387 3.46582ZM86.5703 3.46582H91.4102L88.9902 1.0459L86.5703 3.46582ZM93.501 3.46582H98.3418L95.9219 1.0459L93.501 3.46582ZM85.5244 3.28613L87.9443 0.866211H83.1045L85.5244 3.28613ZM92.4561 3.28613L94.876 0.866211H90.0361L92.4561 3.28613Z"
        fill="white" />
    <path
        d="M50 3.03223C50.957 3.03234 51.7324 3.80864 51.7324 4.76562C51.7323 5.72253 50.9569 6.49794 50 6.49805C49.0431 6.49796 48.2667 5.72254 48.2666 4.76562C48.2666 3.80863 49.043 3.03232 50 3.03223Z"
        fill="white" />
</svg>
    