<svg width="85" height="89" viewBox="0 0 85 89" fill="none" xmlns="http://www.w3.org/2000/svg">
    <path
        d="M7.07 0.0100002L4.24 2.84V2.83L1.41 0L0 1.41L2.83 4.24L0 7.07L1.41 8.48L4.24 5.65L7.07 8.48L8.48 7.07L5.65 4.24L8.48 1.42L7.07 0.0100002Z"
        fill="white" />
    <path
        d="M25.07 20.01L22.24 22.84V22.83L19.41 20L18 21.41L20.83 24.24L18 27.07L19.41 28.48L22.24 25.65L25.07 28.48L26.48 27.07L23.65 24.24L26.48 21.42L25.07 20.01Z"
        fill="white" />
    <path
        d="M24.07 60.01L21.24 62.84V62.83L18.41 60L17 61.41L19.83 64.24L17 67.07L18.41 68.48L21.24 65.65L24.07 68.48L25.48 67.07L22.65 64.24L25.48 61.42L24.07 60.01Z"
        fill="white" />
    <path
        d="M66.07 20.01L63.24 22.84V22.83L60.41 20L59 21.41L61.83 24.24L59 27.07L60.41 28.48L63.24 25.65L66.07 28.48L67.48 27.07L64.65 24.24L67.48 21.42L66.07 20.01Z"
        fill="white" />
    <path
        d="M65.07 60.01L62.24 62.84V62.83L59.41 60L58 61.41L60.83 64.24L58 67.07L59.41 68.48L62.24 65.65L65.07 68.48L66.48 67.07L63.65 64.24L66.48 61.42L65.07 60.01Z"
        fill="white" />
    <path
        d="M7.07 40.01L4.24 42.84V42.83L1.41 40L0 41.41L2.83 44.24L0 47.07L1.41 48.48L4.24 45.65L7.07 48.48L8.48 47.07L5.65 44.24L8.48 41.42L7.07 40.01Z"
        fill="white" />
    <path
        d="M7.07 80.01L4.24 82.84V82.83L1.41 80L0 81.41L2.83 84.24L0 87.07L1.41 88.48L4.24 85.65L7.07 88.48L8.48 87.07L5.65 84.24L8.48 81.42L7.07 80.01Z"
        fill="white" />
    <path
        d="M45.07 0.0100002L42.24 2.84V2.83L39.41 0L38 1.41L40.83 4.24L38 7.07L39.41 8.48L42.24 5.65L45.07 8.48L46.48 7.07L43.65 4.24L46.48 1.42L45.07 0.0100002Z"
        fill="white" />
    <path
        d="M45.07 40.01L42.24 42.84V42.83L39.41 40L38 41.41L40.83 44.24L38 47.07L39.41 48.48L42.24 45.65L45.07 48.48L46.48 47.07L43.65 44.24L46.48 41.42L45.07 40.01Z"
        fill="white" />
    <path
        d="M45.07 80.01L42.24 82.84V82.83L39.41 80L38 81.41L40.83 84.24L38 87.07L39.41 88.48L42.24 85.65L45.07 88.48L46.48 87.07L43.65 84.24L46.48 81.42L45.07 80.01Z"
        fill="white" />
    <path
        d="M83.07 0.0100002L80.24 2.84V2.83L77.41 0L76 1.41L78.83 4.24L76 7.07L77.41 8.48L80.24 5.65L83.07 8.48L84.48 7.07L81.65 4.24L84.48 1.42L83.07 0.0100002Z"
        fill="white" />
    <path
        d="M83.07 40.01L80.24 42.84V42.83L77.41 40L76 41.41L78.83 44.24L76 47.07L77.41 48.48L80.24 45.65L83.07 48.48L84.48 47.07L81.65 44.24L84.48 41.42L83.07 40.01Z"
        fill="white" />
    <path
        d="M83.07 80.01L80.24 82.84V82.83L77.41 80L76 81.41L78.83 84.24L76 87.07L77.41 88.48L80.24 85.65L83.07 88.48L84.48 87.07L81.65 84.24L84.48 81.42L83.07 80.01Z"
        fill="white" />
</svg>
    