<svg xmlns="http://www.w3.org/2000/svg" width="50" height="50"><path style="stroke:none;fill-rule:evenodd;fill:#fff;fill-opacity:1" d="M6.875 0 10 12.5H3.75Zm26.25 19.375a1.875 1.875 0 1 0-.001-3.751 1.875 1.875 0 0 0 .001 3.751ZM0 45h25v2.5H0Zm0-5h19.375v2.5H0Zm12.5-10H25v2.5H12.5ZM0 35h25v2.5H0Zm39.375-15.625a1.875 1.875 0 1 0-.001-3.751 1.875 1.875 0 0 0 .001 3.751Zm6.25 0a1.875 1.875 0 1 0-.001-3.751 1.875 1.875 0 0 0 .001 3.751Zm-12.5 6.25a1.875 1.875 0 1 0-.001-3.751 1.875 1.875 0 0 0 .001 3.751Zm6.25 0a1.875 1.875 0 1 0-.001-3.751 1.875 1.875 0 0 0 .001 3.751Zm6.25 0a1.875 1.875 0 1 0-.001-3.751 1.875 1.875 0 0 0 .001 3.751Zm-18.75 0a1.875 1.875 0 1 0-.001-3.751 1.875 1.875 0 0 0 .001 3.751Zm-17.5-5a3.124 3.124 0 1 0-6.25 0Zm6.25 0a3.124 3.124 0 1 1-6.25 0ZM35 3.125a3.124 3.124 0 1 0-6.25 0Zm6.25 0a3.124 3.124 0 1 1-6.25 0Zm-1.875 28.75a1.875 1.875 0 1 0-.001-3.751 1.875 1.875 0 0 0 .001 3.751Zm6.25 0a1.875 1.875 0 1 0-.001-3.751 1.875 1.875 0 0 0 .001 3.751ZM13.125 0l3.125 12.5H10ZM40 40v-2.5h-2.5V40H35v2.5h2.5V45H40v-2.5h2.5V40ZM22.5 8.125H25v2.5h-2.5Zm2.5 2.5h2.5v2.5H25Zm-2.5 2.5H25v2.5h-2.5Zm5-5H30v2.5h-2.5Zm0 0"/></svg>