<svg xmlns="http://www.w3.org/2000/svg" width="70" height="70" fill="none"><path fill="#fff" d="M70 9.411a6.974 6.974 0 0 1-.594.171c-1.187.294-1.871.29-4.926.1-5.026-.308-9.009-.115-15.439 1.169-3.936.785-5.726 1.454-5.985 2.35-.24.824.564 1.42 2.482 2.262.242.107 1.007.416 1.91.78 1.337.54 2.977 1.203 3.67 1.51 3.549 1.558 5.846 3.081 6.952 4.895 4.172 6.828 6.267 8.042 10.524 6.34.508-.202.974-.392 1.406-.572v-.838a95.28 95.28 0 0 1-1.692.696c-3.831 1.53-5.58.514-9.581-6.032-1.21-1.988-3.615-3.577-7.296-5.197-.68-.3-2.234-.929-3.543-1.458-.964-.39-1.795-.725-2.04-.835-1.478-.646-2.112-1.117-2.05-1.338.05-.178.44-.444 1.226-.738.904-.337 2.277-.689 4.172-1.064 6.356-1.272 10.273-1.461 15.238-1.16 3.14.194 3.859.198 5.158-.116.137-.034.273-.073.408-.114v-.81Z"/><path fill="#fff" d="m70 4.074-.54.095c-.075.014-.551.096-1.176.203-1.082.185-2.608.447-3.27.567-1.88.336-3.596.672-5.413 1.067-7.973 1.732-9.694 1.937-14.736 1.937-.963 0-1.121-.027-5.432-.773a90.558 90.558 0 0 0-2.378-.387c-3.136-.46-5.348-.526-6.821-.077-1.756.541-2.293 1.798-1.43 4.067.78 2.042 1.87 3.33 3.417 4.153 1.26.673 2.61 1.005 5.344 1.435 3.642.572 4.23.676 5.993 1.129a30.238 30.238 0 0 1 7.2 2.85c3.21 1.77 5.637 4.446 7.725 8.077.645 1.116 1.865 3.654 2.813 5.626.606 1.259 1.1 2.287 1.263 2.567 1.314 2.262 2.42 2.563 4.21.773.955-.953 1.953-1.76 3.231-2.603v.465a19.269 19.269 0 0 0-2.96 2.417c-1.987 1.987-3.383 1.604-4.814-.859-.175-.3-.703-1.396-1.339-2.718-.94-1.952-2.116-4.395-2.736-5.479-2.061-3.573-4.44-6.194-7.579-7.926a29.85 29.85 0 0 0-7.114-2.815c-1.74-.453-2.328-.553-5.955-1.122-2.772-.433-4.153-.773-5.463-1.473-1.632-.87-2.784-2.23-3.596-4.357-.94-2.471-.302-3.968 1.678-4.575 1.546-.471 3.797-.406 6.99.066.712.104 1.447.224 2.386.387l.021.003c4.24.731 4.42.762 5.346.762 5.011 0 6.709-.2 14.655-1.93 1.82-.394 3.541-.734 5.424-1.07 1.048-.186 4.246-.735 4.447-.766L70 3.683v.391ZM0 2.792c1.057-.173 1.661-.338 2.32-.641.981-.445 1.738-1.127 2.314-2.152h.44c-.626 1.202-1.479 1.998-2.59 2.504-.703.322-1.332.494-2.484.68v-.39ZM0 7.176c.723-.29 1.608-.542 2.7-.799 2.378-.557 3.34-.936 4.126-1.852.58-.673 1.051-1.852 1.674-3.983L8.656 0h.402L9.003.19l-.132.464C8.229 2.84 7.746 4.05 7.119 4.78c-.858.998-1.871 1.4-4.643 2.05C1.473 7.064.662 7.3 0 7.577v-.402ZM0 13.885l.032-.042c1.47-1.944 2.9-3.058 5.494-4.168 1.01-.433 2.22-.866 3.708-1.338a5.865 5.865 0 0 0 3.585-3.039c.614-1.168.935-2.262 1.558-5.023L14.44 0h.396l-.134.59c-.58 2.567-.905 3.68-1.543 4.887A6.248 6.248 0 0 1 9.35 8.71c-1.245.381-2.47.822-3.673 1.322-2.532 1.083-3.905 2.154-5.336 4.048-.125.166-.214.28-.3.396L0 14.531v-.646ZM0 20.331a235.771 235.771 0 0 0 2.588-2.285c1.195-1.082 3.325-3.534 3.147-3.352 1.09-1.09 2.223-1.338 6.264-1.338 2.9 0 4.655-.94 5.703-2.869.85-1.574 1.203-3.418 1.624-7.574l.1-1.056.117-1.087c.028-.272.078-.529.15-.771h.402a3.927 3.927 0 0 0-.17.81c-.027.239-.052.482-.079.759-.01.104-.02.213-.033.328L19.71 2.95c-.425 4.215-.781 6.082-1.666 7.718-1.122 2.065-3.005 3.074-6.044 3.074-3.944 0-4.996.232-5.993 1.226.2-.198-1.945 2.261-3.155 3.364-.48.436-1.655 1.467-2.851 2.512v-.514ZM48.18 69.999c.905-1.873 2.473-4.152 4.271-6.307A17.135 17.135 0 0 0 54.315 61c1.682-3.047 1.957-5.325 1.957-12.652 0-7.362-5.874-16.394-14.585-21.479-6.02-3.51-12.226-2.854-19.12.468-.935.45-1.856.928-2.761 1.434l-.754.414a61.443 61.443 0 0 1-4.195 2.007l-2.249.995c-1.397.618-3.046 1.347-3.818 1.692A241.826 241.826 0 0 0 0 37.99v-.432a242.21 242.21 0 0 1 8.635-4.034c.568-.253 1.615-.715 2.686-1.189 1.481-.654 3.009-1.33 3.377-1.498 1.953-.87 3.21-1.47 4.168-1.991l.754-.414.843-.456c.68-.364 1.307-.68 1.933-.986 6.999-3.372 13.332-4.045 19.46-.464 8.852 5.158 14.802 14.314 14.802 21.823 0 7.393-.282 9.717-2.003 12.837a17.518 17.518 0 0 1-1.91 2.753c-1.722 2.068-3.237 4.257-4.134 6.06h-.43ZM65.835 69.999c1.456-1.689 2.666-3.6 4.165-6.537v.834c-1.29 2.462-2.39 4.182-3.665 5.703h-.5ZM60.118 69.999h-.676c3.134-2.134 5.468-4.826 7.188-8.032a31.133 31.133 0 0 0 2.359-5.85c.231-.767.698-2.508 1.011-3.682v1.502c-.24.894-.487 1.797-.636 2.296a31.504 31.504 0 0 1-2.394 5.916c-1.664 3.103-3.894 5.733-6.852 7.85Z"/><path fill="#fff" d="m0 33.423.245-.13c.354-.184 1.388-.733 2.283-1.208.579-.308 1.1-.584 1.34-.71a44.795 44.795 0 0 1 4.72-2.177c1.141-.437 2.475-1.029 4.296-1.887l5.027-2.405a126.843 126.843 0 0 1 4.49-2.038c6.534-2.788 11.17-3.77 14.275-2.563l2.1.804c.889.344 1.608.63 2.32.92 1.851.762 3.475 1.496 5.022 2.308 7.002 3.674 11.569 8.43 13.25 15.165 2.669 10.66 1.393 17.384-3.062 23.818-1.685 2.436-1.453 4.192.364 4.072 1.748-.116 4.191-2 6.144-5.019 1.226-1.898 2.007-4.11 3.159-8.433l.653-2.455c.26-.955.48-1.744.704-2.502.788-2.634 1.647-4.879 2.67-6.806v-.808c-1.19 2.088-2.16 4.556-3.037 7.502a89.312 89.312 0 0 0-.708 2.513l-.653 2.456c-1.14 4.284-1.914 6.468-3.113 8.324-1.895 2.927-4.241 4.733-5.842 4.841-1.385.09-1.559-1.245-.023-3.468 4.516-6.523 5.815-13.36 3.124-24.128-1.717-6.859-6.36-11.692-13.452-15.416a58.32 58.32 0 0 0-5.054-2.32 99.975 99.975 0 0 0-2.328-.92l-2.1-.812c-3.228-1.257-7.937-.251-14.565 2.571-1.372.584-2.799 1.234-4.504 2.046-.545.255-2.056.98-3.308 1.581l-1.719.824a62.7 62.7 0 0 1-4.269 1.871 45.165 45.165 0 0 0-4.76 2.196c-.262.138-.858.454-1.498.795-.856.455-1.793.953-2.124 1.123L0 32.984v.44ZM0 24.702l.047-.036c.11-.085.47-.357.91-.69.77-.582 1.787-1.352 2.16-1.642 1.095-.846 1.864-1.496 2.444-2.076 2.036-2.033 2.271-2.28 2.555-2.365.06-.018.123-.029.206-.048.132-.03.747.007 1.483.053.73.045 1.578.098 2.194.098 2.084 0 2.842-.135 3.577-.576l.518-.333c.232-.146.437-.266.68-.394a15.505 15.505 0 0 1 2.63-1.028c2.745-.843 3.43-2.057 3.855-5.53.355-2.88.572-3.99 1.291-5.792.712-1.778 1.767-2.575 3.275-2.664 1.16-.073 2.046.135 4.884.99 1.6.487 2.52.727 3.534.885.58.09 1.133.136 1.662.136 8.066 0 15.44-.708 19.028-2.336C58.175.788 59.81.397 62.518 0h-2.33c-1.47.287-2.53.599-3.414 1-3.518 1.6-10.861 2.304-18.869 2.304-.506 0-1.04-.046-1.6-.131a24.572 24.572 0 0 1-3.488-.874c-2.889-.87-3.79-1.083-5.015-1.006-1.663.097-2.842.99-3.612 2.904-.734 1.845-.955 2.981-1.314 5.893-.41 3.337-1.021 4.42-3.588 5.208-.928.268-1.828.62-2.692 1.052a9.195 9.195 0 0 0-.711.414l-.507.324c-.66.399-1.36.523-3.379.523-.542 0-1.309-.046-2.013-.088-.83-.05-1.571-.094-1.753-.052-.118.028-.202.04-.283.065-.317.096-.58.373-2.66 2.452-.76.73-1.565 1.411-2.408 2.042A435.645 435.645 0 0 1 0 24.214v.488Z"/><path fill="#fff" d="M36.46 69.999h-.789c.323-.184.65-.367.982-.55 5.072-2.796 8.154-5.75 9.732-8.905 1.129-2.266 1.38-4.002 1.38-7.165 0-4.303-.286-7.242-1.43-10.606-1.218-3.565-3.233-6.476-6.222-8.568-8.17-5.723-11.484-6.349-18.753-3.074.27-.124-6.558 2.923-8.185 3.673l-.266.125c-.56.263-1.092.514-1.614.765a123.603 123.603 0 0 0-8.866 4.705c-.8.467-1.61.916-2.429 1.347v-.438c.753-.4 1.499-.815 2.236-1.245a123.968 123.968 0 0 1 10.776-5.607c1.388-.641 6.54-2.944 7.876-3.542l.31-.139c7.412-3.333 10.865-2.68 19.14 3.113 3.058 2.142 5.119 5.123 6.36 8.762 1.168 3.414 1.454 6.383 1.454 10.73 0 3.216-.255 5.007-1.423 7.334-1.616 3.233-4.756 6.241-9.89 9.075l-.379.21Z"/><path fill="#fff" d="M25.62 69.999a65.129 65.129 0 0 0 6.655-4.625c4.501-3.592 7.676-7.254 8.905-10.773 1.25-3.569-.773-8.135-4.922-12.566-3.468-3.704-7.892-6.635-9.953-6.635-4.218 0-10.01 2.157-14.04 5.456C10.867 42 9.32 42.652 7.202 43.133c-.538.124-.894.193-1.957.394-2.597.49-4.024.89-5.244 1.684v.47c1.218-.859 2.615-1.265 5.314-1.775 1.067-.2 1.43-.27 1.976-.394 2.165-.495 3.766-1.168 5.22-2.355 3.963-3.244 9.67-5.37 13.795-5.37 1.922 0 6.268 2.876 9.67 6.51 4.06 4.34 6.029 8.782 4.842 12.177-1.203 3.43-4.33 7.045-8.785 10.594A64.513 64.513 0 0 1 24.864 70h.756Z"/><path fill="#fff" d="M0 49.484v1.374c1.336-2.175 2.203-2.567 5.04-2.567 1.673 0 2.988-.425 4.457-1.338.324-.202 1.203-.827 2.1-1.467.859-.61 1.734-1.234 2.158-1.51 3.507-2.282 4.28-2.649 9.589-4.543 2.323-.832 5.22.49 7.799 3.321 2.412 2.644 4.055 6.116 4.056 8.63 0 2.797-.21 3.975-.901 5.139-.28.473-1.665 2.238-2.558 3.375-.34.433-.608.776-.717.92-2.212 2.947-3.41 3.778-6.369 5.074-.54.24-.9.413-1.256.626a6.98 6.98 0 0 1-.696.36c-.105.047-.404.174-.752.323-.512.218-1.13.482-1.383.597-1.394.64-2.427 1.337-3.082 2.201h1.04c.566-.551 1.353-1.033 2.363-1.497.222-.103.75-.328 1.23-.533.406-.174.779-.333.905-.391.309-.14.56-.267.773-.395a9.446 9.446 0 0 1 1.172-.58c3.066-1.345 4.369-2.25 6.673-5.32.094-.124.33-.425.636-.815.889-1.133 2.373-3.025 2.69-3.555.773-1.306 1.005-2.606 1.005-5.529 0-2.73-1.724-6.372-4.257-9.152-2.765-3.031-5.947-4.485-8.634-3.526-5.36 1.914-6.187 2.308-9.744 4.62-.45.293-1.363.943-2.239 1.566-.873.622-1.71 1.216-2.01 1.404-1.354.843-2.53 1.222-4.049 1.222-2.645 0-3.83.383-5.039 1.966Z"/><path fill="#fff" d="M0 55.648v.452l.156-.091c.255-.155.506-.34.757-.553.482-.417.931-.87 1.342-1.357.185-.215.662-.802.895-1.088l.122-.15c1.23-1.461 2.262-1.999 4.474-1.999 1.635 0 2.494-.402 3.445-1.419.479-.553.971-1.094 1.477-1.624a11.58 11.58 0 0 1 2.54-1.871 19.27 19.27 0 0 1 1.891-.901 25.49 25.49 0 0 0 3.992-2.04c.216-.135.885-.556 1.07-.663.348-.209.61-.34.862-.418.858-.274 1.74-.019 3.963 1.18 5.556 2.993 7.246 8.487 3.41 14.418-1.492 2.309-3.472 3.33-6.998 4.126l-.155.035c-.236.054-.437.1-1.052.228-2.37.507-3.456.824-4.59 1.454-1.488.827-2.505 2.05-3.08 3.866-.3.948-.614 1.87-.943 2.766h.412c.313-.859.612-1.741.897-2.646.546-1.724 1.497-2.869 2.9-3.65 1.09-.607 2.15-.912 4.486-1.411l.339-.072c.46-.098.6-.127.87-.191 3.616-.816 5.677-1.883 7.24-4.296 3.962-6.124 2.195-11.874-3.55-14.967-2.313-1.245-3.275-1.528-4.27-1.207-.281.09-.568.232-.939.453-.212.127-1.082.672-1.14.711v-.004a25.103 25.103 0 0 1-3.87 1.972c-.712.294-1.35.6-1.93.92a11.965 11.965 0 0 0-2.626 1.934c-.425.417-1.554 1.701-1.488 1.631-.882.944-1.64 1.3-3.163 1.3-2.332 0-3.469.591-4.768 2.138-.04.046-.182.22-.35.427-.24.292-.533.65-.667.806-.399.472-.835.911-1.303 1.315-.217.188-.437.35-.658.486Z"/><path fill="#fff" d="M0 58.407v.39c5.475-.81 8.96-.03 11.079 2.44 1.296 1.51.892 4.97-.417 8.762h.415c1.321-3.865 1.697-7.382.296-9.018C9.163 58.403 5.566 57.593 0 58.407Z"/><path fill="#fff" d="M0 60.807v.387c.219.002.443.006.674.011l1.5.04c1.5.042 2.103.057 2.865.057 2.556 0 3.758 1.044 3.963 3.016.153 1.431-.142 2.93-.955 5.681h.403c.805-2.732 1.093-4.243.94-5.72-.23-2.173-1.598-3.364-4.35-3.364-.759 0-1.358-.015-2.854-.058L.68 60.82c-.233-.005-.46-.01-.681-.012ZM4.627 69.999a5.544 5.544 0 0 0 .219-1.544c0-1.96-1.276-3.217-3.372-3.905A12.11 12.11 0 0 0 0 64.192v.383c.458.085.91.2 1.354.342 1.953.638 3.105 1.775 3.105 3.538A5.12 5.12 0 0 1 4.22 70h.408ZM70 13.368c-1.316.895-1.98 1.148-2.709 1.148-1.434 0-2.532 1.783-2.32 3.503.25 1.978 2.032 2.99 5.029 2.304v-.4l-.044.01c-2.812.662-4.381-.22-4.598-1.96-.193-1.516.766-3.07 1.933-3.07.783 0 1.45-.23 2.709-1.065v-.47Z"/><path fill="#fff" fill-rule="evenodd" d="M25.478 54.25c1.624-.372 2.567-1.648 2.567-3.852 0-4.547-5.452-5.282-8.08-1.778-1.73 2.304-1.706 3.306-.132 4.226.174.1.371.209.63.34l.73.364c1.362.68 3.009.993 4.285.7Zm-.65-7.394c1.721.236 2.83 1.493 2.83 3.542v-.004c0 2.034-.823 3.148-2.265 3.48-1.183.271-2.738-.027-4.03-.672l-.722-.36a16.868 16.868 0 0 1-.615-.329c-1.338-.785-1.357-1.52.248-3.661 1.078-1.439 2.919-2.216 4.554-1.996Z" clip-rule="evenodd"/><path fill="#fff" fill-rule="evenodd" d="M18.866 56.635c4.559 2.537 9.28 2.513 10.332-1.276l.003.004c1.424-5.131.72-8.87-2.822-10.285-2.003-.804-3.584-.661-5.413.278a19.39 19.39 0 0 0-1.516.89l-.785.502c-.563.37-1.141.719-1.732 1.044-3.403 1.89-2 6.662 1.933 8.843Zm.793-10.065a19.06 19.06 0 0 1 1.485-.87v.004c1.732-.897 3.197-1.024 5.092-.27 3.306 1.326 3.97 4.86 2.59 9.82-.958 3.454-5.401 3.477-9.774 1.045-3.708-2.057-5.004-6.465-1.934-8.167.302-.166.604-.344.92-.537a44.702 44.702 0 0 0 .836-.522l.785-.503Z" clip-rule="evenodd"/></svg>